<svg width="21" height="21" viewBox="0 0 21 21" fill="none" xmlns="http://www.w3.org/2000/svg">
<path d="M8.4917 11.5846C8.42576 11.5846 7.04249 11.585 6.40451 11.5844C6.07607 11.5842 5.95889 11.4662 5.95889 11.1356C5.95847 10.2866 5.95826 9.43756 5.95889 8.58853C5.9591 8.26219 6.083 8.13766 6.40724 8.13745C7.04522 8.13703 8.42093 8.13724 8.4917 8.13724C8.4917 8.07907 8.49149 6.8533 8.4917 6.28882C8.49212 5.45428 8.64101 4.65544 9.065 3.92401C9.49907 3.17536 10.1308 2.66254 10.9403 2.36602C11.4588 2.17597 11.997 2.10016 12.5472 2.09974C13.2356 2.09932 13.924 2.09995 14.6126 2.10121C14.9085 2.10163 15.0397 2.23246 15.0403 2.53045C15.0416 3.32908 15.0416 4.12771 15.0403 4.92613C15.0399 5.22727 14.9141 5.34823 14.6115 5.35159C14.0473 5.35768 13.4826 5.3539 12.9189 5.37658C12.3496 5.37658 12.0502 5.65462 12.0502 6.24388C12.0365 6.86716 12.0445 7.49107 12.0445 8.13703C12.0978 8.13703 13.718 8.13682 14.4752 8.13703C14.8192 8.13703 14.9368 8.25526 14.9368 8.60113C14.9368 9.44554 14.9366 10.2902 14.936 11.1346C14.9358 11.4754 14.8253 11.5842 14.4792 11.5844C13.722 11.5848 12.1081 11.5846 12.0376 11.5846V18.419C12.0376 18.7834 11.9229 18.8995 11.5634 18.8995C10.6868 18.8995 9.81008 18.8997 8.93354 18.8995C8.61581 18.8995 8.49191 18.776 8.49191 18.4583C8.4917 16.2325 8.4917 11.6627 8.4917 11.5846Z" fill="#3D6AD6"/>
</svg>
