<svg width="1304" height="1271" fill="none" xmlns="http://www.w3.org/2000/svg"><path d="M1055.61 495.543L156.902 725.178l21.16 81.658 508.519-129.438c12.536 49.603 26.706 105.153 30.885 121.688 29.061 112.407 140.005 180.361 247.403 152.235 108.381-27.832 172.111-141.037 142.781-252.432-3.91-17.547-52.04-203.346-52.04-203.346zm-26.43 222.601c17.44 67.445-21.43 134.525-85.47 151.518-65.032 16.699-130.794-24.707-148.496-91.138-4.179-16.535-18.348-72.085-30.884-121.688l78.736-20.269 30.884 121.688 78.736-20.268-30.884-121.688 78.738-20.268c10.56 49.015 24.46 105.579 28.64 122.113z" fill="#F5F5F5"/><rect x="35.721" y="268.345" width="924.458" height="416.198" rx="150" transform="rotate(-15 35.72 268.345)" fill="#F5F5F5"/><ellipse cx="283.211" cy="417.473" rx="124.559" ry="129.304" transform="rotate(-15 283.211 417.473)" fill="#fff"/><ellipse cx="790.789" cy="281.466" rx="124.559" ry="129.304" transform="rotate(-15 790.789 281.466)" fill="#fff"/><ellipse cx="345.928" cy="399.616" rx="59.36" ry="61.621" transform="rotate(-15 345.928 399.616)" fill="#F5F5F5"/><ellipse cx="853.504" cy="263.614" rx="59.36" ry="61.621" transform="rotate(-15 853.504 263.614)" fill="#F5F5F5"/></svg>