<svg width="640" height="537" fill="none" xmlns="http://www.w3.org/2000/svg"><path d="M365.194 23.788c59.014-23.192 125.262 6.124 147.969 64.48 23.191 59.013-6.124 125.262-64.48 147.968-59.014 23.192-125.262-6.124-147.969-64.48-23.191-59.013 5.553-125.348 64.48-147.968zM343.01 154.796c13.915 35.408 53.391 52.488 88.799 38.573 35.408-13.914 52.488-53.39 38.573-88.798-13.914-35.408-53.39-52.489-88.798-38.574-34.837 14.001-52.575 53.962-38.574 88.799zM88.249 131.979c59.013-23.191 125.262 6.124 147.968 64.48 23.192 59.013-6.124 125.262-64.48 147.968-59.013 23.192-125.261-6.124-147.968-64.48-23.191-59.013 6.124-125.261 64.48-147.968zm-21.7 131.665c13.915 35.408 53.391 52.489 88.799 38.574 35.408-13.915 52.488-53.39 38.574-88.798-13.915-35.409-53.391-52.489-88.799-38.574-35.322 13.343-52.488 53.39-38.574 88.798zm500.995-36.863L78.148 418.455l16.874 42.867L371.97 353.136c10.073 26.063 21.426 55.241 24.784 63.929 23.191 59.013 89.526 87.758 147.968 64.48 59.014-23.192 87.758-89.527 64.48-147.969-3.271-9.259-41.658-106.795-41.658-106.795zm-1.122 123.098c13.914 35.408-3.737 74.797-38.574 88.799-35.408 13.915-74.797-3.737-88.799-38.574-3.357-8.688-14.711-37.866-24.783-63.928l42.867-16.875 24.783 63.929 42.867-16.875L500 302.427l42.867-16.874c8.93 25.89 20.197 55.639 23.555 64.326z" fill="#F1F1F1"/><path d="M364.165 88.774c17.375-6.715 37.727 1.626 44.356 19.573 6.715 17.375-1.626 37.727-19.572 44.355-17.376 6.716-37.728-1.626-44.356-19.572-7.287-17.462 1.626-37.727 19.572-44.356zM87.218 196.969c17.376-6.715 37.728 1.626 44.356 19.572 6.715 17.376-1.626 37.728-19.572 44.356-17.375 6.715-37.727-1.626-44.356-19.572-6.715-17.375 2.197-37.641 19.572-44.356z" fill="#F1F1F1"/></svg>