<svg width="537" height="537" fill="none" xmlns="http://www.w3.org/2000/svg"><path fill-rule="evenodd" clip-rule="evenodd" d="M33.617 397.88C-20.473 299.969-6.836 182.317 59.8 99.878l355.979 198.603c7.209-35.776 7.71-72.469-8.904-105.001-17.57-34.405-41.15-58.669-76.624-73.966-35.455-15.289-71.483-21.203-108.542-10.39l-.062.019-10.385-35.528-7.851-26.862-10.385-35.527.042-.013a267.929 267.929 0 01181.228 11.152 267.938 267.938 0 01146.708 334.821l.004.002c-19.738 56.283-58.257 106.276-112.793 139.664a267.729 267.729 0 01-12.352 7.126c-58.222 31.59-123.271 39.382-183.677 26.449a268.151 268.151 0 01-25.278-6.71c-59.801-19.021-113.14-58.983-147.989-116.664a267.215 267.215 0 01-5.302-9.173z" fill="#F1F1F1"/></svg>