<svg width="1339" height="1325" viewBox="0 0 1339 1325" fill="none" xmlns="http://www.w3.org/2000/svg">
<path d="M1081.35 518.69L163.54 752.904L185.739 838.5L705.071 706.494C718.232 758.486 733.103 816.714 737.49 834.045C767.981 951.872 881.936 1023.73 991.612 995.03C1102.3 966.639 1166.72 848.606 1135.97 731.837C1131.85 713.448 1081.35 518.69 1081.35 518.69ZM1055.82 751.455C1074.12 822.151 1034.81 892.085 969.413 909.433C903 926.468 835.446 882.692 816.887 813.054C812.5 795.723 797.628 737.496 784.468 685.503L864.876 664.827L897.296 792.378L977.704 771.701L945.285 644.15L1025.69 623.474C1036.83 674.838 1051.44 734.124 1055.82 751.455Z" fill="#F5F5F5"/>
<rect x="36.4778" y="274.024" width="944.03" height="436.29" rx="150" transform="rotate(-15 36.4778 274.024)" fill="#F5F5F5"/>
<ellipse cx="290.668" cy="431.76" rx="127.196" ry="135.547" transform="rotate(-15 290.668 431.76)" fill="white"/>
<ellipse cx="808.993" cy="292.874" rx="127.196" ry="135.547" transform="rotate(-15 808.993 292.874)" fill="white"/>
<ellipse cx="354.705" cy="413.5" rx="60.6167" ry="64.5964" transform="rotate(-15 354.705 413.5)" fill="#F5F5F5"/>
<ellipse cx="873.027" cy="274.62" rx="60.6167" ry="64.5964" transform="rotate(-15 873.027 274.62)" fill="#F5F5F5"/>
</svg>
