<svg width="1049" height="1047" viewBox="0 0 1049 1047" fill="none" xmlns="http://www.w3.org/2000/svg">
<path fill-rule="evenodd" clip-rule="evenodd" d="M664.135 616.843L382.778 249.713C274.619 306.434 207.026 425.568 221.954 554.139C221.957 554.166 221.961 554.193 221.964 554.22C241.369 720.971 392.26 840.443 559.026 821.08C634.177 812.355 699.73 776.925 747.306 725.369L747.303 725.365C755.411 716.586 763.029 707.3 770.105 697.542C811.657 640.233 831.91 570.222 827.371 499.581C822.833 428.939 793.788 362.095 745.244 310.575C711.787 275.066 670.513 248.37 625.092 232.349C604.625 225.13 583.316 220.078 561.501 217.364L561.455 217.358L555.195 267.727L553.439 281.862L547.18 332.231L547.213 332.235C590.699 337.648 625.575 360.034 655.628 391.93C685.69 423.835 699.325 459.725 702.136 503.47C704.793 544.834 687.751 582.827 664.135 616.843ZM707.013 672.793L705.252 670.495C707.778 667.341 710.232 664.121 712.614 660.837C727.202 640.716 741.75 616.991 752.186 590.146C744.515 614.778 732.852 638.188 717.481 659.387C714.143 663.991 710.65 668.462 707.013 672.793Z" fill="#F1F1F1"/>
<circle cx="379.2" cy="470.868" r="73.8224" transform="rotate(-84.3502 379.2 470.868)" fill="#EBEBEB"/>
</svg>
