<svg width="543" height="669" viewBox="0 0 543 669" fill="none" xmlns="http://www.w3.org/2000/svg">
<path fill-rule="evenodd" clip-rule="evenodd" d="M129.171 480.259C126.813 482.967 124.19 485.397 121.352 487.522C115.069 492.227 107.738 495.433 99.9209 496.826C99.6947 496.867 99.4681 496.906 99.2412 496.943C96.4618 497.399 93.6652 497.62 90.8795 497.611C82.0239 497.581 73.2784 495.224 65.5474 490.708C65.3543 490.595 65.1622 490.481 64.9708 490.366C63.447 489.448 61.9784 488.454 60.5698 487.39L60.5683 487.391C56.3423 484.201 52.6054 480.343 49.5343 475.931L49.5453 475.921C47.085 472.384 45.0703 468.522 43.5697 464.418C43.2996 463.679 43.0473 462.936 42.8127 462.188C39.5377 451.749 39.7325 440.504 43.4052 430.153C45.2455 424.966 47.9051 420.155 51.2485 415.886L51.2346 415.899C54.4334 411.807 58.268 408.195 62.6315 405.229L62.5629 405.293C63.3997 404.722 64.2555 404.175 65.1295 403.653C72.1525 399.459 80.0396 397.06 88.1023 396.589C91.641 396.382 95.2136 396.547 98.7618 397.095C107.525 398.448 115.726 402.072 122.579 407.541L122.58 407.54C126.717 410.838 130.351 414.791 133.307 419.287L77.1654 471.852C80.1906 473.537 83.355 474.931 86.6186 475.758C89.6271 476.52 92.7198 476.801 95.8653 476.385C96.0924 476.355 96.3198 476.321 96.5475 476.284C100.246 475.677 103.554 474.629 106.547 473.008C109.273 471.53 111.738 469.576 113.996 467.043C114.078 466.95 114.161 466.857 114.243 466.763C116.776 463.854 118.846 460.765 120.261 457.422C121.518 454.451 122.258 451.279 122.345 447.854L122.346 447.84L124.964 447.906L133.868 448.129L141.587 448.322C141.523 450.895 141.263 453.444 140.815 455.951C139.235 464.791 135.319 473.096 129.415 479.977C129.334 480.072 129.253 480.166 129.171 480.259ZM65.4857 460.996L108.286 420.923C107.626 420.488 106.95 420.078 106.259 419.694C103.044 417.907 99.5152 416.687 95.8254 416.117C92.7663 415.645 89.6781 415.632 86.6578 416.06C82.5657 416.64 78.5985 418.029 74.998 420.179C72.2486 421.821 69.7888 423.861 67.6881 426.216C65.0073 429.221 62.9114 432.737 61.5449 436.589C60.257 440.218 59.904 443.236 60.2268 446.286C60.5149 449.007 61.3413 451.753 62.5218 454.982C62.7924 455.722 63.09 456.449 63.4135 457.162C64.0164 458.491 64.7094 459.772 65.4857 460.996Z" fill="#F9F9F9"/>
<path fill-rule="evenodd" clip-rule="evenodd" d="M365.499 313.009C363.141 315.717 360.518 318.147 357.68 320.272C351.397 324.977 344.066 328.183 336.249 329.576C336.023 329.617 335.796 329.656 335.569 329.693C332.79 330.149 329.993 330.37 327.207 330.361C318.352 330.331 309.606 327.974 301.875 323.458C301.682 323.345 301.49 323.231 301.299 323.116C299.775 322.198 298.307 321.205 296.899 320.141L296.898 320.141C292.672 316.951 288.935 313.093 285.864 308.681L285.874 308.672C283.413 305.134 281.398 301.272 279.898 297.168C279.628 296.429 279.375 295.686 279.141 294.938C275.866 284.499 276.06 273.254 279.733 262.903C281.572 257.719 284.23 252.911 287.571 248.643L287.564 248.649C290.763 244.557 294.598 240.945 298.961 237.979L298.898 238.038C299.733 237.469 300.586 236.924 301.457 236.403C308.48 232.209 316.367 229.81 324.43 229.339C327.969 229.132 331.542 229.297 335.09 229.845C343.853 231.198 352.055 234.822 358.908 240.291L358.91 240.29C363.047 243.588 366.681 247.541 369.637 252.037L313.494 304.602C316.519 306.287 319.683 307.681 322.947 308.508C325.955 309.27 329.048 309.551 332.193 309.135C332.42 309.105 332.648 309.071 332.875 309.034C336.574 308.427 339.882 307.379 342.874 305.758C345.601 304.28 348.065 302.326 350.324 299.793C350.406 299.7 350.489 299.607 350.571 299.513C353.104 296.604 355.174 293.515 356.589 290.172C357.846 287.201 358.586 284.029 358.673 280.604L358.674 280.59L361.292 280.656L370.196 280.879L377.915 281.072C377.851 283.645 377.591 286.194 377.143 288.701C375.563 297.541 371.647 305.846 365.743 312.727C365.662 312.822 365.581 312.916 365.499 313.009ZM301.814 293.748L344.615 253.674C343.955 253.238 343.278 252.828 342.587 252.444C339.372 250.657 335.843 249.437 332.153 248.867C329.094 248.395 326.006 248.382 322.986 248.81C318.894 249.39 314.926 250.779 311.326 252.929C308.576 254.571 306.117 256.611 304.016 258.966C301.335 261.971 299.239 265.487 297.873 269.339C296.585 272.968 296.232 275.986 296.555 279.036C296.843 281.757 297.669 284.503 298.85 287.732C299.12 288.472 299.418 289.199 299.741 289.912C300.344 291.242 301.038 292.523 301.814 293.748Z" fill="#F9F9F9"/>
<path fill-rule="evenodd" clip-rule="evenodd" d="M169.165 642.056C166.807 644.764 164.184 647.194 161.346 649.319C155.063 654.024 147.732 657.23 139.915 658.623C139.689 658.664 139.462 658.702 139.235 658.74C136.456 659.196 133.659 659.417 130.873 659.408C122.018 659.378 113.272 657.021 105.541 652.504C105.348 652.392 105.156 652.278 104.965 652.162C103.441 651.245 101.972 650.251 100.563 649.186L100.562 649.187C96.3362 645.997 92.5994 642.139 89.5283 637.727L89.5388 637.717C87.0787 634.18 85.0642 630.319 83.5637 626.215C83.2935 625.476 83.0412 624.733 82.8067 623.985C79.5316 613.545 79.7264 602.301 83.3992 591.95C85.24 586.761 87.9005 581.95 91.2453 577.68L91.2285 577.695C94.4273 573.603 98.262 569.991 102.625 567.025L102.553 567.092C103.391 566.521 104.248 565.973 105.123 565.45C112.146 561.256 120.034 558.857 128.096 558.386C131.635 558.179 135.208 558.344 138.756 558.892C147.519 560.245 155.719 563.869 162.573 569.337L162.574 569.336C166.711 572.634 170.345 576.587 173.301 581.083L117.159 633.648C120.184 635.334 123.349 636.727 126.613 637.555C129.621 638.317 132.714 638.598 135.859 638.182C136.086 638.152 136.314 638.118 136.541 638.081C140.24 637.473 143.548 636.426 146.54 634.805C149.267 633.327 151.732 631.373 153.99 628.839C154.072 628.747 154.155 628.654 154.237 628.559C156.77 625.651 158.84 622.562 160.255 619.219C161.512 616.248 162.252 613.076 162.339 609.651L162.34 609.637L164.958 609.703L173.862 609.926L181.581 610.119C181.517 612.691 181.257 615.241 180.809 617.748C179.229 626.587 175.313 634.893 169.409 641.774C169.328 641.868 169.247 641.963 169.165 642.056ZM105.479 622.793L148.279 582.72C147.619 582.284 146.943 581.875 146.253 581.491C143.038 579.704 139.509 578.484 135.819 577.914C132.76 577.442 129.672 577.429 126.652 577.857C122.56 578.437 118.592 579.825 114.992 581.976C112.243 583.617 109.783 585.658 107.682 588.013C105.001 591.018 102.905 594.534 101.539 598.386C100.251 602.015 99.898 605.033 100.221 608.082C100.509 610.804 101.335 613.55 102.516 616.778C102.786 617.518 103.084 618.246 103.407 618.959C104.01 620.288 104.703 621.569 105.479 622.793Z" fill="#F9F9F9"/>
<path fill-rule="evenodd" clip-rule="evenodd" d="M405.495 456.627C403.137 459.334 400.514 461.765 397.676 463.889C391.393 468.594 384.062 471.8 376.245 473.194C376.019 473.234 375.792 473.273 375.565 473.31C372.786 473.766 369.989 473.987 367.204 473.978C358.348 473.948 349.602 471.591 341.871 467.075C341.678 466.962 341.486 466.848 341.295 466.733C339.771 465.815 338.302 464.821 336.894 463.757L336.892 463.758C332.666 460.568 328.929 456.71 325.858 452.299L325.869 452.288C323.409 448.751 321.394 444.889 319.894 440.785C319.624 440.047 319.371 439.303 319.137 438.555C315.862 428.116 316.056 416.871 319.729 406.52C321.57 401.333 324.229 396.523 327.572 392.254L327.559 392.267C330.757 388.175 334.592 384.562 338.956 381.596L338.887 381.66C339.724 381.089 340.58 380.543 341.453 380.021C348.477 375.827 356.364 373.427 364.426 372.956C367.965 372.75 371.538 372.914 375.086 373.462C383.849 374.815 392.05 378.439 398.903 383.908L398.904 383.908C403.041 387.205 406.675 391.158 409.631 395.654L353.489 448.219C356.515 449.904 359.679 451.298 362.943 452.125C365.951 452.887 369.044 453.168 372.189 452.752C372.416 452.722 372.644 452.689 372.871 452.651C376.57 452.044 379.878 450.997 382.871 449.375C385.597 447.898 388.062 445.943 390.32 443.41C390.402 443.317 390.485 443.224 390.567 443.13C393.1 440.221 395.17 437.132 396.585 433.789C397.842 430.818 398.582 427.647 398.669 424.221L398.67 424.208L401.288 424.273L410.192 424.496L417.911 424.689C417.847 427.262 417.587 429.812 417.139 432.319C415.559 441.158 411.643 449.464 405.739 456.344C405.658 456.439 405.577 456.533 405.495 456.627ZM341.81 437.364L384.61 397.29C383.95 396.855 383.274 396.445 382.583 396.061C379.368 394.274 375.839 393.054 372.149 392.484C369.09 392.012 366.002 391.999 362.982 392.427C358.89 393.007 354.922 394.396 351.322 396.546C348.573 398.188 346.113 400.228 344.012 402.583C341.331 405.588 339.235 409.105 337.869 412.956C336.581 416.586 336.228 419.604 336.551 422.653C336.839 425.374 337.665 428.12 338.846 431.349C339.116 432.089 339.414 432.816 339.737 433.529C340.34 434.859 341.033 436.139 341.81 437.364Z" fill="#F9F9F9"/>
<path fill-rule="evenodd" clip-rule="evenodd" d="M98.2668 331.189C95.9089 333.897 93.2853 336.327 90.4479 338.452C84.165 343.157 76.8336 346.363 69.0164 347.756C68.7902 347.796 68.5636 347.835 68.3367 347.873C65.5573 348.329 62.7607 348.55 59.975 348.541C51.1194 348.511 42.3739 346.154 34.6429 341.637C34.4498 341.524 34.2577 341.41 34.0663 341.295C32.5425 340.378 31.0739 339.384 29.6653 338.319L29.6638 338.321C25.4378 335.13 21.7009 331.273 18.6298 326.861L18.6408 326.851C16.1805 323.313 14.1658 319.452 12.6652 315.348C12.3951 314.609 12.1428 313.866 11.9082 313.118C8.63319 302.678 8.82798 291.434 12.5007 281.082C14.341 275.896 17.0006 271.085 20.344 266.816L20.3301 266.829C23.5289 262.737 27.3635 259.125 31.727 256.158L31.6583 256.223C32.4952 255.652 33.351 255.105 34.225 254.583C41.248 250.389 49.1351 247.99 57.1978 247.519C60.7365 247.312 64.3091 247.477 67.8573 248.025C76.6205 249.377 84.8213 253.002 91.675 258.47L91.6751 258.47C95.8122 261.767 99.4466 265.721 102.403 270.217L46.2608 322.781C49.2861 324.467 52.4505 325.86 55.7141 326.687C58.7226 327.45 61.8153 327.731 64.9608 327.315C65.1879 327.285 65.4153 327.251 65.643 327.214C69.3418 326.606 72.6499 325.559 75.642 323.938C78.3688 322.46 80.8331 320.506 83.0914 317.972C83.1739 317.88 83.2562 317.786 83.3381 317.692C85.8715 314.784 87.9417 311.695 89.3566 308.351C90.6137 305.381 91.3534 302.209 91.4409 298.784L91.4412 298.77L94.0599 298.836L102.964 299.059L110.683 299.252C110.618 301.824 110.358 304.374 109.91 306.881C108.33 315.72 104.415 324.026 98.5108 330.907C98.4299 331.001 98.3485 331.095 98.2668 331.189ZM34.5812 311.926L77.3816 271.853C76.7214 271.418 76.0453 271.007 75.3546 270.624C72.1395 268.836 68.6107 267.616 64.9208 267.047C61.8618 266.575 58.7736 266.562 55.7533 266.99C51.6612 267.57 47.694 268.958 44.0935 271.108C41.3441 272.75 38.8842 274.791 36.7835 277.146C34.1028 280.151 32.0068 283.667 30.6404 287.518C29.3525 291.148 28.9995 294.166 29.3223 297.215C29.6104 299.937 30.4368 302.683 31.6173 305.911C31.8879 306.651 32.1855 307.379 32.509 308.092C33.1119 309.421 33.8049 310.702 34.5812 311.926Z" fill="#F9F9F9"/>
<path fill-rule="evenodd" clip-rule="evenodd" d="M334.597 163.941C332.239 166.648 329.615 169.079 326.778 171.204C320.495 175.909 313.164 179.115 305.346 180.508C305.12 180.548 304.894 180.587 304.667 180.624C301.887 181.081 299.091 181.302 296.305 181.292C287.449 181.263 278.704 178.906 270.973 174.389C270.78 174.276 270.588 174.162 270.396 174.047C268.873 173.13 267.405 172.136 265.996 171.072L265.996 171.073C261.77 167.882 258.033 164.025 254.962 159.613L254.972 159.604C252.511 156.066 250.496 152.204 248.995 148.1C248.725 147.361 248.473 146.618 248.238 145.87C244.963 135.43 245.158 124.186 248.831 113.834C250.67 108.65 253.328 103.842 256.669 99.5749L256.662 99.5811C259.861 95.4891 263.696 91.8767 268.059 88.9103L267.996 88.9697C268.83 88.4007 269.684 87.8555 270.555 87.3351C277.578 83.1411 285.465 80.7415 293.528 80.2706C297.067 80.064 300.639 80.2288 304.187 80.7766C312.951 82.1294 321.152 85.7541 328.006 91.2231L328.007 91.2221C332.144 94.5193 335.779 98.4725 338.735 102.969L282.592 155.534C285.617 157.219 288.781 158.612 292.044 159.439C295.053 160.202 298.145 160.483 301.291 160.067C301.518 160.037 301.745 160.003 301.973 159.966C305.672 159.358 308.98 158.311 311.972 156.69C314.699 155.212 317.163 153.258 319.422 150.724C319.504 150.632 319.586 150.538 319.668 150.444C322.202 147.535 324.272 144.447 325.687 141.103C326.944 138.133 327.683 134.961 327.771 131.536L327.771 131.522L330.39 131.588L339.294 131.811L347.013 132.004C346.948 134.576 346.688 137.126 346.24 139.633C344.66 148.472 340.745 156.778 334.841 163.659C334.76 163.753 334.679 163.847 334.597 163.941ZM270.912 144.679L313.713 104.606C313.052 104.17 312.376 103.76 311.685 103.375C308.47 101.588 304.941 100.368 301.251 99.7988C298.192 99.3266 295.104 99.3139 292.083 99.7418C287.991 100.322 284.024 101.71 280.424 103.86C277.674 105.502 275.214 107.543 273.114 109.898C270.433 112.903 268.337 116.419 266.97 120.27C265.683 123.9 265.33 126.918 265.652 129.967C265.94 132.689 266.767 135.435 267.947 138.663C268.218 139.403 268.516 140.13 268.839 140.844C269.442 142.174 270.135 143.455 270.912 144.679Z" fill="#F9F9F9"/>
<path fill-rule="evenodd" clip-rule="evenodd" d="M169.684 326.899C172.042 324.191 174.666 321.761 177.503 319.636C183.786 314.931 191.118 311.725 198.935 310.332C199.161 310.291 199.388 310.253 199.614 310.215C202.394 309.759 205.19 309.538 207.976 309.547C216.832 309.577 225.577 311.934 233.308 316.451C233.501 316.563 233.694 316.677 233.885 316.793C235.409 317.71 236.877 318.704 238.286 319.769L238.287 319.767C242.513 322.958 246.25 326.815 249.321 331.227L249.31 331.237C251.771 334.775 253.785 338.636 255.286 342.74C255.556 343.479 255.808 344.222 256.043 344.97C259.318 355.41 259.123 366.654 255.45 377.006C253.61 382.192 250.951 387.003 247.607 391.272L247.621 391.259C244.422 395.351 240.588 398.963 236.224 401.929L236.293 401.865C235.456 402.436 234.6 402.983 233.726 403.505C226.703 407.699 218.816 410.098 210.753 410.569C207.215 410.776 203.642 410.611 200.094 410.063C191.331 408.711 183.13 405.086 176.276 399.618L176.276 399.618C172.139 396.321 168.505 392.367 165.549 387.871L221.69 335.307C218.665 333.621 215.501 332.228 212.237 331.401C209.229 330.638 206.136 330.357 202.99 330.773C202.763 330.803 202.536 330.837 202.308 330.874C198.609 331.482 195.301 332.529 192.309 334.15C189.582 335.628 187.118 337.582 184.86 340.116C184.777 340.208 184.695 340.302 184.613 340.396C182.08 343.304 180.009 346.393 178.595 349.737C177.337 352.707 176.598 355.879 176.51 359.304L176.51 359.318L173.891 359.252L164.987 359.029L157.268 358.836C157.333 356.264 157.593 353.714 158.041 351.207C159.621 342.368 163.536 334.062 169.44 327.181C169.521 327.087 169.603 326.993 169.684 326.899ZM233.37 346.162L190.57 386.235C191.23 386.67 191.906 387.08 192.597 387.464C195.812 389.251 199.34 390.471 203.03 391.041C206.089 391.513 209.178 391.526 212.198 391.098C216.29 390.518 220.257 389.13 223.858 386.98C226.607 385.338 229.067 383.297 231.168 380.942C233.848 377.937 235.944 374.421 237.311 370.569C238.599 366.94 238.952 363.922 238.629 360.873C238.341 358.151 237.514 355.405 236.334 352.177C236.063 351.437 235.766 350.709 235.442 349.996C234.839 348.667 234.146 347.386 233.37 346.162Z" fill="#F9F9F9"/>
<path fill-rule="evenodd" clip-rule="evenodd" d="M400.561 165.104C402.919 162.396 405.543 159.966 408.38 157.841C414.663 153.136 421.994 149.93 429.812 148.537C430.038 148.496 430.264 148.458 430.491 148.42C433.271 147.964 436.067 147.743 438.853 147.752C447.709 147.782 456.454 150.139 464.185 154.656C464.378 154.769 464.57 154.883 464.762 154.998C466.285 155.915 467.753 156.908 469.161 157.972L469.162 157.971C473.388 161.162 477.125 165.019 480.196 169.431L480.186 169.44C482.647 172.978 484.662 176.841 486.163 180.945C486.433 181.684 486.685 182.427 486.92 183.175C490.195 193.615 490 204.859 486.327 215.211C484.489 220.393 481.832 225.2 478.492 229.466L478.496 229.463C475.297 233.555 471.463 237.167 467.099 240.134L467.159 240.078C466.325 240.646 465.473 241.19 464.603 241.71C457.58 245.904 449.693 248.303 441.63 248.774C438.092 248.981 434.519 248.816 430.971 248.268C422.207 246.915 414.006 243.291 407.152 237.821L407.151 237.822C403.014 234.525 399.38 230.571 396.424 226.075L452.565 173.511C449.541 171.826 446.377 170.433 443.114 169.606C440.106 168.843 437.013 168.562 433.867 168.978C433.64 169.008 433.413 169.042 433.185 169.079C429.486 169.687 426.178 170.734 423.186 172.355C420.459 173.833 417.995 175.787 415.737 178.321C415.654 178.413 415.572 178.507 415.49 178.601C412.957 181.509 410.886 184.598 409.472 187.942C408.214 190.912 407.475 194.084 407.387 197.509L407.387 197.523L404.768 197.457L395.864 197.234L388.145 197.041C388.21 194.469 388.47 191.919 388.918 189.412C390.498 180.573 394.413 172.267 400.317 165.386C400.398 165.292 400.48 165.198 400.561 165.104ZM464.246 184.365L421.445 224.439C422.106 224.875 422.782 225.285 423.474 225.669C426.689 227.457 430.217 228.677 433.907 229.246C436.966 229.718 440.055 229.731 443.075 229.303C447.167 228.723 451.134 227.335 454.735 225.185C457.484 223.543 459.944 221.502 462.045 219.147C464.725 216.142 466.821 212.626 468.188 208.775C469.476 205.145 469.829 202.127 469.506 199.078C469.218 196.356 468.391 193.61 467.211 190.382C466.94 189.642 466.643 188.914 466.319 188.201C465.716 186.871 465.023 185.59 464.246 184.365Z" fill="#F9F9F9"/>
<path fill-rule="evenodd" clip-rule="evenodd" d="M209.68 470.516C212.038 467.809 214.662 465.378 217.499 463.253C223.782 458.548 231.114 455.342 238.931 453.949C239.157 453.909 239.384 453.87 239.611 453.833C242.39 453.376 245.187 453.155 247.972 453.165C256.828 453.194 265.573 455.551 273.304 460.068C273.497 460.181 273.69 460.295 273.881 460.41C275.404 461.327 276.873 462.321 278.281 463.385L278.282 463.384C282.508 466.575 286.244 470.432 289.315 474.844L289.306 474.853C291.766 478.391 293.781 482.253 295.282 486.357C295.552 487.096 295.804 487.84 296.039 488.587C299.314 499.027 299.119 510.271 295.447 520.623C293.607 525.807 290.95 530.615 287.609 534.882L287.615 534.876C284.416 538.968 280.582 542.58 276.218 545.547L276.282 545.487C275.447 546.056 274.594 546.602 273.722 547.122C266.699 551.316 258.812 553.716 250.749 554.186C247.211 554.393 243.638 554.228 240.09 553.68C231.326 552.328 223.125 548.703 216.271 543.234L216.27 543.235C212.133 539.938 208.499 535.985 205.543 531.488L261.685 478.923C258.66 477.238 255.496 475.845 252.233 475.018C249.225 474.255 246.132 473.974 242.987 474.39C242.759 474.42 242.532 474.454 242.304 474.491C238.606 475.099 235.297 476.146 232.305 477.767C229.579 479.245 227.114 481.199 224.856 483.733C224.773 483.825 224.691 483.919 224.609 484.013C222.076 486.922 220.006 490.01 218.591 493.354C217.334 496.324 216.594 499.496 216.506 502.921L216.506 502.935L213.887 502.869L204.983 502.646L197.264 502.453C197.329 499.881 197.589 497.331 198.037 494.824C199.617 485.985 203.532 477.679 209.436 470.798C209.517 470.704 209.599 470.61 209.68 470.516ZM273.365 489.778L230.565 529.851C231.225 530.287 231.902 530.697 232.593 531.082C235.808 532.869 239.337 534.089 243.026 534.658C246.085 535.13 249.174 535.143 252.194 534.715C256.286 534.135 260.253 532.747 263.854 530.597C266.603 528.955 269.063 526.914 271.164 524.559C273.844 521.554 275.94 518.038 277.307 514.187C278.595 510.557 278.948 507.539 278.625 504.49C278.337 501.769 277.51 499.022 276.33 495.794C276.059 495.054 275.762 494.327 275.438 493.613C274.835 492.284 274.142 491.002 273.365 489.778Z" fill="#F9F9F9"/>
<path fill-rule="evenodd" clip-rule="evenodd" d="M444.19 303.268C446.548 300.561 449.172 298.13 452.009 296.005C458.292 291.3 465.623 288.094 473.441 286.701C473.667 286.661 473.893 286.622 474.12 286.584C476.9 286.128 479.696 285.907 482.482 285.917C491.338 285.946 500.083 288.303 507.814 292.82C508.007 292.933 508.199 293.047 508.391 293.162C509.915 294.079 511.383 295.073 512.792 296.138L512.793 296.136C517.019 299.327 520.756 303.184 523.827 307.596L523.816 307.606C526.277 311.144 528.291 315.005 529.792 319.109C530.062 319.848 530.314 320.591 530.549 321.339C533.824 331.779 533.629 343.023 529.956 353.375C528.116 358.561 525.456 363.372 522.113 367.641L522.127 367.628C518.928 371.72 515.094 375.332 510.73 378.299L510.799 378.234C509.962 378.805 509.106 379.352 508.232 379.874C501.209 384.068 493.322 386.467 485.259 386.938C481.72 387.145 478.148 386.98 474.6 386.432C465.836 385.08 457.636 381.455 450.782 375.987L450.782 375.987C446.645 372.69 443.01 368.736 440.054 364.24L496.196 311.676C493.171 309.99 490.006 308.597 486.743 307.77C483.734 307.007 480.642 306.726 477.496 307.142C477.269 307.172 477.042 307.206 476.814 307.243C473.115 307.851 469.807 308.898 466.815 310.519C464.088 311.997 461.624 313.951 459.366 316.485C459.283 316.577 459.201 316.671 459.119 316.765C456.586 319.674 454.515 322.762 453.1 326.106C451.843 329.076 451.104 332.248 451.016 335.673L451.016 335.687L448.397 335.621L439.493 335.398L431.774 335.205C431.839 332.633 432.099 330.083 432.547 327.576C434.127 318.737 438.042 310.431 443.946 303.55C444.027 303.456 444.108 303.362 444.19 303.268ZM507.876 322.531L465.075 362.604C465.736 363.04 466.412 363.45 467.102 363.834C470.317 365.621 473.846 366.841 477.536 367.41C480.595 367.882 483.683 367.895 486.704 367.467C490.796 366.887 494.763 365.499 498.364 363.349C501.113 361.707 503.573 359.666 505.673 357.311C508.354 354.306 510.45 350.79 511.817 346.939C513.105 343.309 513.458 340.291 513.135 337.242C512.847 334.52 512.02 331.774 510.84 328.546C510.569 327.806 510.272 327.079 509.948 326.365C509.345 325.036 508.652 323.755 507.876 322.531Z" fill="#F9F9F9"/>
<path fill-rule="evenodd" clip-rule="evenodd" d="M138.78 177.83C141.138 175.123 143.762 172.693 146.599 170.568C152.882 165.863 160.213 162.657 168.03 161.263C168.257 161.223 168.483 161.184 168.71 161.147C171.49 160.691 174.286 160.47 177.072 160.479C185.927 160.509 194.673 162.866 202.404 167.382C202.597 167.495 202.789 167.609 202.981 167.724C204.504 168.642 205.972 169.635 207.38 170.699L207.381 170.699C211.607 173.889 215.344 177.747 218.415 182.158L218.405 182.168C220.866 185.705 222.881 189.567 224.382 193.672C224.652 194.41 224.904 195.154 225.139 195.902C228.414 206.341 228.219 217.586 224.546 227.937C222.707 233.121 220.049 237.929 216.708 242.197L216.715 242.19C213.516 246.282 209.681 249.895 205.318 252.861L205.381 252.802C204.547 253.371 203.693 253.916 202.822 254.436C195.799 258.63 187.912 261.03 179.849 261.501C176.31 261.708 172.738 261.543 169.19 260.995C160.426 259.642 152.225 256.017 145.371 250.548L145.37 250.549C141.233 247.252 137.598 243.299 134.642 238.803L190.785 186.238C187.76 184.553 184.596 183.159 181.333 182.332C178.324 181.57 175.232 181.289 172.086 181.705C171.859 181.735 171.632 181.768 171.404 181.806C167.705 182.413 164.397 183.46 161.405 185.082C158.678 186.559 156.214 188.514 153.955 191.047C153.873 191.14 153.791 191.233 153.709 191.327C151.175 194.236 149.105 197.325 147.69 200.668C146.433 203.639 145.693 206.81 145.606 210.236L145.606 210.249L142.987 210.184L134.083 209.961L126.364 209.768C126.428 207.195 126.689 204.645 127.137 202.138C128.717 193.299 132.632 184.993 138.536 178.113C138.617 178.018 138.698 177.924 138.78 177.83ZM202.465 197.092L159.664 237.166C160.325 237.602 161.001 238.012 161.692 238.396C164.907 240.183 168.436 241.403 172.126 241.973C175.185 242.445 178.273 242.458 181.294 242.03C185.386 241.45 189.353 240.061 192.953 237.911C195.703 236.269 198.163 234.229 200.263 231.874C202.944 228.869 205.04 225.352 206.407 221.501C207.694 217.871 208.047 214.853 207.725 211.804C207.436 209.083 206.61 206.337 205.43 203.108C205.159 202.368 204.861 201.641 204.538 200.928C203.935 199.598 203.242 198.317 202.465 197.092Z" fill="#F9F9F9"/>
<path fill-rule="evenodd" clip-rule="evenodd" d="M369.657 26.9417C372.015 24.2343 374.639 21.8038 377.476 19.6791C383.759 14.9741 391.09 11.7681 398.907 10.3747C399.134 10.3344 399.36 10.2956 399.587 10.2583C402.366 9.80191 405.163 9.58099 407.949 9.59036C416.804 9.62012 425.55 11.977 433.281 16.4937C433.474 16.6064 433.666 16.7204 433.857 16.8356C435.381 17.7529 436.849 18.7462 438.257 19.8102L438.258 19.8091C442.484 22.9995 446.221 26.8572 449.292 31.2688L449.282 31.2783C451.743 34.8163 453.758 38.6786 455.259 42.783C455.529 43.5218 455.781 44.2653 456.016 45.0129C459.291 55.4526 459.096 66.6971 455.423 77.0485C453.584 82.231 450.928 87.0379 447.588 91.3043L447.592 91.3008C444.393 95.3927 440.558 99.0051 436.195 101.971L436.255 101.916C435.421 102.484 434.569 103.028 433.699 103.548C426.676 107.742 418.789 110.141 410.726 110.612C407.187 110.819 403.615 110.654 400.067 110.106C391.303 108.753 383.101 105.129 376.247 99.6593L376.247 99.6597C372.11 96.3625 368.475 92.4093 365.519 87.9131L421.661 35.3485C418.636 33.6637 415.473 32.2704 412.21 31.4435C409.201 30.6811 406.109 30.4001 402.963 30.8161C402.736 30.8461 402.509 30.8798 402.281 30.9172C398.582 31.5246 395.274 32.5717 392.282 34.1931C389.555 35.6707 387.091 37.6252 384.832 40.1587C384.75 40.2512 384.668 40.3445 384.586 40.4386C382.052 43.3473 379.982 46.436 378.567 49.7795C377.31 52.7501 376.57 55.9218 376.483 59.3472L376.483 59.3607L373.864 59.2952L364.96 59.0723L357.241 58.8791C357.305 56.3066 357.566 53.7567 358.014 51.2497C359.593 42.4107 363.509 34.1047 369.413 27.2239C369.494 27.1296 369.575 27.0355 369.657 26.9417ZM433.341 46.203L390.54 86.2768C391.201 86.7126 391.878 87.1231 392.569 87.5073C395.784 89.2944 399.313 90.5144 403.003 91.084C406.062 91.5562 409.15 91.5689 412.171 91.141C416.263 90.5612 420.23 89.1727 423.83 87.0225C426.58 85.3806 429.04 83.3399 431.14 80.9851C433.821 77.9802 435.917 74.4638 437.283 70.6124C438.571 66.9827 438.924 63.9648 438.602 60.9156C438.313 58.1943 437.487 55.448 436.307 52.2196C436.036 51.4796 435.738 50.7523 435.415 50.039C434.812 48.7091 434.118 47.4277 433.341 46.203Z" fill="#F9F9F9"/>
</svg>
