<svg width="299" height="359" viewBox="0 0 299 359" fill="none" xmlns="http://www.w3.org/2000/svg">
<path fill-rule="evenodd" clip-rule="evenodd" d="M23.5504 254.247C22.6305 251.315 22.2083 248.267 22.2843 245.228C22.3572 242.316 22.8877 239.412 23.8764 236.625C24.8882 233.774 26.3502 231.129 28.188 228.781L28.1843 228.785C29.9438 226.534 32.0531 224.547 34.4532 222.915L34.4183 222.948C34.8774 222.635 35.3469 222.335 35.8264 222.049C38.8467 220.245 42.1576 219.045 45.578 218.483C45.7027 218.463 45.8276 218.443 45.9527 218.424C46.7843 218.299 47.622 218.212 48.4632 218.163C50.4098 218.049 52.375 218.14 54.3268 218.441C57.6802 218.959 60.8839 220.081 63.7925 221.729C63.8995 221.79 64.006 221.851 64.1121 221.913C65.2691 222.589 66.3778 223.349 67.4289 224.187L67.4295 224.187C69.7051 226.001 71.7043 228.175 73.3302 230.648L42.4474 259.563C44.1114 260.49 45.852 261.257 47.6471 261.712C49.302 262.131 51.0032 262.286 52.7334 262.057C52.8584 262.04 52.9835 262.022 53.1087 262.001C55.1433 261.667 56.9631 261.091 58.609 260.199C60.1089 259.386 61.4644 258.311 62.7067 256.918C62.7521 256.867 62.7973 256.815 62.8424 256.764C64.236 255.164 65.3748 253.465 66.1531 251.625C66.8445 249.991 67.2514 248.247 67.2996 246.362L67.2997 246.355L73.6381 246.514L77.8841 246.62C77.8487 248.035 77.7055 249.438 77.4591 250.817C77.1907 252.318 76.7998 253.792 76.2921 255.223C75.1555 258.426 73.4334 261.417 71.1886 264.033C71.144 264.085 71.0993 264.136 71.0544 264.188C69.7573 265.677 68.3141 267.014 66.7534 268.183C65.9775 268.764 65.1725 269.304 64.342 269.799C61.4731 271.513 58.2991 272.707 54.9643 273.301C54.8399 273.323 54.7153 273.345 54.5905 273.365C51.6729 273.844 48.7207 273.852 45.8416 273.407C42.416 272.878 39.0938 271.71 36.0563 269.935C35.9501 269.873 35.8444 269.811 35.7391 269.747C34.901 269.242 34.0933 268.696 33.3185 268.11L33.3182 268.111C30.9936 266.356 28.9382 264.234 27.2489 261.807L27.2543 261.802C25.9008 259.856 24.7924 257.732 23.9669 255.474C23.8183 255.068 23.6795 254.659 23.5504 254.247ZM36.0227 253.592L59.5665 231.549C59.3058 231.377 59.0406 231.212 58.7712 231.055C58.6651 230.993 58.5583 230.932 58.4509 230.872C56.6823 229.889 54.7412 229.218 52.7115 228.905C51.0288 228.645 49.33 228.638 47.6686 228.873C47.5434 228.891 47.4184 228.91 47.2936 228.931C45.1755 229.279 43.1252 230.022 41.2548 231.139C39.7424 232.042 38.3893 233.165 37.2338 234.46C37.1883 234.511 37.143 234.562 37.0981 234.614C35.6883 236.233 34.583 238.113 33.8546 240.166C33.1461 242.162 32.952 243.822 33.1295 245.5C33.288 246.997 33.7426 248.507 34.392 250.283C34.5408 250.69 34.7045 251.09 34.8825 251.483C35.2142 252.214 35.5955 252.919 36.0227 253.592Z" fill="#E40421"/>
<path fill-rule="evenodd" clip-rule="evenodd" d="M153.55 162.247C152.631 159.315 152.208 156.267 152.284 153.228C152.357 150.316 152.888 147.412 153.876 144.625C154.889 141.771 156.353 139.124 158.193 136.775L158.19 136.778C159.946 134.532 162.051 132.549 164.446 130.92L164.411 130.953C164.873 130.638 165.344 130.337 165.826 130.049C168.847 128.245 172.158 127.045 175.578 126.483C175.703 126.463 175.828 126.443 175.953 126.424C176.784 126.299 177.622 126.212 178.463 126.163C180.41 126.049 182.375 126.14 184.327 126.441C187.68 126.959 190.884 128.081 193.793 129.729C193.899 129.79 194.006 129.851 194.112 129.913C195.269 130.589 196.377 131.348 197.428 132.187L197.428 132.186C199.704 134 201.704 136.174 203.33 138.648L172.447 167.563C174.111 168.49 175.852 169.257 177.647 169.712C179.302 170.131 181.003 170.286 182.733 170.057C182.858 170.04 182.983 170.022 183.109 170.001C185.143 169.667 186.963 169.091 188.609 168.199C190.109 167.386 191.464 166.311 192.707 164.918C192.752 164.867 192.797 164.815 192.842 164.764C194.236 163.164 195.375 161.465 196.153 159.625C196.845 157.991 197.251 156.247 197.3 154.362L197.3 154.355L203.638 154.514L207.884 154.62C207.849 156.035 207.706 157.438 207.459 158.817C207.191 160.318 206.8 161.792 206.292 163.223C205.156 166.426 203.433 169.417 201.189 172.033C201.144 172.085 201.099 172.136 201.054 172.188C199.757 173.677 198.314 175.014 196.753 176.183C195.977 176.764 195.173 177.304 194.342 177.799C191.473 179.513 188.299 180.707 184.964 181.301C184.84 181.323 184.715 181.345 184.59 181.365C181.673 181.844 178.721 181.852 175.842 181.407C172.416 180.878 169.094 179.71 166.056 177.935C165.95 177.873 165.844 177.811 165.739 177.747C164.901 177.242 164.093 176.696 163.318 176.11L163.318 176.11C160.993 174.355 158.937 172.233 157.248 169.806L157.254 169.801C155.9 167.855 154.792 165.731 153.967 163.474C153.818 163.068 153.679 162.659 153.55 162.247ZM166.022 161.591L189.565 139.548C189.305 139.376 189.04 139.212 188.771 139.055C188.665 138.993 188.558 138.932 188.451 138.872C186.682 137.889 184.741 137.218 182.711 136.905C181.029 136.645 179.33 136.638 177.669 136.873C177.543 136.891 177.418 136.91 177.294 136.931C175.175 137.279 173.125 138.022 171.255 139.139C169.742 140.042 168.389 141.165 167.234 142.46C167.188 142.511 167.143 142.562 167.098 142.614C165.688 144.233 164.583 146.113 163.855 148.166C163.146 150.162 162.952 151.822 163.13 153.5C163.288 154.997 163.743 156.507 164.392 158.283C164.541 158.69 164.704 159.09 164.882 159.483C165.214 160.214 165.595 160.918 166.022 161.591Z" fill="#323232"/>
<path fill-rule="evenodd" clip-rule="evenodd" d="M45.5504 333.247C44.6305 330.315 44.2083 327.267 44.2843 324.228C44.3572 321.316 44.8877 318.412 45.8764 315.625C46.8882 312.774 48.3502 310.129 50.188 307.781L50.1843 307.785C51.9438 305.534 54.0531 303.547 56.4532 301.915L56.4183 301.948C56.8774 301.635 57.3469 301.335 57.8264 301.049C60.8467 299.245 64.1576 298.045 67.578 297.483C67.7027 297.463 67.8276 297.443 67.9527 297.424C68.7843 297.299 69.622 297.212 70.4632 297.163C72.4098 297.049 74.375 297.14 76.3268 297.441C79.6802 297.959 82.8839 299.081 85.7925 300.729C85.8995 300.79 86.006 300.851 86.1121 300.913C87.2691 301.589 88.3778 302.349 89.4289 303.187L89.4295 303.187C91.7051 305.001 93.7043 307.175 95.3302 309.648L64.4474 338.563C66.1114 339.49 67.852 340.257 69.6471 340.712C71.302 341.131 73.0032 341.286 74.7334 341.057C74.8584 341.04 74.9835 341.022 75.1087 341.001C77.1433 340.667 78.9631 340.091 80.609 339.199C82.1089 338.386 83.4644 337.311 84.7067 335.918C84.7521 335.867 84.7973 335.815 84.8424 335.764C86.236 334.164 87.3748 332.465 88.1531 330.625C88.8445 328.991 89.2514 327.247 89.2996 325.362L89.2997 325.355L95.6381 325.514L99.8841 325.62C99.8487 327.035 99.7055 328.438 99.4591 329.817C99.1907 331.318 98.7998 332.792 98.2921 334.223C97.1555 337.426 95.4334 340.417 93.1886 343.033C93.144 343.085 93.0993 343.136 93.0544 343.188C91.7573 344.677 90.3141 346.014 88.7534 347.183C87.9775 347.764 87.1725 348.304 86.342 348.799C83.4731 350.513 80.2991 351.707 76.9643 352.301C76.8399 352.323 76.7153 352.345 76.5905 352.365C73.6729 352.844 70.7207 352.852 67.8416 352.407C64.416 351.878 61.0938 350.71 58.0563 348.935C57.9501 348.873 57.8444 348.811 57.7391 348.747C56.901 348.242 56.0933 347.696 55.3185 347.11L55.3182 347.111C52.9936 345.356 50.9382 343.234 49.2489 340.807L49.2543 340.802C47.9008 338.856 46.7924 336.732 45.9669 334.474C45.8183 334.068 45.6795 333.659 45.5504 333.247ZM58.0227 332.592L81.5665 310.549C81.3058 310.377 81.0406 310.212 80.7712 310.055C80.6651 309.993 80.5583 309.932 80.4509 309.872C78.6823 308.889 76.7412 308.218 74.7115 307.905C73.0288 307.645 71.33 307.638 69.6686 307.873C69.5434 307.891 69.4184 307.91 69.2936 307.931C67.1755 308.279 65.1252 309.022 63.2548 310.139C61.7424 311.042 60.3893 312.165 59.2338 313.46C59.1883 313.511 59.143 313.562 59.0981 313.614C57.6883 315.233 56.583 317.113 55.8546 319.166C55.1461 321.162 54.952 322.822 55.1295 324.5C55.288 325.997 55.7426 327.507 56.392 329.283C56.5408 329.69 56.7045 330.09 56.8825 330.483C57.2142 331.214 57.5955 331.919 58.0227 332.592Z" fill="#E40421"/>
<path fill-rule="evenodd" clip-rule="evenodd" d="M175.55 241.247C174.631 238.315 174.208 235.267 174.284 232.228C174.357 229.316 174.888 226.412 175.876 223.625C176.889 220.772 178.352 218.126 180.191 215.778L180.187 215.781C181.945 213.533 184.052 211.548 186.45 209.918L186.415 209.951C186.875 209.637 187.346 209.336 187.826 209.049C190.847 207.245 194.158 206.045 197.578 205.483C197.703 205.463 197.828 205.443 197.953 205.424C198.784 205.299 199.622 205.212 200.463 205.163C202.41 205.049 204.375 205.14 206.327 205.441C209.68 205.959 212.884 207.081 215.793 208.729C215.899 208.79 216.006 208.851 216.112 208.913C217.269 209.589 218.377 210.348 219.428 211.187L219.429 211.187C221.705 213 223.704 215.175 225.33 217.648L194.447 246.563C196.111 247.49 197.852 248.257 199.647 248.712C201.302 249.131 203.003 249.286 204.733 249.057C204.858 249.04 204.983 249.022 205.109 249.001C207.143 248.667 208.963 248.091 210.609 247.199C212.109 246.386 213.464 245.311 214.707 243.918C214.752 243.867 214.797 243.815 214.842 243.764C216.236 242.164 217.375 240.465 218.153 238.625C218.845 236.991 219.251 235.247 219.3 233.362L219.3 233.355L225.638 233.514L229.884 233.62C229.849 235.035 229.706 236.438 229.459 237.817C229.191 239.318 228.8 240.792 228.292 242.223C227.156 245.426 225.433 248.417 223.189 251.033C223.144 251.085 223.099 251.136 223.054 251.188C221.757 252.677 220.314 254.014 218.753 255.183C217.977 255.764 217.173 256.304 216.342 256.799C213.473 258.513 210.299 259.707 206.964 260.301C206.84 260.323 206.715 260.345 206.59 260.365C203.673 260.844 200.721 260.852 197.842 260.407C194.416 259.878 191.094 258.71 188.056 256.935C187.95 256.873 187.844 256.811 187.739 256.747C186.901 256.242 186.093 255.696 185.318 255.11L185.318 255.11C182.993 253.355 180.938 251.233 179.249 248.807L179.254 248.802C177.901 246.856 176.792 244.731 175.967 242.474C175.818 242.068 175.679 241.659 175.55 241.247ZM188.022 240.592L211.566 218.549C211.305 218.377 211.04 218.212 210.771 218.055C210.665 217.993 210.558 217.932 210.451 217.872C208.682 216.889 206.741 216.218 204.711 215.905C203.029 215.645 201.33 215.638 199.669 215.873C199.543 215.891 199.418 215.91 199.294 215.931C197.175 216.279 195.125 217.022 193.255 218.139C191.742 219.042 190.389 220.165 189.234 221.46C189.188 221.511 189.143 221.562 189.098 221.614C187.688 223.233 186.583 225.113 185.855 227.166C185.146 229.162 184.952 230.822 185.13 232.5C185.288 233.997 185.743 235.507 186.392 237.283C186.541 237.69 186.704 238.09 186.882 238.483C187.214 239.214 187.595 239.918 188.022 240.592Z" fill="#E40421"/>
<path fill-rule="evenodd" clip-rule="evenodd" d="M6.55044 172.247C5.63052 169.315 5.20828 166.267 5.28433 163.228C5.35721 160.316 5.88771 157.412 6.87637 154.625C7.88816 151.774 9.35015 149.129 11.188 146.781L11.1843 146.785C12.9438 144.534 15.0531 142.547 17.4532 140.915L17.4183 140.948C17.8774 140.635 18.3469 140.335 18.8264 140.049C21.8467 138.245 25.1576 137.045 28.578 136.483C28.7027 136.463 28.8276 136.443 28.9527 136.424C29.7843 136.299 30.622 136.212 31.4632 136.163C33.4098 136.049 35.375 136.14 37.3268 136.441C40.6802 136.959 43.8839 138.081 46.7925 139.729C46.8995 139.79 47.006 139.851 47.1121 139.913C48.2691 140.589 49.3778 141.349 50.4289 142.187L50.4295 142.187C52.7051 144.001 54.7043 146.175 56.3302 148.648L25.4474 177.563C27.1114 178.49 28.852 179.257 30.6471 179.712C32.302 180.131 34.0032 180.286 35.7334 180.057C35.8584 180.04 35.9835 180.022 36.1087 180.001C38.1433 179.667 39.9631 179.091 41.609 178.199C43.1089 177.386 44.4644 176.311 45.7067 174.918C45.7521 174.867 45.7973 174.815 45.8424 174.764C47.236 173.164 48.3748 171.465 49.1531 169.625C49.8445 167.991 50.2514 166.247 50.2996 164.362L50.2997 164.355L56.6381 164.514L60.8841 164.62C60.8487 166.035 60.7055 167.438 60.4591 168.817C60.1907 170.318 59.7998 171.792 59.2921 173.223C58.1555 176.426 56.4334 179.417 54.1886 182.033C54.144 182.085 54.0993 182.136 54.0544 182.188C52.7573 183.677 51.3141 185.014 49.7534 186.183C48.9775 186.764 48.1725 187.304 47.342 187.799C44.4731 189.513 41.2991 190.707 37.9643 191.301C37.8399 191.323 37.7153 191.345 37.5905 191.365C34.6729 191.844 31.7207 191.852 28.8416 191.407C25.416 190.878 22.0938 189.71 19.0563 187.935C18.9501 187.873 18.8444 187.811 18.7391 187.747C17.901 187.242 17.0933 186.696 16.3185 186.11L16.3182 186.111C13.9936 184.356 11.9382 182.234 10.2489 179.807L10.2543 179.802C8.90075 177.856 7.79237 175.732 6.96685 173.474C6.81826 173.068 6.67946 172.659 6.55044 172.247ZM19.0227 171.592L42.5665 149.549C42.3058 149.377 42.0406 149.212 41.7712 149.055C41.6651 148.993 41.5583 148.932 41.4509 148.872C39.6823 147.889 37.7412 147.218 35.7115 146.905C34.0288 146.645 32.33 146.638 30.6686 146.873C30.5434 146.891 30.4184 146.91 30.2936 146.931C28.1755 147.279 26.1252 148.022 24.2548 149.139C22.7424 150.042 21.3893 151.165 20.2338 152.46C20.1883 152.511 20.143 152.562 20.0981 152.614C18.6883 154.233 17.583 156.113 16.8546 158.166C16.1461 160.162 15.952 161.822 16.1295 163.5C16.288 164.997 16.7426 166.507 17.392 168.283C17.5408 168.69 17.7045 169.09 17.8825 169.483C18.2142 170.214 18.5955 170.919 19.0227 171.592Z" fill="#323232"/>
<path fill-rule="evenodd" clip-rule="evenodd" d="M136.55 80.2474C135.631 77.315 135.208 74.2672 135.284 71.2282C135.357 68.3159 135.888 65.4118 136.876 62.6254C137.888 59.7737 139.35 57.1288 141.188 54.7814L141.184 54.7848C142.944 52.5341 145.053 50.5471 147.453 48.9154L147.418 48.9481C147.877 48.6351 148.347 48.3351 148.826 48.0488C151.847 46.2451 155.158 45.0448 158.578 44.4831C158.703 44.4626 158.828 44.4429 158.953 44.4242C159.784 44.2992 160.622 44.2119 161.463 44.1628C163.41 44.0491 165.375 44.1398 167.327 44.4411C170.68 44.9587 173.884 46.0811 176.793 47.7291C176.899 47.7897 177.006 47.851 177.112 47.913C178.269 48.5889 179.378 49.3487 180.429 50.1875L180.429 50.1869C182.705 52.0006 184.704 54.175 186.33 56.6482L155.447 85.5632C157.111 86.4902 158.852 87.2568 160.647 87.7117C162.302 88.1311 164.003 88.2856 165.733 88.0568C165.858 88.0403 165.983 88.0217 166.109 88.0012C168.143 87.6671 169.963 87.0911 171.609 86.1992C173.109 85.3864 174.464 84.3112 175.707 82.9177C175.752 82.8668 175.797 82.8154 175.842 82.7637C177.236 81.1637 178.375 79.4646 179.153 77.6255C179.845 75.9914 180.251 74.2467 180.3 72.3624L180.3 72.3551L186.638 72.5137L190.884 72.62C190.849 74.035 190.706 75.4377 190.459 76.8167C190.191 78.3182 189.8 79.7917 189.292 81.2229C188.156 84.426 186.433 87.4166 184.189 90.0328C184.144 90.0847 184.099 90.1364 184.054 90.188C182.757 91.6773 181.314 93.0142 179.753 94.183C178.977 94.764 178.173 95.3035 177.342 95.7995C174.473 97.5127 171.299 98.7067 167.964 99.3011C167.84 99.3233 167.715 99.3447 167.59 99.3652C164.673 99.8443 161.721 99.8516 158.842 99.4072C155.416 98.8783 152.094 97.7098 149.056 95.9352C148.95 95.8732 148.844 95.8105 148.739 95.7471C147.901 95.2425 147.093 94.6959 146.319 94.1104L146.318 94.1107C143.994 92.3558 141.938 90.2338 140.249 87.8072L140.254 87.8022C138.901 85.8561 137.792 83.7317 136.967 81.4741C136.818 81.0677 136.679 80.6587 136.55 80.2474ZM149.023 79.5924L172.566 57.5489C172.306 57.377 172.041 57.2122 171.771 57.0548C171.665 56.9928 171.558 56.932 171.451 56.8722C169.682 55.8892 167.741 55.2181 165.711 54.9048C164.029 54.645 162.33 54.6381 160.669 54.8734C160.543 54.8912 160.418 54.9103 160.294 54.9308C158.175 55.2786 156.125 56.022 154.255 57.1389C152.742 58.0421 151.389 59.1646 150.234 60.4599C150.188 60.511 150.143 60.5623 150.098 60.6139C148.688 62.2326 147.583 64.1126 146.855 66.1657C146.146 68.1624 145.952 69.8224 146.13 71.4997C146.288 72.9967 146.743 74.5073 147.392 76.2832C147.541 76.6903 147.704 77.0903 147.882 77.4827C148.214 78.2141 148.596 78.9189 149.023 79.5924Z" fill="#E40421"/>
<path fill-rule="evenodd" clip-rule="evenodd" d="M140.844 189.76C141.764 192.693 142.186 195.741 142.11 198.78C142.037 201.692 141.507 204.596 140.518 207.382C139.506 210.235 138.043 212.882 136.204 215.23L136.208 215.226C134.449 217.475 132.342 219.46 129.945 221.09L129.98 221.057C129.52 221.371 129.049 221.672 128.568 221.959C125.548 223.763 122.237 224.963 118.817 225.525C118.692 225.545 118.567 225.565 118.442 225.584C117.61 225.709 116.772 225.796 115.931 225.845C113.985 225.959 112.02 225.868 110.068 225.567C106.714 225.049 103.511 223.927 100.602 222.279C100.495 222.218 100.389 222.157 100.282 222.095C99.1256 221.419 98.0171 220.659 96.9662 219.821L96.9656 219.821C94.6899 218.008 92.6907 215.833 91.0647 213.36L121.948 184.445C120.284 183.518 118.543 182.751 116.747 182.296C115.093 181.877 113.391 181.722 111.661 181.951C111.536 181.968 111.411 181.986 111.286 182.007C109.251 182.341 107.431 182.917 105.786 183.809C104.286 184.621 102.93 185.697 101.688 187.09C101.642 187.141 101.597 187.192 101.552 187.244C100.159 188.844 99.0198 190.543 98.2415 192.382C97.55 194.016 97.1431 195.761 97.095 197.645L97.0948 197.653L90.7564 197.494L86.5104 197.388C86.5459 195.973 86.689 194.57 86.9355 193.191C87.2038 191.69 87.5947 190.216 88.1025 188.785C89.239 185.582 90.9611 182.591 93.2059 179.975C93.2505 179.923 93.2952 179.871 93.3402 179.82C94.6372 178.331 96.0804 176.994 97.6412 175.825C98.417 175.244 99.222 174.704 100.052 174.208C102.921 172.495 106.095 171.301 109.43 170.707C109.555 170.684 109.679 170.663 109.804 170.643C112.722 170.164 115.674 170.156 118.553 170.601C121.979 171.129 125.301 172.298 128.338 174.073C128.444 174.135 128.55 174.197 128.655 174.261C129.494 174.765 130.302 175.312 131.077 175.898L131.077 175.897C133.401 177.652 135.457 179.774 137.146 182.201L137.141 182.206C138.494 184.152 139.602 186.276 140.428 188.534C140.576 188.94 140.715 189.349 140.844 189.76ZM128.372 190.416L104.829 212.459C105.089 212.631 105.354 212.796 105.623 212.953C105.729 213.015 105.836 213.076 105.944 213.136C107.712 214.119 109.653 214.79 111.683 215.103C113.366 215.363 115.065 215.37 116.726 215.134C116.851 215.117 116.976 215.098 117.101 215.077C119.219 214.729 121.269 213.986 123.14 212.869C124.652 211.966 126.005 210.843 127.161 209.548C127.206 209.497 127.252 209.446 127.296 209.394C128.706 207.775 129.812 205.895 130.54 203.842C131.248 201.845 131.443 200.185 131.265 198.508C131.107 197.011 130.652 195.5 130.003 193.725C129.854 193.318 129.69 192.917 129.512 192.525C129.18 191.794 128.799 191.089 128.372 190.416Z" fill="#E40421"/>
<path fill-rule="evenodd" clip-rule="evenodd" d="M267.844 100.76C268.764 103.693 269.186 106.741 269.11 109.78C269.037 112.692 268.507 115.596 267.518 118.382C266.506 121.235 265.043 123.882 263.204 126.23L263.208 126.226C261.449 128.475 259.342 130.46 256.945 132.09L256.98 132.057C256.52 132.371 256.049 132.672 255.568 132.959C252.548 134.763 249.237 135.963 245.817 136.525C245.692 136.545 245.567 136.565 245.442 136.584C244.61 136.709 243.772 136.796 242.931 136.845C240.985 136.959 239.02 136.868 237.068 136.567C233.714 136.049 230.511 134.927 227.602 133.279C227.495 133.218 227.389 133.157 227.282 133.095C226.126 132.419 225.017 131.659 223.966 130.821L223.966 130.821C221.69 129.008 219.691 126.833 218.065 124.36L248.948 95.4449C247.284 94.5178 245.543 93.7511 243.747 93.2961C242.093 92.8767 240.391 92.7222 238.661 92.951C238.536 92.9675 238.411 92.9861 238.286 93.0066C236.251 93.3408 234.431 93.9167 232.786 94.8086C231.286 95.6214 229.93 96.6966 228.688 98.0901C228.642 98.141 228.597 98.1924 228.552 98.2441C227.159 99.8442 226.02 101.543 225.241 103.382C224.55 105.016 224.143 106.761 224.095 108.645L224.095 108.653L217.756 108.494L213.51 108.388C213.546 106.973 213.689 105.57 213.935 104.191C214.204 102.69 214.595 101.216 215.102 99.785C216.239 96.5818 217.961 93.5912 220.206 90.9751C220.25 90.9232 220.295 90.8714 220.34 90.8198C221.637 89.3305 223.08 87.9936 224.641 86.8248C225.417 86.2438 226.222 85.7043 227.052 85.2084C229.921 83.4951 233.095 82.3011 236.43 81.7067C236.555 81.6845 236.679 81.6632 236.804 81.6426C239.722 81.1635 242.674 81.1562 245.553 81.6006C248.979 82.1295 252.301 83.298 255.338 85.0726C255.444 85.1346 255.55 85.1973 255.655 85.2607C256.494 85.7655 257.302 86.3122 258.077 86.8978L258.077 86.8975C260.401 88.6525 262.457 90.7745 264.146 93.2011L264.141 93.2062C265.494 95.1521 266.602 97.2763 267.428 99.5338C267.576 99.9401 267.715 100.349 267.844 100.76ZM255.372 101.416L231.829 123.459C232.089 123.631 232.354 123.796 232.623 123.953C232.729 124.015 232.836 124.076 232.944 124.136C234.712 125.119 236.653 125.79 238.683 126.103C240.366 126.363 242.065 126.37 243.726 126.134C243.851 126.117 243.976 126.098 244.101 126.077C246.219 125.729 248.269 124.986 250.14 123.869C251.652 122.966 253.005 121.843 254.161 120.548C254.206 120.497 254.252 120.446 254.296 120.394C255.706 118.775 256.812 116.895 257.54 114.842C258.248 112.845 258.443 111.185 258.265 109.508C258.107 108.011 257.652 106.5 257.003 104.725C256.854 104.318 256.69 103.917 256.512 103.525C256.18 102.794 255.799 102.089 255.372 101.416Z" fill="#E40421"/>
<path fill-rule="evenodd" clip-rule="evenodd" d="M162.844 268.76C163.764 271.693 164.186 274.741 164.11 277.78C164.037 280.692 163.507 283.596 162.518 286.382C161.506 289.235 160.043 291.882 158.204 294.23L158.208 294.226C156.449 296.475 154.342 298.46 151.945 300.09L151.98 300.057C151.52 300.371 151.049 300.672 150.568 300.959C147.548 302.763 144.237 303.963 140.817 304.525C140.692 304.545 140.567 304.565 140.442 304.584C139.61 304.709 138.772 304.796 137.931 304.845C135.985 304.959 134.02 304.868 132.068 304.567C128.714 304.049 125.511 302.927 122.602 301.279C122.495 301.218 122.389 301.157 122.282 301.095C121.126 300.419 120.017 299.659 118.966 298.821L118.966 298.821C116.69 297.008 114.691 294.833 113.065 292.36L143.948 263.445C142.284 262.518 140.543 261.751 138.747 261.296C137.093 260.877 135.391 260.722 133.661 260.951C133.536 260.968 133.411 260.986 133.286 261.007C131.251 261.341 129.431 261.917 127.786 262.809C126.286 263.621 124.93 264.697 123.688 266.09C123.642 266.141 123.597 266.192 123.552 266.244C122.159 267.844 121.02 269.543 120.241 271.382C119.55 273.016 119.143 274.761 119.095 276.645L119.095 276.653L112.756 276.494L108.51 276.388C108.546 274.973 108.689 273.57 108.935 272.191C109.204 270.69 109.595 269.216 110.102 267.785C111.239 264.582 112.961 261.591 115.206 258.975C115.25 258.923 115.295 258.871 115.34 258.82C116.637 257.331 118.08 255.994 119.641 254.825C120.417 254.244 121.222 253.704 122.052 253.208C124.921 251.495 128.095 250.301 131.43 249.707C131.555 249.684 131.679 249.663 131.804 249.643C134.722 249.164 137.674 249.156 140.553 249.601C143.979 250.129 147.301 251.298 150.338 253.073C150.444 253.135 150.55 253.197 150.655 253.261C151.494 253.765 152.302 254.312 153.077 254.898L153.077 254.897C155.401 256.652 157.457 258.774 159.146 261.201L159.141 261.206C160.494 263.152 161.602 265.276 162.428 267.534C162.576 267.94 162.715 268.349 162.844 268.76ZM150.372 269.416L126.829 291.459C127.089 291.631 127.354 291.796 127.623 291.953C127.729 292.015 127.836 292.076 127.944 292.136C129.712 293.119 131.653 293.79 133.683 294.103C135.366 294.363 137.065 294.37 138.726 294.134C138.851 294.117 138.976 294.098 139.101 294.077C141.219 293.729 143.269 292.986 145.14 291.869C146.652 290.966 148.005 289.843 149.161 288.548C149.206 288.497 149.252 288.446 149.296 288.394C150.706 286.775 151.812 284.895 152.54 282.842C153.248 280.845 153.443 279.185 153.265 277.508C153.107 276.011 152.652 274.5 152.003 272.725C151.854 272.318 151.69 271.917 151.512 271.525C151.18 270.794 150.799 270.089 150.372 269.416Z" fill="#323232"/>
<path fill-rule="evenodd" clip-rule="evenodd" d="M291.844 176.76C292.764 179.693 293.186 182.741 293.11 185.78C293.037 188.692 292.507 191.596 291.518 194.382C290.506 197.235 289.043 199.882 287.204 202.23L287.208 202.226C285.449 204.475 283.342 206.46 280.945 208.09L280.98 208.057C280.52 208.371 280.049 208.672 279.568 208.959C276.548 210.763 273.237 211.963 269.817 212.525C269.692 212.545 269.567 212.565 269.442 212.584C268.61 212.709 267.772 212.796 266.931 212.845C264.985 212.959 263.02 212.868 261.068 212.567C257.714 212.049 254.511 210.927 251.602 209.279C251.495 209.218 251.389 209.157 251.282 209.095C250.126 208.419 249.017 207.659 247.966 206.821L247.966 206.821C245.69 205.008 243.691 202.833 242.065 200.36L272.948 171.445C271.284 170.518 269.543 169.751 267.747 169.296C266.093 168.877 264.391 168.722 262.661 168.951C262.536 168.968 262.411 168.986 262.286 169.007C260.251 169.341 258.431 169.917 256.786 170.809C255.286 171.621 253.93 172.697 252.688 174.09C252.642 174.141 252.597 174.192 252.552 174.244C251.159 175.844 250.02 177.543 249.241 179.382C248.55 181.016 248.143 182.761 248.095 184.645L248.095 184.653L241.756 184.494L237.51 184.388C237.546 182.973 237.689 181.57 237.935 180.191C238.204 178.69 238.595 177.216 239.102 175.785C240.239 172.582 241.961 169.591 244.206 166.975C244.25 166.923 244.295 166.871 244.34 166.82C245.637 165.331 247.08 163.994 248.641 162.825C249.417 162.244 250.222 161.704 251.052 161.208C253.921 159.495 257.095 158.301 260.43 157.707C260.555 157.684 260.679 157.663 260.804 157.643C263.722 157.164 266.674 157.156 269.553 157.601C272.979 158.129 276.301 159.298 279.338 161.073C279.444 161.135 279.55 161.197 279.655 161.261C280.494 161.765 281.302 162.312 282.077 162.898L282.077 162.897C284.401 164.652 286.457 166.774 288.146 169.201L288.141 169.206C289.494 171.152 290.602 173.276 291.428 175.534C291.576 175.94 291.715 176.349 291.844 176.76ZM279.372 177.416L255.829 199.459C256.089 199.631 256.354 199.796 256.623 199.953C256.729 200.015 256.836 200.076 256.944 200.136C258.712 201.119 260.653 201.79 262.683 202.103C264.366 202.363 266.065 202.37 267.726 202.134C267.851 202.117 267.976 202.098 268.101 202.077C270.219 201.729 272.269 200.986 274.14 199.869C275.652 198.966 277.005 197.843 278.161 196.548C278.206 196.497 278.252 196.446 278.296 196.394C279.706 194.775 280.812 192.895 281.54 190.842C282.248 188.845 282.443 187.185 282.265 185.508C282.107 184.011 281.652 182.5 281.003 180.725C280.854 180.318 280.69 179.917 280.512 179.525C280.18 178.794 279.799 178.089 279.372 177.416Z" fill="#E40421"/>
<path fill-rule="evenodd" clip-rule="evenodd" d="M123.844 107.76C124.764 110.693 125.186 113.741 125.11 116.78C125.037 119.692 124.507 122.596 123.518 125.382C122.506 128.234 121.044 130.879 119.207 133.226L119.21 133.223C117.451 135.474 115.341 137.461 112.941 139.092L112.976 139.06C112.517 139.373 112.048 139.673 111.568 139.959C108.548 141.763 105.237 142.963 101.817 143.525C101.692 143.545 101.567 143.565 101.442 143.584C100.61 143.709 99.7725 143.796 98.9313 143.845C96.9847 143.959 95.0195 143.868 93.0678 143.567C89.7143 143.049 86.5106 141.927 83.602 140.279C83.4951 140.218 83.3885 140.157 83.2824 140.095C82.1254 139.419 81.0167 138.659 79.9656 137.82L79.9651 137.821C77.6894 136.007 75.6903 133.833 74.0643 131.36L104.947 102.445C103.283 101.518 101.543 100.751 99.7475 100.296C98.0926 99.8767 96.3914 99.7222 94.6611 99.951C94.5361 99.9675 94.411 99.9861 94.2858 100.007C92.2512 100.341 90.4315 100.917 88.7856 101.809C87.2856 102.621 85.9301 103.697 84.6878 105.09C84.6424 105.141 84.5972 105.192 84.5521 105.244C83.1586 106.844 82.0198 108.543 81.2415 110.382C80.55 112.016 80.1431 113.761 80.095 115.645L80.0948 115.653L73.7564 115.494L69.5104 115.388C69.5459 113.973 69.689 112.57 69.9355 111.191C70.2038 109.69 70.5947 108.216 71.1025 106.785C72.239 103.582 73.9611 100.591 76.2059 97.9751C76.2505 97.9232 76.2952 97.8714 76.3402 97.8198C77.6372 96.3305 79.0804 94.9936 80.6412 93.8248C81.417 93.2438 82.222 92.7043 83.0525 92.2084C85.9214 90.4951 89.0954 89.3011 92.4302 88.7067C92.5546 88.6845 92.6792 88.6632 92.8041 88.6426C95.7216 88.1635 98.6738 88.1562 101.553 88.6006C104.979 89.1295 108.301 90.298 111.338 92.0726C111.444 92.1346 111.55 92.1973 111.655 92.2607C112.494 92.7654 113.301 93.3119 114.076 93.8974L114.076 93.8971C116.401 95.652 118.456 97.774 120.146 100.201L120.14 100.206C121.494 102.152 122.602 104.276 123.428 106.534C123.576 106.94 123.715 107.349 123.844 107.76ZM111.372 108.415L87.8281 130.459C88.0887 130.631 88.3539 130.796 88.6233 130.953C88.7294 131.015 88.8362 131.076 88.9437 131.136C90.7122 132.119 92.6533 132.79 94.683 133.103C96.3657 133.363 98.0645 133.37 99.7259 133.134C99.8511 133.117 99.9761 133.098 100.101 133.077C102.219 132.729 104.269 131.986 106.14 130.869C107.652 129.966 109.005 128.843 110.161 127.548C110.206 127.497 110.252 127.446 110.296 127.394C111.706 125.775 112.812 123.895 113.54 121.842C114.248 119.845 114.443 118.185 114.265 116.508C114.107 115.011 113.652 113.5 113.003 111.725C112.854 111.318 112.69 110.917 112.512 110.525C112.18 109.794 111.799 109.089 111.372 108.415Z" fill="#E40421"/>
<path fill-rule="evenodd" clip-rule="evenodd" d="M250.844 24.7604C251.764 27.6928 252.186 30.7406 252.11 33.7796C252.037 36.6919 251.507 39.596 250.518 42.3824C249.506 45.2355 248.043 47.8816 246.204 50.2298L246.208 50.2264C244.449 52.4746 242.342 54.4596 239.945 56.09L239.98 56.0572C239.52 56.3712 239.049 56.672 238.568 56.959C235.548 58.7627 232.237 59.963 228.817 60.5247C228.692 60.5452 228.567 60.5649 228.442 60.5837C227.61 60.7086 226.772 60.7959 225.931 60.845C223.985 60.9587 222.02 60.868 220.068 60.5667C216.714 60.0491 213.511 58.9267 210.602 57.2787C210.495 57.2181 210.389 57.1568 210.282 57.0948C209.126 56.419 208.017 55.6593 206.966 54.8208L206.966 54.8213C204.69 53.0077 202.691 50.8333 201.065 48.3602L231.948 19.4449C230.284 18.5178 228.543 17.7511 226.747 17.2961C225.093 16.8767 223.391 16.7222 221.661 16.951C221.536 16.9675 221.411 16.9861 221.286 17.0066C219.251 17.3408 217.431 17.9167 215.786 18.8086C214.286 19.6214 212.93 20.6966 211.688 22.0901C211.642 22.141 211.597 22.1924 211.552 22.2441C210.159 23.8442 209.02 25.5432 208.241 27.3824C207.55 29.0164 207.143 30.7611 207.095 32.6454L207.095 32.6528L200.756 32.4941L196.51 32.3878C196.546 30.9728 196.689 29.5701 196.935 28.1911C197.204 26.6896 197.595 25.2161 198.102 23.785C199.239 20.5818 200.961 17.5912 203.206 14.9751C203.25 14.9232 203.295 14.8714 203.34 14.8198C204.637 13.3305 206.08 11.9936 207.641 10.8248C208.417 10.2438 209.222 9.70431 210.052 9.20836C212.921 7.49512 216.095 6.30108 219.43 5.70667C219.555 5.68449 219.679 5.66315 219.804 5.64265C222.722 5.16354 225.674 5.15618 228.553 5.60064C231.979 6.12949 235.301 7.29798 238.338 9.07257C238.444 9.13461 238.55 9.19731 238.655 9.26068C239.494 9.76547 240.302 10.3122 241.077 10.8978L241.077 10.8975C243.401 12.6525 245.457 14.7745 247.146 17.2011L247.141 17.2062C248.494 19.1521 249.602 21.2763 250.428 23.5338C250.576 23.9401 250.715 24.3491 250.844 24.7604ZM238.372 25.4159L214.829 47.4593C215.089 47.6311 215.354 47.7957 215.623 47.953C215.729 48.015 215.836 48.0759 215.944 48.1356C217.712 49.1186 219.653 49.7897 221.683 50.103C223.366 50.3628 225.065 50.3698 226.726 50.1344C226.851 50.1166 226.976 50.0975 227.101 50.077C229.219 49.7292 231.269 48.9858 233.14 47.8689C234.652 46.9657 236.005 45.8432 237.161 44.5479C237.206 44.4968 237.252 44.4455 237.296 44.3939C238.706 42.7752 239.812 40.8952 240.54 38.8421C241.248 36.8454 241.443 35.1854 241.265 33.5081C241.107 32.0111 240.652 30.5005 240.003 28.7246C239.854 28.3176 239.69 27.9175 239.512 27.5251C239.18 26.7939 238.799 26.0893 238.372 25.4159Z" fill="#E40421"/>
</svg>
