<svg width="810" height="767" viewBox="0 0 810 767" fill="none" xmlns="http://www.w3.org/2000/svg">
<path fill-rule="evenodd" clip-rule="evenodd" d="M456.867 712.147L456.871 712.154C434.158 730.661 408.486 745.676 380.674 756.38L162.294 390.664C137.078 419.272 117.454 452.216 115.492 490.335C113.416 530.651 122.077 564.929 146.188 597.307C170.298 629.685 199.832 653.87 239.051 663.435L229.194 703.851L223.649 726.584L213.792 767L213.749 766.989C192.352 761.767 171.797 754.077 152.456 744.167C114.568 724.753 81.3402 696.816 55.5704 662.209C16.6369 609.925 -2.83284 545.694 0.518604 480.592C3.86999 415.491 29.8324 353.599 73.929 305.589C81.4379 297.414 89.3924 289.728 97.742 282.559L97.7396 282.555C119.98 263.442 145.256 247.761 172.746 236.334L172.784 236.398C194.826 227.247 218.098 220.889 242.075 217.599C306.658 208.738 372.309 222.69 427.707 257.048C453.601 273.108 476.496 293.156 495.659 316.265L495.633 316.22C514.005 338.342 529.035 363.339 539.949 390.436L539.701 390.02C541.8 395.212 543.748 400.478 545.54 405.812C566.303 467.605 564.853 534.706 541.44 595.544C525.944 635.813 501.469 671.667 470.21 700.569C465.89 704.563 461.44 708.425 456.867 712.147ZM234.788 340.234C246.373 335.992 258.451 332.972 270.833 331.273C310.827 325.786 337.215 326.362 371.521 347.639C405.827 368.917 431.634 401.497 444.492 439.764C457.349 478.03 456.451 519.584 441.952 557.259C432.93 580.704 418.993 601.733 401.27 619.04L234.788 340.234Z" fill="#F1F1F1"/>
<rect x="539.086" y="369.844" width="275.288" height="274.252" rx="137.126" transform="rotate(-117.025 539.086 369.844)" fill="#F1F1F1"/>
<path d="M744.236 270.479L300.808 444.15L316.097 482.99L567.031 384.966C576.158 408.581 586.445 435.018 589.487 442.89C610.5 496.36 670.604 522.405 723.557 501.313C777.028 480.3 803.072 420.196 781.981 367.243C779.017 358.854 744.236 270.479 744.236 270.479ZM743.218 382.015C755.826 414.097 739.833 449.787 708.268 462.473C676.186 475.081 640.496 459.087 627.81 427.522C624.768 419.651 614.481 393.213 605.355 369.599L644.195 354.309L666.651 412.233L705.491 396.944L683.036 339.02L721.876 323.731C729.968 347.189 740.176 374.143 743.218 382.015Z" fill="#E40521"/>
</svg>
