<svg width="173" height="174" viewBox="0 0 173 174" fill="none" xmlns="http://www.w3.org/2000/svg">
<path fill-rule="evenodd" clip-rule="evenodd" d="M149.319 88.3334L160.513 88.6136L160.512 88.6193C160.419 92.3479 160.042 96.0439 159.392 99.6777C158.586 104.189 157.36 108.604 155.737 112.867C152.747 120.718 148.41 128.053 142.861 134.52C142.743 134.657 142.625 134.793 142.507 134.929C139.087 138.855 135.283 142.38 131.168 145.462C122.056 152.285 111.424 156.934 100.088 158.955C99.7598 159.013 99.4313 159.07 99.1021 159.124C82.2585 161.89 64.9776 158.692 50.2393 150.081C49.9593 149.918 49.6806 149.752 49.4031 149.585C47.1935 148.255 45.0641 146.814 43.0215 145.27L43.0206 145.271C29.5197 135.078 19.4616 120.189 15.5837 102.363C6.97867 62.8054 32.0642 23.762 71.6161 15.1457C71.6234 15.1441 71.6308 15.1425 71.6381 15.1409C71.6412 15.1402 71.6443 15.1396 71.6473 15.1389C90.8448 10.9653 109.921 14.7263 125.456 24.2246C126.499 24.8624 127.527 25.5266 128.539 26.2166C136.381 31.5646 143.198 38.4315 148.507 46.5061L67.0886 122.737C75.5198 127.433 84.6966 130.568 94.2063 129.311C94.5357 129.267 94.8655 129.218 95.1957 129.164C96.1994 128.999 97.1832 128.812 98.1479 128.601C107.037 126.659 114.303 122.713 120.5 115.762C120.619 115.628 120.738 115.492 120.857 115.356C127.8 107.385 132.344 98.4822 132.608 87.9151L149.319 88.3334Z" fill="#E40421"/>
<circle cx="95.3524" cy="50.8949" r="17.8011" fill="black"/>
</svg>
