<svg width="419" height="417" viewBox="0 0 419 417" fill="none" xmlns="http://www.w3.org/2000/svg">
<path fill-rule="evenodd" clip-rule="evenodd" d="M241.386 127.664L245.261 118.114L261.018 79.2766C282.171 87.8589 300.71 101.525 315.091 118.893C320.615 125.563 325.525 132.779 329.735 140.463C329.897 140.759 330.058 141.056 330.218 141.353C345.06 168.92 350.013 200.718 344.292 231.461C344.178 232.074 344.059 232.686 343.937 233.298C337.666 264.609 320.667 292.75 295.871 312.87C295.4 313.252 294.926 313.631 294.451 314.007C290.664 316.997 286.736 319.774 282.687 322.332L282.688 322.334C255.938 339.243 223.237 347.028 189.473 342.056C114.556 331.024 62.7607 261.365 73.7561 186.451C73.7593 186.429 73.7625 186.407 73.7658 186.385C73.7672 186.376 73.7686 186.367 73.7699 186.357C79.1265 150.034 98.2653 119.148 125.102 98.2217C126.955 96.7765 128.845 95.3784 130.772 94.0291C145.289 83.8575 161.78 76.4728 179.385 72.5138L259.118 265.334C272.903 253.674 284.445 239.677 288.517 222.2C288.658 221.594 288.79 220.985 288.913 220.371C292.73 201.313 291.103 184.341 282.146 167.233C281.99 166.935 281.832 166.637 281.671 166.339C273.972 152.038 264.105 140.154 250.673 132.245C247.761 130.531 244.681 129.003 241.42 127.678L241.386 127.664Z" fill="#F1F1F1"/>
<circle cx="152.005" cy="168.463" r="33.3017" transform="rotate(-69.3502 152.005 168.463)" fill="black"/>
</svg>
