<svg width="640" height="537" viewBox="0 0 640 537" fill="none" xmlns="http://www.w3.org/2000/svg">
<path d="M365.194 23.7878C424.208 0.596446 490.456 29.9119 513.163 88.2677C536.354 147.281 507.039 213.53 448.683 236.236C389.669 259.428 323.421 230.112 300.714 171.756C277.523 112.743 306.267 46.408 365.194 23.7878ZM343.01 154.796C356.925 190.204 396.401 207.284 431.809 193.369C467.217 179.455 484.297 139.979 470.382 104.571C456.468 69.1628 416.992 52.0823 381.584 65.9971C346.747 79.9984 329.009 119.959 343.01 154.796Z" fill="#F1F1F1"/>
<path d="M88.2488 131.979C147.262 108.788 213.511 138.103 236.217 196.459C259.409 255.472 230.093 321.721 171.737 344.427C112.724 367.619 46.4756 338.303 23.7689 279.947C0.577572 220.934 29.8929 154.686 88.2488 131.979ZM66.5494 263.644C80.4642 299.052 119.94 316.133 155.348 302.218C190.756 288.303 207.836 248.828 193.922 213.42C180.007 178.011 140.531 160.931 105.123 174.846C69.8015 188.189 52.6346 228.236 66.5494 263.644Z" fill="#F1F1F1"/>
<path d="M567.544 226.781L78.1476 418.455L95.0219 461.322L371.97 353.136C382.043 379.199 393.396 408.377 396.754 417.065C419.945 476.078 486.28 504.823 544.722 481.545C603.736 458.353 632.48 392.018 609.202 333.576C605.931 324.317 567.544 226.781 567.544 226.781ZM566.422 349.879C580.336 385.287 562.685 424.676 527.848 438.678C492.44 452.593 453.051 434.941 439.049 400.104C435.692 391.416 424.338 362.238 414.266 336.176L457.133 319.301L481.916 383.23L524.783 366.355L500 302.427L542.867 285.553C551.797 311.443 563.064 341.192 566.422 349.879Z" fill="#F1F1F1"/>
<path d="M364.165 88.774C381.54 82.0589 401.892 90.4002 408.521 108.347C415.236 125.722 406.895 146.074 388.949 152.702C371.573 159.418 351.221 151.076 344.593 133.13C337.306 115.668 346.219 95.4026 364.165 88.774Z" fill="#F1F1F1"/>
<path d="M87.2183 196.969C104.594 190.254 124.946 198.595 131.574 216.541C138.289 233.917 129.948 254.269 112.002 260.897C94.6266 267.612 74.2745 259.271 67.6459 241.325C60.9308 223.95 69.8431 203.684 87.2183 196.969Z" fill="#F1F1F1"/>
</svg>
