<svg width="1304" height="1271" viewBox="0 0 1304 1271" fill="none" xmlns="http://www.w3.org/2000/svg">
<path d="M1055.61 495.543L156.902 725.178L178.062 806.836L686.581 677.398C699.117 727.001 713.287 782.551 717.466 799.086C746.527 911.493 857.471 979.447 964.869 951.321C1073.25 923.489 1136.98 810.284 1107.65 698.889C1103.74 681.342 1055.61 495.543 1055.61 495.543ZM1029.18 718.144C1046.62 785.589 1007.75 852.669 943.71 869.662C878.678 886.361 812.916 844.955 795.214 778.524C791.035 761.989 776.866 706.439 764.33 656.836L843.066 636.567L873.95 758.255L952.686 737.987L921.802 616.299L1000.54 596.031C1011.1 645.046 1025 701.61 1029.18 718.144Z" fill="#F5F5F5"/>
<rect x="35.7207" y="268.345" width="924.458" height="416.198" rx="150" transform="rotate(-15 35.7207 268.345)" fill="#F5F5F5"/>
<ellipse cx="283.211" cy="417.473" rx="124.559" ry="129.304" transform="rotate(-15 283.211 417.473)" fill="white"/>
<ellipse cx="790.789" cy="281.466" rx="124.559" ry="129.304" transform="rotate(-15 790.789 281.466)" fill="white"/>
<ellipse cx="345.928" cy="399.616" rx="59.3599" ry="61.6215" transform="rotate(-15 345.928 399.616)" fill="#F5F5F5"/>
<ellipse cx="853.504" cy="263.614" rx="59.3599" ry="61.6215" transform="rotate(-15 853.504 263.614)" fill="#F5F5F5"/>
</svg>
