<svg width="719" height="722" viewBox="0 0 719 722" fill="none" xmlns="http://www.w3.org/2000/svg">
<circle cx="256.548" cy="179.585" r="80.6294" fill="#F5F5F5"/>
<circle cx="351.837" cy="359.169" r="80.6294" fill="#F5F5F5"/>
<circle cx="458.123" cy="538.751" r="80.6294" fill="#F5F5F5"/>
<circle cx="80.6294" cy="282.204" r="80.6294" fill="#F5F5F5"/>
<circle cx="175.919" cy="461.786" r="80.6294" fill="#F5F5F5"/>
<circle cx="282.204" cy="641.37" r="80.6294" fill="#F5F5F5"/>
<circle cx="436.131" cy="80.6294" r="80.6294" fill="#F5F5F5"/>
<circle cx="531.421" cy="260.213" r="80.6294" fill="#F5F5F5"/>
<circle cx="637.706" cy="439.795" r="80.6294" fill="#F5F5F5"/>
<circle cx="256.548" cy="179.582" r="47.6447" fill="white"/>
<circle cx="351.837" cy="359.168" r="47.6447" fill="white"/>
<circle cx="458.122" cy="538.752" r="47.6447" fill="white"/>
<circle cx="80.629" cy="282.201" r="47.6447" fill="white"/>
<circle cx="175.918" cy="461.787" r="47.6447" fill="white"/>
<circle cx="282.203" cy="641.371" r="47.6447" fill="white"/>
<circle cx="436.133" cy="80.631" r="47.6447" fill="white"/>
<circle cx="531.421" cy="260.213" r="47.6447" fill="white"/>
<circle cx="637.705" cy="439.797" r="47.6447" fill="white"/>
<circle cx="247.385" cy="159.425" r="27.4873" fill="#F5F5F5"/>
<circle cx="342.676" cy="339.011" r="27.4873" fill="#F5F5F5"/>
<circle cx="448.96" cy="518.595" r="27.4873" fill="#F5F5F5"/>
<circle cx="93.4561" cy="298.694" r="27.4873" fill="#F5F5F5"/>
<circle cx="188.747" cy="478.28" r="27.4873" fill="#F5F5F5"/>
<circle cx="295.03" cy="657.864" r="27.4873" fill="#F5F5F5"/>
<circle cx="448.96" cy="97.1201" r="27.4873" fill="#F5F5F5"/>
<circle cx="544.249" cy="276.706" r="27.4873" fill="#F5F5F5"/>
<circle cx="650.532" cy="456.29" r="27.4873" fill="#F5F5F5"/>
</svg>
