<svg width="537" height="537" viewBox="0 0 537 537" fill="none" xmlns="http://www.w3.org/2000/svg">
<path fill-rule="evenodd" clip-rule="evenodd" d="M33.6171 397.88C-20.4721 299.969 -6.83603 182.317 59.8 99.8782L415.779 298.481C422.988 262.705 423.489 226.012 406.875 193.48C389.305 159.075 365.725 134.811 330.251 119.514C294.796 104.225 258.768 98.3108 221.709 109.124L221.647 109.143L211.262 73.6151L203.411 46.7532L193.026 11.2257L193.068 11.2134C214.234 5.03057 235.927 1.5266 257.661 0.671506C297.4 -0.892039 337.274 6.40047 374.296 22.3655C431.581 47.0677 478.45 90.984 506.823 146.542C535.196 202.1 543.294 265.816 529.72 326.705C527.409 337.074 524.494 347.249 521.004 357.186L521.008 357.188C501.27 413.471 462.751 463.464 408.215 496.852C404.156 499.34 400.037 501.716 395.863 503.978C337.641 535.568 272.592 543.36 212.186 530.427C203.644 528.6 195.208 526.36 186.908 523.717C127.107 504.696 73.7688 464.734 38.9194 407.053C37.0915 404.031 35.3237 400.972 33.6171 397.88Z" fill="#F1F1F1"/>
</svg>
