<svg width="410" height="506" viewBox="0 0 410 506" fill="none" xmlns="http://www.w3.org/2000/svg">
<path fill-rule="evenodd" clip-rule="evenodd" d="M92.651 308.001L92.652 308C95.7789 310.492 98.5258 313.48 100.76 316.878L58.3261 356.608C60.6123 357.882 63.0037 358.935 65.47 359.56C67.7439 360.136 70.0814 360.349 72.4588 360.034C72.6305 360.012 72.8024 359.986 72.9744 359.958C75.77 359.499 78.2704 358.707 80.5319 357.482C82.5928 356.365 84.4554 354.888 86.1623 352.973C86.2247 352.903 86.2868 352.833 86.3487 352.762C88.2635 350.563 89.8282 348.229 90.8976 345.701C91.848 343.456 92.4071 341.058 92.473 338.468L92.4732 338.46L95.6008 338.538L101.182 338.678L107.016 338.824C106.968 340.768 106.771 342.695 106.432 344.59C106.064 346.653 105.527 348.678 104.829 350.644C103.267 355.046 100.901 359.155 97.8165 362.749C97.7553 362.821 97.6939 362.892 97.6321 362.963C95.8499 365.009 93.867 366.846 91.7224 368.452C90.6564 369.25 89.5504 369.991 88.4092 370.673C84.4673 373.027 80.1061 374.668 75.5241 375.484C75.3532 375.515 75.1819 375.544 75.0104 375.572C71.0016 376.231 66.9453 376.241 62.9893 375.63C58.2824 374.903 53.7176 373.298 49.544 370.86C49.3981 370.774 49.2529 370.688 49.1083 370.601C47.9568 369.908 46.8472 369.157 45.7828 368.353L45.7825 368.353C42.5886 365.941 39.7643 363.026 37.4432 359.691L37.4502 359.685C35.5903 357.011 34.0673 354.092 32.9329 350.99C32.7288 350.431 32.5381 349.869 32.3608 349.304C31.0968 345.275 30.5166 341.087 30.6211 336.912C30.7213 332.91 31.4502 328.92 32.8086 325.091C34.1985 321.174 36.2066 317.541 38.7309 314.316L38.7299 314.317C41.1468 311.225 44.044 308.496 47.3407 306.255L47.296 306.296C47.9261 305.867 48.5703 305.455 49.2282 305.063C53.5295 302.494 58.2598 300.816 63.1419 300.082C64.2846 299.911 65.4356 299.791 66.5914 299.723C69.2661 299.567 71.9663 299.692 74.6481 300.105C79.2558 300.817 83.6577 302.359 87.6542 304.623C89.403 305.614 91.0742 306.743 92.651 308.001ZM49.4982 348.405C48.9111 347.479 48.3871 346.511 47.9312 345.505C47.6867 344.966 47.4618 344.417 47.2572 343.857C46.365 341.417 45.7404 339.341 45.5227 337.285C45.2787 334.98 45.5455 332.699 46.5189 329.956C47.5198 327.135 49.0385 324.551 50.9755 322.327C51.0373 322.256 51.0994 322.186 51.162 322.116C52.7497 320.336 54.6089 318.794 56.6869 317.553C59.2569 316.018 62.0741 314.997 64.9844 314.519C65.1559 314.49 65.3276 314.464 65.4997 314.44C67.7824 314.116 70.1166 314.126 72.4287 314.483C75.2175 314.913 77.8847 315.835 80.3147 317.186C80.4623 317.268 80.609 317.352 80.7549 317.437C81.1252 317.653 81.4897 317.88 81.848 318.116L49.4982 348.405Z" fill="white" fill-opacity="0.2"/>
<path fill-rule="evenodd" clip-rule="evenodd" d="M271.272 181.618L271.273 181.617C274.4 184.109 277.147 187.097 279.381 190.495L236.947 230.225C239.234 231.499 241.625 232.552 244.092 233.177C246.365 233.754 248.703 233.966 251.08 233.652C251.252 233.629 251.424 233.603 251.596 233.575C254.392 233.116 256.892 232.325 259.153 231.099C261.214 229.982 263.077 228.505 264.784 226.59C264.846 226.52 264.908 226.45 264.97 226.379C266.885 224.18 268.45 221.846 269.519 219.319C270.47 217.073 271.029 214.675 271.095 212.085L271.095 212.077L274.222 212.155L279.804 212.295L285.638 212.441C285.589 214.385 285.393 216.313 285.054 218.207C284.685 220.271 284.148 222.295 283.45 224.262C281.889 228.663 279.523 232.772 276.438 236.367C276.377 236.438 276.315 236.509 276.254 236.58C274.472 238.626 272.489 240.463 270.344 242.069C269.278 242.867 268.172 243.609 267.031 244.29C263.089 246.644 258.728 248.285 254.146 249.102C253.975 249.132 253.804 249.161 253.632 249.189C249.623 249.848 245.567 249.858 241.611 249.247C236.904 248.521 232.339 246.915 228.166 244.477C228.02 244.391 227.874 244.305 227.73 244.218C226.578 243.525 225.469 242.774 224.404 241.969L224.404 241.97C221.21 239.558 218.386 236.643 216.064 233.308L216.072 233.302C214.212 230.628 212.689 227.709 211.555 224.607C211.35 224.048 211.16 223.486 210.982 222.921C209.718 218.892 209.138 214.704 209.243 210.529C209.343 206.527 210.072 202.537 211.43 198.708C212.82 194.79 214.829 191.156 217.354 187.931L217.351 187.934C219.768 184.842 222.665 182.113 225.962 179.872L225.915 179.915C226.546 179.485 227.191 179.073 227.85 178.68C232.151 176.111 236.881 174.433 241.764 173.699C242.906 173.528 244.057 173.408 245.213 173.34C247.888 173.184 250.588 173.309 253.27 173.723C257.877 174.434 262.279 175.976 266.276 178.24C268.024 179.231 269.696 180.36 271.272 181.618ZM228.12 222.021C227.533 221.096 227.009 220.128 226.553 219.123C226.308 218.583 226.083 218.034 225.879 217.474C224.987 215.034 224.362 212.959 224.144 210.902C223.9 208.597 224.167 206.316 225.14 203.573C226.141 200.752 227.66 198.169 229.597 195.944C229.659 195.874 229.721 195.803 229.784 195.733C231.371 193.953 233.231 192.411 235.309 191.17C237.878 189.635 240.696 188.614 243.606 188.136C243.777 188.108 243.949 188.081 244.121 188.057C246.404 187.734 248.738 187.743 251.05 188.1C253.839 188.531 256.506 189.453 258.936 190.803C259.084 190.885 259.231 190.969 259.376 191.054C259.747 191.27 260.111 191.497 260.469 191.733L228.12 222.021Z" fill="white" fill-opacity="0.2"/>
<path fill-rule="evenodd" clip-rule="evenodd" d="M122.879 430.288L122.88 430.287C126.007 432.779 128.754 435.767 130.988 439.165L88.5541 478.895C90.8403 480.169 93.2317 481.222 95.6981 481.847C97.9719 482.424 100.309 482.636 102.687 482.321C102.859 482.299 103.03 482.273 103.202 482.245C105.998 481.786 108.498 480.995 110.76 479.769C112.821 478.652 114.683 477.175 116.39 475.26C116.453 475.19 116.515 475.12 116.577 475.049C118.492 472.85 120.056 470.516 121.126 467.989C122.076 465.743 122.635 463.345 122.701 460.755L122.701 460.747L125.829 460.825L131.41 460.965L137.244 461.111C137.196 463.055 136.999 464.983 136.66 466.877C136.292 468.94 135.755 470.965 135.057 472.931C133.495 477.333 131.129 481.442 128.045 485.036C127.983 485.108 127.922 485.179 127.86 485.25C126.078 487.296 124.095 489.133 121.95 490.739C120.884 491.537 119.778 492.279 118.637 492.96C114.695 495.314 110.334 496.955 105.752 497.771C105.581 497.802 105.41 497.831 105.238 497.859C101.23 498.518 97.1733 498.528 93.2174 497.917C88.5105 497.19 83.9457 495.585 79.7721 493.147C79.6262 493.061 79.4809 492.975 79.3363 492.888C78.1848 492.195 77.0752 491.444 76.0108 490.64L76.0107 490.64C72.8167 488.228 69.9925 485.313 67.6714 481.978L67.6782 481.972C65.8183 479.298 64.2953 476.379 63.161 473.277C62.9568 472.718 62.7661 472.156 62.5888 471.591C61.3248 467.562 60.7447 463.374 60.8492 459.199C60.9493 455.197 61.6782 451.207 63.0366 447.378C64.4266 443.461 66.4349 439.827 68.9593 436.602L68.958 436.604C71.375 433.512 74.2722 430.783 77.5688 428.542L77.5235 428.584C78.1537 428.154 78.7982 427.743 79.4562 427.35C83.7576 424.781 88.4878 423.103 93.37 422.369C94.5127 422.198 95.6637 422.078 96.8195 422.01C99.4941 421.854 102.194 421.979 104.876 422.393C109.484 423.104 113.886 424.646 117.882 426.91C119.631 427.901 121.302 429.03 122.879 430.288ZM79.7262 470.692C79.1391 469.766 78.6151 468.798 78.1592 467.792C77.9147 467.253 77.6898 466.704 77.4853 466.144C76.593 463.704 75.9684 461.629 75.7507 459.572C75.5067 457.267 75.7735 454.986 76.7469 452.243C77.7478 449.422 79.2665 446.838 81.2036 444.614C81.2653 444.543 81.3274 444.473 81.39 444.403C82.9778 442.623 84.8369 441.081 86.915 439.84C89.4849 438.305 92.3021 437.284 95.2124 436.806C95.3839 436.778 95.5556 436.751 95.7277 436.727C98.0105 436.403 100.345 436.413 102.657 436.77C105.446 437.2 108.113 438.123 110.543 439.473C110.69 439.555 110.837 439.639 110.983 439.724C111.353 439.94 111.718 440.167 112.076 440.403L79.7262 470.692Z" fill="white" fill-opacity="0.2"/>
<path fill-rule="evenodd" clip-rule="evenodd" d="M301.5 290.139L301.501 290.138C304.628 292.63 307.375 295.618 309.609 299.016L267.176 338.746C269.462 340.02 271.853 341.073 274.32 341.698C276.593 342.274 278.931 342.486 281.308 342.172C281.48 342.149 281.652 342.124 281.824 342.096C284.62 341.637 287.12 340.845 289.382 339.62C291.442 338.503 293.305 337.026 295.012 335.111C295.074 335.041 295.136 334.97 295.198 334.899C297.113 332.701 298.678 330.366 299.747 327.839C300.698 325.593 301.257 323.195 301.323 320.606L301.323 320.598L304.45 320.676L310.032 320.816L315.866 320.962C315.817 322.906 315.621 324.833 315.282 326.728C314.913 328.791 314.376 330.816 313.678 332.782C312.117 337.183 309.751 341.292 306.666 344.887C306.605 344.958 306.543 345.029 306.482 345.1C304.7 347.147 302.717 348.984 300.572 350.59C299.506 351.388 298.4 352.129 297.259 352.811C293.317 355.165 288.956 356.805 284.374 357.622C284.203 357.652 284.032 357.682 283.86 357.71C279.851 358.368 275.795 358.378 271.839 357.768C267.132 357.041 262.567 355.436 258.394 352.997C258.248 352.912 258.102 352.826 257.958 352.739C256.806 352.045 255.697 351.294 254.632 350.49L254.632 350.49C251.438 348.079 248.614 345.163 246.292 341.829L246.3 341.822C244.44 339.148 242.917 336.229 241.783 333.127C241.578 332.569 241.388 332.007 241.21 331.442C239.946 327.413 239.366 323.225 239.471 319.049C239.571 315.048 240.3 311.057 241.658 307.229C243.048 303.311 245.057 299.677 247.582 296.451L247.579 296.454C249.996 293.363 252.893 290.633 256.19 288.392L256.143 288.436C256.774 288.006 257.419 287.594 258.078 287.2C262.379 284.632 267.109 282.953 271.992 282.22C273.134 282.048 274.285 281.928 275.441 281.861C278.116 281.705 280.816 281.829 283.498 282.243C288.105 282.954 292.507 284.497 296.504 286.761C298.252 287.752 299.924 288.881 301.5 290.139ZM258.348 330.542C257.761 329.616 257.237 328.648 256.781 327.643C256.536 327.104 256.311 326.554 256.107 325.995C255.215 323.555 254.59 321.479 254.372 319.422C254.128 317.118 254.395 314.837 255.368 312.093C256.369 309.272 257.888 306.689 259.825 304.465C259.887 304.394 259.949 304.324 260.012 304.253C261.599 302.474 263.459 300.931 265.537 299.69C268.107 298.156 270.924 297.134 273.834 296.656C274.005 296.628 274.177 296.602 274.349 296.577C276.632 296.254 278.966 296.264 281.278 296.621C284.067 297.051 286.734 297.973 289.164 299.324C289.312 299.406 289.459 299.49 289.604 299.575C289.975 299.791 290.339 300.017 290.697 300.254L258.348 330.542Z" fill="white" fill-opacity="0.2"/>
<path fill-rule="evenodd" clip-rule="evenodd" d="M69.2901 195.358L69.2909 195.358C72.4177 197.85 75.1646 200.837 77.3988 204.236L34.9651 243.965C37.2515 245.239 39.6431 246.293 42.1097 246.918C44.3835 247.494 46.721 247.706 49.0985 247.392C49.2701 247.369 49.442 247.344 49.6141 247.315C52.4097 246.856 54.91 246.065 57.1715 244.839C59.2325 243.723 61.095 242.245 62.802 240.331C62.8643 240.261 62.9264 240.19 62.9884 240.119C64.9031 237.92 66.4679 235.586 67.5373 233.059C68.4876 230.813 69.0468 228.415 69.1126 225.825L69.1128 225.817L72.2404 225.896L77.8219 226.035L83.6559 226.181C83.6073 228.126 83.4106 230.053 83.072 231.948C82.7032 234.011 82.1662 236.035 81.4685 238.002C79.9069 242.403 77.5406 246.512 74.4562 250.107C74.395 250.178 74.3335 250.249 74.2718 250.32C72.4896 252.366 70.5066 254.203 68.3621 255.809C67.296 256.608 66.19 257.349 65.0489 258.03C61.1069 260.384 56.7458 262.025 52.1638 262.842C51.9928 262.872 51.8216 262.902 51.65 262.93C47.6412 263.588 43.5849 263.598 39.629 262.987C34.9221 262.261 30.3573 260.655 26.1837 258.217C26.0378 258.132 25.8925 258.046 25.7479 257.958C24.5963 257.265 23.4864 256.514 22.4218 255.709L22.4213 255.71C19.2274 253.299 16.4031 250.383 14.082 247.049L14.0894 247.042C12.2297 244.368 10.7068 241.449 9.5726 238.347C9.36843 237.789 9.17771 237.227 9.00044 236.662C7.73644 232.632 7.15628 228.445 7.26077 224.269C7.36091 220.267 8.08984 216.277 9.44826 212.449C10.8387 208.53 12.8479 204.895 15.3736 201.669L15.3687 201.674C17.7857 198.582 20.6828 195.853 23.9795 193.612L23.9315 193.657C24.5629 193.226 25.2085 192.814 25.8678 192.42C30.1692 189.851 34.8994 188.173 39.7816 187.44C40.9243 187.268 42.0753 187.148 43.2311 187.081C45.9057 186.924 48.6059 187.049 51.2877 187.463C55.8954 188.174 60.2973 189.716 64.2939 191.981C66.0424 192.971 67.7134 194.1 69.2901 195.358ZM26.1375 235.761C25.5505 234.836 25.0266 233.868 24.5709 232.863C24.3263 232.324 24.1014 231.774 23.8969 231.215C23.0047 228.775 22.3801 226.699 22.1623 224.642C21.9183 222.337 22.1851 220.056 23.1585 217.313C24.1594 214.492 25.6781 211.909 27.6152 209.685C27.6769 209.614 27.7391 209.543 27.8016 209.473C29.3894 207.693 31.2486 206.151 33.3266 204.91C35.8965 203.375 38.7137 202.354 41.6241 201.876C41.7955 201.848 41.9673 201.822 42.1393 201.797C44.4221 201.474 46.7562 201.483 49.0683 201.84C51.8572 202.271 54.5243 203.193 56.9543 204.544C57.1019 204.626 57.2487 204.709 57.3945 204.794C57.7646 205.011 58.1289 205.237 58.4869 205.473L26.1375 235.761Z" fill="white" fill-opacity="0.2"/>
<path fill-rule="evenodd" clip-rule="evenodd" d="M247.911 68.948L247.912 68.9475C251.039 71.4395 253.786 74.4273 256.02 77.8255L213.586 117.555C215.873 118.829 218.265 119.882 220.731 120.507C223.005 121.084 225.343 121.296 227.72 120.982C227.892 120.959 228.064 120.933 228.236 120.905C231.031 120.446 233.532 119.655 235.793 118.429C237.854 117.312 239.717 115.835 241.424 113.92C241.486 113.85 241.548 113.78 241.61 113.709C243.525 111.51 245.089 109.176 246.159 106.649C247.109 104.403 247.668 102.005 247.734 99.4152L247.734 99.4071L250.862 99.4854L256.443 99.6251L262.278 99.7712C262.229 101.715 262.032 103.643 261.694 105.538C261.325 107.601 260.788 109.625 260.09 111.592C258.528 115.993 256.162 120.102 253.078 123.697C253.017 123.768 252.955 123.839 252.893 123.91C251.111 125.956 249.128 127.793 246.984 129.399C245.918 130.198 244.812 130.939 243.67 131.62C239.729 133.974 235.367 135.615 230.785 136.432C230.614 136.462 230.443 136.491 230.272 136.52C226.263 137.178 222.207 137.188 218.251 136.577C213.544 135.851 208.979 134.245 204.805 131.807C204.659 131.722 204.514 131.635 204.37 131.548C203.218 130.855 202.108 130.104 201.043 129.299L201.042 129.3C197.848 126.888 195.024 123.973 192.703 120.638L192.711 120.631C190.851 117.957 189.328 115.039 188.194 111.937C187.99 111.378 187.799 110.816 187.622 110.251C186.358 106.222 185.778 102.034 185.882 97.8589C185.982 93.8573 186.711 89.867 188.07 86.0384C189.461 82.1188 191.47 78.4836 193.997 75.2574L193.99 75.2638C196.407 72.1723 199.304 69.443 202.601 67.2017L202.551 67.2478C203.183 66.8168 203.829 66.4039 204.489 66.0098C208.791 63.4411 213.521 61.763 218.403 61.0295C219.546 60.8578 220.697 60.7379 221.853 60.6704C224.527 60.5142 227.228 60.6388 229.909 61.0528C234.517 61.764 238.919 63.3062 242.915 65.5706C244.664 66.5612 246.335 67.69 247.911 68.948ZM204.759 109.351C204.172 108.426 203.648 107.457 203.192 106.453C202.948 105.913 202.723 105.364 202.518 104.804C201.626 102.364 201.002 100.289 200.784 98.2319C200.54 95.9273 200.807 93.6463 201.78 90.9029C202.781 88.0818 204.3 85.4986 206.237 83.2745C206.298 83.2037 206.361 83.1331 206.423 83.063C208.011 81.2832 209.87 79.7408 211.948 78.4999C214.518 76.9651 217.335 75.9438 220.246 75.4658C220.417 75.4377 220.589 75.4114 220.761 75.387C223.044 75.0636 225.378 75.0732 227.69 75.4301C230.479 75.8606 233.146 76.7827 235.576 78.1334C235.724 78.2155 235.87 78.2991 236.016 78.3843C236.386 78.6005 236.75 78.8267 237.108 79.0628L204.759 109.351Z" fill="white" fill-opacity="0.2"/>
<path fill-rule="evenodd" clip-rule="evenodd" d="M133.231 302.038L133.23 302.039C130.104 299.547 127.357 296.559 125.123 293.161L167.557 253.431C165.27 252.157 162.879 251.104 160.412 250.479C158.138 249.903 155.801 249.69 153.424 250.005C153.252 250.027 153.08 250.053 152.908 250.081C150.112 250.54 147.612 251.332 145.35 252.557C143.29 253.674 141.427 255.151 139.72 257.066C139.658 257.136 139.596 257.206 139.534 257.278C137.619 259.476 136.054 261.811 134.985 264.338C134.034 266.583 133.475 268.981 133.409 271.571L133.409 271.579L130.282 271.501L124.7 271.361L118.866 271.215C118.915 269.271 119.111 267.344 119.45 265.449C119.819 263.386 120.356 261.361 121.054 259.395C122.615 254.994 124.981 250.884 128.066 247.29C128.127 247.218 128.188 247.147 128.25 247.076C130.032 245.03 132.015 243.193 134.16 241.587C135.226 240.789 136.332 240.048 137.473 239.366C141.415 237.012 145.776 235.371 150.358 234.555C150.529 234.524 150.7 234.495 150.872 234.467C154.881 233.808 158.937 233.798 162.893 234.409C167.6 235.136 172.165 236.741 176.338 239.18C176.484 239.265 176.629 239.351 176.774 239.438C177.926 240.131 179.035 240.882 180.1 241.687L180.1 241.687C183.294 244.098 186.118 247.013 188.439 250.348L188.432 250.354C190.292 253.028 191.815 255.947 192.949 259.05C193.154 259.608 193.344 260.17 193.522 260.735C194.786 264.764 195.366 268.952 195.261 273.127C195.161 277.129 194.432 281.119 193.074 284.948C191.684 288.865 189.675 292.499 187.151 295.724L187.154 295.721C184.736 298.814 181.838 301.544 178.54 303.786L178.587 303.742C177.957 304.172 177.312 304.584 176.654 304.977C172.353 307.545 167.623 309.223 162.74 309.957C161.598 310.129 160.447 310.248 159.291 310.316C156.616 310.472 153.916 310.348 151.234 309.934C146.627 309.222 142.225 307.68 138.228 305.416C136.479 304.425 134.808 303.296 133.231 302.038ZM176.384 261.635C176.971 262.56 177.495 263.529 177.951 264.534C178.196 265.073 178.421 265.623 178.625 266.182C179.517 268.622 180.142 270.698 180.36 272.754C180.604 275.059 180.337 277.34 179.363 280.083C178.363 282.904 176.844 285.488 174.907 287.712C174.845 287.783 174.783 287.853 174.72 287.923C173.133 289.703 171.273 291.246 169.195 292.486C166.625 294.021 163.808 295.043 160.898 295.52C160.726 295.549 160.555 295.575 160.383 295.599C158.1 295.923 155.766 295.913 153.454 295.556C150.665 295.126 147.998 294.204 145.568 292.853C145.42 292.771 145.273 292.687 145.127 292.602C144.757 292.386 144.393 292.159 144.034 291.923L176.384 261.635Z" fill="white" fill-opacity="0.2"/>
<path fill-rule="evenodd" clip-rule="evenodd" d="M307.734 179.75L307.733 179.751C304.606 177.259 301.859 174.271 299.625 170.873L342.058 131.143C339.772 129.869 337.38 128.816 334.914 128.191C332.64 127.615 330.302 127.402 327.925 127.717C327.753 127.739 327.581 127.765 327.409 127.793C324.614 128.252 322.113 129.044 319.852 130.269C317.791 131.386 315.928 132.863 314.221 134.778C314.159 134.848 314.097 134.918 314.035 134.989C312.12 137.188 310.556 139.522 309.486 142.049C308.536 144.295 307.977 146.693 307.911 149.283L307.911 149.291L304.783 149.213L299.202 149.073L293.367 148.927C293.416 146.983 293.613 145.056 293.951 143.161C294.32 141.098 294.857 139.073 295.555 137.107C297.117 132.705 299.483 128.596 302.567 125.002C302.628 124.93 302.69 124.859 302.752 124.788C304.534 122.742 306.517 120.905 308.661 119.299C309.727 118.501 310.833 117.759 311.975 117.078C315.917 114.724 320.278 113.083 324.86 112.267C325.031 112.236 325.202 112.207 325.373 112.179C329.382 111.52 333.439 111.51 337.394 112.121C342.101 112.848 346.666 114.453 350.84 116.891C350.986 116.977 351.131 117.063 351.276 117.15C352.427 117.843 353.537 118.594 354.602 119.399L354.602 119.398C357.796 121.81 360.62 124.726 362.942 128.06L362.934 128.067C364.794 130.741 366.317 133.66 367.451 136.761C367.655 137.32 367.846 137.882 368.023 138.447C369.287 142.476 369.867 146.664 369.763 150.839C369.663 154.841 368.934 158.831 367.575 162.66C366.184 166.579 364.175 170.215 361.648 173.441L361.653 173.436C359.237 176.526 356.341 179.255 353.046 181.495L353.094 181.45C352.462 181.881 351.816 182.294 351.156 182.688C346.854 185.257 342.124 186.935 337.242 187.669C336.099 187.84 334.948 187.96 333.792 188.028C331.118 188.184 328.417 188.059 325.736 187.645C321.128 186.934 316.726 185.392 312.73 183.128C310.981 182.137 309.31 181.008 307.734 179.75ZM350.886 139.347C351.473 140.273 351.997 141.241 352.453 142.246C352.697 142.785 352.922 143.334 353.127 143.894C354.019 146.334 354.643 148.41 354.861 150.466C355.105 152.771 354.838 155.052 353.865 157.795C352.864 160.616 351.345 163.2 349.408 165.424C349.347 165.495 349.284 165.565 349.222 165.635C347.634 167.415 345.775 168.957 343.697 170.198C341.127 171.733 338.31 172.754 335.399 173.232C335.228 173.261 335.056 173.287 334.884 173.311C332.601 173.635 330.267 173.625 327.955 173.268C325.166 172.838 322.499 171.916 320.069 170.565C319.922 170.483 319.775 170.399 319.629 170.314C319.259 170.098 318.895 169.872 318.537 169.635L350.886 139.347Z" fill="white" fill-opacity="0.2"/>
<path fill-rule="evenodd" clip-rule="evenodd" d="M163.46 410.557L163.459 410.558C160.332 408.066 157.585 405.079 155.351 401.68L197.785 361.95C195.499 360.677 193.107 359.623 190.641 358.998C188.367 358.422 186.029 358.21 183.652 358.524C183.48 358.547 183.308 358.572 183.136 358.601C180.341 359.06 177.84 359.851 175.579 361.077C173.518 362.193 171.655 363.671 169.949 365.586C169.886 365.655 169.824 365.726 169.762 365.797C167.847 367.996 166.283 370.33 165.213 372.857C164.263 375.103 163.704 377.501 163.638 380.091L163.638 380.099L160.51 380.02L154.929 379.881L149.095 379.735C149.143 377.79 149.34 375.863 149.679 373.968C150.047 371.905 150.584 369.881 151.282 367.914C152.844 363.513 155.21 359.404 158.294 355.809C158.355 355.738 158.417 355.667 158.479 355.596C160.261 353.55 162.244 351.713 164.388 350.107C165.454 349.308 166.56 348.567 167.702 347.886C171.644 345.532 176.005 343.891 180.587 343.074C180.758 343.044 180.929 343.014 181.1 342.986C185.109 342.328 189.166 342.318 193.121 342.929C197.828 343.655 202.393 345.261 206.567 347.699C206.713 347.784 206.858 347.87 207.003 347.958C208.154 348.651 209.264 349.402 210.328 350.206L210.329 350.206C213.523 352.617 216.347 355.533 218.668 358.867L218.661 358.874C220.521 361.548 222.044 364.467 223.178 367.569C223.382 368.127 223.573 368.689 223.75 369.254C225.014 373.284 225.594 377.471 225.49 381.647C225.39 385.649 224.661 389.639 223.302 393.467C221.912 397.385 219.904 401.018 217.38 404.243L217.383 404.24C214.965 407.333 212.067 410.063 208.769 412.305L208.815 412.262C208.185 412.691 207.541 413.103 206.883 413.496C202.581 416.065 197.851 417.743 192.969 418.476C191.826 418.648 190.675 418.768 189.519 418.835C186.845 418.992 184.145 418.867 181.463 418.453C176.855 417.742 172.453 416.2 168.457 413.935C166.708 412.945 165.037 411.815 163.46 410.557ZM206.613 370.154C207.2 371.08 207.724 372.048 208.18 373.053C208.424 373.592 208.649 374.142 208.854 374.701C209.746 377.141 210.37 379.217 210.588 381.274C210.832 383.579 210.565 385.86 209.592 388.603C208.591 391.424 207.072 394.007 205.135 396.231C205.074 396.302 205.011 396.373 204.949 396.443C203.361 398.223 201.502 399.765 199.424 401.006C196.854 402.541 194.037 403.562 191.126 404.04C190.955 404.068 190.783 404.094 190.611 404.119C188.328 404.442 185.994 404.433 183.682 404.076C180.893 403.645 178.226 402.723 175.796 401.372C175.649 401.29 175.502 401.207 175.356 401.122C174.986 400.905 174.621 400.679 174.263 400.443L206.613 370.154Z" fill="white" fill-opacity="0.2"/>
<path fill-rule="evenodd" clip-rule="evenodd" d="M340.71 284.176L340.709 284.177C337.582 281.685 334.835 278.697 332.601 275.299L375.035 235.569C372.749 234.295 370.357 233.242 367.89 232.617C365.616 232.04 363.279 231.828 360.902 232.142C360.73 232.165 360.558 232.191 360.386 232.219C357.59 232.678 355.09 233.469 352.828 234.695C350.768 235.812 348.905 237.289 347.198 239.204C347.136 239.274 347.074 239.344 347.012 239.415C345.097 241.614 343.532 243.948 342.463 246.475C341.512 248.721 340.953 251.119 340.887 253.709L340.887 253.717L337.76 253.639L332.178 253.499L326.344 253.353C326.393 251.409 326.589 249.481 326.928 247.587C327.297 245.523 327.834 243.499 328.532 241.532C330.093 237.131 332.459 233.022 335.544 229.427C335.605 229.356 335.666 229.285 335.728 229.214C337.51 227.168 339.493 225.331 341.638 223.725C342.704 222.926 343.81 222.185 344.951 221.504C348.893 219.15 353.254 217.509 357.836 216.692C358.007 216.662 358.178 216.633 358.35 216.604C362.359 215.946 366.415 215.936 370.371 216.547C375.078 217.273 379.643 218.879 383.816 221.317C383.962 221.402 384.107 221.489 384.252 221.576C385.404 222.269 386.514 223.02 387.578 223.825L387.579 223.824C390.773 226.236 393.597 229.151 395.918 232.486L395.911 232.493C397.77 235.167 399.293 238.085 400.427 241.187C400.632 241.746 400.822 242.308 401 242.873C402.264 246.902 402.844 251.09 402.739 255.265C402.639 259.267 401.91 263.257 400.552 267.086C399.161 271.005 397.151 274.64 394.625 277.867L394.63 277.862C392.214 280.952 389.318 283.68 386.022 285.921L386.07 285.876C385.438 286.307 384.792 286.72 384.132 287.114C379.831 289.683 375.101 291.361 370.218 292.095C369.076 292.266 367.925 292.386 366.769 292.454C364.094 292.61 361.394 292.485 358.712 292.071C354.105 291.36 349.703 289.818 345.706 287.553C343.958 286.563 342.287 285.434 340.71 284.176ZM383.863 243.773C384.45 244.698 384.973 245.667 385.429 246.671C385.674 247.211 385.899 247.76 386.103 248.32C386.995 250.76 387.62 252.835 387.838 254.892C388.082 257.197 387.815 259.478 386.841 262.221C385.841 265.042 384.322 267.625 382.385 269.849C382.323 269.92 382.261 269.991 382.198 270.061C380.611 271.841 378.751 273.383 376.673 274.624C374.103 276.159 371.286 277.18 368.376 277.658C368.204 277.686 368.033 277.713 367.861 277.737C365.578 278.06 363.244 278.051 360.932 277.694C358.143 277.263 355.476 276.341 353.046 274.991C352.898 274.909 352.751 274.825 352.605 274.74C352.236 274.524 351.871 274.297 351.513 274.061L383.863 243.773Z" fill="white" fill-opacity="0.2"/>
<path fill-rule="evenodd" clip-rule="evenodd" d="M109.876 189.368L109.876 189.369C106.749 186.877 104.002 183.889 101.768 180.491L144.201 140.761C141.915 139.487 139.523 138.434 137.056 137.809C134.782 137.233 132.445 137.02 130.068 137.335C129.896 137.357 129.724 137.383 129.552 137.411C126.756 137.87 124.256 138.662 121.994 139.887C119.934 141.004 118.071 142.481 116.364 144.396C116.302 144.466 116.24 144.537 116.178 144.608C114.263 146.806 112.698 149.141 111.629 151.668C110.678 153.913 110.119 156.311 110.053 158.901L110.053 158.909L106.926 158.831L101.344 158.691L95.5101 158.545C95.5587 156.601 95.7554 154.674 96.094 152.779C96.4628 150.716 96.9999 148.691 97.6975 146.725C99.2592 142.324 101.625 138.214 104.71 134.62C104.771 134.548 104.832 134.477 104.894 134.406C106.676 132.36 108.659 130.523 110.804 128.917C111.87 128.119 112.976 127.378 114.117 126.696C118.059 124.342 122.42 122.702 127.002 121.885C127.173 121.854 127.344 121.825 127.516 121.797C131.525 121.139 135.581 121.128 139.537 121.739C144.244 122.466 148.809 124.071 152.982 126.51C153.128 126.595 153.273 126.681 153.418 126.768C154.57 127.462 155.68 128.213 156.744 129.017L156.745 129.017C159.939 131.428 162.763 134.344 165.084 137.678L165.077 137.685C166.936 140.359 168.459 143.278 169.593 146.38C169.798 146.938 169.988 147.5 170.166 148.065C171.43 152.094 172.01 156.282 171.905 160.458C171.805 164.459 171.076 168.449 169.718 172.278C168.327 176.198 166.317 179.833 163.791 183.059L163.798 183.053C161.381 186.144 158.484 188.873 155.187 191.115L155.236 191.069C154.604 191.5 153.958 191.912 153.298 192.307C148.997 194.875 144.267 196.553 139.384 197.287C138.242 197.459 137.091 197.579 135.935 197.646C133.26 197.802 130.56 197.678 127.878 197.264C123.271 196.552 118.869 195.01 114.872 192.746C113.124 191.755 111.453 190.626 109.876 189.368ZM153.029 148.966C153.616 149.891 154.139 150.859 154.595 151.864C154.84 152.403 155.065 152.953 155.269 153.512C156.161 155.952 156.786 158.028 157.004 160.085C157.248 162.389 156.981 164.67 156.007 167.414C155.007 170.235 153.488 172.818 151.551 175.042C151.489 175.113 151.427 175.183 151.364 175.253C149.777 177.033 147.917 178.576 145.839 179.817C143.269 181.351 140.452 182.373 137.542 182.851C137.371 182.879 137.199 182.905 137.027 182.929C134.744 183.253 132.41 183.243 130.098 182.886C127.309 182.456 124.642 181.534 122.212 180.183C122.064 180.101 121.917 180.017 121.772 179.932C121.402 179.716 121.037 179.49 120.679 179.254L153.029 148.966Z" fill="white" fill-opacity="0.2"/>
<path fill-rule="evenodd" clip-rule="evenodd" d="M284.373 75.325L284.372 75.3262C281.245 72.8342 278.498 69.8463 276.263 66.448L318.697 26.7178C316.411 25.4442 314.02 24.391 311.553 23.766C309.28 23.1897 306.942 22.9774 304.565 23.2918C304.393 23.3145 304.221 23.34 304.049 23.3682C301.253 23.8273 298.753 24.6187 296.492 25.8442C294.431 26.961 292.568 28.4383 290.861 30.3531C290.799 30.423 290.737 30.4935 290.675 30.5647C288.76 32.7631 287.195 35.0976 286.126 37.6247C285.175 39.8705 284.616 42.2685 284.55 44.8582L284.55 44.8663L281.423 44.788L275.841 44.6483L270.007 44.5023C270.056 42.558 270.252 40.6307 270.591 38.7359C270.96 36.6728 271.497 34.6482 272.195 32.6818C273.756 28.2806 276.123 24.1714 279.207 20.5768C279.268 20.5055 279.33 20.4344 279.391 20.3635C281.173 18.3172 283.156 16.4802 285.301 14.8742C286.367 14.0759 287.473 13.3347 288.614 12.6532C292.556 10.2992 296.917 8.65858 301.499 7.84186C301.67 7.81138 301.842 7.78206 302.013 7.75389C306.022 7.09559 310.078 7.08547 314.034 7.69618C318.741 8.42281 323.306 10.0284 327.479 12.4667C327.625 12.5519 327.771 12.6381 327.915 12.7251C329.067 13.4185 330.176 14.1694 331.241 14.9737L331.241 14.9737C334.435 17.3851 337.259 20.3009 339.58 23.6353L339.573 23.6416C341.433 26.3156 342.956 29.2346 344.09 32.3366C344.295 32.895 344.485 33.4569 344.663 34.022C345.927 38.0512 346.507 42.239 346.402 46.4146C346.302 50.4161 345.573 54.4064 344.215 58.2351C342.825 62.1532 340.816 65.7873 338.291 69.0126L338.292 69.0114C335.876 72.1016 332.98 74.8298 329.684 77.0705L329.73 77.0281C329.099 77.4582 328.454 77.8703 327.795 78.2636C323.494 80.8323 318.764 82.5104 313.882 83.2439C312.739 83.4156 311.588 83.5356 310.432 83.6031C307.757 83.7593 305.057 83.6347 302.375 83.2207C297.768 82.5094 293.366 80.9672 289.369 78.7029C287.621 77.7121 285.949 76.5831 284.373 75.325ZM327.525 34.922C328.112 35.8475 328.636 36.8158 329.092 37.8208C329.337 38.36 329.562 38.9097 329.766 39.469C330.658 41.909 331.283 43.9847 331.501 46.0416C331.745 48.3462 331.478 50.6271 330.505 53.3706C329.504 56.1916 327.985 58.7748 326.048 60.9989C325.986 61.0698 325.924 61.1403 325.861 61.2104C324.274 62.9902 322.415 64.5326 320.336 65.7736C317.767 67.3083 314.949 68.3297 312.039 68.8076C311.868 68.8358 311.696 68.862 311.524 68.8864C309.241 69.2098 306.907 69.2002 304.595 68.8433C301.806 68.4128 299.139 67.4908 296.709 66.14C296.561 66.058 296.414 65.9743 296.269 65.8891C295.898 65.6729 295.534 65.4465 295.176 65.2103L327.525 34.922Z" fill="white" fill-opacity="0.2"/>
</svg>
