<svg width="218" height="233" fill="none" xmlns="http://www.w3.org/2000/svg"><path d="M141.027 9.186c22.789-8.956 48.372 2.365 57.14 24.9 8.956 22.79-2.365 48.372-24.9 57.14-22.789 8.957-48.372-2.364-57.14-24.9-8.956-22.788 2.144-48.405 24.9-57.14zm-8.567 50.591c5.373 13.674 20.617 20.27 34.291 14.896 13.673-5.373 20.269-20.618 14.896-34.291-5.374-13.674-20.618-20.27-34.291-14.896-13.453 5.407-20.303 20.838-14.896 34.291zm-98.381-8.813c22.789-8.956 48.372 2.365 57.14 24.9 8.956 22.79-2.364 48.372-24.9 57.141-22.789 8.955-48.372-2.365-57.14-24.9-8.956-22.79 2.365-48.373 24.9-57.141zm-8.38 50.845c5.374 13.673 20.618 20.269 34.291 14.896 13.674-5.374 20.27-20.618 14.896-34.291-5.373-13.674-20.617-20.27-34.29-14.896-13.64 5.153-20.27 20.617-14.897 34.291z" fill="#213A8F"/><path d="M148.379 46.932c6.709-2.593 14.569.628 17.128 7.558 2.594 6.71-.628 14.57-7.558 17.129-6.71 2.593-14.569-.628-17.129-7.558-2.813-6.743.628-14.57 7.559-17.13zM41.43 88.71c6.71-2.594 14.57.628 17.13 7.558 2.593 6.71-.629 14.569-7.559 17.129-6.71 2.593-14.569-.628-17.129-7.559-2.593-6.71.849-14.535 7.559-17.128z" fill="#000"/><rect x="73.604" y="151.368" width="117.498" height="72.177" rx="36.088" transform="rotate(-25.299 73.604 151.368)" stroke="#E40521" stroke-width="11"/><g filter="url(#filter0_d_279_3386)"><circle cx="151.408" cy="181.3" r="31.841" fill="#fff"/><circle cx="151.408" cy="181.3" r="27.841" stroke="#E40521" stroke-width="8"/></g><path fill="#fff" d="M128.664 145.56h25.993v23.393h-25.993z"/><circle cx="142.31" cy="157.906" r="17.744" stroke="#E40521" stroke-width="10"/><defs><filter id="filter0_d_279_3386" x="104.566" y="138.459" width="93.682" height="93.683" filterUnits="userSpaceOnUse" color-interpolation-filters="sRGB"><feFlood flood-opacity="0" result="BackgroundImageFix"/><feColorMatrix in="SourceAlpha" values="0 0 0 0 0 0 0 0 0 0 0 0 0 0 0 0 0 0 127 0" result="hardAlpha"/><feOffset dy="4"/><feGaussianBlur stdDeviation="7.5"/><feComposite in2="hardAlpha" operator="out"/><feColorMatrix values="0 0 0 0 0 0 0 0 0 0 0 0 0 0 0 0 0 0 0.1 0"/><feBlend in2="BackgroundImageFix" result="effect1_dropShadow_279_3386"/><feBlend in="SourceGraphic" in2="effect1_dropShadow_279_3386" result="shape"/></filter></defs></svg>