<svg width="461" height="225" fill="none" xmlns="http://www.w3.org/2000/svg"><circle cx="348.628" cy="112.983" r="94.094" transform="rotate(89.783 348.628 112.983)" fill="#fff" stroke="#213A8F" stroke-width="35"/><path d="M328.296 73.19c3.696 9.457-.809 20.568-10.577 24.218-9.458 3.696-20.569-.808-24.219-10.577-3.696-9.457.809-20.568 10.577-24.219 9.458-3.696 20.523 1.12 24.219 10.578z" fill="#000"/><circle cx="112.016" cy="112.016" r="94.094" transform="rotate(89.783 112.016 112.016)" fill="#fff" stroke="#213A8F" stroke-width="35"/><path d="M91.683 73.19c3.697 9.457-.808 20.568-10.577 24.218-9.457 3.696-20.568-.808-24.218-10.577-3.697-9.457.808-20.568 10.577-24.219 9.457-3.696 20.522 1.12 24.218 10.578z" fill="#000"/></svg>