<svg width="438" height="383" fill="none" xmlns="http://www.w3.org/2000/svg"><path d="M227.036 36.939c34.492-19.089 77.708-6.4 96.444 27.725 19.088 34.492 6.4 77.708-27.726 96.444-34.491 19.088-77.707 6.4-96.444-27.726-19.088-34.491-6.758-77.714 27.726-96.443zm-3.033 82.553c11.453 20.695 37.173 28.017 57.868 16.564s28.017-37.173 16.564-57.868-37.173-28.016-57.868-16.563c-20.336 11.46-28.023 37.531-16.564 57.867zm-158.887 6.626c34.491-19.088 77.707-6.4 96.443 27.726 19.089 34.491 6.4 77.707-27.725 96.444-34.492 19.088-77.708 6.4-96.444-27.726-19.088-34.491-6.4-77.707 27.726-96.444zm-2.68 82.92c11.452 20.695 37.172 28.017 57.867 16.564s28.016-37.173 16.563-57.868-37.172-28.017-57.867-16.564c-20.688 11.094-28.017 37.173-16.564 57.868zm305.815-63.412L82.162 303.525l13.883 25.052 161.92-89.18c8.326 15.246 17.694 32.309 20.469 37.391 19.089 34.492 62.311 46.821 96.444 27.726 34.491-19.088 46.821-62.311 27.726-96.444-2.769-5.441-34.353-62.444-34.353-62.444zm9.307 75.968c11.453 20.695 3.773 46.408-16.563 57.868-20.695 11.453-46.408 3.772-57.868-16.564-2.775-5.082-12.143-22.145-20.469-37.391l25.052-13.884 20.469 37.392 25.052-13.883-20.469-37.392 25.052-13.883c7.608 15.233 16.969 32.655 19.744 37.737z" fill="#F5F5F5"/><path d="M231.678 77.08c10.164-5.55 23.387-2.063 28.93 8.461 5.551 10.165 2.062 23.387-8.461 28.93-10.165 5.551-23.387 2.063-28.931-8.461-5.909-10.171-2.062-23.387 8.462-28.93zM69.76 166.258c10.164-5.55 23.386-2.062 28.93 8.462 5.55 10.164 2.062 23.387-8.462 28.93-10.164 5.551-23.386 2.062-28.93-8.461-5.55-10.165-1.703-23.38 8.461-28.931z" fill="#F5F5F5"/></svg>