<svg width="201" height="200" fill="none" xmlns="http://www.w3.org/2000/svg"><path fill-rule="evenodd" clip-rule="evenodd" d="M115.62 15.873l1.854-10.461.809-4.559a99.87 99.87 0 0158.224 33.148l.286.334.193.227a99.864 99.864 0 0123.722 63.4 99.873 99.873 0 01-30.11 72.702l.002.002c-16.485 16.101-38.592 26.607-63.392 28.19-25.941 1.656-50.2-6.747-68.968-21.856a99.992 99.992 0 01-6.469-5.682c-16.778-16.059-28.033-37.979-30.354-62.759a99.836 99.836 0 01-.383-5.995c-.845-24.593 7.328-47.525 21.618-65.5a99.87 99.87 0 016.804-7.713A99.869 99.869 0 0159.12 8.425l86.045 125.223c8.047-10.396 14.143-22.116 14.391-35.18.009-.454.011-.908.005-1.363-.127-10.36-2.162-19.48-6.764-27.87-1.685-3.072-3.714-6.046-6.119-8.947a94.47 94.47 0 00-.474-.565c-9.312-10.97-20.365-18.905-34.529-21.425l-.03-.005 3.976-22.42z" fill="#F1F1F1"/></svg>