<svg width="90" height="91" fill="none" xmlns="http://www.w3.org/2000/svg"><path d="M43.29 62.583c2.907 5.021 1.163 11.417-3.806 14.271-5.02 2.907-11.417 1.163-14.271-3.806-2.907-5.021-1.163-11.417 3.806-14.271 5.021-2.907 11.417-1.216 14.271 3.806zm-12.157-.212a6.237 6.237 0 00-2.273 8.563 6.237 6.237 0 008.563 2.273 6.237 6.237 0 002.273-8.563c-1.744-2.96-5.603-4.017-8.563-2.273zm-1.427-23.363c2.907 5.022 1.163 11.418-3.806 14.272-5.021 2.907-11.417 1.163-14.271-3.806-2.908-5.021-1.163-11.417 3.805-14.271 5.022-2.907 11.418-1.163 14.272 3.805zm-12.21-.158a6.237 6.237 0 00-2.273 8.563 6.237 6.237 0 008.563 2.273 6.237 6.237 0 002.273-8.563c-1.692-3.013-5.55-4.017-8.563-2.273z" fill="#213A8F"/><path d="M27.697 83.673L3.647 42.022 0 44.136 13.584 67.71c-2.22 1.269-4.704 2.696-5.444 3.119-5.02 2.907-6.713 9.303-3.806 14.271 2.908 5.021 9.303 6.712 14.272 3.805.793-.423 9.091-5.233 9.091-5.233zM16.544 85.26c-3.012 1.744-6.818.687-8.562-2.273-1.745-3.013-.688-6.819 2.272-8.563.74-.423 3.225-1.85 5.445-3.118l2.114 3.647-5.444 3.118 2.114 3.648 5.444-3.119 2.115 3.647a201.946 201.946 0 00-5.498 3.013z" fill="#E40421"/><path d="M61.896 63.905l4.228-2.431-10.465-6.026V43.397l-4.176 2.378v9.673l-2.854 1.639-4.229-7.242-3.594 2.114 10.466 18.13 3.594-2.114-4.176-7.241 2.854-1.639 8.352 4.81z" fill="#191919"/><path d="M64.01 38.533c-5.021 2.907-6.713 9.303-3.806 14.271 2.908 5.022 9.303 6.713 14.272 3.806a10.377 10.377 0 004.863-6.343l-4.017-1.057c-.423 1.533-1.427 2.96-2.907 3.806-2.379 1.374-5.233 1.004-7.242-.687L79.18 44.24a12.254 12.254 0 00-.845-1.902c-2.907-4.97-9.303-6.66-14.325-3.806zm-.951 10.201c-.476-2.537.687-5.233 3.013-6.607 2.378-1.374 5.233-1.004 7.241.687l-10.254 5.92zm22.729-22.728v10.836l-9.409-5.445-4.175 2.432 13.584 7.875v8.458l4.176-2.432V23.574l-4.176 2.432zM48.312 40.384l4.176-2.432-10.413-6.025V19.822l-4.229 2.432v9.673l-2.854 1.638-4.176-7.241-3.594 2.061 10.465 18.13 3.595-2.061-4.176-7.294 2.854-1.639 8.352 4.863z" fill="#191919"/><path d="M50.426 15.011c-5.022 2.908-6.713 9.303-3.806 14.272 2.907 5.021 9.303 6.713 14.272 3.806a10.377 10.377 0 004.862-6.343l-4.017-1.057c-.422 1.532-1.427 2.96-2.907 3.805-2.378 1.375-5.233 1.005-7.241-.687l14.007-8.087c-.212-.634-.529-1.269-.846-1.903-2.96-4.969-9.356-6.713-14.324-3.806zm-.952 10.202c-.475-2.537.688-5.233 3.013-6.607 2.379-1.375 5.233-1.005 7.242.687l-10.255 5.92zM72.203 2.431v10.89l-9.409-5.445-4.228 2.431 13.637 7.823v8.457l4.176-2.431V0l-4.176 2.431z" fill="#191919"/><path d="M38.533 68.978c.846 1.48.37 3.436-1.163 4.282-1.48.846-3.435.37-4.281-1.163-.846-1.48-.37-3.436 1.163-4.281 1.48-.9 3.435-.37 4.281 1.162zM24.949 45.404c.845 1.48.37 3.436-1.163 4.282-1.48.846-3.436.37-4.282-1.163-.845-1.48-.37-3.436 1.163-4.282 1.48-.845 3.436-.317 4.282 1.163z" fill="#213A8F"/></svg>