<svg width="228" height="273" fill="none" xmlns="http://www.w3.org/2000/svg"><path fill-rule="evenodd" clip-rule="evenodd" d="M117.093 123.717a21.19 21.19 0 01.248-13.438 21.2 21.2 0 013.289-5.982l-.003.003a21.209 21.209 0 014.779-4.475l-.026.025a21.203 21.203 0 0125.173.944h.001a21.188 21.188 0 014.499 4.927l-23.55 22.05c1.269.707 2.596 1.291 3.965 1.638 1.262.32 2.559.438 3.879.263.095-.012.191-.026.286-.042 1.552-.255 2.939-.694 4.194-1.374 1.144-.62 2.178-1.44 3.125-2.503l.104-.117c1.062-1.22 1.931-2.516 2.524-3.918.528-1.248.839-2.58.875-4.019l4.833.121 3.238.081v.006a21.12 21.12 0 01-1.214 6.554 21.203 21.203 0 01-3.892 6.718l-.102.119a21.223 21.223 0 01-12.27 6.949l-.285.049a21.214 21.214 0 01-16.221-4.007h-.001a21.22 21.22 0 01-4.628-4.807l.004-.004a21.236 21.236 0 01-2.824-5.761zm9.511-.499l17.953-16.81a12.518 12.518 0 00-.85-.516 13.127 13.127 0 00-8.222-1.524 13.153 13.153 0 00-7.958 4.26l-.103.117a13.147 13.147 0 00-2.474 4.234c-.54 1.522-.688 2.788-.552 4.067.12 1.142.467 2.294.962 3.648a13.115 13.115 0 001.244 2.524zm-91.869 130.9a21.21 21.21 0 013.538-19.421l-.002.002a21.209 21.209 0 014.776-4.473l-.025.024a21.185 21.185 0 0115.183-3.437 21.18 21.18 0 019.99 4.382l.001-.001a21.188 21.188 0 014.5 4.928l-23.55 22.049c1.269.707 2.596 1.292 3.965 1.639 1.262.319 2.559.437 3.879.263.095-.013.19-.027.286-.043 1.551-.254 2.939-.694 4.194-1.374 1.144-.62 2.178-1.44 3.125-2.502l.103-.118c1.063-1.22 1.931-2.515 2.525-3.918.528-1.248.838-2.58.874-4.019l4.834.121 3.238.081v.006a21.184 21.184 0 01-1.214 6.554 21.205 21.205 0 01-3.892 6.719l-.103.118a21.17 21.17 0 01-5.118 4.279 21.207 21.207 0 01-23.658-1.288 21.191 21.191 0 01-4.628-4.807l.004-.004a21.211 21.211 0 01-2.825-5.76zm9.511-.5l17.954-16.81a13.175 13.175 0 00-5.227-2.016 13.15 13.15 0 00-4.132.02 13.121 13.121 0 00-7.775 4.334 13.132 13.132 0 00-2.473 4.233c-.54 1.523-.688 2.789-.553 4.068.121 1.141.468 2.293.963 3.648a13.112 13.112 0 001.243 2.523zm89.624-69.657a21.19 21.19 0 01.248-13.438 21.227 21.227 0 013.29-5.984l-.003.003a21.216 21.216 0 014.776-4.472l-.027.025a21.207 21.207 0 0125.176.943 21.192 21.192 0 014.5 4.927l-23.55 22.05c1.269.707 2.596 1.291 3.965 1.638 1.262.32 2.559.438 3.879.263.095-.012.19-.026.286-.042 1.551-.255 2.939-.694 4.194-1.374 1.144-.62 2.178-1.44 3.125-2.502l.104-.118c1.062-1.22 1.931-2.516 2.524-3.918.528-1.248.839-2.58.875-4.019l4.833.121 3.238.081v.006a21.258 21.258 0 01-1.214 6.554 21.203 21.203 0 01-3.892 6.718l-.102.119a21.223 21.223 0 01-12.27 6.949l-.285.049a21.214 21.214 0 01-14.134-2.616l-.242-.143a21.204 21.204 0 01-6.475-6.055l.005-.004a21.236 21.236 0 01-2.824-5.761zm9.51-.5l17.954-16.809a13.575 13.575 0 00-.85-.516 13.127 13.127 0 00-8.508-1.48 13.131 13.131 0 00-7.672 4.216l-.103.117a13.147 13.147 0 00-2.474 4.234c-.54 1.523-.688 2.788-.553 4.068.121 1.141.468 2.293.963 3.647a13.082 13.082 0 001.243 2.523zM4.995 131.344a21.203 21.203 0 013.537-19.421l-.001.002a21.18 21.18 0 014.776-4.472l-.025.024a21.225 21.225 0 0115.183-3.438 21.204 21.204 0 019.99 4.382 21.182 21.182 0 014.5 4.927l-23.55 22.05c1.27.707 2.597 1.291 3.965 1.638 1.262.32 2.56.438 3.88.263a7.1 7.1 0 00.285-.042c1.552-.255 2.94-.694 4.195-1.374 1.143-.62 2.177-1.44 3.125-2.503l.103-.117c1.063-1.22 1.931-2.516 2.525-3.918.528-1.248.838-2.58.874-4.019l4.834.121 3.237.081v.006a21.21 21.21 0 01-10.326 17.67 21.207 21.207 0 01-23.658-1.288 21.213 21.213 0 01-4.629-4.807l.004-.004a21.197 21.197 0 01-2.824-5.761zm9.511-.5l17.954-16.809a13.192 13.192 0 00-.85-.516 13.102 13.102 0 00-4.377-1.5 13.081 13.081 0 00-4.132.019 13.141 13.141 0 00-7.775 4.334 13.126 13.126 0 00-2.473 4.234c-.54 1.522-.688 2.788-.553 4.067.12 1.142.467 2.294.963 3.648a13.185 13.185 0 001.243 2.523zm89.623-69.656a21.217 21.217 0 013.539-19.422l-.004.003a21.192 21.192 0 014.777-4.472l-.027.025a21.203 21.203 0 0125.175.943h.001a21.195 21.195 0 014.5 4.927l-23.55 22.05c1.269.706 2.596 1.29 3.965 1.638 1.262.32 2.559.438 3.879.263l.286-.042c1.551-.255 2.939-.694 4.194-1.374 1.144-.62 2.178-1.44 3.125-2.503l.103-.117c1.063-1.22 1.931-2.516 2.525-3.919a10.91 10.91 0 00.874-4.019l4.834.121 3.238.081-.001.007a21.244 21.244 0 01-1.213 6.554 21.207 21.207 0 01-32.771 9.827 21.2 21.2 0 01-4.629-4.806l.005-.005a21.187 21.187 0 01-2.825-5.76zm9.511-.5l17.954-16.81a13.565 13.565 0 00-.851-.515 13.12 13.12 0 00-8.508-1.48 13.138 13.138 0 00-7.671 4.215l-.104.118a13.14 13.14 0 00-2.473 4.233c-.54 1.523-.688 2.789-.553 4.068.121 1.142.468 2.294.963 3.648a13.23 13.23 0 001.243 2.523zm-6.236 84.017a21.216 21.216 0 01-3.537 19.42l.003-.003a21.206 21.206 0 01-4.78 4.475l.027-.025a21.207 21.207 0 01-25.173-.944h-.001a21.183 21.183 0 01-4.5-4.927l23.55-22.05c-1.268-.707-2.596-1.291-3.965-1.638-1.262-.32-2.559-.438-3.878-.263a7.1 7.1 0 00-.287.042c-1.551.255-2.939.694-4.194 1.374-1.144.62-2.177 1.44-3.125 2.503l-.103.117c-1.063 1.22-1.931 2.516-2.525 3.918a10.911 10.911 0 00-.874 4.019l-4.834-.121-3.237-.081v-.006a21.197 21.197 0 015.105-13.272l.103-.119a21.217 21.217 0 0112.555-6.998 21.212 21.212 0 0116.22 4.007h.001a21.182 21.182 0 014.628 4.807l-.004.004a21.156 21.156 0 012.825 5.761zm-9.511.499l-17.954 16.81a13.195 13.195 0 00.85.516 13.124 13.124 0 008.509 1.48 13.14 13.14 0 007.775-4.333 13.134 13.134 0 002.473-4.234c.54-1.523.688-2.788.553-4.068-.12-1.141-.468-2.293-.963-3.647a12.986 12.986 0 00-1.243-2.524zM204.25 76.838a21.217 21.217 0 01-3.537 19.42l.003-.003a21.203 21.203 0 01-4.78 4.475l.027-.025a21.19 21.19 0 01-15.182 3.437 21.18 21.18 0 01-7.218-2.507l-.244-.14a21.257 21.257 0 01-2.529-1.735h-.001a21.197 21.197 0 01-4.5-4.926l23.551-22.05c-1.269-.707-2.597-1.291-3.965-1.638-1.262-.32-2.56-.438-3.879-.264a9.087 9.087 0 00-.286.043c-1.552.255-2.94.694-4.195 1.374-1.143.62-2.177 1.44-3.124 2.502l-.104.118c-1.063 1.22-1.931 2.516-2.525 3.918a10.91 10.91 0 00-.874 4.02l-4.833-.122-3.238-.081v-.006a21.116 21.116 0 011.214-6.554 21.187 21.187 0 013.892-6.718l.102-.119a21.207 21.207 0 0128.776-2.99v-.001a21.22 21.22 0 014.629 4.807l-.004.004a21.184 21.184 0 012.824 5.76zm-9.511.5l-17.954 16.809a12.966 12.966 0 00.851.516 13.134 13.134 0 0018.756-7.087c.541-1.523.689-2.789.553-4.068-.121-1.141-.467-2.293-.962-3.647a13.245 13.245 0 00-1.244-2.524zM124.18 204.949a21.19 21.19 0 01-.248 13.438 21.2 21.2 0 01-3.289 5.982l.003-.003a21.198 21.198 0 01-4.779 4.475l.026-.025a21.225 21.225 0 01-8.51 3.406l-.286.045a21.162 21.162 0 01-6.386-.013 21.204 21.204 0 01-9.991-4.382 21.18 21.18 0 01-4.5-4.927l23.55-22.05c-1.269-.707-2.596-1.291-3.965-1.638-1.262-.32-2.56-.438-3.879-.263a7.039 7.039 0 00-.286.042c-1.552.255-2.94.694-4.195 1.374-1.143.62-2.177 1.44-3.124 2.503l-.104.117c-1.062 1.22-1.93 2.516-2.524 3.918a10.911 10.911 0 00-.875 4.019l-4.833-.121-3.238-.081v-.006a21.21 21.21 0 0110.327-17.67 21.206 21.206 0 017.151-2.67l.285-.049a21.214 21.214 0 0116.221 4.007h.001a21.22 21.22 0 014.628 4.807l-.004.004a21.222 21.222 0 012.824 5.761zm-9.511.499l-17.953 16.81a13.195 13.195 0 00.85.516 13.123 13.123 0 008.508 1.481 13.133 13.133 0 007.672-4.217l.103-.117a13.147 13.147 0 002.474-4.234c.54-1.522.688-2.788.552-4.067-.12-1.142-.467-2.294-.962-3.648a13.115 13.115 0 00-1.244-2.524zm107.883-70.655a21.214 21.214 0 01-3.54 19.424l.004-.004a21.237 21.237 0 01-4.776 4.472l.029-.028a21.185 21.185 0 01-15.186 3.44 21.178 21.178 0 01-9.991-4.381l-.001.001a21.177 21.177 0 01-4.5-4.928l23.551-22.05c-1.269-.707-2.597-1.291-3.966-1.638-1.262-.32-2.559-.438-3.878-.264a9.463 9.463 0 00-.287.043c-1.551.255-2.939.694-4.194 1.374-1.144.62-2.177 1.44-3.125 2.502l-.103.118c-1.063 1.22-1.931 2.516-2.525 3.918a10.911 10.911 0 00-.874 4.019l-4.834-.121-3.238-.081.001-.006a21.107 21.107 0 011.214-6.554 21.18 21.18 0 017.273-9.883 21.208 21.208 0 0125.921.384 21.216 21.216 0 014.205 4.479l-.004.003a21.193 21.193 0 012.824 5.761zm-9.511.5l-17.953 16.809a12.994 12.994 0 00.85.516 13.121 13.121 0 008.508 1.48 13.12 13.12 0 007.671-4.216l.104-.117a13.126 13.126 0 002.473-4.234c.54-1.523.688-2.789.553-4.068-.121-1.141-.468-2.293-.963-3.647a13.023 13.023 0 00-1.243-2.523zM94.44 82.175a21.205 21.205 0 01-3.56 19.449 21.167 21.167 0 01-4.75 4.44l.023-.021a21.185 21.185 0 01-15.182 3.437 21.18 21.18 0 01-10.204-4.553 21.177 21.177 0 01-4.287-4.756l23.55-22.05c-1.27-.706-2.597-1.29-3.966-1.638-1.261-.32-2.559-.437-3.878-.263-.096.013-.19.027-.286.043-1.552.254-2.94.694-4.195 1.374-1.144.62-2.177 1.44-3.124 2.502l-.104.118c-1.063 1.22-1.931 2.515-2.525 3.918a10.91 10.91 0 00-.874 4.019l-4.834-.121-3.237-.081v-.006A21.206 21.206 0 0186.99 71.604a21.205 21.205 0 014.629 4.806l-.005.005a21.203 21.203 0 012.825 5.76zm-9.511.5l-17.954 16.81a13.16 13.16 0 005.228 2.016 13.15 13.15 0 004.131-.02 13.127 13.127 0 0010.248-8.567c.54-1.523.689-2.789.553-4.068-.12-1.141-.467-2.293-.963-3.648a13.16 13.16 0 00-1.243-2.523zm106.357-63.792a21.19 21.19 0 01-.248 13.438 21.209 21.209 0 01-3.289 5.982l.002-.002a21.194 21.194 0 01-4.777 4.473l.026-.024a21.203 21.203 0 01-25.174-.944 21.179 21.179 0 01-4.501-4.928l23.551-22.05c-1.269-.706-2.596-1.29-3.965-1.637-1.262-.32-2.56-.438-3.879-.264a9.087 9.087 0 00-.286.043c-1.552.255-2.939.694-4.194 1.374-1.144.62-2.178 1.44-3.125 2.502l-.104.118c-1.062 1.22-1.931 2.515-2.524 3.918a10.91 10.91 0 00-.875 4.019l-4.833-.121-3.238-.081v-.006a21.116 21.116 0 011.214-6.554 21.207 21.207 0 0130.683-11.22l.241.144a21.2 21.2 0 016.475 6.055l-.004.004a21.229 21.229 0 012.824 5.76zm-9.511.5l-17.953 16.809a12.435 12.435 0 00.85.516 13.132 13.132 0 0016.18-2.736l.103-.118a13.121 13.121 0 002.473-4.233c.541-1.523.689-2.789.553-4.068-.121-1.141-.467-2.293-.962-3.648a13.104 13.104 0 00-1.244-2.523z" fill="#E8E8E8"/></svg>