<svg width="181" height="196" fill="none" xmlns="http://www.w3.org/2000/svg"><path d="M116.699 7.601c18.857-7.41 40.027 1.957 47.283 20.605 7.411 18.858-1.957 40.027-20.604 47.283-18.858 7.411-40.028-1.957-47.284-20.604-7.411-18.858 1.774-40.056 20.605-47.284zm-7.089 41.864c4.446 11.315 17.061 16.773 28.375 12.326 11.315-4.446 16.773-17.06 12.327-28.376-4.447-11.314-17.061-16.772-28.376-12.326-11.132 4.474-16.801 17.244-12.326 28.376zM28.2 42.171c18.858-7.41 40.028 1.957 47.284 20.605 7.41 18.858-1.957 40.028-20.605 47.284-18.858 7.41-40.028-1.957-47.284-20.605C.185 70.597 9.552 49.427 28.2 42.17zm-6.934 42.074c4.447 11.315 17.061 16.773 28.376 12.326 11.314-4.446 16.773-17.06 12.326-28.375-4.446-11.315-17.061-16.773-28.376-12.327C22.305 60.133 16.82 72.93 21.266 84.245z" fill="#213A8F"/><path d="M122.783 38.836c5.552-2.146 12.056.52 14.174 6.254 2.146 5.553-.52 12.056-6.255 14.174-5.552 2.146-12.055-.52-14.174-6.254-2.328-5.58.52-12.056 6.255-14.174zm-88.499 34.57c5.552-2.146 12.056.52 14.174 6.254 2.146 5.552-.52 12.056-6.255 14.174-5.552 2.146-12.055-.52-14.174-6.254-2.145-5.553.703-12.029 6.255-14.174z" fill="#000"/><rect x="62.17" y="125.708" width="95.331" height="57.828" rx="28.914" transform="rotate(-25.299 62.17 125.708)" stroke="#E40521" stroke-width="11"/><g filter="url(#filter0_d_279_2376)"><circle cx="125.289" cy="150.026" r="26.348" fill="#fff"/><circle cx="125.289" cy="150.026" r="22.348" stroke="#E40521" stroke-width="8"/></g><path fill="#fff" d="M106.469 120.449h21.509v19.358h-21.509z"/><circle cx="117.761" cy="130.666" r="13.82" stroke="#E40521" stroke-width="10"/><defs><filter id="filter0_d_279_2376" x="83.941" y="112.678" width="82.697" height="82.697" filterUnits="userSpaceOnUse" color-interpolation-filters="sRGB"><feFlood flood-opacity="0" result="BackgroundImageFix"/><feColorMatrix in="SourceAlpha" values="0 0 0 0 0 0 0 0 0 0 0 0 0 0 0 0 0 0 127 0" result="hardAlpha"/><feOffset dy="4"/><feGaussianBlur stdDeviation="7.5"/><feComposite in2="hardAlpha" operator="out"/><feColorMatrix values="0 0 0 0 0 0 0 0 0 0 0 0 0 0 0 0 0 0 0.1 0"/><feBlend in2="BackgroundImageFix" result="effect1_dropShadow_279_2376"/><feBlend in="SourceGraphic" in2="effect1_dropShadow_279_2376" result="shape"/></filter></defs></svg>