<svg width="34" height="34" fill="none" xmlns="http://www.w3.org/2000/svg"><path d="M27.147 9.488a4.577 4.577 0 00-2.03-3.803 4.531 4.531 0 00-2.56-.787H21.42v2.795a1.06 1.06 0 01-1.063 1.062 1.066 1.066 0 01-1.062-1.062V4.898H9.977v2.795c0 .584-.478 1.062-1.063 1.062a1.059 1.059 0 01-1.062-1.062V4.898H6.715a4.53 4.53 0 00-3.24 1.35 4.534 4.534 0 00-1.35 3.24v.702h25.022v-.702zM6.715 28.199h9.552a9.446 9.446 0 01-1.275-4.75c0-5.248 4.26-9.509 9.499-9.509.924 0 1.817.128 2.656.372v-1.997H2.125v11.304c0 2.53 2.061 4.58 4.59 4.58z" fill="#E40421"/><path d="M9.977 4.24c0-.584-.479-1.062-1.063-1.062-.595 0-1.062.478-1.062 1.062v.66h2.125v-.66zm11.443 0a1.06 1.06 0 00-1.063-1.062c-.584 0-1.062.478-1.062 1.062v.66h2.125v-.66zm3.07 11.826c-4.068 0-7.373 3.315-7.373 7.385a7.378 7.378 0 007.374 7.373c4.07 0 7.384-3.304 7.384-7.373 0-4.07-3.315-7.385-7.384-7.385zm2.094 8.447h-2.093a1.066 1.066 0 01-1.063-1.062v-2.189c0-.584.479-1.063 1.063-1.063a1.06 1.06 0 011.062 1.063v1.126h1.031a1.06 1.06 0 011.063 1.063c0 .584-.478 1.062-1.063 1.062z" fill="#E40421"/></svg>