<svg width="29" height="29" fill="none" xmlns="http://www.w3.org/2000/svg"><g clip-path="url(#clip0_279_2041)" fill="#E40421"><path d="M6.344 22.656a5.435 5.435 0 01-4.06-1.812 5.374 5.374 0 00-1.378 3.625v1.812a1.812 1.812 0 001.813 1.813h7.25a1.813 1.813 0 001.812-1.813V24.47a5.437 5.437 0 00-1.377-3.625 5.436 5.436 0 01-4.06 1.812zm.036-1.812a3.625 3.625 0 100-7.25 3.625 3.625 0 000 7.25zm20.336 0a5.438 5.438 0 01-8.084 0 5.374 5.374 0 00-1.413 3.625v1.812a1.812 1.812 0 001.812 1.813h7.25a1.813 1.813 0 001.813-1.813V24.47a5.438 5.438 0 00-1.378-3.625zm-4.023 0a3.625 3.625 0 100-7.25 3.625 3.625 0 000 7.25zm-1.849-9.063a1.812 1.812 0 001.812-1.812v-7.25A1.812 1.812 0 0020.844.906H8.156A1.813 1.813 0 006.344 2.72v7.25a1.812 1.812 0 001.812 1.812h3.109l2.456 4.087a.906.906 0 001.558 0l2.456-4.087h3.109z"/></g><defs><clipPath id="clip0_279_2041"><path fill="#fff" d="M0 0h29v29H0z"/></clipPath></defs></svg>