<svg width="31" height="31" fill="none" xmlns="http://www.w3.org/2000/svg"><path d="M21.803 28.288H2.87a2.422 2.422 0 01-2.307-3.16l1.992-6.224a3.633 3.633 0 014.777-2.277c1.296.503 2.961.896 5.001.896 1.63 0 3.022-.254 4.178-.611a3.222 3.222 0 003.21 3.003h1.192v1.193a3.22 3.22 0 002.93 3.203l.26.817a2.413 2.413 0 01-2.3 3.16zm-9.463-13.09a6.242 6.242 0 100-12.485 6.242 6.242 0 000 12.485z" fill="#E40521"/><path d="M28.548 14.69h-2.403v-2.405a2.003 2.003 0 00-2.005-2.004 2.003 2.003 0 00-2.004 2.004v2.404h-2.403a2.003 2.003 0 00-2.005 2.004c0 1.108.897 2.004 2.005 2.004h2.403v2.404c0 1.108.896 2.004 2.004 2.004a2.003 2.003 0 002.005-2.004v-2.404h2.403a2.003 2.003 0 002.004-2.004 2.006 2.006 0 00-2.004-2.004z" fill="#E40521"/></svg>