<svg width="218" height="233" viewBox="0 0 218 233" fill="none" xmlns="http://www.w3.org/2000/svg">
<path d="M141.027 9.18607C163.816 0.230334 189.399 11.551 198.167 34.0862C207.123 56.8753 195.802 82.4583 173.267 91.2269C150.478 100.183 124.895 88.8619 116.127 66.3268C107.171 43.5377 118.271 17.9213 141.027 9.18607ZM132.46 59.7771C137.833 73.4505 153.077 80.0465 166.751 74.673C180.424 69.2996 187.02 54.0554 181.647 40.3819C176.273 26.7084 161.029 20.1125 147.356 25.486C133.903 30.8928 127.053 46.3242 132.46 59.7771Z" fill="#213A8F"/>
<path d="M34.0788 50.9639C56.8679 42.0082 82.4509 53.3289 91.2196 75.864C100.175 98.6531 88.8546 124.236 66.3195 133.005C43.5304 141.96 17.9474 130.64 9.17877 108.105C0.22304 85.3155 11.5437 59.7325 34.0788 50.9639ZM25.6992 101.809C31.0727 115.482 46.3169 122.078 59.9903 116.705C73.6638 111.331 80.2597 96.0872 74.8863 82.4137C69.5128 68.7403 54.2686 62.1443 40.5951 67.5178C26.9551 72.6707 20.3258 88.1354 25.6992 101.809Z" fill="#213A8F"/>
<path d="M148.379 46.9319C155.088 44.3387 162.948 47.5598 165.507 54.4901C168.101 61.1999 164.879 69.0592 157.949 71.619C151.239 74.2121 143.38 70.991 140.82 64.0607C138.007 57.3176 141.448 49.4916 148.379 46.9319Z" fill="black"/>
<path d="M41.4306 88.7096C48.1404 86.1164 55.9997 89.3375 58.5595 96.2678C61.1526 102.978 57.9315 110.837 51.0012 113.397C44.2914 115.99 36.4321 112.769 33.8724 105.838C31.2792 99.1287 34.7209 91.3027 41.4306 88.7096Z" fill="black"/>
<rect x="73.6041" y="151.368" width="117.498" height="72.1768" rx="36.0884" transform="rotate(-25.299 73.6041 151.368)" stroke="#E40521" stroke-width="11"/>
<g filter="url(#filter0_d_279_3386)">
<circle cx="151.408" cy="181.3" r="31.8411" fill="white"/>
<circle cx="151.408" cy="181.3" r="27.8411" stroke="#E40521" stroke-width="8"/>
</g>
<rect x="128.664" y="145.56" width="25.9927" height="23.3935" fill="white"/>
<circle cx="142.31" cy="157.906" r="17.7436" stroke="#E40521" stroke-width="10"/>
<defs>
<filter id="filter0_d_279_3386" x="104.566" y="138.459" width="93.6821" height="93.6826" filterUnits="userSpaceOnUse" color-interpolation-filters="sRGB">
<feFlood flood-opacity="0" result="BackgroundImageFix"/>
<feColorMatrix in="SourceAlpha" type="matrix" values="0 0 0 0 0 0 0 0 0 0 0 0 0 0 0 0 0 0 127 0" result="hardAlpha"/>
<feOffset dy="4"/>
<feGaussianBlur stdDeviation="7.5"/>
<feComposite in2="hardAlpha" operator="out"/>
<feColorMatrix type="matrix" values="0 0 0 0 0 0 0 0 0 0 0 0 0 0 0 0 0 0 0.1 0"/>
<feBlend mode="normal" in2="BackgroundImageFix" result="effect1_dropShadow_279_3386"/>
<feBlend mode="normal" in="SourceGraphic" in2="effect1_dropShadow_279_3386" result="shape"/>
</filter>
</defs>
</svg>
