<svg width="461" height="225" viewBox="0 0 461 225" fill="none" xmlns="http://www.w3.org/2000/svg">
<circle cx="348.628" cy="112.983" r="94.0943" transform="rotate(89.783 348.628 112.983)" fill="white" stroke="#213A8F" stroke-width="35"/>
<path d="M328.296 73.1897C331.992 82.647 327.487 93.758 317.719 97.4083C308.261 101.104 297.15 96.5997 293.5 86.831C289.804 77.3737 294.309 66.2627 304.077 62.6125C313.535 58.9163 324.6 63.7324 328.296 73.1897Z" fill="black"/>
<circle cx="112.016" cy="112.016" r="94.0943" transform="rotate(89.783 112.016 112.016)" fill="white" stroke="#213A8F" stroke-width="35"/>
<path d="M91.6835 73.1897C95.3797 82.647 90.875 93.758 81.1062 97.4083C71.649 101.104 60.538 96.5997 56.8877 86.831C53.1915 77.3737 57.6962 66.2627 67.4649 62.6125C76.9222 58.9163 87.9873 63.7324 91.6835 73.1897Z" fill="black"/>
</svg>
