<svg width="438" height="383" viewBox="0 0 438 383" fill="none" xmlns="http://www.w3.org/2000/svg">
<path d="M227.036 36.9386C261.528 17.8503 304.744 30.5388 323.48 64.6643C342.568 99.1558 329.88 142.372 295.754 161.108C261.263 180.196 218.047 167.508 199.31 133.382C180.222 98.8909 192.552 55.6679 227.036 36.9386ZM224.003 119.492C235.456 140.187 261.176 147.509 281.871 136.056C302.566 124.603 309.888 98.8832 298.435 78.1883C286.982 57.4934 261.262 50.1717 240.567 61.6247C220.231 73.0847 212.544 99.1565 224.003 119.492Z" fill="#F5F5F5"/>
<path d="M65.1156 126.118C99.6071 107.03 142.823 119.718 161.559 153.844C180.648 188.335 167.959 231.551 133.834 250.288C99.3422 269.376 56.1262 256.688 37.39 222.562C18.3016 188.071 30.9901 144.855 65.1156 126.118ZM62.4351 209.038C73.8881 229.733 99.6078 237.055 120.303 225.602C140.998 214.149 148.319 188.429 136.866 167.734C125.413 147.039 99.6936 139.717 78.9987 151.17C58.3107 162.264 50.9821 188.343 62.4351 209.038Z" fill="#F5F5F5"/>
<path d="M368.251 145.626L82.162 303.525L96.0451 328.577L257.965 239.397C266.291 254.643 275.659 271.706 278.434 276.788C297.523 311.28 340.745 323.609 374.878 304.514C409.369 285.426 421.699 242.203 402.604 208.07C399.835 202.629 368.251 145.626 368.251 145.626ZM377.558 221.594C389.011 242.289 381.331 268.002 360.995 279.462C340.3 290.915 314.587 283.234 303.127 262.898C300.352 257.816 290.984 240.753 282.658 225.507L307.71 211.623L328.179 249.015L353.231 235.132L332.762 197.74L357.814 183.857C365.422 199.09 374.783 216.512 377.558 221.594Z" fill="#F5F5F5"/>
<path d="M231.678 77.0797C241.842 71.5292 255.065 75.0175 260.608 85.541C266.159 95.7055 262.67 108.928 252.147 114.471C241.982 120.022 228.76 116.534 223.216 106.01C217.307 95.8387 221.154 82.6232 231.678 77.0797Z" fill="#F5F5F5"/>
<path d="M69.7593 166.258C79.9238 160.708 93.1462 164.196 98.6897 174.72C104.24 184.884 100.752 198.107 90.2283 203.65C80.0639 209.201 66.8415 205.712 61.298 195.189C55.7476 185.024 59.5949 171.809 69.7593 166.258Z" fill="#F5F5F5"/>
</svg>
