<svg width="201" height="200" viewBox="0 0 201 200" fill="none" xmlns="http://www.w3.org/2000/svg">
<path fill-rule="evenodd" clip-rule="evenodd" d="M115.62 15.8726L117.474 5.41186L118.283 0.853443C140.936 4.87017 161.5 16.5832 176.507 34.0013C176.602 34.1123 176.698 34.2234 176.793 34.3348C176.857 34.4103 176.921 34.4858 176.986 34.5615C177.356 34.9983 177.723 35.438 178.086 35.8804C192.154 53.0433 200.107 74.4081 200.682 96.5989C200.694 97.0526 200.703 97.5066 200.708 97.9609C200.994 121.211 193.158 143.833 178.552 161.925C178.275 162.268 177.995 162.61 177.713 162.95C175.47 165.654 173.094 168.228 170.598 170.664L170.6 170.666C154.115 186.767 132.008 197.273 107.208 198.856C81.267 200.512 57.0086 192.109 38.2403 177C36.0005 175.197 33.8423 173.302 31.7711 171.318C14.9934 155.259 3.7385 133.339 1.41718 108.559C1.22925 106.565 1.10139 104.566 1.03371 102.564C0.188659 77.9709 8.36174 55.0385 22.6523 37.0632C24.7844 34.3796 27.0551 31.8051 29.4562 29.3506C37.9091 20.7043 47.9378 13.5688 59.1191 8.42541L145.164 133.648C153.211 123.252 159.307 111.532 159.555 98.4671C159.564 98.0145 159.566 97.5604 159.56 97.1046C159.433 86.7454 157.398 77.6249 152.796 69.2345C151.111 66.1627 149.082 63.1889 146.677 60.2879C146.52 60.0994 146.362 59.9112 146.203 59.7233C136.891 48.7532 125.838 40.8183 111.674 38.2985L111.644 38.2931L115.62 15.8726Z" fill="#F1F1F1"/>
</svg>
