<svg width="90" height="91" viewBox="0 0 90 91" fill="none" xmlns="http://www.w3.org/2000/svg">
<path d="M43.2903 62.5826C46.1975 67.604 44.4532 73.9998 39.4845 76.8541C34.4631 79.7613 28.0673 78.017 25.213 73.0484C22.3058 68.0269 24.0501 61.6311 29.0187 58.7768C34.0402 55.8696 40.436 57.5611 43.2903 62.5826ZM31.133 62.3711C28.1202 64.1154 27.1159 67.9212 28.8602 70.9341C30.6045 73.947 34.4102 74.9513 37.4231 73.2069C40.436 71.4626 41.4403 67.6569 39.696 64.644C37.9517 61.684 34.0931 60.6268 31.133 62.3711Z" fill="#213A8F"/>
<path d="M29.7058 39.0085C32.613 44.03 30.8687 50.4257 25.9001 53.28C20.8786 56.1872 14.4828 54.4429 11.6285 49.4743C8.72134 44.4528 10.4656 38.057 15.4343 35.2027C20.4557 32.2956 26.8515 34.0399 29.7058 39.0085ZM17.4957 38.8499C14.4828 40.5942 13.4785 44.4 15.2228 47.4129C16.9671 50.4257 20.7729 51.43 23.7858 49.6857C26.7987 47.9414 27.803 44.1357 26.0587 41.1228C24.3672 38.1099 20.5086 37.1056 17.4957 38.8499Z" fill="#213A8F"/>
<path d="M27.6974 83.6733L3.64718 42.0215L0 44.1358L13.5844 67.7103C11.3644 68.9789 8.88009 70.406 8.14008 70.8289C3.1186 73.7361 1.42716 80.1319 4.33433 85.1005C7.2415 90.122 13.6373 91.8134 18.6059 88.9062C19.3988 88.4834 27.6974 83.6733 27.6974 83.6733ZM16.5444 85.259C13.5316 87.0033 9.72581 85.9462 7.98151 82.9862C6.23721 79.9733 7.29436 76.1675 10.2544 74.4232C10.9944 74.0004 13.4787 72.5732 15.6987 71.3046L17.813 74.9518L12.3687 78.0704L14.483 81.7176L19.9273 78.599L22.0416 82.2462C19.8216 83.409 17.2845 84.8362 16.5444 85.259Z" fill="#E40421"/>
<path d="M61.8959 63.9053L66.1245 61.4738L55.6587 55.448V43.3965L51.4829 45.7751V55.448L48.6286 57.0866L44.4 49.8451L40.8057 51.9594L51.2715 70.0896L54.8658 67.9753L50.6901 60.7338L53.5444 59.0952L61.8959 63.9053Z" fill="#191919"/>
<path d="M64.0103 38.5328C58.9888 41.4399 57.2974 47.8357 60.2045 52.8043C63.1117 57.8258 69.5075 59.5172 74.4761 56.6101C76.9604 55.1829 78.6519 52.8572 79.339 50.2672L75.3218 49.21C74.899 50.7429 73.8947 52.17 72.4147 53.0157C70.0361 54.39 67.1817 54.0201 65.1732 52.3286L79.1804 44.2414C78.969 43.6071 78.6519 42.9199 78.3347 42.3385C75.4275 37.3699 69.0318 35.6784 64.0103 38.5328ZM63.0589 48.7343C62.5831 46.1971 63.746 43.5014 66.0717 42.1271C68.4503 40.7528 71.3046 41.1228 73.3132 42.8142L63.0589 48.7343Z" fill="#191919"/>
<path d="M85.788 26.0057V36.8415L76.3794 31.3972L72.2036 33.8286L85.788 41.7044V50.1616L89.9638 47.7302V23.5742L85.788 26.0057Z" fill="#191919"/>
<path d="M48.3119 40.3839L52.4876 37.9524L42.0747 31.9267V19.8223L37.8461 22.2537V31.9267L34.9918 33.5653L30.816 26.3238L27.2217 28.3852L37.6875 46.5154L41.2818 44.4539L37.1061 37.1596L39.9604 35.521L48.3119 40.3839Z" fill="#191919"/>
<path d="M50.4258 15.0113C45.4043 17.9185 43.7129 24.3143 46.6201 29.2829C49.5272 34.3044 55.923 35.9958 60.8916 33.0886C63.3759 31.6615 65.0674 29.3357 65.7545 26.7457L61.7374 25.6886C61.3145 27.2214 60.3102 28.6486 58.8302 29.4943C56.4516 30.8686 53.5973 30.4986 51.5887 28.8072L65.596 20.72C65.3845 20.0857 65.0674 19.4514 64.7502 18.8171C61.7902 13.8485 55.3944 12.1042 50.4258 15.0113ZM49.4744 25.2129C48.9987 22.6757 50.1615 19.9799 52.4873 18.6056C54.8659 17.2313 57.7202 17.6013 59.7288 19.2928L49.4744 25.2129Z" fill="#191919"/>
<path d="M72.2032 2.43145V13.3201L62.7945 7.87579L58.5659 10.3072L72.2032 18.1302V26.5874L76.3789 24.1559V0L72.2032 2.43145Z" fill="#191919"/>
<path d="M38.5332 68.9784C39.3789 70.4584 38.9032 72.4141 37.3703 73.2598C35.8903 74.1056 33.9346 73.6298 33.0889 72.097C32.2432 70.617 32.7189 68.6612 34.2517 67.8155C35.7318 66.9169 37.6875 67.4455 38.5332 68.9784Z" fill="#213A8F"/>
<path d="M24.9487 45.4044C25.7945 46.8844 25.3187 48.8401 23.7859 49.6859C22.3059 50.5316 20.3501 50.0558 19.5044 48.523C18.6587 47.043 19.1344 45.0872 20.6673 44.2415C22.1473 43.3958 24.103 43.9244 24.9487 45.4044Z" fill="#213A8F"/>
</svg>
