<svg viewBox="0 0 24 24"  xmlns="http://www.w3.org/2000/svg" style="display:none">

	<symbol viewBox="0 0 7 5" id="drop-down-arrow">
		<path fill="currentColor" fill-rule="evenodd" clip-rule="evenodd" d="M0.146484 1.35359L0.853591 0.646484L3.50004 3.29293L6.14648 0.646484L6.85359 1.35359L3.50004 4.70714L0.146484 1.35359Z"/>
	</symbol>

	<symbol viewBox="0 0 22 22" id="avatar">
		<path fill="currentColor" d="M18.7782 14.2218C17.5801 13.0237 16.1541 12.1368 14.5982 11.5999C16.2646 10.4522 17.3594 8.53136 17.3594 6.35938C17.3594 2.85282 14.5066 0 11 0C7.49345 0 4.64062 2.85282 4.64062 6.35938C4.64062 8.53136 5.73543 10.4522 7.40188 11.5999C5.84598 12.1368 4.41994 13.0237 3.22184 14.2218C1.14421 16.2995 0 19.0618 0 22H1.71875C1.71875 16.8823 5.88229 12.7188 11 12.7188C16.1177 12.7188 20.2812 16.8823 20.2812 22H22C22 19.0618 20.8558 16.2995 18.7782 14.2218ZM11 11C8.44117 11 6.35938 8.91825 6.35938 6.35938C6.35938 3.8005 8.44117 1.71875 11 1.71875C13.5588 1.71875 15.6406 3.8005 15.6406 6.35938C15.6406 8.91825 13.5588 11 11 11Z"/>
	</symbol>

	<symbol viewBox="0 0 19 20" id="avatar-2">
		<path d="M9.3654 9.63406C10.6228 9.63406 11.7116 9.15936 12.6012 8.22278C13.4908 7.28635 13.9417 6.14057 13.9417 4.81688C13.9417 3.49364 13.4908 2.34771 12.601 1.41097C11.7113 0.474699 10.6226 0 9.3654 0C8.10789 0 7.01939 0.474699 6.12978 1.41113C5.24017 2.34756 4.78906 3.49349 4.78906 4.81688C4.78906 6.14057 5.24017 7.2865 6.12993 8.22293C7.01968 9.1592 8.10832 9.63406 9.3654 9.63406Z" fill="currentColor"/>
		<path d="M17.372 15.3784C17.3463 14.9887 17.2944 14.5635 17.218 14.1146C17.1409 13.6624 17.0416 13.2348 16.9227 12.844C16.8 12.4401 16.633 12.0413 16.4266 11.659C16.2123 11.2623 15.9607 10.9169 15.6783 10.6326C15.383 10.3352 15.0215 10.0961 14.6034 9.92169C14.1868 9.7482 13.7251 9.66031 13.2312 9.66031C13.0373 9.66031 12.8497 9.74408 12.4874 9.99234C12.2645 10.1454 12.0037 10.3224 11.7126 10.5182C11.4638 10.6851 11.1266 10.8415 10.7101 10.9831C10.3038 11.1215 9.89124 11.1917 9.48405 11.1917C9.07687 11.1917 8.66446 11.1215 8.25771 10.9831C7.84167 10.8416 7.5045 10.6852 7.2559 10.5183C6.96758 10.3244 6.70665 10.1474 6.48037 9.99219C6.11855 9.74393 5.93083 9.66016 5.73688 9.66016C5.24286 9.66016 4.78131 9.7482 4.36485 9.92184C3.94707 10.0959 3.5854 10.335 3.28983 10.6327C3.0076 10.9172 2.75581 11.2625 2.54185 11.659C2.33557 12.0413 2.16858 12.44 2.04565 12.8442C1.92693 13.235 1.82764 13.6624 1.75052 14.1146C1.67413 14.5629 1.62223 14.9882 1.59657 15.3788C1.57135 15.7615 1.55859 16.1587 1.55859 16.5598C1.55859 17.6039 1.87388 18.449 2.49561 19.0724C3.10965 19.6874 3.92214 19.9995 4.91018 19.9995H14.0588C15.0468 19.9995 15.859 19.6876 16.4732 19.0724C17.0951 18.4495 17.4104 17.6042 17.4104 16.5597C17.4102 16.1567 17.3973 15.7592 17.372 15.3784Z" fill="currentColor"/>
	</symbol>

	<symbol viewBox="0 0 50 49" id="brand-icon">
		<path fill="currentColor" d="M49.4805 48.8229L0.997044 48.818L1.01444 43.5532L1.04668 43.5002C1.02027 37.5694 1.00582 26.4101 0.997014 24.4332C1.01313 10.9745 11.8992 0.159188 25.2516 0.236602C38.7103 0.252714 49.5257 11.1387 49.4482 24.4912C49.5183 26.5743 49.4805 48.8229 49.4805 48.8229ZM39.731 24.5801C39.7407 16.5049 33.2033 10.086 25.2343 10.0151C17.1591 10.0054 10.7402 16.5428 10.6693 24.5118C10.6781 26.4887 10.6925 33.1343 10.7189 39.0651L20.4973 39.0824L20.4477 24.5291L30.2262 24.5464L30.2758 39.0997L40.0542 39.1169C39.8155 33.3088 39.7398 26.557 39.731 24.5801Z"/>
	</symbol>

	<symbol viewBox="0 0 19 19" id="arrow-prev">
		<path fill="currentColor" d="M4.22179 8.75862L12.677 0.303534C12.8726 0.10782 13.1336 0 13.412 0C13.6904 0 13.9514 0.10782 14.147 0.303534L14.7696 0.926049C15.1748 1.33169 15.1748 1.99097 14.7696 2.39599L7.66957 9.49606L14.7775 16.604C14.9731 16.7997 15.0811 17.0606 15.0811 17.3388C15.0811 17.6173 14.9731 17.8782 14.7775 18.0741L14.1549 18.6965C13.9591 18.8922 13.6982 19 13.4199 19C13.1415 19 12.8805 18.8922 12.6849 18.6965L4.22179 10.2337C4.02577 10.0373 3.9181 9.77519 3.91872 9.49652C3.9181 9.21678 4.02577 8.9548 4.22179 8.75862Z"/>
	</symbol>

	<symbol viewBox="0 0 19 19" id="arrow-next">
		<path fill="currentColor" d="M14.7782 8.75862L6.32297 0.303534C6.12741 0.10782 5.86635 0 5.588 0C5.30964 0 5.04859 0.10782 4.85303 0.303534L4.23036 0.926049C3.82518 1.33169 3.82518 1.99097 4.23036 2.39599L11.3304 9.49606L4.22248 16.604C4.02692 16.7997 3.91895 17.0606 3.91895 17.3388C3.91895 17.6173 4.02692 17.8782 4.22248 18.0741L4.84515 18.6965C5.04086 18.8922 5.30176 19 5.58012 19C5.85847 19 6.11953 18.8922 6.31509 18.6965L14.7782 10.2337C14.9742 10.0373 15.0819 9.77519 15.0813 9.49652C15.0819 9.21678 14.9742 8.9548 14.7782 8.75862Z"/>
	</symbol>

	<symbol viewBox="0 0 16 16" id="calendar">
		<path fill="currentColor" d="M3.65275 13.9994H12.3479C13.2594 13.9994 14.0001 13.2861 14.0001 12.4084V4.47986C14.0001 3.60213 13.2594 2.88883 12.3479 2.88883H11.6925V2.44441C11.6925 2.19998 11.4848 2 11.231 2C10.9771 2 10.7695 2.19998 10.7695 2.44441V2.88883H5.23118V2.44441C5.23118 2.19998 5.02347 2 4.76962 2C4.51578 2 4.30811 2.19998 4.30811 2.44441V2.88883H3.65275C2.74124 2.88883 2.00049 3.60213 2.00049 4.47986V12.4084C2.00049 13.2861 2.74124 13.9994 3.65275 13.9994ZM2.92356 4.47986C2.92356 4.09323 3.25124 3.77769 3.65275 3.77769H4.30811V4.22211C4.30811 4.46654 4.51578 4.66652 4.76962 4.66652C5.02347 4.66652 5.23114 4.46654 5.23114 4.22211V3.77769H10.7695V4.22211C10.7695 4.46654 10.9771 4.66652 11.231 4.66652C11.4848 4.66652 11.6925 4.46654 11.6925 4.22211V3.77769H12.3478C12.7494 3.77769 13.077 4.09323 13.077 4.47986V5.77759H2.92356V4.47986ZM2.92356 6.66642H13.0771V12.4084C13.0771 12.795 12.7494 13.1105 12.3479 13.1105H3.65275C3.25124 13.1105 2.92356 12.795 2.92356 12.4084V6.66642Z"/>
	</symbol>

	<symbol viewBox="0 0 16 16" id="education">
		<path fill="currentColor" d="M16 10.8125C16 10.2014 15.6081 9.6804 15.0625 9.4869V5.94459L15.7402 5.60715C15.8994 5.52787 16 5.36537 16 5.18752C16 5.00968 15.8994 4.84718 15.7402 4.7679L8.20894 1.0179C8.07734 0.952367 7.92263 0.952367 7.79106 1.0179L0.259813 4.7679C0.100625 4.84718 0 5.00971 0 5.18752C0 5.36534 0.100625 5.52787 0.259813 5.60715L3.128 7.03527L3.79475 9.75237C3.82059 9.85762 3.88206 9.95065 3.96875 10.0156C5.14087 10.8947 6.53484 11.3594 8 11.3594C9.46516 11.3594 10.8592 10.8947 12.0312 10.0156C12.1179 9.95062 12.1794 9.85759 12.2052 9.75237L12.872 7.0353L14.125 6.4114V9.48693C13.5794 9.68043 13.1875 10.2015 13.1875 10.8126C13.1875 11.2571 13.395 11.6538 13.7181 11.9117C13.4458 12.2262 13.1875 12.6562 13.1875 13.1563C13.1875 14.154 14.2153 14.873 14.3324 14.9517C14.4904 15.0578 14.6971 15.0578 14.8551 14.9517C14.9723 14.873 16 14.154 16 13.1563C16 12.6562 15.7418 12.2261 15.4694 11.9116C15.7925 11.6538 16 11.2571 16 10.8125ZM11.3356 9.36256C9.34859 10.7651 6.65147 10.7651 4.66441 9.36256L4.22769 7.58284L7.79106 9.35715C7.92263 9.42265 8.07734 9.42268 8.20894 9.35715L11.7723 7.58284L11.3356 9.36256ZM8 8.4139C7.74181 8.28534 1.81166 5.33255 1.52041 5.18752L8 1.96118L14.4796 5.18752C14.3542 5.24996 8.31097 8.25905 8 8.4139ZM14.5938 13.9582C14.3743 13.7507 14.125 13.4445 14.125 13.1563C14.125 12.868 14.3744 12.5616 14.5937 12.3544C14.8132 12.5618 15.0625 12.8681 15.0625 13.1563C15.0625 13.4446 14.8131 13.751 14.5938 13.9582ZM14.5938 11.2813C14.3353 11.2813 14.125 11.071 14.125 10.8125C14.125 10.5541 14.3353 10.3438 14.5938 10.3438C14.8522 10.3438 15.0625 10.5541 15.0625 10.8125C15.0625 11.071 14.8522 11.2813 14.5938 11.2813Z"/>
		<path fill="currentColor" d="M10.3202 4.03185C10.1372 3.84878 9.84034 3.84878 9.65728 4.03185C9.21459 4.4745 8.626 4.71829 7.99996 4.71829C7.37393 4.71829 6.78537 4.4745 6.34268 4.03182C6.15962 3.84879 5.86284 3.84875 5.67978 4.03182C5.49671 4.21488 5.49671 4.51169 5.67978 4.69475C6.29953 5.31447 7.12353 5.65578 7.99996 5.65578C8.87637 5.65578 9.7004 5.31447 10.3202 4.69475C10.5032 4.51169 10.5032 4.21491 10.3202 4.03185Z"/>
	</symbol>
	
	<symbol viewBox="0 0 16 16" id="languages">
		<path fill="currentColor" fill-rule="evenodd" clip-rule="evenodd" d="M0.566902 8.92887C0.566902 5.89576 3.17424 3.48926 6.32401 3.48926C9.47375 3.48926 12.0811 5.89576 12.0811 8.92887C12.0811 11.962 9.47378 14.3685 6.32401 14.3685C5.32634 14.3685 4.38594 14.1281 3.56552 13.7042L1.15821 14.1514C0.981169 14.1842 0.800122 14.1194 0.684228 13.9816C0.568333 13.8438 0.535494 13.6543 0.598255 13.4855L1.30269 11.5911C0.835078 10.8053 0.566902 9.89688 0.566902 8.92887ZM6.32401 4.48926C3.66692 4.48926 1.5669 6.50582 1.5669 8.92887C1.5669 9.78224 1.82483 10.5796 2.27417 11.2583C2.36237 11.3915 2.3816 11.5588 2.32592 11.7086L1.84307 13.007L3.55566 12.689C3.67018 12.6677 3.78854 12.6871 3.8903 12.7438C4.60098 13.1397 5.43252 13.3685 6.32401 13.3685C8.98109 13.3685 11.0811 11.3519 11.0811 8.92887C11.0811 6.50582 8.98106 4.48926 6.32401 4.48926Z"/>
		<path fill="currentColor" fill-rule="evenodd" clip-rule="evenodd" d="M9.6766 2.63379C8.13073 2.63379 6.77557 3.31049 5.91008 4.36262C5.73465 4.57587 5.41956 4.60654 5.2063 4.43111C4.99304 4.25568 4.96237 3.94059 5.1378 3.72733C6.19523 2.44187 7.83487 1.63379 9.6766 1.63379C12.8264 1.63376 15.4337 4.04027 15.4337 7.07337C15.4337 8.04138 15.1655 8.94976 14.6979 9.73563L15.4024 11.63C15.4651 11.7988 15.4323 11.9883 15.3164 12.1261C15.2005 12.2639 15.0194 12.3287 14.8424 12.2959L12.4348 11.8487C11.8643 12.1421 11.2082 12.3569 10.5525 12.4564C10.2794 12.4978 10.0245 12.3101 9.98311 12.0371C9.94167 11.7641 10.1294 11.5091 10.4024 11.4677C11.0043 11.3764 11.6093 11.1674 12.1103 10.8883C12.2121 10.8316 12.3304 10.8122 12.445 10.8335L14.1575 11.1516L13.6747 9.85308C13.619 9.70333 13.6382 9.53599 13.7264 9.40277C14.1758 8.72411 14.4337 7.92674 14.4337 7.07337C14.4337 4.65032 12.3337 2.63376 9.6766 2.63379Z"/>
		<path fill="currentColor" fill-rule="evenodd" clip-rule="evenodd" d="M3.02734 7.84473C3.30349 7.84473 3.52734 8.06858 3.52734 8.34473V9.51081C3.52734 9.78696 3.30349 10.0108 3.02734 10.0108C2.7512 10.0108 2.52734 9.78696 2.52734 9.51081V8.34473C2.52734 8.06858 2.7512 7.84473 3.02734 7.84473Z"/>
		<path fill="currentColor" fill-rule="evenodd" clip-rule="evenodd" d="M4.67578 6.99316C4.95192 6.99316 5.17578 7.21702 5.17578 7.49316V10.3629C5.17578 10.639 4.95192 10.8629 4.67578 10.8629C4.39964 10.8629 4.17578 10.639 4.17578 10.3629V7.49316C4.17578 7.21702 4.39964 6.99316 4.67578 6.99316Z"/>
		<path fill="currentColor" fill-rule="evenodd" clip-rule="evenodd" d="M6.32422 7.84473C6.60036 7.84473 6.82422 8.06858 6.82422 8.34473V9.51081C6.82422 9.78696 6.60036 10.0108 6.32422 10.0108C6.04808 10.0108 5.82422 9.78696 5.82422 9.51081V8.34473C5.82422 8.06858 6.04808 7.84473 6.32422 7.84473Z"/>
		<path fill="currentColor" fill-rule="evenodd" clip-rule="evenodd" d="M7.97266 7.39648C8.2488 7.39648 8.47266 7.62034 8.47266 7.89648V9.96129C8.47266 10.2374 8.2488 10.4613 7.97266 10.4613C7.69651 10.4613 7.47266 10.2374 7.47266 9.96129V7.89648C7.47266 7.62034 7.69651 7.39648 7.97266 7.39648Z"/>
		<path fill="currentColor" fill-rule="evenodd" clip-rule="evenodd" d="M9.62061 8.16797C9.89675 8.16797 10.1206 8.39183 10.1206 8.66797V9.18811C10.1206 9.46425 9.89675 9.68811 9.62061 9.68811C9.34446 9.68811 9.12061 9.46425 9.12061 9.18811V8.66797C9.12061 8.39183 9.34446 8.16797 9.62061 8.16797Z"/>
	</symbol>

	<symbol viewBox="0 0 13 13" id="play">
		<path fill="currentColor" d="M10.1086 5.42332L4.15023 2.06173C3.95565 1.95053 3.73508 1.89286 3.51097 1.89457C3.28686 1.89628 3.0672 1.95732 2.87434 2.07148C2.68644 2.17895 2.53034 2.33423 2.42188 2.52155C2.31342 2.70888 2.25648 2.92157 2.25684 3.13803V9.86119C2.25648 10.0776 2.31342 10.2903 2.42188 10.4777C2.53034 10.665 2.68644 10.8203 2.87434 10.9277C3.06722 11.0418 3.28687 11.1029 3.51097 11.1046C3.73507 11.1063 3.95563 11.0486 4.15023 10.9375L10.1086 7.5759C10.3007 7.46945 10.4609 7.31349 10.5724 7.12423C10.6839 6.93496 10.7427 6.71929 10.7427 6.49961C10.7427 6.27993 10.6839 6.06426 10.5724 5.87499C10.4609 5.68572 10.3007 5.52977 10.1086 5.42332Z"/>
	</symbol>

	<symbol viewBox="0 0 13 13" id="tel">
		<path fill="currentColor" d="M11.9569 8.53301C11.161 8.53301 10.3795 8.40853 9.63892 8.1638C9.27604 8.04003 8.82995 8.15357 8.60847 8.38104L7.14675 9.48448C5.45157 8.57959 4.40737 7.53573 3.51484 5.85328L4.58582 4.42965C4.86407 4.15177 4.96387 3.74586 4.84429 3.365C4.59851 2.62055 4.47366 1.83943 4.47366 1.04318C4.47369 0.467966 4.00573 0 3.43054 0H1.04315C0.467966 0 0 0.467966 0 1.04315C0 7.63625 5.36379 13 11.9569 13C12.5321 13 13 12.532 13 11.9569V9.57613C13 9.00098 12.532 8.53301 11.9569 8.53301Z"/>	
	</symbol>

	<symbol viewBox="0 0 15 15" id="map-point">
		<path fill="currentColor" d="M7.49981 0C4.50436 0 2.06738 2.43697 2.06738 5.4324C2.06738 9.14982 6.92888 14.6072 7.13586 14.8377C7.33027 15.0543 7.66971 15.0539 7.86377 14.8377C8.07075 14.6072 12.9322 9.14982 12.9322 5.4324C12.9322 2.43697 10.4952 0 7.49981 0ZM7.49981 8.1656C5.99272 8.1656 4.76665 6.93949 4.76665 5.4324C4.76665 3.92531 5.99275 2.69924 7.49981 2.69924C9.00688 2.69924 10.2329 3.92534 10.2329 5.43243C10.2329 6.93952 9.00688 8.1656 7.49981 8.1656Z"/>
	</symbol>

	<symbol viewBox="0 0 17 17" id="search">
		<path fill="currentColor" d="M7.19549 0C3.23028 0 0.000244141 3.23003 0.000244141 7.19526C0.000244141 11.1605 3.23028 14.3968 7.19549 14.3968C8.88916 14.3968 10.4468 13.8032 11.6779 12.8178L14.675 15.8133C14.8262 15.9583 15.0282 16.0383 15.2378 16.0361C15.4473 16.034 15.6476 15.9499 15.7958 15.8019C15.9441 15.6538 16.0285 15.4536 16.0309 15.2441C16.0333 15.0346 15.9536 14.8325 15.8089 14.6811L12.8118 11.6839C13.798 10.451 14.3923 8.89088 14.3923 7.19526C14.3923 3.23003 11.1607 0 7.19549 0ZM7.19549 1.59932C10.2964 1.59932 12.7914 4.09437 12.7914 7.19526C12.7914 10.2962 10.2964 12.7975 7.19549 12.7975C4.0946 12.7975 1.59954 10.2962 1.59954 7.19526C1.59954 4.09437 4.0946 1.59932 7.19549 1.59932Z"/>
	</symbol>

	<symbol viewBox="0 0 13 13" id="calendar-2">
		<path fill="currentColor" d="M10.2923 2.70703H9.75065V1.6237C9.75065 1.48004 9.69358 1.34226 9.592 1.24068C9.49042 1.1391 9.35264 1.08203 9.20898 1.08203C9.06533 1.08203 8.92755 1.1391 8.82597 1.24068C8.72439 1.34226 8.66732 1.48004 8.66732 1.6237V2.70703H4.33398V1.6237C4.33398 1.48004 4.27692 1.34226 4.17533 1.24068C4.07375 1.1391 3.93598 1.08203 3.79232 1.08203C3.64866 1.08203 3.51088 1.1391 3.4093 1.24068C3.30772 1.34226 3.25065 1.48004 3.25065 1.6237V2.70703H2.70898C2.27801 2.70703 1.86468 2.87824 1.55994 3.18298C1.25519 3.48773 1.08398 3.90105 1.08398 4.33203V4.8737H11.9173V4.33203C11.9173 3.90105 11.7461 3.48773 11.4414 3.18298C11.1366 2.87824 10.7233 2.70703 10.2923 2.70703Z"/>
		<path fill="currentColor" d="M1.08398 10.2904C1.08398 10.7213 1.25519 11.1347 1.55994 11.4394C1.86468 11.7442 2.27801 11.9154 2.70898 11.9154H10.2923C10.7233 11.9154 11.1366 11.7442 11.4414 11.4394C11.7461 11.1347 11.9173 10.7213 11.9173 10.2904V5.95703H1.08398V10.2904Z"/>
	</symbol>

	<symbol viewBox="0 0 15 15" id="star">
		<path fill="currentColor" d="M13.4981 6.20514L10.6871 8.9453L11.351 12.8154C11.3798 12.9847 11.3103 13.1557 11.1713 13.2568C11.0928 13.3141 10.9994 13.343 10.906 13.343C10.8342 13.343 10.762 13.3258 10.6962 13.2911L7.22042 11.4639L3.74513 13.2906C3.5935 13.371 3.40893 13.3579 3.26994 13.2563C3.13095 13.1553 3.06145 12.9842 3.09033 12.815L3.75416 8.94485L0.942704 6.20514C0.819956 6.0851 0.77528 5.9055 0.82853 5.74259C0.881781 5.57967 1.02303 5.46009 1.19316 5.43527L5.07821 4.87117L6.81562 1.35031C6.9677 1.04209 7.47313 1.04209 7.62521 1.35031L9.36263 4.87117L13.2477 5.43527C13.4178 5.46009 13.5591 5.57922 13.6123 5.74259C13.6656 5.90595 13.6209 6.08465 13.4981 6.20514Z"/>
	</symbol>

	<symbol viewBox="0 0 7 7" id="check">
		<path fill="currentColor" d="M6.83735 1.14502C6.62077 0.928153 6.26907 0.92829 6.0522 1.14502L2.51851 4.67886L0.947933 3.10829C0.731064 2.89142 0.379522 2.89142 0.162652 3.10829C-0.0542174 3.32516 -0.0542174 3.6767 0.162652 3.89357L2.12579 5.85671C2.23415 5.96507 2.37625 6.01939 2.51836 6.01939C2.66047 6.01939 2.8027 5.96521 2.91107 5.85671L6.83735 1.93029C7.05422 1.71357 7.05422 1.36188 6.83735 1.14502Z"/>
	</symbol>

	<symbol viewBox="0 0 20 20" id="home">
		<path fill="currentColor" d="M19.4608 8.69904C19.4603 8.69858 19.4599 8.69812 19.4594 8.69766L11.301 0.539551C10.9532 0.19165 10.4909 0 9.9991 0C9.50731 0 9.04497 0.191498 8.69707 0.539398L0.542928 8.69339C0.540182 8.69614 0.537435 8.69904 0.534688 8.70178C-0.179423 9.42001 -0.178202 10.5853 0.538198 11.3017C0.865499 11.6292 1.29778 11.8188 1.75997 11.8387C1.77874 11.8405 1.79766 11.8414 1.81673 11.8414H2.1419V17.8453C2.1419 19.0334 3.10854 20 4.2969 20H7.48873C7.81221 20 8.07467 19.7377 8.07467 19.4141V14.707C8.07467 14.1649 8.51565 13.7239 9.05779 13.7239H10.9404C11.4826 13.7239 11.9235 14.1649 11.9235 14.707V19.4141C11.9235 19.7377 12.1858 20 12.5095 20H15.7013C16.8897 20 17.8563 19.0334 17.8563 17.8453V11.8414H18.1578C18.6495 11.8414 19.1118 11.6499 19.4599 11.302C20.177 10.5844 20.1773 9.41711 19.4608 8.69904Z"/>
	</symbol>

	<symbol viewBox="0 0 20 20" id="account-student">
		<path fill="currentColor" d="M10 10C11.3738 10 12.5634 9.50727 13.5353 8.53511C14.5073 7.56312 15 6.37382 15 4.99984C15 3.62634 14.5073 2.43688 13.5352 1.46457C12.563 0.49273 11.3736 0 10 0C8.62607 0 7.43681 0.49273 6.46484 1.46473C5.49287 2.43673 5 3.62618 5 4.99984C5 6.37382 5.49287 7.56327 6.465 8.53527C7.43712 9.50711 8.62654 10 10 10Z"/>
		<path fill="currentColor" d="M17.9612 15.5305C17.9353 15.1536 17.8829 14.7425 17.8058 14.3083C17.728 13.8709 17.6278 13.4573 17.5078 13.0794C17.3839 12.6888 17.2153 12.303 17.007 11.9333C16.7907 11.5496 16.5367 11.2155 16.2517 10.9405C15.9537 10.6529 15.5887 10.4216 15.1668 10.253C14.7463 10.0852 14.2803 10.0001 13.7818 10.0001C13.586 10.0001 13.3967 10.0812 13.031 10.3213C12.806 10.4693 12.5428 10.6405 12.249 10.8298C11.9978 10.9913 11.6574 11.1426 11.2371 11.2795C10.827 11.4134 10.4106 11.4813 9.99956 11.4813C9.58857 11.4813 9.1723 11.4134 8.76175 11.2795C8.34183 11.1427 8.0015 10.9914 7.75057 10.83C7.45955 10.6424 7.19619 10.4712 6.96779 10.3211C6.60259 10.081 6.41312 10 6.21735 10C5.71871 10 5.25285 10.0852 4.83249 10.2531C4.41081 10.4215 4.04576 10.6527 3.74743 10.9407C3.46255 11.2158 3.20841 11.5497 2.99245 11.9333C2.78424 12.303 2.61569 12.6886 2.49161 13.0795C2.37178 13.4575 2.27156 13.8709 2.19372 14.3083C2.11661 14.7419 2.06423 15.1532 2.03833 15.531C2.01288 15.9011 2 16.2853 2 16.6733C2 17.683 2.31823 18.5004 2.94577 19.1033C3.56556 19.6982 4.38565 20 5.38292 20H14.6171C15.6144 20 16.4341 19.6983 17.0541 19.1033C17.6818 18.5009 18 17.6833 18 16.6731C17.9999 16.2834 17.9868 15.8989 17.9612 15.5305Z"/>
	</symbol>

	<symbol viewBox="0 0 20 20" id="join-to-lesson">
		<path fill="currentColor" d="M16.944 0C16.944 0 16.944 0 16.944 0H3.06388C1.37395 0 0.00390625 1.37 0.00390625 3.05994C0.00390625 3.06287 0.00390625 3.06581 0.00390625 3.06878V16.94C0.00390625 18.6266 1.36853 19.9951 3.05504 20H16.9439C18.6304 19.9951 19.9951 18.6266 19.9951 16.94V3.06878C20 1.3788 18.6339 0.00487765 16.944 0ZM15.6918 10C15.6871 10.2318 15.5003 10.4186 15.2685 10.4233H5.77114L7.64064 12.2928C7.80868 12.4553 7.8131 12.7233 7.65057 12.8913C7.6473 12.8947 7.64399 12.898 7.64064 12.9012C7.56376 12.9855 7.45492 13.0336 7.34083 13.0335C7.22906 13.0345 7.12258 12.9861 7.04983 12.9012L4.40433 10.2557C4.36688 10.2189 4.33426 10.1774 4.30731 10.1323C4.26321 10.0249 4.26321 9.90451 4.30731 9.79716C4.33046 9.74955 4.36353 9.70747 4.40433 9.67369L7.04983 7.02819C7.20335 6.86504 7.46009 6.85723 7.62324 7.01075C7.62924 7.01637 7.63502 7.0222 7.64069 7.02819C7.80628 7.18622 7.8124 7.44858 7.65437 7.61417C7.6499 7.61884 7.64536 7.62339 7.64069 7.62785L5.77118 9.57672H14.8453V7.3545C14.864 7.12405 15.0643 6.95126 15.295 6.96648C15.5268 6.97115 15.7136 7.15794 15.7183 7.38976L15.6918 10Z"/>
	</symbol>

	<symbol viewBox="0 0 20 20" id="messages">
		<path fill-rule="evenodd" clip-rule="evenodd" d="M5.83268 1.875C3.18632 1.875 1.04102 4.0203 1.04102 6.66667V17.4328C1.04102 18.6557 2.4555 19.3355 3.41037 18.5716L5.76659 16.6866C5.95129 16.5388 6.18078 16.4583 6.41732 16.4583H14.166C16.2982 16.4583 18.1051 15.0657 18.7268 13.1405C18.7345 13.126 18.7419 13.1118 18.7491 13.0978V13.0692C18.8847 12.6256 18.9577 12.1547 18.9577 11.6667V6.66667C18.9577 4.0203 16.8123 1.875 14.166 1.875H5.83268ZM5.8736 10.2493C6.4489 10.2493 6.91527 9.78292 6.91527 9.20759C6.91527 8.63226 6.4489 8.16592 5.8736 8.16592C5.29831 8.16592 4.83194 8.63226 4.83194 9.20759C4.83194 9.78292 5.29831 10.2493 5.8736 10.2493ZM11.0819 9.20759C11.0819 9.78292 10.6156 10.2493 10.0403 10.2493C9.46502 10.2493 8.9986 9.78292 8.9986 9.20759C8.9986 8.63226 9.46502 8.16592 10.0403 8.16592C10.6156 8.16592 11.0819 8.63226 11.0819 9.20759ZM14.2069 10.2493C14.7823 10.2493 15.2486 9.78292 15.2486 9.20759C15.2486 8.63226 14.7823 8.16592 14.2069 8.16592C13.6317 8.16592 13.1653 8.63226 13.1653 9.20759C13.1653 9.78292 13.6317 10.2493 14.2069 10.2493Z" fill="currentColor"/>
	</symbol>

	<symbol viewBox="0 0 20 20" id="visits">
		<path fill="currentColor" d="M10.0001 0C6.00613 0 2.75684 3.2493 2.75684 7.2432C2.75684 12.1998 9.23883 19.4763 9.5148 19.7836C9.77402 20.0723 10.2266 20.0718 10.4854 19.7836C10.7613 19.4763 17.2433 12.1998 17.2433 7.2432C17.2432 3.2493 13.994 0 10.0001 0ZM10.0001 10.8875C7.99062 10.8875 6.35586 9.25266 6.35586 7.2432C6.35586 5.23375 7.99066 3.59898 10.0001 3.59898C12.0095 3.59898 13.6443 5.23379 13.6443 7.24324C13.6443 9.2527 12.0095 10.8875 10.0001 10.8875Z"/>
	</symbol>

	<symbol viewBox="0 0 20 20" id="calendar-3">
		<path fill="currentColor" d="M17 3H16V1C16 0.734784 15.8946 0.48043 15.7071 0.292893C15.5196 0.105357 15.2652 0 15 0C14.7348 0 14.4804 0.105357 14.2929 0.292893C14.1054 0.48043 14 0.734784 14 1V3H6V1C6 0.734784 5.89464 0.48043 5.70711 0.292893C5.51957 0.105357 5.26522 0 5 0C4.73478 0 4.48043 0.105357 4.29289 0.292893C4.10536 0.48043 4 0.734784 4 1V3H3C2.20435 3 1.44129 3.31607 0.87868 3.87868C0.316071 4.44129 0 5.20435 0 6V7H20V6C20 5.20435 19.6839 4.44129 19.1213 3.87868C18.5587 3.31607 17.7956 3 17 3Z"/>
		<path fill="currentColor" d="M0 17C0 17.7957 0.316071 18.5587 0.87868 19.1213C1.44129 19.6839 2.20435 20 3 20H17C17.7956 20 18.5587 19.6839 19.1213 19.1213C19.6839 18.5587 20 17.7957 20 17V9H0V17Z"/>	
	</symbol>

	<symbol viewBox="0 0 20 20" id="my-diary">
		<path fill="currentColor" d="M4.33594 19.4141H4.33868C4.33868 19.493 4.35471 19.5731 4.38858 19.6498C4.51874 19.9443 4.86313 20.0775 5.15762 19.9474L6.44531 19.3755L7.67838 19.9231C7.76398 19.9721 7.86316 20 7.96875 20C8.29239 20 8.55469 19.7377 8.55469 19.4141V18.2422H4.33594V19.4141Z"/>
		<path fill="currentColor" d="M15.9714 0.630188C15.5823 0.241241 15.0452 0 14.4531 0H13.4766V17.0703H14.4531C15.0452 17.0703 15.5823 16.8291 15.9714 16.4401C16.3603 16.0512 16.6016 15.5139 16.6016 14.9219V2.14844C16.6016 1.5564 16.3603 1.01929 15.9714 0.630188Z"/>
		<path fill="currentColor" d="M3.39844 0.585938V16.4844C3.39844 16.808 3.66074 17.0703 3.98438 17.0703H12.3047V0H3.98438C3.66074 0 3.39844 0.262299 3.39844 0.585938Z"/>
	</symbol>

	<symbol viewBox="0 0 20 20" id="my-awards">
		<path fill="currentColor" d="M19 1H16V0H4V1H1C0.4 1 0 1.4 0 2V4.4C0 6.7 1.7 8.6 4 8.9V9C4 11.9 6 14.3 8.7 14.9L8 17H5.7C5.3 17 4.9 17.3 4.8 17.7L4 20H16L15.2 17.7C15.1 17.3 14.7 17 14.3 17H12L11.3 14.9C14 14.3 16 11.9 16 9V8.9C18.3 8.6 20 6.7 20 4.4V2C20 1.4 19.6 1 19 1ZM4 6.9C2.9 6.6 2 5.6 2 4.4V3H4V6.9ZM12 10L10 8.9L8 10L8.5 8L7 6H9.1L10 4L10.9 6H13L11.5 8L12 10ZM18 4.4C18 5.6 17.1 6.7 16 6.9V3H18V4.4Z"/>
	</symbol>

	<symbol viewBox="0 0 20 20" id="audiofiles">
		<path fill="currentColor" d="M11.9823 13.3457L8.649 14.1791C8.46317 14.2257 8.33317 14.3924 8.33317 14.5832V18.3791C8.204 18.3516 8.06567 18.3332 7.9165 18.3332C7.19234 18.3332 6.6665 18.6832 6.6665 19.1666C6.6665 19.6499 7.19234 19.9999 7.9165 19.9999C8.64067 19.9999 9.1665 19.6499 9.1665 19.1666V14.9091L11.6665 14.2841V17.5466C11.5373 17.5182 11.399 17.4999 11.2498 17.4999C10.5257 17.4999 9.99984 17.8499 9.99984 18.3332C9.99984 18.8166 10.5257 19.1666 11.2498 19.1666C11.974 19.1666 12.4998 18.8166 12.4998 18.3332V13.7499C12.4998 13.6216 12.4407 13.5007 12.3398 13.4216C12.2382 13.3416 12.1057 13.3132 11.9823 13.3457Z"/>
		<path fill="currentColor" d="M17.0833 4.16748H7.45083C6.9125 4.16748 6.43583 3.82415 6.26583 3.31331L6.19167 3.09165C5.9075 2.23998 5.11333 1.66748 4.21583 1.66748H2.08333C0.935 1.66748 0 2.60248 0 3.75081V13.7508C0 14.8991 0.935 15.8341 2.08333 15.8341H7.08333C7.31333 15.8341 7.5 15.6475 7.5 15.4175V14.5841C7.5 14.01 7.88917 13.5108 8.44667 13.3708L11.7808 12.5375C12.1467 12.445 12.5525 12.5316 12.8525 12.765C13.1583 13.0041 13.3333 13.3633 13.3333 13.7508V15.4175C13.3333 15.6475 13.52 15.8341 13.75 15.8341H17.0833C18.2317 15.8341 19.1667 14.8991 19.1667 13.7508V6.25081C19.1667 5.10248 18.2317 4.16748 17.0833 4.16748Z"/>
		<path fill="currentColor" d="M4.21549 0.833333C5.47216 0.833333 6.58466 1.635 6.98216 2.82667L7.05549 3.04917C7.11216 3.22 7.27133 3.335 7.45133 3.335L17.083 3.33333C17.3047 3.33333 17.5355 3.36667 17.8113 3.43833C17.8463 3.4475 17.8813 3.45167 17.9163 3.45167C18.0072 3.45167 18.0972 3.42167 18.1713 3.365C18.273 3.28583 18.333 3.16417 18.333 3.035V2.08333C18.333 0.935 17.398 0 16.2497 0H4.21549C3.98549 0 3.79883 0.186667 3.79883 0.416667C3.79883 0.646667 3.98466 0.833333 4.21549 0.833333Z"/>
	</symbol>

	<symbol viewBox="0 0 26 26" id="settings">
		<path fill="currentColor" d="M23.7331 9.62088C23.259 9.55201 22.8066 9.37708 22.4094 9.1091C22.0123 8.84113 21.6808 8.48702 21.4395 8.07314C21.1982 7.65926 21.0533 7.19628 21.0158 6.71867C20.9782 6.24107 21.0489 5.76114 21.2225 5.31463C21.3329 5.02272 21.3492 4.70358 21.269 4.40197C21.1889 4.10035 21.0164 3.83138 20.7756 3.63275C19.7129 2.74035 18.5033 2.03931 17.2006 1.56088C16.904 1.45069 16.5802 1.43692 16.2753 1.52153C15.9704 1.60615 15.6999 1.78483 15.5025 2.03213C15.2054 2.41209 14.8256 2.71941 14.392 2.93076C13.9584 3.14211 13.4824 3.25195 13 3.25195C12.5177 3.25195 12.0416 3.14211 11.608 2.93076C11.1744 2.71941 10.7947 2.41209 10.4975 2.03213C10.3001 1.78483 10.0297 1.60615 9.72476 1.52153C9.41985 1.43692 9.09602 1.45069 8.79939 1.56088C7.59662 2.00258 6.47206 2.63344 5.46814 3.42963C5.21508 3.62996 5.03281 3.90605 4.94801 4.21747C4.86321 4.52889 4.88034 4.85927 4.99689 5.16025C5.18438 5.61857 5.26184 6.11446 5.22307 6.60813C5.1843 7.10179 5.03036 7.5795 4.77362 8.00293C4.51687 8.42636 4.16447 8.78373 3.74466 9.04636C3.32486 9.30899 2.84935 9.46959 2.35627 9.51525C2.03615 9.54948 1.73548 9.68558 1.49852 9.90352C1.26156 10.1215 1.10084 10.4097 1.04002 10.7259C0.888728 11.4748 0.812518 12.2369 0.812518 13.0009C0.811406 13.6405 0.863039 14.2791 0.966893 14.9103C1.01858 15.2365 1.17631 15.5367 1.4157 15.7643C1.65509 15.992 1.96281 16.1344 2.29127 16.1696C2.79518 16.2169 3.28043 16.3842 3.7064 16.6575C4.13238 16.9309 4.48669 17.3022 4.73968 17.7406C4.99267 18.1789 5.13698 18.6715 5.16052 19.1771C5.18407 19.6827 5.08617 20.1865 4.87502 20.6465C4.73683 20.9457 4.70256 21.2825 4.77763 21.6034C4.8527 21.9243 5.03282 22.2109 5.28939 22.4178C6.34574 23.2939 7.54373 23.9836 8.83189 24.4571C8.99662 24.5142 9.16945 24.5444 9.34377 24.5465C9.58278 24.546 9.81819 24.4882 10.0302 24.3779C10.2423 24.2676 10.4248 24.1081 10.5625 23.9128C10.8521 23.4908 11.2403 23.146 11.6934 22.9081C12.1465 22.6702 12.6508 22.5465 13.1625 22.5478C13.6583 22.5484 14.1472 22.6648 14.5901 22.8876C15.033 23.1105 15.4178 23.4337 15.7138 23.8315C15.9106 24.0961 16.1895 24.2883 16.5069 24.3779C16.8244 24.4675 17.1625 24.4497 17.4688 24.3271C18.6466 23.8531 19.7432 23.1979 20.7188 22.3853C20.9638 22.1826 21.1383 21.9075 21.2172 21.5995C21.296 21.2914 21.2751 20.9663 21.1575 20.6709C20.9664 20.2185 20.8831 19.7278 20.9141 19.2377C20.9451 18.7475 21.0897 18.2713 21.3363 17.8466C21.5829 17.4219 21.9249 17.0603 22.3352 16.7905C22.7456 16.5206 23.213 16.3498 23.7006 16.2915C24.0169 16.2478 24.3109 16.1045 24.5403 15.8825C24.7696 15.6604 24.9223 15.3711 24.9763 15.0565C25.1068 14.3788 25.1774 13.6909 25.1875 13.0009C25.1877 12.273 25.1197 11.5467 24.9844 10.8315C24.9295 10.5238 24.7791 10.2412 24.5545 10.0239C24.3299 9.80657 24.0425 9.66555 23.7331 9.62088ZM17.0625 13.0009C17.0625 13.8044 16.8243 14.5898 16.3779 15.2579C15.9315 15.926 15.297 16.4467 14.5547 16.7541C13.8123 17.0616 12.9955 17.1421 12.2075 16.9853C11.4194 16.8286 10.6955 16.4416 10.1274 15.8735C9.55925 15.3053 9.17233 14.5815 9.01558 13.7934C8.85882 13.0054 8.93928 12.1885 9.24676 11.4462C9.55424 10.7039 10.0749 10.0694 10.743 9.62303C11.4111 9.17664 12.1965 8.93838 13 8.93838C14.0775 8.93838 15.1108 9.36639 15.8726 10.1283C16.6345 10.8901 17.0625 11.9234 17.0625 13.0009Z"/>
	</symbol>

	<symbol viewBox="0 0 23 23" id="stickers">
		<path fill="currentColor" d="M12.4289 0.868164C12.2928 4.29072 13.021 6.82274 14.599 8.40075C16.1772 9.9789 18.7089 10.7071 22.1317 10.5709L12.4289 0.868164Z"/>
		<path fill="currentColor" d="M21.3496 12.5072C17.7907 12.5073 15.0687 11.5858 13.2414 9.75851C11.1416 7.65864 10.2385 4.37535 10.5552 0C4.64438 0.490322 0 5.44233 0 11.4797C0 17.8422 5.15784 23 11.5203 23C17.5577 23 22.5097 18.3555 23 12.4447C22.4317 12.4858 21.8807 12.5072 21.3496 12.5072Z"/>
	</symbol>

	<symbol viewBox="0 0 24 24" id="notification">
		<path fill="currentColor" d="M11.9999 1C10.0108 1 8.10316 1.79018 6.69664 3.1967C5.29012 4.60322 4.49994 6.51088 4.49994 8.5V14.35L2.83994 16.85C2.64097 17.1568 2.52811 17.5114 2.51318 17.8767C2.49824 18.2421 2.58178 18.6047 2.75504 18.9267C2.9283 19.2487 3.18493 19.5182 3.49805 19.707C3.81118 19.8959 4.1693 19.997 4.53494 20H19.4649C19.8329 19.9988 20.1937 19.898 20.5092 19.7085C20.8246 19.5189 21.0828 19.2475 21.2565 18.9231C21.4303 18.5987 21.513 18.2333 21.496 17.8657C21.479 17.4981 21.3629 17.142 21.1599 16.835L19.4999 14.35V8.5C19.4999 6.51088 18.7098 4.60322 17.3032 3.1967C15.8967 1.79018 13.9891 1 11.9999 1Z"/>
		<path fill="currentColor" d="M12 23C12.6198 22.9993 13.2242 22.8066 13.7301 22.4485C14.2359 22.0904 14.6184 21.5844 14.825 21H9.17505C9.38165 21.5844 9.76417 22.0904 10.27 22.4485C10.7759 22.8066 11.3803 22.9993 12 23Z"/>
	</symbol>

	<symbol viewBox="0 0 74 74" id="award">
		<path fill="currentColor" d="M71.8319 5.34087H62.3358C62.3702 4.28907 62.3894 3.23106 62.3894 2.16796C62.3894 0.970503 61.4183 0 60.2214 0H13.7784C12.5815 0 11.6105 0.970503 11.6105 2.16796C11.6105 3.23106 11.6297 4.28907 11.6641 5.34087H2.16796C0.970503 5.34087 0 6.31137 0 7.50883C0 17.2229 2.53889 26.3876 7.14864 33.3155C11.7053 40.1644 17.7751 44.0927 24.332 44.4749C25.8185 46.0924 27.3897 47.4112 29.0265 48.4173V58.0529H25.3895C20.9926 58.0529 17.416 61.63 17.416 66.0264V69.6634H17.2619C16.0644 69.6634 15.0939 70.6344 15.0939 71.8313C15.0939 73.0288 16.0644 73.9993 17.2619 73.9993H56.738C57.9355 73.9993 58.906 73.0288 58.906 71.8313C58.906 70.6344 57.9355 69.6634 56.738 69.6634H56.5839V66.0264C56.5839 61.63 53.0073 58.0529 48.6104 58.0529H44.9734V48.4173C46.6101 47.4118 48.1819 46.0924 49.6684 44.4749C56.2248 44.0927 62.2945 40.1644 66.8518 33.3155C71.4615 26.3876 73.9999 17.2229 73.9999 7.50883C73.9999 6.31137 73.0294 5.34087 71.8319 5.34087ZM10.7585 30.9138C6.95612 25.1998 4.7221 17.7259 4.38166 9.6768H11.9063C12.6882 19.5715 15.0109 28.7176 18.6411 35.9775C19.2192 37.1337 19.8239 38.2262 20.4511 39.2548C16.8452 37.8931 13.508 35.0465 10.7585 30.9138ZM52.248 66.0264V69.6639H21.7519V66.0264C21.7519 64.021 23.3835 62.3888 25.3895 62.3888H48.6104C50.6163 62.3888 52.248 64.021 52.248 66.0264ZM40.6375 58.0529H33.3624V50.3013C34.5542 50.6152 35.7686 50.7784 36.9999 50.7784C38.2313 50.7784 39.4457 50.6152 40.6375 50.3013V58.0529ZM41.98 45.1433C41.8824 45.1834 41.7887 45.232 41.6989 45.2856C40.1666 46.0478 38.592 46.4424 36.9999 46.4424C35.4084 46.4424 33.8344 46.0478 32.3027 45.2867C32.2118 45.232 32.1175 45.1834 32.0187 45.1422C30.3188 44.2434 28.6742 42.8862 27.1188 41.1027C27.0369 40.9858 26.9449 40.878 26.8427 40.7797C25.2986 38.9466 23.8459 36.6917 22.5192 34.0382C18.535 26.0703 16.2338 15.5935 15.9718 4.33593H58.0281C57.7655 15.5935 55.4643 26.0709 51.4807 34.0382C50.1539 36.6917 48.7013 38.9466 47.1577 40.7797C47.055 40.878 46.9618 40.9864 46.8805 41.1032C45.3251 42.8873 43.68 44.244 41.98 45.1433ZM63.2413 30.9138C60.4919 35.0465 57.1547 37.8931 53.5487 39.2548C54.176 38.2262 54.7806 37.1337 55.3588 35.9775C58.989 28.7176 61.3111 19.5715 62.0936 9.6768H69.6182C69.2778 17.7259 67.0437 25.1998 63.2413 30.9138Z"/>
	</symbol>

	<symbol viewBox="0 0 12 12" id="emoji">
		<path fill="currentColor" d="M3.905 1H8.095C9.915 1 11 2.085 11 3.905V8.09C11 9.915 9.915 11 8.095 11H3.91C2.09 11 1.005 9.915 1.005 8.095V3.905C1 2.085 2.085 1 3.905 1ZM8.765 3.86C8.62 3.715 8.38 3.715 8.235 3.86C7.88 4.215 7.3 4.215 6.945 3.86C6.8 3.715 6.56 3.715 6.415 3.86C6.27 4.005 6.27 4.245 6.415 4.39C6.74 4.715 7.165 4.875 7.59 4.875C8.015 4.875 8.44 4.715 8.765 4.39C8.91 4.24 8.91 4.005 8.765 3.86ZM6 9.39C7.345 9.39 8.44 8.295 8.44 6.95C8.44 6.6 8.155 6.31 7.805 6.31H4.205C3.855 6.31 3.57 6.595 3.57 6.95C3.56 8.295 4.655 9.39 6 9.39ZM3.235 4.39C3.56 4.715 3.985 4.875 4.41 4.875C4.835 4.875 5.26 4.715 5.585 4.39C5.73 4.245 5.73 4.005 5.585 3.86C5.44 3.715 5.2 3.715 5.055 3.86C4.7 4.215 4.12 4.215 3.765 3.86C3.62 3.715 3.38 3.715 3.235 3.86C3.09 4.005 3.09 4.24 3.235 4.39Z"/>
	</symbol>

	<symbol viewBox="0 0 21 21" id="date-of-birth">
		<path fill="currentColor" d="M10.5 14.1914C11.1796 14.1914 11.7305 13.6405 11.7305 12.9609C11.7305 12.2814 11.1796 11.7305 10.5 11.7305C9.82043 11.7305 9.26953 12.2814 9.26953 12.9609C9.26953 13.6405 9.82043 14.1914 10.5 14.1914Z"/>
		<path fill="currentColor" d="M12.7559 17.6777C12.7559 16.4339 11.7439 15.4219 10.5 15.4219C9.25612 15.4219 8.24414 16.4339 8.24414 17.6777V17.8828H12.7559V17.6777Z"/>
		<path fill="currentColor" d="M0 18.7441C0 19.988 1.01198 21 2.25586 21H18.7441C19.988 21 21 19.988 21 18.7441V8.61328H0V18.7441ZM7.01367 17.6777C7.01367 16.3992 7.70589 15.2799 8.73481 14.6731C8.30464 14.2298 8.03906 13.626 8.03906 12.9609C8.03906 11.604 9.14304 10.5 10.5 10.5C11.857 10.5 12.9609 11.604 12.9609 12.9609C12.9609 13.626 12.6954 14.2298 12.2652 14.6731C13.2941 15.2799 13.9863 16.3992 13.9863 17.6777V18.498C13.9863 18.8378 13.7109 19.1133 13.3711 19.1133H7.62891C7.28913 19.1133 7.01367 18.8378 7.01367 18.498V17.6777Z"/>
		<path fill="currentColor" d="M18.7441 2.46094H18.654C18.5645 1.903 18.3542 1.38657 18.0395 0.966902C17.5786 0.352406 16.9235 0 16.2422 0C15.5608 0 14.9057 0.352406 14.4449 0.966902C14.1301 1.38657 13.9198 1.903 13.8304 2.46094H15.0851C15.2583 1.75219 15.7183 1.23047 16.2422 1.23047C16.7662 1.23047 17.2262 1.75219 17.3994 2.46094H15.0851C15.0378 2.65437 15.0117 2.86166 15.0117 3.07617C15.0117 4.07667 15.5752 4.92188 16.2422 4.92188C16.582 4.92188 16.8574 5.19734 16.8574 5.53711C16.8574 5.87688 16.582 6.15234 16.2422 6.15234C15.5608 6.15234 14.9057 5.79994 14.4449 5.18544C14.0169 4.61487 13.7812 3.86576 13.7812 3.07617C13.7812 2.86736 13.7982 2.66154 13.8304 2.46094H12.9118C12.8224 1.903 12.6121 1.38657 12.2973 0.966902C11.8365 0.352406 11.1814 0 10.5 0C9.81865 0 9.16355 0.352406 8.70274 0.966902C8.38794 1.38657 8.17765 1.903 8.0882 2.46094H9.34291C9.51612 1.75219 9.97607 1.23047 10.5 1.23047C11.024 1.23047 11.484 1.75219 11.6572 2.46094H9.34291C9.29558 2.65437 9.26953 2.86166 9.26953 3.07617C9.26953 4.07667 9.833 4.92188 10.5 4.92188C10.8398 4.92188 11.1152 5.19734 11.1152 5.53711C11.1152 5.87688 10.8398 6.15234 10.5 6.15234C9.81865 6.15234 9.16355 5.79994 8.70274 5.18544C8.27474 4.61487 8.03906 3.86576 8.03906 3.07617C8.03906 2.86736 8.056 2.66154 8.0882 2.46094H7.16965C7.0802 1.903 6.86991 1.38657 6.55512 0.966902C6.09427 0.352406 5.43916 0 4.75781 0C4.07646 0 3.42136 0.352406 2.96055 0.966902C2.64575 1.38657 2.43547 1.903 2.34601 2.46094H3.60072C3.77389 1.75219 4.23384 1.23047 4.75781 1.23047C5.28179 1.23047 5.74174 1.75219 5.91495 2.46094H3.60072C3.55347 2.65437 3.52734 2.86166 3.52734 3.07617C3.52734 4.07667 4.09082 4.92188 4.75781 4.92188C5.09759 4.92188 5.37305 5.19734 5.37305 5.53711C5.37305 5.87688 5.09759 6.15234 4.75781 6.15234C4.07646 6.15234 3.42136 5.79994 2.96055 5.18544C2.53255 4.61487 2.29688 3.86576 2.29688 3.07617C2.29688 2.86736 2.31381 2.66154 2.34601 2.46094H2.25586C1.01198 2.46094 0 3.47292 0 4.7168V7.38281H21V4.7168C21 3.47292 19.988 2.46094 18.7441 2.46094Z"/>
	</symbol>

	<symbol viewBox="0 0 19 19" id="email">
		<path fill="currentColor" d="M11.0879 11.6412C10.6152 11.9563 10.0661 12.1229 9.5 12.1229C8.93393 12.1229 8.38486 11.9563 7.91216 11.6412L0.126506 6.45057C0.0833105 6.42177 0.0412285 6.39175 0 6.36088V14.8662C0 15.8414 0.791357 16.6153 1.74908 16.6153H17.2509C18.226 16.6153 19 15.824 19 14.8662V6.36084C18.9587 6.39179 18.9165 6.42189 18.8732 6.45072L11.0879 11.6412Z"/>
		<path fill="currentColor" d="M0.744043 5.52392L8.5297 10.7146C8.82442 10.9111 9.16219 11.0093 9.49996 11.0093C9.83777 11.0093 10.1756 10.911 10.4703 10.7146L18.256 5.52392C18.7219 5.2135 19 4.69397 19 4.13325C19 3.16911 18.2156 2.38477 17.2515 2.38477H1.74848C0.784381 2.3848 0 3.16915 0 4.13418C0 4.69397 0.278172 5.2135 0.744043 5.52392Z"/>
	</symbol>

	<symbol viewBox="0 0 22 22" id="edit">
		<path fill="currentColor" d="M17.4166 11.0424C16.9097 11.0424 16.5 11.4531 16.5 11.959V19.2924C16.5 19.7974 16.0893 20.209 15.5834 20.209H2.75C2.24394 20.209 1.83339 19.7974 1.83339 19.2924V6.45898C1.83339 5.95393 2.24394 5.54237 2.75 5.54237H10.0834C10.5903 5.54237 11 5.13165 11 4.62576C11 4.11971 10.5903 3.70898 10.0834 3.70898H2.75C1.23384 3.70898 0 4.94283 0 6.45898V19.2924C0 20.8085 1.23384 22.0424 2.75 22.0424H15.5834C17.0995 22.0424 18.3334 20.8085 18.3334 19.2924V11.959C18.3334 11.4521 17.9235 11.0424 17.4166 11.0424Z"/>
		<path fill="currentColor" d="M8.59454 10.2072C8.53042 10.2714 8.48729 10.3529 8.46899 10.4409L7.82093 13.6823C7.79072 13.8326 7.83839 13.9875 7.94648 14.0966C8.0336 14.1837 8.15092 14.2304 8.2711 14.2304C8.3003 14.2304 8.33068 14.2277 8.3609 14.2213L11.6013 13.5732C11.6911 13.5548 11.7727 13.5118 11.836 13.4475L19.0886 6.19487L15.8482 2.95459L8.59454 10.2072Z"/>
		<path fill="currentColor" d="M21.3289 0.713306C20.4352 -0.180477 18.9814 -0.180477 18.0884 0.713306L16.8198 1.98189L20.0603 5.22234L21.3289 3.95359C21.7616 3.52188 21.9999 2.94617 21.9999 2.33387C21.9999 1.72156 21.7616 1.14585 21.3289 0.713306Z"/>
	</symbol>

	<symbol viewBox="0 0 17 16" id="group">
		<path fill="currentColor" d="M13.6925 8.54004H12.4551C12.5812 8.88535 12.6501 9.25801 12.6501 9.64642V14.323C12.6501 14.4849 12.6219 14.6404 12.5706 14.7849H14.6163C15.3804 14.7849 16.0021 14.1632 16.0021 13.3991V10.8497C16.0021 9.57617 14.966 8.54004 13.6925 8.54004Z"/>
		<path fill="currentColor" d="M3.35204 9.64642C3.35204 9.25798 3.42094 8.88535 3.54707 8.54004H2.30969C1.03613 8.54004 0 9.57617 0 10.8497V13.3991C0 14.1633 0.621657 14.785 1.38582 14.785H3.43151C3.38023 14.6403 3.35204 14.4849 3.35204 14.323V9.64642Z"/>
		<path fill="currentColor" d="M9.41585 7.33691H6.58703C5.31347 7.33691 4.27734 8.37304 4.27734 9.64661V14.3232C4.27734 14.5783 4.48416 14.7851 4.73928 14.7851H11.2636C11.5187 14.7851 11.7255 14.5783 11.7255 14.3232V9.64661C11.7255 8.37304 10.6894 7.33691 9.41585 7.33691Z"/>
		<path fill="currentColor" d="M8.00035 1.21436C6.46872 1.21436 5.22266 2.46042 5.22266 3.99208C5.22266 5.03099 5.79606 5.93833 6.64288 6.41471C7.04453 6.64065 7.5076 6.76977 8.00035 6.76977C8.4931 6.76977 8.95616 6.64065 9.35782 6.41471C10.2047 5.93833 10.778 5.03096 10.778 3.99208C10.778 2.46045 9.53197 1.21436 8.00035 1.21436Z"/>
		<path fill="currentColor" d="M3.12227 3.80371C1.9768 3.80371 1.04492 4.73559 1.04492 5.88106C1.04492 7.02653 1.9768 7.95841 3.12227 7.95841C3.41283 7.95841 3.68952 7.89822 3.94087 7.79003C4.37543 7.60294 4.73374 7.27175 4.95546 6.85691C5.11109 6.56575 5.19962 6.23359 5.19962 5.88106C5.19962 4.73562 4.26774 3.80371 3.12227 3.80371Z"/>
		<path fill="currentColor" d="M12.8801 3.80371C11.7346 3.80371 10.8027 4.73559 10.8027 5.88106C10.8027 6.23362 10.8913 6.56578 11.0469 6.85691C11.2686 7.27178 11.6269 7.60297 12.0615 7.79003C12.3128 7.89822 12.5895 7.95841 12.8801 7.95841C14.0256 7.95841 14.9574 7.02653 14.9574 5.88106C14.9574 4.73559 14.0256 3.80371 12.8801 3.80371Z"/>
	</symbol>

	<symbol viewBox="0 0 12 12" id="time">
		<path fill="currentColor" d="M6 0.5C4.91221 0.5 3.84884 0.822569 2.94437 1.42692C2.0399 2.03126 1.33495 2.89025 0.918665 3.89524C0.502383 4.90023 0.393465 6.0061 0.605683 7.073C0.817902 8.13989 1.34173 9.1199 2.11092 9.88909C2.8801 10.6583 3.86011 11.1821 4.92701 11.3943C5.9939 11.6065 7.09977 11.4976 8.10476 11.0813C9.10976 10.6651 9.96874 9.96011 10.5731 9.05564C11.1774 8.15117 11.5 7.0878 11.5 6C11.4983 4.54184 10.9183 3.14389 9.88719 2.11281C8.85611 1.08174 7.45817 0.50172 6 0.5ZM7.8535 7.8535C7.75974 7.94724 7.63258 7.99989 7.5 7.99989C7.36742 7.99989 7.24027 7.94724 7.1465 7.8535L5.6465 6.3535C5.55273 6.25975 5.50003 6.1326 5.5 6V3C5.5 2.86739 5.55268 2.74021 5.64645 2.64645C5.74022 2.55268 5.86739 2.5 6 2.5C6.13261 2.5 6.25979 2.55268 6.35356 2.64645C6.44732 2.74021 6.5 2.86739 6.5 3V5.793L7.8535 7.1465C7.94724 7.24026 7.9999 7.36742 7.9999 7.5C7.9999 7.63258 7.94724 7.75974 7.8535 7.8535Z"/>
	</symbol>

	<symbol viewBox="0 0 12 12" id="check-2">
		<path fill="currentColor" fill-rule="evenodd" clip-rule="evenodd" d="M3 0C1.34315 0 0 1.34315 0 3V9C0 10.6569 1.34315 12 3 12H9C10.6569 12 12 10.6569 12 9V3C12 1.34315 10.6569 0 9 0H3ZM5.31069 7.74858C5.37157 7.74858 5.43018 7.72447 5.47313 7.68126L8.14902 5.00516C8.28365 4.87075 8.28365 4.65248 8.14902 4.51785L7.98658 4.35537C7.85216 4.22074 7.63389 4.22074 7.49922 4.35537L5.31069 6.54394L4.50077 5.73397C4.36614 5.59934 4.14808 5.59934 4.01341 5.73397L3.85097 5.89645C3.71634 6.03083 3.71634 6.24914 3.85097 6.38377L5.14825 7.68126C5.19121 7.72447 5.24981 7.74858 5.31069 7.74858Z"/>
	</symbol>

	<symbol viewBox="0 0 12 12" id="close">
		<path fill="currentColor" fill-rule="evenodd" clip-rule="evenodd" d="M3 0C1.34315 0 0 1.34315 0 3V9C0 10.6569 1.34315 12 3 12H9C10.6569 12 12 10.6569 12 9V3C12 1.34315 10.6569 0 9 0H3ZM8.16448 4.25142L6.41227 6.00368L8.16448 7.75595C8.27851 7.86993 8.27851 8.05421 8.16448 8.16819C8.10762 8.22504 8.03299 8.2536 7.95836 8.2536C7.88373 8.2536 7.80909 8.22504 7.75224 8.16819L5.99997 6.41592L4.24776 8.16819C4.19091 8.22504 4.11628 8.2536 4.04164 8.2536C3.96701 8.2536 3.89233 8.22504 3.83552 8.16819C3.72149 8.05421 3.72149 7.86993 3.83552 7.75595L5.58773 6.00368L3.83552 4.25142C3.72149 4.13744 3.72149 3.95316 3.83552 3.83918C3.9495 3.7252 4.13373 3.7252 4.24776 3.83918L5.99997 5.59144L7.75224 3.83918C7.86622 3.7252 8.0505 3.7252 8.16448 3.83918C8.27851 3.95316 8.27851 4.13744 8.16448 4.25142Z"/>	
	</symbol>

	<symbol viewBox="0 0 22 22" id="comment">
		<path fill="currentColor" fill-rule="evenodd" clip-rule="evenodd" d="M0 6C0 2.68629 2.68629 0 6 0H16C19.3137 0 22 2.68629 22 6V16C22 19.3137 19.3137 22 16 22H6C2.68629 22 0 19.3137 0 16V6ZM10.9896 14.7835C11.474 14.7835 11.8772 14.4123 11.918 13.9296L12.5478 6.40754C12.5845 5.97128 12.4366 5.54001 12.1405 5.2179C11.8447 4.89621 11.427 4.71289 10.9896 4.71289C10.5521 4.71289 10.1344 4.89621 9.83863 5.2179C9.54246 5.54001 9.39462 5.97128 9.43128 6.40754L10.0611 13.9296C10.1019 14.4123 10.5051 14.7835 10.9896 14.7835ZM9.97266 16.3509C9.97266 15.7902 10.427 15.3359 10.9876 15.3359C11.5483 15.3359 12.0026 15.7902 12.0026 16.3509C12.0026 16.9115 11.5483 17.3659 10.9876 17.3659C10.427 17.3659 9.97266 16.9115 9.97266 16.3509Z"/>
	</symbol>

	<symbol viewBox="0 0 21 21" id="skip-prev-arrow">
		<path fill="currentColor" d="M2.05562 12.0815L9.15625 17.9877C9.39219 18.1841 9.67904 18.3094 9.98343 18.3492C10.2878 18.3889 10.5972 18.3414 10.8757 18.2121C11.1541 18.0829 11.3901 17.8772 11.5562 17.6191C11.7224 17.3609 11.8118 17.061 11.8141 16.754L11.8141 13.6499L17.0312 18.0009C17.2685 18.1881 17.5534 18.3053 17.8538 18.3392C18.1541 18.3731 18.458 18.3224 18.731 18.1927C19.004 18.063 19.2353 17.8595 19.3988 17.6053C19.5623 17.3511 19.6515 17.0562 19.6562 16.754L19.6562 4.24587C19.6564 3.93779 19.5688 3.63605 19.4037 3.37598C19.2385 3.11591 19.0027 2.90829 18.7238 2.77744C18.4448 2.6466 18.1344 2.59794 17.8289 2.63718C17.5233 2.67642 17.2352 2.80192 16.9984 2.99899L11.7484 7.34993L11.7484 4.24587C11.7486 3.93779 11.661 3.63605 11.4958 3.37598C11.3307 3.11591 11.0949 2.90829 10.8159 2.77744C10.537 2.6466 10.2266 2.59794 9.92105 2.63718C9.61548 2.67642 9.32742 2.80193 9.09062 2.99899L1.99 8.90524C1.75742 9.09799 1.57021 9.33965 1.44171 9.61302C1.31322 9.88639 1.2466 10.1847 1.2466 10.4868C1.2466 10.7889 1.31322 11.0872 1.44171 11.3606C1.57021 11.634 1.75742 11.8756 1.99 12.0684L2.05562 12.0815Z"/>
	</symbol>

	<symbol viewBox="0 0 21 21" id="skip-next-arrow">
		<path fill="currentColor" d="M18.9444 8.9185L11.8438 3.01226C11.6078 2.81589 11.321 2.69055 11.0166 2.65083C10.7122 2.61111 10.4028 2.65864 10.1243 2.78789C9.84591 2.91714 9.6099 3.12279 9.44378 3.38092C9.27765 3.63905 9.18824 3.93905 9.18594 4.24601L9.18594 7.35007L3.96875 2.99913C3.73149 2.81187 3.4466 2.69467 3.14624 2.66078C2.84589 2.62688 2.54204 2.67765 2.26901 2.80733C1.99599 2.93702 1.76466 3.14046 1.60116 3.39469C1.43766 3.64891 1.3485 3.94378 1.34375 4.24601L1.34375 16.7541C1.34357 17.0622 1.43119 17.364 1.59634 17.624C1.76149 17.8841 1.99734 18.0917 2.27625 18.2226C2.55515 18.3534 2.86557 18.4021 3.17114 18.3628C3.47671 18.3236 3.76476 18.1981 4.00157 18.001L9.25156 13.6501L9.25157 16.7541C9.25139 17.0622 9.339 17.364 9.50415 17.624C9.6693 17.8841 9.90515 18.0917 10.1841 18.2226C10.463 18.3534 10.7734 18.4021 11.079 18.3628C11.3845 18.3236 11.6726 18.1981 11.9094 18.001L19.01 12.0948C19.2426 11.902 19.4298 11.6603 19.5583 11.387C19.6868 11.1136 19.7534 10.8153 19.7534 10.5132C19.7534 10.2111 19.6868 9.91278 19.5583 9.63941C19.4298 9.36604 19.2426 9.12437 19.01 8.93163L18.9444 8.9185Z"/>
	</symbol>

	<symbol viewBox="0 0 16 16" id="lock">
		<path fill="currentColor" d="M12.5 6H12V4C12 1.79395 10.2061 0 8 0C5.79395 0 4 1.79395 4 4V6H3.5C2.67334 6 2 6.67261 2 7.5V14.5C2 15.3274 2.67334 16 3.5 16H12.5C13.3267 16 14 15.3274 14 14.5V7.5C14 6.67261 13.3267 6 12.5 6ZM5.33337 4C5.33337 2.5293 6.5293 1.33337 8 1.33337C9.4707 1.33337 10.6666 2.5293 10.6666 4V6H5.33337V4Z"/>
	</symbol>

	<symbol viewBox="0 0 17 17" id="check-3">
		<path fill="currentColor" d="M16.605 2.77819C16.079 2.25151 15.2249 2.25184 14.6982 2.77819L6.11638 11.3604L2.30212 7.54613C1.77544 7.01945 0.921696 7.01945 0.395013 7.54613C-0.131671 8.07281 -0.131671 8.92656 0.395013 9.45324L5.16262 14.2209C5.4258 14.484 5.77089 14.6159 6.11601 14.6159C6.46114 14.6159 6.80656 14.4844 7.06973 14.2209L16.605 4.68527C17.1317 4.15895 17.1317 3.30484 16.605 2.77819Z"/>
	</symbol>

	<symbol viewBox="0 0 20 20" id="check-4">
		<path fill-rule="evenodd" clip-rule="evenodd" d="M3 0C1.34315 0 0 1.34315 0 3V17C0 18.6569 1.34315 20 3 20H17C18.6569 20 20 18.6569 20 17V3C20 1.34315 18.6569 0 17 0H3ZM13.4546 6.81158C13.7481 6.51825 14.2241 6.51807 14.5172 6.81158C14.8107 7.10507 14.8107 7.58104 14.5172 7.87434L9.20345 13.1883C9.05679 13.3351 8.8643 13.4085 8.67197 13.4085C8.47964 13.4085 8.28733 13.335 8.14067 13.1883L5.48379 10.5314C5.19029 10.2379 5.19029 9.76214 5.48379 9.46863C5.7773 9.17513 6.25307 9.17513 6.54658 9.46863L8.67217 11.5942L13.4546 6.81158Z" fill="currentColor"/>
	</symbol>

	<symbol viewBox="0 0 15 15" id="close-2">
		<path fill="currentColor" d="M8.70245 7.51022L13.8131 2.39945C14.1457 2.06701 14.1457 1.52951 13.8131 1.19708C13.4806 0.864645 12.9431 0.864645 12.6107 1.19708L7.49993 6.30785L2.38931 1.19708C2.05672 0.864645 1.51938 0.864645 1.18694 1.19708C0.854352 1.52951 0.854352 2.06701 1.18694 2.39945L6.29756 7.51022L1.18694 12.621C0.854352 12.9534 0.854352 13.4909 1.18694 13.8234C1.35261 13.9892 1.57045 14.0725 1.78813 14.0725C2.00581 14.0725 2.22348 13.9892 2.38931 13.8234L7.49993 8.71259L12.6107 13.8234C12.7765 13.9892 12.9942 14.0725 13.2119 14.0725C13.4296 14.0725 13.6472 13.9892 13.8131 13.8234C14.1457 13.4909 14.1457 12.9534 13.8131 12.621L8.70245 7.51022Z"/>
	</symbol>

	<symbol viewBox="0 0 18 16" id="close-3">
		<path d="M0.879071 16.0001C0.705215 16.0001 0.535256 15.9543 0.390691 15.8685C0.246125 15.7826 0.133448 15.6606 0.0669123 15.5178C0.000376494 15.3751 -0.0170291 15.218 0.0168973 15.0664C0.0508237 14.9148 0.134558 14.7756 0.257508 14.6664L16.4997 0.228853C16.6645 0.0823209 16.8881 0 17.1213 0C17.3544 0 17.578 0.0823209 17.7428 0.228853C17.9077 0.375385 18.0003 0.574125 18.0003 0.781353C18.0003 0.988581 17.9077 1.18732 17.7428 1.33385L1.50063 15.7714C1.41908 15.844 1.32219 15.9016 1.21553 15.9408C1.10886 15.9801 0.994518 16.0002 0.879071 16.0001Z" fill="currentColor"/>
		<path d="M17.1212 16.0001C17.0058 16.0002 16.8914 15.9801 16.7848 15.9408C16.6781 15.9016 16.5812 15.844 16.4996 15.7714L0.25746 1.33385C0.092611 1.18732 0 0.988581 0 0.781353C0 0.574125 0.092611 0.375385 0.25746 0.228853C0.422308 0.0823209 0.645891 0 0.879022 0C1.11215 0 1.33574 0.0823209 1.50058 0.228853L17.7428 14.6664C17.8657 14.7756 17.9495 14.9148 17.9834 15.0664C18.0173 15.218 17.9999 15.3751 17.9334 15.5178C17.8668 15.6606 17.7542 15.7826 17.6096 15.8685C17.465 15.9543 17.2951 16.0001 17.1212 16.0001Z" fill="currentColor"/>
	</symbol>

	<symbol viewBox="0 0 20 20" id="close-4">
		<path fill-rule="evenodd" clip-rule="evenodd" d="M3 0C1.34315 0 0 1.34315 0 3V17C0 18.6569 1.34315 20 3 20H17C18.6569 20 20 18.6569 20 17V3C20 1.34315 18.6569 0 17 0H3ZM13.6075 7.0854L10.6871 10.0058L13.6075 12.9263C13.7975 13.1162 13.7975 13.4234 13.6075 13.6133C13.5127 13.7081 13.3883 13.7557 13.2639 13.7557C13.1395 13.7557 13.0152 13.7081 12.9204 13.6133L9.99996 10.6929L7.07961 13.6133C6.98485 13.7081 6.86046 13.7557 6.73607 13.7557C6.61169 13.7557 6.48721 13.7081 6.39254 13.6133C6.20249 13.4234 6.20249 13.1162 6.39254 12.9263L9.31289 10.0058L6.39254 7.0854C6.20249 6.89544 6.20249 6.58829 6.39254 6.39833C6.5825 6.20837 6.88956 6.20837 7.07961 6.39833L9.99996 9.31877L12.9204 6.39833C13.1104 6.20837 13.4175 6.20837 13.6075 6.39833C13.7975 6.58829 13.7975 6.89544 13.6075 7.0854Z" fill="currentColor"/>
	</symbol>

	<symbol viewBox="0 0 8 14" id="arrow-up">
		<path fill="currentColor" fill-rule="evenodd" clip-rule="evenodd" d="M0.464562 3.82843L3.64654 0.646446C3.84181 0.451184 4.15839 0.451184 4.35365 0.646446L7.53563 3.82843C7.73089 4.02369 7.73089 4.34027 7.53563 4.53553C7.34037 4.7308 7.02379 4.7308 6.82852 4.53553L4.5001 2.20711L4.5001 14L3.5001 14L3.5001 2.20711L1.17167 4.53553C0.976407 4.7308 0.659824 4.7308 0.464562 4.53553C0.2693 4.34027 0.2693 4.02369 0.464562 3.82843Z"/>
	</symbol>

	<symbol viewBox="0 0 11 11" id="chat">
		<path fill="currentColor" d="M5.68338 0.946533C3.0716 0.946533 0.946533 3.0716 0.946533 5.68338C0.946533 6.59403 1.20173 7.46857 1.68548 8.22232L0.967849 10.014C0.924033 10.1242 0.949494 10.2497 1.03357 10.3338C1.08982 10.39 1.16561 10.4202 1.24259 10.4202C1.27989 10.4202 1.3166 10.4131 1.35272 10.3989L3.14443 9.68127C3.89818 10.165 4.77272 10.4202 5.68338 10.4202C8.29515 10.4202 10.4202 8.29515 10.4202 5.68338C10.4202 3.0716 8.29515 0.946533 5.68338 0.946533ZM5.68338 9.82811C4.83903 9.82811 4.03081 9.57824 3.34693 9.10515C3.29719 9.07022 3.23798 9.05245 3.17877 9.05245C3.14147 9.05245 3.10416 9.05956 3.06864 9.07377L1.7743 9.59245L2.29298 8.29811C2.32969 8.20574 2.31785 8.10094 2.2616 8.01982C1.78851 7.33594 1.53864 6.52772 1.53864 5.68338C1.53864 3.39785 3.39785 1.53864 5.68338 1.53864C7.9689 1.53864 9.82811 3.39785 9.82811 5.68338C9.82811 7.9689 7.9689 9.82811 5.68338 9.82811Z"/>
		<path fill="currentColor" d="M9.78869 4.42016C9.28343 1.38858 5.99922 1.26204 4.73601 1.57754C2.52519 1.8929 2.5255 3.15691 1.89373 3.78849C1.5364 4.14571 0.94652 6.63077 2.20969 8.20955L1.57816 9.78866C1.99922 9.57814 3.15706 8.90428 3.15706 9.15691C3.15706 9.4727 5.08956 10.4108 6.31501 10.1045C7.57816 9.78866 10.4203 8.20963 9.78869 4.42016Z"/>
	</symbol>

	<symbol viewBox="0 0 12 12" id="audiofile">
		<path fill="currentColor" d="M7.1895 8.00743L5.1895 8.50743C5.078 8.53543 5 8.63543 5 8.74993V11.0274C4.9225 11.0109 4.8395 10.9999 4.75 10.9999C4.3155 10.9999 4 11.2099 4 11.4999C4 11.7899 4.3155 11.9999 4.75 11.9999C5.1845 11.9999 5.5 11.7899 5.5 11.4999V8.94543L7 8.57043V10.5279C6.9225 10.5109 6.8395 10.4999 6.75 10.4999C6.3155 10.4999 6 10.7099 6 10.9999C6 11.2899 6.3155 11.4999 6.75 11.4999C7.1845 11.4999 7.5 11.2899 7.5 10.9999V8.24993C7.5 8.17293 7.4645 8.10043 7.404 8.05293C7.343 8.00493 7.2635 7.98793 7.1895 8.00743Z"/>
		<path fill="currentColor" d="M10.25 2.50049H4.4705C4.1475 2.50049 3.8615 2.29449 3.7595 1.98799L3.715 1.85499C3.5445 1.34399 3.068 1.00049 2.5295 1.00049H1.25C0.561 1.00049 0 1.56149 0 2.25049V8.25049C0 8.93949 0.561 9.50049 1.25 9.50049H4.25C4.388 9.50049 4.5 9.38849 4.5 9.25049V8.75049C4.5 8.40599 4.7335 8.10649 5.068 8.02249L7.0685 7.52249C7.288 7.46699 7.5315 7.51899 7.7115 7.65899C7.895 7.80249 8 8.01799 8 8.25049V9.25049C8 9.38849 8.112 9.50049 8.25 9.50049H10.25C10.939 9.50049 11.5 8.93949 11.5 8.25049V3.75049C11.5 3.06149 10.939 2.50049 10.25 2.50049Z"/>
		<path fill="currentColor" d="M2.5293 0.5C3.2833 0.5 3.9508 0.981 4.1893 1.696L4.2333 1.8295C4.2673 1.932 4.3628 2.001 4.4708 2.001L10.2498 2C10.3828 2 10.5213 2.02 10.6868 2.063C10.7078 2.0685 10.7288 2.071 10.7498 2.071C10.8043 2.071 10.8583 2.053 10.9028 2.019C10.9638 1.9715 10.9998 1.8985 10.9998 1.821V1.25C10.9998 0.561 10.4388 0 9.7498 0H2.5293C2.3913 0 2.2793 0.112 2.2793 0.25C2.2793 0.388 2.3908 0.5 2.5293 0.5Z"/>
	</symbol>

	<symbol viewBox="0 0 20 20" id="trash">
		<path fill="currentColor" d="M17.0312 2.34375H14.1016V1.75781C14.1016 0.788555 13.313 0 12.3438 0H7.65625C6.68699 0 5.89844 0.788555 5.89844 1.75781V2.34375H2.96875C1.99949 2.34375 1.21094 3.1323 1.21094 4.10156C1.21094 4.88 1.71973 5.54145 2.42207 5.77191L3.46719 18.3881C3.54246 19.292 4.31191 20 5.21891 20H14.7811C15.6881 20 16.4576 19.292 16.5329 18.3879L17.5779 5.77187C18.2803 5.54145 18.7891 4.88 18.7891 4.10156C18.7891 3.1323 18.0005 2.34375 17.0312 2.34375ZM7.07031 1.75781C7.07031 1.43473 7.33316 1.17188 7.65625 1.17188H12.3438C12.6668 1.17188 12.9297 1.43473 12.9297 1.75781V2.34375H7.07031V1.75781ZM15.365 18.2909C15.3399 18.5921 15.0834 18.8281 14.7811 18.8281H5.21891C4.9166 18.8281 4.66012 18.5921 4.63508 18.2911L3.60523 5.85938H16.3948L15.365 18.2909ZM17.0312 4.6875H2.96875C2.64566 4.6875 2.38281 4.42465 2.38281 4.10156C2.38281 3.77848 2.64566 3.51562 2.96875 3.51562H17.0312C17.3543 3.51562 17.6172 3.77848 17.6172 4.10156C17.6172 4.42465 17.3543 4.6875 17.0312 4.6875Z"/>
		<path fill="currentColor" d="M7.65516 17.0341L7.06923 7.58096C7.04919 7.25795 6.76962 7.01229 6.44817 7.0324C6.12516 7.05244 5.87958 7.33049 5.89958 7.65346L6.48551 17.1066C6.50477 17.4173 6.76274 17.6563 7.06977 17.6563C7.40911 17.6563 7.67598 17.3705 7.65516 17.0341Z"/>
		<path fill="currentColor" d="M10 7.03125C9.67641 7.03125 9.41406 7.29359 9.41406 7.61719V17.0703C9.41406 17.3939 9.67641 17.6562 10 17.6562C10.3236 17.6562 10.5859 17.3939 10.5859 17.0703V7.61719C10.5859 7.29359 10.3236 7.03125 10 7.03125Z"/>
		<path fill="currentColor" d="M13.5519 7.03239C13.2296 7.01236 12.9508 7.25794 12.9308 7.58095L12.3449 17.0341C12.3249 17.357 12.5705 17.6351 12.8935 17.6551C13.2166 17.6751 13.4945 17.4294 13.5145 17.1066L14.1005 7.65345C14.1205 7.33044 13.8749 7.05239 13.5519 7.03239Z"/>
	</symbol>

	<symbol viewBox="0 0 14 14" id="attach-file">
		<path d="M11.5042 1.82689C10.8927 1.21686 10.0643 0.874268 9.20055 0.874268C8.33682 0.874268 7.50835 1.21686 6.89689 1.82689L2.07548 6.64839C1.99813 6.72801 1.95522 6.83488 1.95602 6.94589C1.95683 7.0569 2.00129 7.16313 2.07979 7.24163C2.15828 7.32012 2.26452 7.36458 2.37553 7.36538C2.48654 7.36618 2.5934 7.32326 2.67303 7.24591L7.49441 2.42442C9.84829 0.253859 13.081 3.48523 10.9068 5.83692L4.89189 11.8518C3.48104 13.1809 1.4846 11.1911 2.81614 9.77611L8.83153 3.76061C8.93011 3.66524 9.06222 3.61243 9.19937 3.61357C9.33653 3.61472 9.46774 3.66972 9.56471 3.76672C9.66168 3.86372 9.71664 3.99495 9.71774 4.13211C9.71884 4.26926 9.66599 4.40136 9.57058 4.4999L4.75044 9.31994C4.67315 9.39958 4.63029 9.50642 4.63112 9.6174C4.63196 9.72837 4.67641 9.83457 4.75488 9.91304C4.83336 9.99151 4.93956 10.036 5.05053 10.0368C5.1615 10.0376 5.26835 9.99475 5.34799 9.91745L10.1681 5.09741C11.4034 3.78241 9.55382 1.92441 8.23399 3.1631L2.21858 9.17861C2.00328 9.39292 1.83263 9.64781 1.71652 9.92853C1.6004 10.2092 1.54113 10.5102 1.54213 10.814C1.52056 12.8496 4.06436 13.9021 5.48943 12.4493L11.5043 6.43443C12.1144 5.82293 12.457 4.99441 12.457 4.13064C12.4569 3.26686 12.1143 2.43836 11.5042 1.82689Z" fill="currentColor"/>
	</symbol>

	<symbol viewBox="0 0 22 22" id="tip">
		<path fill-rule="evenodd" clip-rule="evenodd" d="M0 6C0 2.68629 2.68629 0 6 0H16C19.3137 0 22 2.68629 22 6V16C22 19.3137 19.3137 22 16 22H6C2.68629 22 0 19.3137 0 16V6ZM10.9896 14.7835C11.474 14.7835 11.8772 14.4123 11.918 13.9296L12.5478 6.40754C12.5845 5.97128 12.4366 5.54001 12.1405 5.2179C11.8447 4.89621 11.427 4.71289 10.9896 4.71289C10.5521 4.71289 10.1344 4.89621 9.83863 5.2179C9.54246 5.54001 9.39462 5.97128 9.43128 6.40754L10.0611 13.9296C10.1019 14.4123 10.5051 14.7835 10.9896 14.7835ZM9.97266 16.3509C9.97266 15.7902 10.427 15.3359 10.9876 15.3359C11.5483 15.3359 12.0026 15.7902 12.0026 16.3509C12.0026 16.9115 11.5483 17.3659 10.9876 17.3659C10.427 17.3659 9.97266 16.9115 9.97266 16.3509Z" fill="currentColor"/>
	</symbol>

	<symbol viewBox="0 0 21 21" id="prev-seek">
		<path d="M2.05562 12.0815L9.15625 17.9877C9.39219 18.1841 9.67904 18.3094 9.98343 18.3492C10.2878 18.3889 10.5972 18.3414 10.8757 18.2121C11.1541 18.0829 11.3901 17.8772 11.5562 17.6191C11.7224 17.3609 11.8118 17.061 11.8141 16.754L11.8141 13.6499L17.0312 18.0009C17.2685 18.1881 17.5534 18.3053 17.8538 18.3392C18.1541 18.3731 18.458 18.3224 18.731 18.1927C19.004 18.063 19.2353 17.8595 19.3988 17.6053C19.5623 17.3511 19.6515 17.0562 19.6562 16.754L19.6562 4.24587C19.6564 3.93779 19.5688 3.63605 19.4037 3.37598C19.2385 3.11591 19.0027 2.90829 18.7238 2.77744C18.4448 2.6466 18.1344 2.59794 17.8289 2.63718C17.5233 2.67642 17.2352 2.80192 16.9984 2.99899L11.7484 7.34993L11.7484 4.24587C11.7486 3.93779 11.661 3.63605 11.4958 3.37598C11.3307 3.11591 11.0949 2.90829 10.8159 2.77744C10.537 2.6466 10.2266 2.59794 9.92105 2.63718C9.61548 2.67642 9.32742 2.80193 9.09062 2.99899L1.99 8.90524C1.75742 9.09799 1.57021 9.33965 1.44171 9.61302C1.31322 9.88639 1.2466 10.1847 1.2466 10.4868C1.2466 10.7889 1.31322 11.0872 1.44171 11.3606C1.57021 11.634 1.75742 11.8756 1.99 12.0684L2.05562 12.0815Z" fill="currentColor"/>
	</symbol>

	<symbol viewBox="0 0 21 21" id="next-seek">
		<path d="M18.9444 8.9185L11.8438 3.01226C11.6078 2.81589 11.321 2.69055 11.0166 2.65083C10.7122 2.61111 10.4028 2.65864 10.1243 2.78789C9.84591 2.91714 9.6099 3.12279 9.44378 3.38092C9.27765 3.63905 9.18824 3.93905 9.18594 4.24601L9.18594 7.35007L3.96875 2.99913C3.73149 2.81187 3.4466 2.69467 3.14624 2.66078C2.84589 2.62688 2.54204 2.67765 2.26901 2.80733C1.99599 2.93702 1.76466 3.14046 1.60116 3.39469C1.43766 3.64891 1.3485 3.94378 1.34375 4.24601L1.34375 16.7541C1.34357 17.0622 1.43119 17.364 1.59634 17.624C1.76149 17.8841 1.99734 18.0917 2.27625 18.2226C2.55515 18.3534 2.86557 18.4021 3.17114 18.3628C3.47671 18.3236 3.76476 18.1981 4.00157 18.001L9.25156 13.6501L9.25157 16.7541C9.25139 17.0622 9.339 17.364 9.50415 17.624C9.6693 17.8841 9.90515 18.0917 10.1841 18.2226C10.463 18.3534 10.7734 18.4021 11.079 18.3628C11.3845 18.3236 11.6726 18.1981 11.9094 18.001L19.01 12.0948C19.2426 11.902 19.4298 11.6603 19.5583 11.387C19.6868 11.1136 19.7534 10.8153 19.7534 10.5132C19.7534 10.2111 19.6868 9.91278 19.5583 9.63941C19.4298 9.36604 19.2426 9.12437 19.01 8.93163L18.9444 8.9185Z" fill="currentColor"/>
	</symbol>

	<symbol viewBox="0 0 24 24" id="play-2">
		<path d="M18.6635 10.0132L7.66347 3.80722C7.30424 3.60192 6.89704 3.49544 6.48329 3.4986C6.06955 3.50177 5.66403 3.61446 5.30797 3.82522C4.96109 4.02361 4.67289 4.31028 4.47267 4.65611C4.27244 5.00194 4.16732 5.39461 4.16797 5.79422V18.2062C4.16732 18.6058 4.27244 18.9985 4.47267 19.3443C4.67289 19.6902 4.96109 19.9768 5.30797 20.1752C5.66406 20.3859 6.06957 20.4985 6.4833 20.5017C6.89702 20.5048 7.30421 20.3984 7.66347 20.1932L18.6635 13.9872C19.0182 13.7907 19.3139 13.5028 19.5198 13.1534C19.7257 12.8039 19.8343 12.4058 19.8343 12.0002C19.8343 11.5947 19.7257 11.1965 19.5198 10.8471C19.3139 10.4977 19.0182 10.2097 18.6635 10.0132Z" fill="currentColor"/>
	</symbol>

	<symbol viewBox="0 0 22 22" id="student-ranking">
		<path fill-rule="evenodd" clip-rule="evenodd" d="M9.47257 20.1658C7.81059 20.1658 6.4585 18.8388 6.41797 17.1866H12.5282C14.5954 17.1866 16.2712 15.5108 16.2712 13.4435V5.5C17.9234 5.54053 19.2504 6.89262 19.2504 8.55462V17.1102C19.2504 18.7977 17.8823 20.1658 16.1949 20.1658H9.47257Z" fill="currentColor"/>
		<path fill-rule="evenodd" clip-rule="evenodd" d="M5.80555 1.83203C4.11802 1.83203 2.75 3.20006 2.75 4.88759V12.9623C2.75 14.6498 4.11802 16.0178 5.80555 16.0178H12.0569C13.7444 16.0178 15.1124 14.6498 15.1124 12.9623V4.88758C15.1124 3.20005 13.7444 1.83203 12.0569 1.83203H5.80555ZM9.10566 5.03088C9.05091 4.8617 8.81156 4.8617 8.75681 5.03088L7.98103 7.42815C7.95655 7.5038 7.8861 7.55504 7.8066 7.55504H5.29456C5.11714 7.55504 5.04318 7.78192 5.18652 7.88649L7.22007 9.36996C7.28407 9.41662 7.31085 9.49912 7.28646 9.57447L6.51 11.9738C6.4553 12.1429 6.64894 12.2831 6.79248 12.1784L8.82319 10.697C8.88756 10.6501 8.9749 10.6501 9.03928 10.697L11.07 12.1784C11.2135 12.2831 11.4072 12.1429 11.3525 11.9738L10.576 9.57447C10.5517 9.49912 10.5784 9.41662 10.6424 9.36996L12.6759 7.88649C12.8193 7.78192 12.7453 7.55504 12.5679 7.55504H10.0558C9.97636 7.55504 9.90596 7.5038 9.88148 7.42815L9.10566 5.03088Z" fill="currentColor"/>	
	</symbol>

	<symbol viewBox="0 0 20 20" id="download-audio">
		<path d="M13.6395 3.87109L8.13086 5.22981V7.00036L13.6395 5.64164V3.87109Z" fill="currentColor"/>
		<path d="M6.37693 11.8242C5.74149 11.8242 5.22461 12.2315 5.22461 12.7322C5.22461 13.2326 5.74149 13.64 6.37693 13.64C7.01217 13.64 7.52905 13.2326 7.52905 12.7322C7.52905 12.2315 7.01217 11.8242 6.37693 11.8242Z" fill="currentColor"/>
		<path d="M13.6384 10.1265C13.6384 9.62529 13.1225 9.21875 12.4863 9.21875C11.8499 9.21875 11.334 9.62529 11.334 10.1265C11.334 10.6279 11.8499 11.0345 12.4863 11.0345C13.1225 11.0345 13.6384 10.6279 13.6384 10.1265Z" fill="currentColor"/>
		<path d="M17.344 13.0298C15.8762 12.2386 14.0606 12.5252 12.9077 13.7299C11.7548 14.9347 11.5482 16.761 12.403 18.1927C13.2577 19.6244 14.9633 20.3093 16.5709 19.866C18.1784 19.4227 19.292 17.9607 19.2922 16.293C19.2918 14.93 18.5437 13.6769 17.344 13.0298ZM17.6874 17.1212L15.7987 19.0095C15.7918 19.0165 15.7844 19.0232 15.7766 19.0294C15.7756 19.0304 15.7742 19.0312 15.773 19.0322C15.7666 19.0373 15.7599 19.0422 15.7529 19.0472C15.7515 19.0482 15.75 19.049 15.7484 19.05C15.7417 19.0543 15.7349 19.0586 15.7277 19.0623C15.7267 19.0629 15.7255 19.0635 15.7245 19.0639C15.7169 19.068 15.7091 19.0717 15.7012 19.075L15.6987 19.0758C15.6905 19.0791 15.6821 19.0823 15.6737 19.0848L15.6711 19.0856C15.6627 19.0881 15.6541 19.0903 15.6453 19.0921C15.6429 19.0924 15.6406 19.0926 15.6383 19.093C15.631 19.0944 15.6236 19.0956 15.6161 19.0964C15.5962 19.0985 15.576 19.0985 15.5561 19.0964C15.5483 19.0956 15.5406 19.0944 15.5332 19.093C15.531 19.0926 15.5291 19.0924 15.5269 19.0921C15.5179 19.0903 15.5089 19.0879 15.5001 19.0852L15.4986 19.0848C15.4898 19.0823 15.481 19.0789 15.4725 19.0756L15.471 19.075C15.4628 19.0715 15.4547 19.0678 15.4469 19.0637L15.4444 19.0623C15.4371 19.0584 15.4299 19.0541 15.423 19.0496C15.4217 19.0488 15.4203 19.048 15.4191 19.0472C15.4121 19.0426 15.4054 19.0377 15.399 19.0322C15.398 19.0314 15.3966 19.0304 15.3955 19.0296C15.3878 19.0232 15.3804 19.0165 15.3734 19.0095L13.4848 17.1212C13.369 17.0036 13.3698 16.8146 13.4864 16.698C13.6032 16.5814 13.7922 16.5806 13.9098 16.6962L15.2855 18.0722V13.7888C15.2855 13.6229 15.4201 13.4883 15.586 13.4883C15.7519 13.4883 15.8865 13.6229 15.8865 13.7888V18.0718L17.2623 16.696C17.3796 16.5787 17.57 16.5787 17.6874 16.6962C17.8048 16.8136 17.8048 17.004 17.6874 17.1212Z" fill="currentColor"/>
		<path d="M15.5862 11.9865C16.1933 11.9869 16.7933 12.115 17.3474 12.3629C17.8772 11.2198 18.1497 9.97451 18.146 8.71459C18.146 3.90928 14.2367 0 9.43139 0C4.62627 0 0.716797 3.90928 0.716797 8.71459C0.716797 13.5199 4.62608 17.4292 9.43139 17.4292C10.0862 17.4294 10.7389 17.356 11.377 17.2107C11.1008 15.9372 11.4154 14.6071 12.2328 13.5925C13.0503 12.5777 14.2833 11.9875 15.5862 11.9865ZM10.7332 10.1265C10.7332 9.29466 11.5195 8.61775 12.4863 8.61775C12.9007 8.61423 13.3049 8.74511 13.6386 8.99084V6.26068L8.12999 7.6194V12.7334C8.12999 13.5653 7.34371 14.2422 6.37666 14.2422C5.40981 14.2422 4.62353 13.5653 4.62353 12.7334C4.62353 11.9014 5.40981 11.2245 6.37666 11.2245C6.79103 11.2211 7.19522 11.352 7.52898 11.5975V4.9945C7.52898 4.85618 7.62328 4.73586 7.75749 4.7028L13.8671 3.19578C13.9567 3.17367 14.0516 3.19402 14.1244 3.25095C14.1972 3.30788 14.2396 3.39514 14.2396 3.48748V10.1265C14.2396 10.9586 13.4534 11.6355 12.4863 11.6355C11.5195 11.6355 10.733 10.9586 10.733 10.1265H10.7332Z" fill="currentColor"/>	
	</symbol>

	<symbol viewBox="0 0 11 11" id="add-comment">
		<path d="M5.68313 0.946289C3.07136 0.946289 0.946289 3.07136 0.946289 5.68313C0.946289 6.59379 1.20149 7.46833 1.68524 8.22208L0.967605 10.0138C0.923789 10.1239 0.94925 10.2494 1.03333 10.3335C1.08958 10.3898 1.16537 10.42 1.24234 10.42C1.27964 10.42 1.31635 10.4129 1.35247 10.3987L3.14418 9.68103C3.89793 10.1648 4.77247 10.42 5.68313 10.42C8.29491 10.42 10.42 8.29491 10.42 5.68313C10.42 3.07136 8.29491 0.946289 5.68313 0.946289ZM5.68313 9.82787C4.83879 9.82787 4.03057 9.578 3.34668 9.10491C3.29695 9.06997 3.23774 9.05221 3.17853 9.05221C3.14122 9.05221 3.10392 9.05932 3.06839 9.07353L1.77405 9.59221L2.29274 8.29787C2.32945 8.2055 2.3176 8.1007 2.26135 8.01958C1.78826 7.3357 1.53839 6.52747 1.53839 5.68313C1.53839 3.3976 3.3976 1.53839 5.68313 1.53839C7.96866 1.53839 9.82787 3.3976 9.82787 5.68313C9.82787 7.96866 7.96866 9.82787 5.68313 9.82787Z" fill="currentColor"/>
		<path d="M9.7882 4.41942C9.28294 1.38784 5.99873 1.26131 4.73552 1.57681C2.5247 1.89217 2.52501 3.15618 1.89324 3.78776C1.53591 4.14498 0.946032 6.63004 2.2092 8.20881L1.57768 9.78793C1.99873 9.57741 3.15657 8.90355 3.15657 9.15618C3.15657 9.47197 5.08908 10.4101 6.31452 10.1037C7.57768 9.78793 10.4198 8.2089 9.7882 4.41942Z" fill="currentColor"/>	
	</symbol>

	<symbol viewBox="0 0 19 19" id="calendar-4">
		<path d="M2.87083 19H16.1286C17.5184 19 18.6479 17.8705 18.6479 16.4807V3.92665C18.6479 2.53684 17.5184 1.40738 16.1286 1.40738H15.1294V0.703691C15.1294 0.316649 14.8127 0 14.4256 0C14.0386 0 13.7219 0.316649 13.7219 0.703691V1.40738H5.27751V0.703691C5.27751 0.316649 4.96081 0 4.57377 0C4.18672 0 3.87007 0.316649 3.87007 0.703691V1.40738H2.87083C1.48102 1.40738 0.351562 2.53684 0.351562 3.92665V16.4807C0.351562 17.8705 1.48102 19 2.87083 19ZM1.759 3.92665C1.759 3.31444 2.25863 2.81482 2.87083 2.81482H3.87007V3.51851C3.87007 3.90555 4.18672 4.2222 4.57377 4.2222C4.96081 4.2222 5.27746 3.90555 5.27746 3.51851V2.81482H13.7219V3.51851C13.7219 3.90555 14.0386 4.2222 14.4256 4.2222C14.8127 4.2222 15.1293 3.90555 15.1293 3.51851V2.81482H16.1285C16.7407 2.81482 17.2404 3.31444 17.2404 3.92665V5.98149H1.759V3.92665ZM1.759 7.38887H17.2405V16.4807C17.2405 17.0929 16.7409 17.5926 16.1287 17.5926H2.87083C2.25863 17.5926 1.759 17.0929 1.759 16.4807V7.38887Z" fill="currentColor"/>	
	</symbol>

	<symbol viewBox="0 0 21 21" id="acc-format">
		<path d="M6.11451 10.7046C6.01469 10.3709 5.91457 9.95407 5.83085 9.62085H5.81415C5.73103 9.95411 5.64776 10.3793 5.5558 10.7046L5.22266 11.8965H6.46458L6.11451 10.7046Z" fill="currentColor"/>
		<path d="M18.6219 7.5116H18.1177V5.07854C18.1177 5.06325 18.1153 5.04807 18.1132 5.03259C18.1124 4.93598 18.0817 4.84109 18.0156 4.76601L13.9667 0.140724C13.9654 0.139542 13.9643 0.139123 13.9634 0.137941C13.9393 0.110986 13.9111 0.088453 13.8814 0.0691611C13.8726 0.0631371 13.8637 0.0582188 13.8545 0.0530718C13.8287 0.0391176 13.8014 0.0273365 13.7732 0.0189106C13.7656 0.0168899 13.7588 0.0137636 13.7511 0.0116666C13.7205 0.00453703 13.6888 0 13.6566 0H3.70592C3.25153 0 2.88239 0.369558 2.88239 0.823566V7.51141H2.37824C1.72823 7.51141 1.20117 8.03824 1.20117 8.68837V14.8092C1.20117 15.4591 1.72823 15.9864 2.37824 15.9864H2.88243V20.1764C2.88243 20.6304 3.25157 21 3.70595 21H17.2942C17.7481 21 18.1177 20.6304 18.1177 20.1764V15.9864H18.622C19.2718 15.9864 19.7989 15.4593 19.7989 14.8095V8.6886C19.7989 8.03847 19.2717 7.5116 18.6219 7.5116ZM3.70592 0.823718H13.2448V5.03705C13.2448 5.26455 13.4294 5.44882 13.6566 5.44882H17.2941V7.51176H3.70592V0.823718ZM13.9188 14.2895H12.552L12.1183 12.8471H10.5091L10.1091 14.2895H8.79143L10.5094 8.67068H12.1772L13.9188 14.2895ZM3.32179 14.2895L5.03904 8.67068H6.70649L8.44944 14.2895H7.08154L6.64835 12.8471H5.039L4.63921 14.2895H3.32179ZM17.2942 19.9535H3.70592V15.9864H17.2941V19.9535H17.2942ZM18.3967 9.83761C18.1382 9.72952 17.7801 9.62929 17.33 9.62929C16.3213 9.62929 15.537 10.2377 15.537 11.4882C15.537 12.6137 16.2042 13.3222 17.3384 13.3222C17.7214 13.3222 18.1467 13.2389 18.3968 13.1387L18.5884 14.1307C18.3554 14.2477 17.8298 14.3728 17.1464 14.3728C15.204 14.3728 14.203 13.164 14.203 11.5634C14.203 9.6458 15.5707 8.57849 17.2717 8.57849C17.93 8.57849 18.4306 8.7119 18.6558 8.82902L18.3967 9.83761Z" fill="currentColor"/>
		<path d="M11.5845 10.7046C11.4848 10.3709 11.3847 9.95407 11.301 9.62085H11.2841C11.2011 9.95411 11.1177 10.3793 11.0256 10.7046L10.6926 11.8965H11.9347L11.5845 10.7046Z" fill="currentColor"/>	
	</symbol>
		
	<symbol viewBox="0 0 21 21" id="mp3-format">
		<path d="M18.7976 7.5116H18.2825V5.07854C18.2825 5.06325 18.28 5.04809 18.278 5.03258C18.2771 4.93598 18.2457 4.84107 18.1781 4.766L14.0417 0.140756C14.0404 0.139568 14.0392 0.139147 14.0384 0.13796C14.0137 0.110996 13.985 0.0884749 13.9545 0.0691713C13.9456 0.0631581 13.9365 0.0582173 13.927 0.0531232C13.9008 0.0391434 13.8728 0.0273851 13.8441 0.0189206C13.8362 0.016929 13.8292 0.0137883 13.8215 0.0117201C13.7902 0.0045195 13.7578 0 13.7249 0H3.55894C3.09475 0 2.71762 0.369565 2.71762 0.823544V7.51137H2.20252C1.53846 7.51137 1 8.03823 1 8.68835V14.8092C1 15.459 1.53846 15.9864 2.20252 15.9864H2.71762V20.1765C2.71762 20.6305 3.09475 21 3.55894 21H17.4411C17.9049 21 18.2824 20.6305 18.2824 20.1765V15.9865H18.7976C19.4615 15.9865 20 15.4593 20 14.8094V8.68858C20 8.03846 19.4615 7.5116 18.7976 7.5116ZM3.55894 0.823736H13.3043V5.03706C13.3043 5.26456 13.4928 5.44883 13.7249 5.44883H17.4411V7.51175H3.55894V0.823736ZM14.5217 10.4893C14.5217 11.0373 14.3345 11.5031 13.9952 11.8185C13.5536 12.2263 12.8998 12.4089 12.1357 12.4089C11.9658 12.4089 11.813 12.4004 11.6943 12.3843V14.3866H10.4115V8.86036C10.811 8.79322 11.3714 8.74339 12.1609 8.74339C12.959 8.74339 13.5277 8.89341 13.9102 9.19304C14.2756 9.47513 14.5217 9.94037 14.5217 10.4893ZM3.10027 14.3866L3.46538 8.7856H5.18884L5.7494 10.6554C5.92803 11.3034 6.10599 12.0017 6.23343 12.6581H6.25934C6.42055 12.0099 6.61581 11.2709 6.80261 10.6474L7.414 8.7856H9.10369L9.41766 14.3866H8.15296L8.06793 12.243C8.04207 11.5697 8.01691 10.7546 8.01691 9.94037H7.99163C7.81305 10.6554 7.57541 11.4532 7.35437 12.1101L6.65857 14.2956H5.64806L5.03666 12.1258C4.85005 11.4695 4.65437 10.6717 4.51875 9.94037H4.50149C4.46772 10.6969 4.44225 11.5608 4.39991 12.2591L4.29774 14.3866H3.10027ZM17.4411 19.9535H3.55894V15.9865H17.4411V19.9535H17.4411ZM16.747 14.4781C16.0333 14.4781 15.4306 14.2956 15.1079 14.0963L15.3714 13.1483C15.6005 13.2649 16.1269 13.4805 16.6536 13.4805C17.3241 13.4805 17.6637 13.1648 17.6637 12.7579C17.6637 12.2262 17.1202 11.9846 16.5512 11.9846H16.0246V11.0787H16.5259C16.9588 11.071 17.5111 10.913 17.5111 10.4555C17.5111 10.1315 17.2392 9.89104 16.6958 9.89104C16.2458 9.89104 15.7703 10.082 15.5411 10.215L15.2781 9.30032C15.6092 9.09285 16.2711 8.8933 16.9848 8.8933C18.1648 8.8933 18.8188 9.5001 18.8188 10.24C18.8188 10.8129 18.4873 11.2621 17.8083 11.4947V11.5115C18.4709 11.628 19.006 12.1177 19.006 12.8244C19.0055 13.7801 18.1479 14.4781 16.747 14.4781Z" fill="currentColor"/>
		<path d="M12.493 9.69995C12.2052 9.69995 12.0098 9.7245 11.908 9.7494V11.4032C12.0287 11.4277 12.1778 11.4366 12.3819 11.4366C13.1347 11.4366 13.6 11.0956 13.6 10.5218C13.5997 10.0072 13.2 9.69995 12.493 9.69995Z" fill="currentColor"/>
	</symbol>

	<symbol viewBox="0 0 21 21" id="wav-format">
		<path d="M11.6123 10.777C11.5186 10.4656 11.4251 10.0767 11.3473 9.76514H11.3316C11.2538 10.0765 11.176 10.4734 11.0903 10.777L10.7783 11.8909H11.939L11.6123 10.777Z" fill="currentColor"/>
		<path d="M18.6219 7.5116H18.1177V5.07854C18.1177 5.06325 18.1153 5.04807 18.1132 5.03259C18.1124 4.93598 18.0817 4.84109 18.0156 4.76601L13.9667 0.140724C13.9654 0.139542 13.9643 0.139123 13.9634 0.137941C13.9393 0.110986 13.9111 0.088453 13.8814 0.0691611C13.8726 0.0631371 13.8637 0.0582188 13.8545 0.0530718C13.8287 0.0391176 13.8014 0.0273365 13.7732 0.0189106C13.7656 0.0168899 13.7588 0.0137636 13.7511 0.0116666C13.7206 0.00453703 13.6888 0 13.6566 0H3.70592C3.25153 0 2.88239 0.369558 2.88239 0.823566V7.51141H2.37824C1.72823 7.51141 1.20117 8.03824 1.20117 8.68837V14.8092C1.20117 15.4591 1.72823 15.9864 2.37824 15.9864H2.88243V20.1764C2.88243 20.6304 3.25157 21 3.70595 21H17.2942C17.7481 21 18.1177 20.6304 18.1177 20.1764V15.9864H18.622C19.2718 15.9864 19.7989 15.4593 19.7989 14.8095V8.6886C19.7989 8.03847 19.2717 7.5116 18.6219 7.5116ZM3.70592 0.823718H13.2448V5.03705C13.2448 5.26455 13.4294 5.44882 13.6566 5.44882H17.2941V7.51176H3.70592V0.823718ZM12.1644 8.87698L13.7922 14.1255H12.5148L12.1099 12.7784H10.6069L10.2332 14.1255H9.00303L10.6069 8.87698H12.1644ZM2.49274 8.87698H3.76192L4.15893 11.0419C4.27564 11.6645 4.38479 12.3421 4.47046 12.8721H4.48625C4.57192 12.3037 4.69625 11.6726 4.82885 11.0262L5.27237 8.87698H6.5342L6.95439 11.0887C7.07113 11.7037 7.15677 12.2645 7.23458 12.8488H7.25048C7.32811 12.2645 7.44481 11.6494 7.55397 11.0262L7.98251 8.87694H9.18943L7.8345 14.1254H6.54938L6.10551 11.8673C6.0044 11.3375 5.91873 10.847 5.85662 10.2471H5.84114C5.74747 10.8389 5.6618 11.3372 5.53705 11.8673L5.03919 14.1254H3.73871L2.49274 8.87698ZM17.2942 19.9535H3.70592V15.9864H17.2941V19.9535H17.2942ZM16.6584 14.1254H15.2723L13.5903 8.87717H14.8911L15.5293 11.0963C15.7086 11.7192 15.8718 12.3191 15.9967 12.9732H16.0198C16.1525 12.3425 16.3158 11.7192 16.4951 11.1197L17.1648 8.87721H18.4263L16.6584 14.1254Z" fill="currentColor"/>	
	</symbol>
	
</svg>