<svg width="260" height="260" viewBox="0 0 260 260" fill="none" xmlns="http://www.w3.org/2000/svg">
<path fill-rule="evenodd" clip-rule="evenodd" d="M200.577 168.67L213.578 175.79L243.942 192.418L243.913 192.471C232.891 212.575 216.811 229.286 197.426 241.053C191.537 244.628 185.342 247.746 178.892 250.365C178.596 250.485 178.3 250.604 178.003 250.722C150.455 261.67 120.008 262.857 91.7187 254.118C91.1548 253.944 90.5919 253.766 90.0298 253.584C61.2665 244.268 36.6555 225.207 20.4405 199.689C20.1325 199.204 19.8279 198.717 19.5266 198.229C17.1275 194.341 14.9444 190.343 12.9813 186.255L12.9791 186.256C7.08617 173.998 3.09541 160.792 1.27639 147.105L1.3095 147.096C-0.144147 136.122 -0.19878 124.933 1.20562 113.797C1.45842 111.792 1.75743 109.797 2.10193 107.814C6.91244 80.1241 20.5925 54.6801 41.1621 35.3691C51.4656 25.6961 63.1958 17.8454 75.8495 12.0343L75.8272 12.0407C87.9421 6.46652 100.943 2.73406 114.391 1.09719L114.176 1.15813C116.755 0.840779 119.348 0.6001 121.953 0.437464C152.129 -1.4463 182.016 7.25822 206.461 25.0501C212.352 29.3374 217.838 34.0877 222.876 39.2388C233.59 50.1917 242.282 62.9566 248.547 76.9358L248.55 76.9348C254.115 89.3319 257.76 102.635 259.217 116.379L69.1609 170.313C78.6228 184.551 90.5264 196.935 106.52 202.674C107.073 202.872 107.632 203.063 108.196 203.246C125.703 208.916 141.843 209.24 158.912 202.684C159.209 202.569 159.506 202.453 159.804 202.335C172.182 197.416 183.032 190.769 191.502 181.43C194.934 177.645 197.976 173.418 200.57 168.684L200.577 168.67ZM55.2713 131.783L200.161 90.6665C194.535 80.6494 186.787 71.8812 177.367 65.0248C162.229 54.0069 143.72 48.6164 125.034 49.783C106.347 50.9495 88.6527 58.5999 75.0024 71.415C61.3521 84.23 57.9263 95.9828 55.5837 114.559C55.3305 116.567 55.1538 118.578 55.0529 120.587C54.8648 124.332 54.9395 128.073 55.2713 131.783Z" fill="#F1F1F1"/>
</svg>
