<svg width="181" height="196" viewBox="0 0 181 196" fill="none" xmlns="http://www.w3.org/2000/svg">
<path d="M116.699 7.601C135.556 0.190173 156.726 9.55797 163.982 28.2057C171.393 47.0636 162.025 68.2334 143.378 75.4894C124.52 82.9002 103.35 73.5324 96.0939 54.8847C88.683 36.0268 97.8683 14.8293 116.699 7.601ZM109.61 49.4648C114.056 60.7796 126.671 66.2376 137.985 61.7911C149.3 57.3446 154.758 44.7301 150.312 33.4154C145.865 22.1007 133.251 16.6426 121.936 21.0891C110.804 25.5632 105.135 38.3326 109.61 49.4648Z" fill="#213A8F"/>
<path d="M28.2001 42.1711C47.058 34.7603 68.2278 44.1281 75.4838 62.7758C82.8946 81.6337 73.5268 102.804 54.8791 110.06C36.0212 117.47 14.8514 108.103 7.59539 89.4548C0.184564 70.5969 9.55235 49.4271 28.2001 42.1711ZM21.266 84.2451C25.7125 95.5598 38.327 101.018 49.6417 96.5714C60.9565 92.1249 66.4146 79.5104 61.9681 68.1957C57.5216 56.881 44.907 51.4229 33.5923 55.8694C22.3052 60.1334 16.8195 72.9304 21.266 84.2451Z" fill="#213A8F"/>
<path d="M122.783 38.8359C128.335 36.6901 134.839 39.3555 136.957 45.0903C139.103 50.6426 136.437 57.1462 130.702 59.2643C125.15 61.4102 118.647 58.7447 116.528 53.0099C114.2 47.43 117.048 40.9541 122.783 38.8359Z" fill="black"/>
<path d="M34.2838 73.4055C39.8361 71.2597 46.3397 73.9251 48.4579 79.6599C50.6037 85.2122 47.9383 91.7158 42.2035 93.834C36.6512 95.9798 30.1476 93.3143 28.0294 87.5796C25.8836 82.0273 28.7316 75.5513 34.2838 73.4055Z" fill="black"/>
<rect x="62.1705" y="125.708" width="95.3313" height="57.8284" rx="28.9142" transform="rotate(-25.299 62.1705 125.708)" stroke="#E40521" stroke-width="11"/>
<g filter="url(#filter0_d_279_2376)">
<circle cx="125.289" cy="150.026" r="26.3484" fill="white"/>
<circle cx="125.289" cy="150.026" r="22.3484" stroke="#E40521" stroke-width="8"/>
</g>
<rect x="106.469" y="120.449" width="21.5089" height="19.358" fill="white"/>
<circle cx="117.761" cy="130.666" r="13.8203" stroke="#E40521" stroke-width="10"/>
<defs>
<filter id="filter0_d_279_2376" x="83.9409" y="112.678" width="82.6968" height="82.6973" filterUnits="userSpaceOnUse" color-interpolation-filters="sRGB">
<feFlood flood-opacity="0" result="BackgroundImageFix"/>
<feColorMatrix in="SourceAlpha" type="matrix" values="0 0 0 0 0 0 0 0 0 0 0 0 0 0 0 0 0 0 127 0" result="hardAlpha"/>
<feOffset dy="4"/>
<feGaussianBlur stdDeviation="7.5"/>
<feComposite in2="hardAlpha" operator="out"/>
<feColorMatrix type="matrix" values="0 0 0 0 0 0 0 0 0 0 0 0 0 0 0 0 0 0 0.1 0"/>
<feBlend mode="normal" in2="BackgroundImageFix" result="effect1_dropShadow_279_2376"/>
<feBlend mode="normal" in="SourceGraphic" in2="effect1_dropShadow_279_2376" result="shape"/>
</filter>
</defs>
</svg>
