<svg width="228" height="273" viewBox="0 0 228 273" fill="none" xmlns="http://www.w3.org/2000/svg">
<path fill-rule="evenodd" clip-rule="evenodd" d="M117.093 123.717C116.391 121.481 116.069 119.157 116.127 116.839C116.183 114.619 116.587 112.404 117.341 110.279C118.113 108.104 119.228 106.087 120.63 104.297L120.627 104.3C121.968 102.584 123.577 101.069 125.406 99.8246L125.38 99.8495C125.73 99.6107 126.088 99.3818 126.454 99.1634C128.757 97.788 131.282 96.8726 133.89 96.4443C133.985 96.4287 134.081 96.4137 134.176 96.3994C134.81 96.3041 135.449 96.2375 136.091 96.2001C137.575 96.1134 139.074 96.1825 140.562 96.4123C143.119 96.807 145.562 97.6629 147.78 98.9196C147.862 98.9658 147.943 99.0126 148.024 99.0598C148.906 99.5753 149.752 100.155 150.553 100.794L150.554 100.794C152.289 102.177 153.813 103.835 155.053 105.721L131.503 127.771C132.772 128.478 134.099 129.062 135.468 129.409C136.73 129.729 138.027 129.847 139.347 129.672C139.442 129.66 139.538 129.646 139.633 129.63C141.185 129.375 142.572 128.936 143.827 128.256C144.971 127.636 146.005 126.816 146.952 125.753C146.987 125.715 147.021 125.675 147.056 125.636C148.118 124.416 148.987 123.12 149.58 121.718C150.108 120.47 150.419 119.138 150.455 117.699L155.288 117.82L158.526 117.901L158.526 117.907C158.499 118.984 158.39 120.051 158.202 121.101C157.997 122.246 157.699 123.37 157.312 124.461C156.445 126.904 155.132 129.184 153.42 131.179C153.386 131.219 153.352 131.258 153.318 131.298C152.329 132.433 151.228 133.453 150.038 134.344C149.446 134.787 148.833 135.198 148.199 135.577C146.011 136.883 143.591 137.794 141.048 138.247C140.953 138.264 140.858 138.28 140.763 138.296C138.538 138.661 136.287 138.667 134.091 138.328C131.479 137.924 128.946 137.033 126.629 135.68C126.548 135.633 126.468 135.585 126.388 135.537C125.748 135.152 125.132 134.735 124.542 134.289L124.541 134.289C122.769 132.951 121.201 131.332 119.913 129.482L119.917 129.478C118.885 127.994 118.04 126.374 117.41 124.653C117.297 124.343 117.191 124.031 117.093 123.717ZM126.604 123.218L144.557 106.408C144.359 106.277 144.157 106.151 143.951 106.031C143.87 105.984 143.789 105.937 143.707 105.892C142.358 105.142 140.878 104.631 139.33 104.392C138.047 104.194 136.752 104.188 135.485 104.368C135.389 104.381 135.294 104.396 135.199 104.411C133.583 104.677 132.02 105.244 130.594 106.095C129.44 106.784 128.409 107.64 127.527 108.628C127.493 108.667 127.458 108.706 127.424 108.745C126.349 109.98 125.506 111.413 124.95 112.979C124.41 114.501 124.262 115.767 124.398 117.046C124.518 118.188 124.865 119.34 125.36 120.694C125.474 121.005 125.599 121.31 125.734 121.609C125.987 122.167 126.278 122.704 126.604 123.218Z" fill="#E8E8E8"/>
<path fill-rule="evenodd" clip-rule="evenodd" d="M34.7354 254.118C34.0339 251.881 33.7119 249.557 33.7699 247.24C33.8255 245.019 34.23 242.804 34.9839 240.679C35.7557 238.504 36.8708 236.487 38.2726 234.697L38.2708 234.699C39.6117 232.984 41.2188 231.47 43.0473 230.226L43.0218 230.25C43.3723 230.011 43.7307 229.782 44.0967 229.564C46.3999 228.188 48.9246 227.273 51.5329 226.845C51.6281 226.829 51.7233 226.814 51.8187 226.8C52.4529 226.704 53.0917 226.638 53.7331 226.6C55.2175 226.514 56.7161 226.583 58.2045 226.813C60.7617 227.207 63.2048 228.063 65.4228 229.32C65.5044 229.366 65.5856 229.413 65.6665 229.46C66.5487 229.976 67.3941 230.555 68.1956 231.195L68.196 231.194C69.9314 232.577 71.456 234.236 72.696 236.122L49.1458 258.171C50.4147 258.878 51.7419 259.463 53.1108 259.81C54.3727 260.129 55.67 260.247 56.9895 260.073C57.0848 260.06 57.1802 260.046 57.2757 260.03C58.8272 259.776 60.2149 259.336 61.47 258.656C62.6138 258.036 63.6475 257.216 64.5948 256.154C64.6294 256.115 64.6639 256.076 64.6983 256.036C65.7609 254.816 66.6294 253.521 67.2229 252.118C67.7509 250.87 68.0613 249.538 68.0973 248.099L72.9308 248.22L76.1686 248.301L76.1684 248.307C76.1412 249.384 76.0321 250.452 75.8445 251.501C75.6399 252.646 75.3418 253.77 74.9546 254.861C74.0879 257.304 72.7746 259.585 71.0628 261.58C71.0289 261.619 70.9947 261.659 70.9605 261.698C69.9714 262.834 68.8708 263.853 67.6806 264.744C67.089 265.187 66.4752 265.599 65.8418 265.977C63.6541 267.283 61.2337 268.194 58.6907 268.647C58.5958 268.664 58.5008 268.68 58.4056 268.696C56.1807 269.061 53.9295 269.067 51.734 268.728C49.1217 268.325 46.5883 267.434 44.272 266.081C44.191 266.033 44.1104 265.985 44.0301 265.937C43.391 265.552 42.7752 265.136 42.1844 264.689L42.184 264.689C40.4113 263.351 38.8438 261.733 37.5556 259.882L37.5597 259.878C36.5276 258.394 35.6824 256.774 35.0529 255.053C34.9396 254.743 34.8338 254.431 34.7354 254.118ZM44.2463 253.618L62.2 236.808C62.0013 236.677 61.7991 236.552 61.5937 236.432C61.5128 236.384 61.4313 236.338 61.3494 236.292C60.0008 235.543 58.5205 235.031 56.9727 234.792C55.6896 234.594 54.3941 234.589 53.1272 234.768C53.0317 234.782 52.9364 234.796 52.8413 234.812C51.226 235.077 49.6625 235.644 48.2362 236.496C47.0829 237.184 46.0511 238.04 45.1699 239.028C45.1352 239.067 45.1007 239.106 45.0664 239.146C43.9914 240.38 43.1485 241.814 42.593 243.379C42.0528 244.902 41.9047 246.168 42.0401 247.447C42.161 248.588 42.5076 249.74 43.0028 251.095C43.1163 251.405 43.2411 251.71 43.3769 252.009C43.6298 252.567 43.9206 253.104 44.2463 253.618Z" fill="#E8E8E8"/>
<path fill-rule="evenodd" clip-rule="evenodd" d="M133.87 183.961C133.168 181.725 132.846 179.401 132.904 177.083C132.96 174.863 133.364 172.648 134.118 170.523C134.89 168.348 136.006 166.33 137.408 164.539L137.405 164.542C138.745 162.828 140.353 161.314 142.181 160.07L142.154 160.095C142.505 159.856 142.864 159.626 143.231 159.408C145.534 158.032 148.059 157.117 150.667 156.688C150.762 156.673 150.858 156.658 150.953 156.644C151.587 156.548 152.226 156.482 152.867 156.444C154.352 156.358 155.85 156.427 157.339 156.656C159.896 157.051 162.339 157.907 164.557 159.164C164.639 159.21 164.72 159.257 164.801 159.304C165.683 159.819 166.528 160.399 167.33 161.038L167.33 161.038C169.065 162.421 170.59 164.079 171.83 165.965L148.28 188.015C149.549 188.722 150.876 189.306 152.245 189.653C153.507 189.973 154.804 190.091 156.124 189.916C156.219 189.904 156.314 189.89 156.41 189.874C157.961 189.619 159.349 189.18 160.604 188.5C161.748 187.88 162.782 187.06 163.729 185.998C163.764 185.959 163.798 185.92 163.833 185.88C164.895 184.66 165.764 183.364 166.357 181.962C166.885 180.714 167.196 179.382 167.232 177.943L172.065 178.064L175.303 178.145L175.303 178.151C175.275 179.228 175.166 180.296 174.979 181.345C174.774 182.49 174.476 183.614 174.089 184.705C173.222 187.148 171.909 189.428 170.197 191.423C170.163 191.463 170.129 191.502 170.095 191.542C169.106 192.677 168.005 193.697 166.815 194.588C166.223 195.031 165.609 195.443 164.976 195.821C162.788 197.127 160.368 198.038 157.825 198.491C157.73 198.508 157.635 198.524 157.54 198.54C155.315 198.905 153.064 198.911 150.868 198.572C148.256 198.169 145.723 197.278 143.406 195.924C143.325 195.877 143.245 195.829 143.164 195.781C142.525 195.396 141.909 194.979 141.318 194.533L141.318 194.533C139.545 193.195 137.978 191.577 136.689 189.726L136.694 189.722C135.662 188.238 134.817 186.618 134.187 184.897C134.074 184.587 133.968 184.275 133.87 183.961ZM143.38 183.461L161.334 166.652C161.135 166.521 160.933 166.395 160.728 166.275C160.647 166.228 160.566 166.182 160.484 166.136C159.135 165.386 157.655 164.875 156.107 164.636C154.824 164.438 153.528 164.432 152.261 164.612C152.166 164.625 152.071 164.64 151.976 164.656C150.36 164.921 148.797 165.488 147.371 166.339C146.217 167.028 145.185 167.884 144.304 168.872C144.269 168.911 144.235 168.95 144.201 168.989C143.126 170.224 142.283 171.657 141.727 173.223C141.187 174.746 141.039 176.011 141.174 177.291C141.295 178.432 141.642 179.584 142.137 180.938C142.251 181.249 142.375 181.554 142.511 181.853C142.764 182.411 143.055 182.948 143.38 183.461Z" fill="#E8E8E8"/>
<path fill-rule="evenodd" clip-rule="evenodd" d="M4.99517 131.344C4.29366 129.108 3.97168 126.784 4.02967 124.466C4.08525 122.245 4.48979 120.031 5.24371 117.906C6.01542 115.731 7.13057 113.714 8.53241 111.923L8.53061 111.925C9.87147 110.21 11.4786 108.696 13.3071 107.453L13.2816 107.477C13.632 107.238 13.9905 107.009 14.3564 106.79C16.6596 105.415 19.1844 104.5 21.7927 104.071C21.8878 104.056 21.9831 104.041 22.0785 104.026C22.7126 103.931 23.3514 103.864 23.9929 103.827C25.4773 103.74 26.9759 103.809 28.4643 104.039C31.0215 104.434 33.4645 105.29 35.6826 106.547C35.7641 106.593 35.8454 106.64 35.9263 106.687C36.8085 107.202 37.6539 107.782 38.4554 108.421L38.4557 108.421C40.1912 109.804 41.7158 111.462 42.9558 113.348L19.4056 135.398C20.6745 136.105 22.0017 136.689 23.3705 137.036C24.6325 137.356 25.9298 137.474 27.2492 137.299C27.3445 137.287 27.4399 137.273 27.5354 137.257C29.087 137.002 30.4746 136.563 31.7297 135.883C32.8735 135.263 33.9072 134.443 34.8546 133.38C34.8892 133.342 34.9237 133.302 34.958 133.263C36.0207 132.043 36.8891 130.747 37.4826 129.345C38.0106 128.097 38.321 126.765 38.3571 125.326L43.1905 125.447L46.4284 125.528L46.4282 125.534C46.4009 126.611 46.2919 127.678 46.1043 128.728C45.8996 129.873 45.6015 130.997 45.2143 132.088C44.3477 134.531 43.0344 136.811 41.3226 138.806C41.2886 138.846 41.2545 138.885 41.2202 138.924C40.2311 140.06 39.1306 141.08 37.9404 141.971C37.3487 142.414 36.7349 142.825 36.1016 143.204C33.9138 144.51 31.4935 145.421 28.9505 145.874C28.8556 145.891 28.7606 145.907 28.6653 145.923C26.4405 146.288 24.1893 146.294 21.9938 145.955C19.3815 145.551 16.848 144.66 14.5317 143.307C14.4508 143.26 14.3701 143.212 14.2899 143.164C13.6508 142.779 13.0349 142.362 12.4442 141.916L12.4438 141.916C10.6711 140.578 9.10358 138.959 7.81534 137.109L7.81949 137.105C6.78738 135.621 5.9422 134.001 5.31271 132.279C5.1994 131.97 5.09355 131.658 4.99517 131.344ZM14.5061 130.844L32.4597 114.035C32.261 113.904 32.0589 113.778 31.8535 113.658C31.7725 113.611 31.6911 113.564 31.6092 113.519C30.2605 112.769 28.7803 112.257 27.2325 112.019C25.9493 111.82 24.6539 111.815 23.387 111.995C23.2915 112.008 23.1962 112.023 23.101 112.038C21.4858 112.304 19.9223 112.87 18.496 113.722C17.3427 114.411 16.3109 115.267 15.4297 116.255C15.395 116.294 15.3605 116.333 15.3262 116.372C14.2512 117.606 13.4083 119.04 12.8528 120.606C12.3126 122.128 12.1645 123.394 12.2999 124.673C12.4208 125.815 12.7674 126.967 13.2626 128.321C13.3761 128.631 13.5009 128.937 13.6366 129.236C13.8896 129.793 14.1803 130.331 14.5061 130.844Z" fill="#E8E8E8"/>
<path fill-rule="evenodd" clip-rule="evenodd" d="M104.129 61.1878C103.428 58.9517 103.106 56.6275 103.164 54.3101C103.22 52.0892 103.624 49.8746 104.378 47.7498C105.15 45.5741 106.266 43.5562 107.668 41.7655L107.664 41.7689C109.005 40.0541 110.612 38.5402 112.441 37.2967L112.414 37.3219C112.765 37.0824 113.124 36.853 113.491 36.6341C115.794 35.2587 118.319 34.3433 120.927 33.915C121.022 33.8994 121.117 33.8844 121.213 33.8701C121.847 33.7748 122.486 33.7082 123.127 33.6708C124.612 33.5841 126.11 33.6532 127.599 33.883C130.156 34.2777 132.599 35.1336 134.817 36.3903C134.898 36.4365 134.98 36.4833 135.061 36.5306C135.943 37.0459 136.788 37.6252 137.589 38.2647L137.59 38.2645C139.325 39.6476 140.85 41.3059 142.09 43.192L118.54 65.2414C119.809 65.9483 121.136 66.5329 122.505 66.8798C123.767 67.1997 125.064 67.3175 126.384 67.143C126.479 67.1304 126.574 67.1163 126.67 67.1006C128.221 66.8458 129.609 66.4066 130.864 65.7265C132.008 65.1066 133.042 64.2868 133.989 63.2241C134.023 63.1853 134.058 63.1461 134.092 63.1066C135.155 61.8865 136.023 60.5909 136.617 59.1884C137.145 57.9407 137.455 56.6084 137.491 55.1693L142.325 55.2903L145.563 55.3714L145.562 55.3776C145.535 56.4546 145.426 57.5221 145.239 58.5717C145.034 59.7167 144.736 60.8403 144.349 61.9317C143.482 64.3743 142.169 66.6548 140.457 68.6498C140.423 68.6894 140.389 68.7289 140.355 68.7682C139.365 69.9039 138.265 70.9234 137.075 71.8147C136.483 72.2578 135.869 72.6691 135.236 73.0473C133.048 74.3538 130.628 75.2643 128.085 75.7176C127.99 75.7345 127.895 75.7508 127.8 75.7664C125.575 76.1318 123.324 76.1374 121.128 75.7985C118.516 75.3952 115.982 74.5041 113.666 73.1509C113.585 73.1036 113.504 73.0558 113.424 73.0074C112.785 72.6226 112.169 72.2057 111.578 71.7592L111.578 71.7598C109.805 70.4214 108.237 68.8032 106.949 66.9526L106.954 66.9484C105.922 65.4645 105.076 63.8446 104.447 62.1232C104.334 61.8133 104.228 61.5014 104.129 61.1878ZM113.64 60.6879L131.594 43.8783C131.395 43.7473 131.193 43.6218 130.988 43.5018C130.907 43.4546 130.825 43.4081 130.743 43.3626C129.395 42.613 127.915 42.1012 126.367 41.8623C125.084 41.6642 123.788 41.6589 122.521 41.8384C122.426 41.8519 122.33 41.8665 122.235 41.8821C120.62 42.1474 119.057 42.7142 117.63 43.566C116.477 44.2547 115.445 45.1107 114.564 46.0985C114.529 46.1374 114.495 46.1765 114.46 46.2159C113.385 47.4502 112.543 48.8839 111.987 50.4495C111.447 51.9721 111.299 53.238 111.434 54.5171C111.555 55.6586 111.902 56.8106 112.397 58.1648C112.51 58.4752 112.635 58.7803 112.771 59.0795C113.024 59.6371 113.315 60.1744 113.64 60.6879Z" fill="#E8E8E8"/>
<path fill-rule="evenodd" clip-rule="evenodd" d="M107.404 144.705C108.105 146.941 108.427 149.265 108.369 151.583C108.314 153.803 107.909 156.018 107.155 158.143C106.384 160.318 105.269 162.335 103.867 164.125L103.87 164.122C102.528 165.838 100.92 167.353 99.0902 168.597L99.1168 168.572C98.7665 168.811 98.4083 169.04 98.0425 169.258C95.7393 170.634 93.2145 171.549 90.6062 171.978C90.5111 171.993 90.4158 172.008 90.3205 172.023C89.6863 172.118 89.0475 172.184 88.406 172.222C86.9216 172.309 85.423 172.239 83.9346 172.01C81.3774 171.615 78.9344 170.759 76.7164 169.502C76.6348 169.456 76.5536 169.409 76.4726 169.362C75.5904 168.847 74.745 168.267 73.9434 167.628L73.943 167.628C72.2077 166.245 70.6831 164.587 69.4432 162.701L92.9935 140.651C91.7246 139.944 90.3973 139.36 89.0284 139.013C87.7664 138.693 86.4691 138.575 85.1497 138.75C85.0544 138.762 84.959 138.776 84.8635 138.792C83.312 139.047 81.9243 139.486 80.6692 140.166C79.5254 140.786 78.4917 141.606 77.5444 142.669C77.5097 142.707 77.4753 142.746 77.4409 142.786C76.3782 144.006 75.5098 145.302 74.9163 146.704C74.3883 147.952 74.0779 149.284 74.0419 150.723L69.2084 150.602L65.9706 150.521L65.9707 150.515C65.998 149.438 66.1071 148.37 66.2947 147.321C66.4993 146.176 66.7974 145.052 67.1846 143.961C68.0513 141.518 69.3645 139.238 71.0763 137.243C71.1103 137.203 71.1444 137.164 71.1787 137.124C72.1678 135.989 73.2683 134.969 74.4585 134.078C75.0502 133.635 75.664 133.223 76.2973 132.845C78.4851 131.539 80.9055 130.628 83.4485 130.175C83.5433 130.158 83.6384 130.142 83.7336 130.126C85.9584 129.761 88.2096 129.755 90.4052 130.094C93.0174 130.497 95.5509 131.388 97.8672 132.742C97.9482 132.789 98.0288 132.837 98.109 132.885C98.7482 133.27 99.3641 133.687 99.9549 134.133L99.9552 134.133C101.728 135.471 103.295 137.089 104.583 138.94L104.579 138.944C105.612 140.428 106.457 142.048 107.086 143.769C107.2 144.079 107.305 144.391 107.404 144.705ZM97.8928 145.204L79.9391 162.014C80.1378 162.145 80.34 162.271 80.5454 162.391C80.6264 162.438 80.7078 162.484 80.7897 162.53C82.1384 163.28 83.6186 163.791 85.1664 164.03C86.4496 164.228 87.745 164.234 89.012 164.054C89.1074 164.041 89.2028 164.026 89.2979 164.01C90.9131 163.745 92.4766 163.178 93.9029 162.327C95.0562 161.638 96.0881 160.782 96.9692 159.794C97.004 159.755 97.0385 159.716 97.0727 159.677C98.1478 158.442 98.9906 157.009 99.5461 155.443C100.086 153.92 100.234 152.655 100.099 151.375C99.9782 150.234 99.6315 149.082 99.1363 147.728C99.0228 147.417 98.898 147.112 98.7623 146.813C98.5093 146.255 98.2186 145.718 97.8928 145.204Z" fill="#E8E8E8"/>
<path fill-rule="evenodd" clip-rule="evenodd" d="M204.25 76.8376C204.951 79.0737 205.273 81.3979 205.215 83.7153C205.16 85.9362 204.755 88.1507 204.001 90.2756C203.23 92.4504 202.115 94.4675 200.713 96.2577L200.716 96.2551C199.374 97.9711 197.766 99.486 195.936 100.73L195.963 100.705C195.613 100.944 195.254 101.173 194.889 101.391C192.585 102.767 190.061 103.682 187.452 104.11C187.357 104.126 187.262 104.141 187.167 104.155C186.532 104.251 185.894 104.317 185.252 104.355C183.768 104.441 182.269 104.372 180.781 104.142C178.224 103.748 175.781 102.892 173.563 101.635C173.481 101.589 173.4 101.542 173.319 101.495C172.437 100.979 171.591 100.4 170.79 99.7605L170.789 99.7609C169.054 98.3778 167.529 96.7196 166.289 94.8337L189.84 72.7839C188.571 72.077 187.243 71.4925 185.875 71.1456C184.613 70.8257 183.315 70.7079 181.996 70.8824C181.901 70.895 181.805 70.9091 181.71 70.9248C180.158 71.1796 178.77 71.6188 177.515 72.2989C176.372 72.9187 175.338 73.7386 174.391 74.8013C174.356 74.8401 174.321 74.8793 174.287 74.9187C173.224 76.1389 172.356 77.4345 171.762 78.837C171.234 80.0847 170.924 81.417 170.888 82.8561L166.055 82.7351L162.817 82.654L162.817 82.6478C162.844 81.5708 162.953 80.5033 163.141 79.4537C163.345 78.3087 163.644 77.1851 164.031 76.0937C164.897 73.6511 166.211 71.3705 167.923 69.3756C167.956 69.336 167.991 69.2965 168.025 69.2572C169.014 68.1215 170.115 67.102 171.305 66.2107C171.896 65.7676 172.51 65.3563 173.144 64.9781C175.331 63.6716 177.752 62.7611 180.295 62.3078C180.39 62.2909 180.485 62.2746 180.58 62.259C182.805 61.8936 185.056 61.888 187.251 62.2269C189.864 62.6302 192.397 63.5213 194.713 64.8745C194.794 64.9218 194.875 64.9696 194.955 65.018C195.594 65.4028 196.21 65.8196 196.801 66.2661L196.801 66.2658C198.574 67.6041 200.141 69.2223 201.43 71.0728L201.426 71.0766C202.458 72.5606 203.303 74.1806 203.932 75.9022C204.046 76.2121 204.152 76.5239 204.25 76.8376ZM194.739 77.3371L176.785 94.1468C176.984 94.2779 177.186 94.4035 177.392 94.5235C177.473 94.5708 177.554 94.6173 177.636 94.6628C178.985 95.4124 180.465 95.9242 182.013 96.1631C183.296 96.3612 184.591 96.3665 185.858 96.187C185.954 96.1735 186.049 96.1589 186.144 96.1433C187.759 95.878 189.323 95.3112 190.749 94.4594C191.902 93.7707 192.934 92.9147 193.815 91.9269C193.85 91.888 193.885 91.8488 193.919 91.8095C194.994 90.5752 195.837 89.1415 196.392 87.5758C196.933 86.0533 197.081 84.7873 196.945 83.5083C196.824 82.3668 196.478 81.2148 195.983 79.8606C195.869 79.5502 195.744 79.2451 195.608 78.9459C195.356 78.3881 195.065 77.8507 194.739 77.3371Z" fill="#E8E8E8"/>
<path fill-rule="evenodd" clip-rule="evenodd" d="M124.18 204.949C124.882 207.185 125.204 209.509 125.146 211.827C125.09 214.047 124.685 216.262 123.932 218.387C123.16 220.562 122.045 222.579 120.643 224.369L120.646 224.366C119.305 226.082 117.696 227.597 115.867 228.841L115.893 228.816C115.543 229.055 115.185 229.284 114.819 229.503C112.516 230.878 109.991 231.793 107.383 232.222C107.287 232.237 107.192 232.252 107.097 232.267C106.463 232.362 105.824 232.428 105.182 232.466C103.698 232.553 102.199 232.484 100.711 232.254C98.1538 231.859 95.7108 231.003 93.4927 229.746C93.4112 229.7 93.3299 229.653 93.249 229.606C92.3668 229.091 91.5213 228.511 90.7198 227.872L90.7194 227.872C88.984 226.489 87.4595 224.831 86.2196 222.945L109.77 200.895C108.501 200.188 107.174 199.604 105.805 199.257C104.543 198.937 103.245 198.819 101.926 198.994C101.831 199.006 101.735 199.02 101.64 199.036C100.088 199.291 98.7007 199.73 97.4455 200.41C96.3018 201.03 95.2681 201.85 94.3207 202.913C94.2861 202.951 94.2516 202.991 94.2173 203.03C93.1546 204.25 92.2862 205.546 91.6927 206.948C91.1647 208.196 90.8542 209.528 90.8182 210.967L85.9848 210.846L82.7469 210.765L82.7471 210.759C82.7744 209.682 82.8834 208.615 83.071 207.565C83.2757 206.42 83.5737 205.296 83.961 204.205C84.8276 201.762 86.1409 199.482 87.8527 197.487C87.8867 197.447 87.9208 197.408 87.9551 197.369C88.9442 196.233 90.0447 195.213 91.2349 194.322C91.8265 193.879 92.4404 193.468 93.0737 193.089C95.2614 191.783 97.6818 190.872 100.225 190.419C100.32 190.402 100.415 190.386 100.51 190.37C102.735 190.005 104.986 189.999 107.182 190.338C109.794 190.742 112.327 191.633 114.644 192.986C114.725 193.033 114.805 193.081 114.885 193.129C115.525 193.514 116.14 193.931 116.731 194.377L116.732 194.377C118.504 195.715 120.072 197.334 121.36 199.184L121.356 199.188C122.388 200.672 123.233 202.292 123.863 204.014C123.976 204.323 124.082 204.635 124.18 204.949ZM114.669 205.448L96.7155 222.258C96.9142 222.389 97.1164 222.515 97.3218 222.635C97.4027 222.682 97.4842 222.729 97.5661 222.774C98.9147 223.524 100.395 224.035 101.943 224.274C103.226 224.473 104.521 224.478 105.788 224.298C105.884 224.285 105.979 224.27 106.074 224.255C107.69 223.989 109.253 223.423 110.679 222.571C111.833 221.882 112.864 221.026 113.746 220.038C113.78 219.999 113.815 219.96 113.849 219.921C114.924 218.686 115.767 217.253 116.323 215.687C116.863 214.165 117.011 212.899 116.875 211.62C116.755 210.478 116.408 209.326 115.913 207.972C115.799 207.661 115.674 207.356 115.539 207.057C115.286 206.499 114.995 205.962 114.669 205.448Z" fill="#E8E8E8"/>
<path fill-rule="evenodd" clip-rule="evenodd" d="M222.552 134.793C223.253 137.029 223.575 139.353 223.517 141.67C223.462 143.891 223.057 146.106 222.303 148.231C221.531 150.407 220.415 152.426 219.012 154.217L219.016 154.213C217.675 155.927 216.068 157.441 214.24 158.685L214.269 158.657C213.917 158.897 213.558 159.127 213.19 159.346C210.887 160.722 208.362 161.637 205.754 162.065C205.659 162.081 205.564 162.096 205.468 162.11C204.834 162.206 204.195 162.272 203.554 162.31C202.07 162.396 200.571 162.327 199.083 162.097C196.525 161.703 194.082 160.847 191.864 159.59C191.783 159.544 191.702 159.497 191.621 159.45C190.739 158.935 189.893 158.355 189.092 157.716L189.091 157.717C187.356 156.334 185.831 154.676 184.591 152.789L208.142 130.739C206.873 130.032 205.545 129.448 204.176 129.101C202.914 128.781 201.617 128.663 200.298 128.837C200.202 128.85 200.107 128.864 200.011 128.88C198.46 129.135 197.072 129.574 195.817 130.254C194.673 130.874 193.64 131.694 192.692 132.756C192.658 132.795 192.623 132.834 192.589 132.874C191.526 134.094 190.658 135.39 190.064 136.792C189.536 138.04 189.226 139.372 189.19 140.811L184.356 140.69L181.118 140.609L181.119 140.603C181.146 139.526 181.255 138.458 181.443 137.409C181.647 136.264 181.945 135.14 182.333 134.049C183.199 131.606 184.512 129.326 186.224 127.331C186.258 127.291 186.292 127.252 186.327 127.212C187.316 126.077 188.416 125.057 189.606 124.166C190.198 123.723 190.812 123.311 191.445 122.933C193.633 121.627 196.053 120.716 198.596 120.263C198.691 120.246 198.786 120.23 198.882 120.214C201.106 119.849 203.358 119.843 205.553 120.182C208.165 120.585 210.699 121.476 213.015 122.83C213.096 122.877 213.177 122.925 213.257 122.973C214.051 123.451 214.809 123.978 215.527 124.55C217.126 125.822 218.547 127.327 219.732 129.029L219.728 129.032C220.76 130.516 221.605 132.136 222.234 133.857C222.347 134.167 222.453 134.479 222.552 134.793ZM213.041 135.293L195.088 152.102C195.286 152.233 195.488 152.359 195.693 152.479C195.774 152.526 195.856 152.572 195.938 152.618C197.286 153.368 198.767 153.879 200.314 154.118C201.598 154.316 202.893 154.322 204.16 154.142C204.255 154.129 204.351 154.114 204.446 154.098C206.061 153.833 207.625 153.266 209.051 152.414C210.204 151.726 211.236 150.87 212.117 149.882C212.152 149.843 212.186 149.804 212.221 149.765C213.296 148.53 214.139 147.097 214.694 145.531C215.234 144.008 215.382 142.742 215.247 141.463C215.126 140.322 214.779 139.17 214.284 137.816C214.171 137.505 214.046 137.2 213.91 136.901C213.657 136.343 213.367 135.806 213.041 135.293Z" fill="#E8E8E8"/>
<path fill-rule="evenodd" clip-rule="evenodd" d="M94.4399 82.1754C95.1414 84.4116 95.4634 86.7358 95.4054 89.0532C95.3498 91.2741 94.9453 93.4886 94.1913 95.6135C93.4156 97.7998 92.2929 99.8267 90.8808 101.624C89.5452 103.326 87.947 104.829 86.1301 106.064L86.1529 106.043C85.8026 106.282 85.4444 106.511 85.0786 106.729C82.7754 108.105 80.2507 109.02 77.6424 109.448C77.5472 109.464 77.452 109.479 77.3566 109.493C76.7224 109.588 76.0836 109.655 75.4422 109.693C73.9578 109.779 72.4592 109.71 70.9708 109.48C68.4136 109.086 65.9705 108.23 63.7525 106.973C63.6709 106.927 63.5897 106.88 63.5088 106.833C62.5483 106.272 61.6314 105.635 60.7674 104.927C59.1198 103.579 57.6689 101.98 56.4797 100.171L80.0297 78.1218C78.7607 77.4149 77.4334 76.8304 76.0645 76.4834C74.8026 76.1636 73.5053 76.0458 72.1858 76.2203C72.0905 76.2329 71.9951 76.247 71.8996 76.2627C70.3481 76.5175 68.9604 76.9567 67.7053 77.6368C66.5615 78.2566 65.5278 79.0765 64.5805 80.1392C64.5459 80.178 64.5114 80.2172 64.477 80.2566C63.4143 81.4768 62.5459 82.7724 61.9524 84.1749C61.4244 85.4226 61.114 86.7549 61.078 88.1939L56.2445 88.073L53.0067 87.9919L53.0068 87.9856C53.0341 86.9087 53.1432 85.8412 53.3308 84.7916C53.5354 83.6466 53.8335 82.523 54.2207 81.4316C55.0874 78.989 56.4007 76.7084 58.1125 74.7135C58.1464 74.6739 58.1806 74.6344 58.2148 74.5951C59.2039 73.4594 60.3044 72.4399 61.4947 71.5486C62.0863 71.1055 62.7001 70.6942 63.3334 70.316C65.5212 69.0095 67.9416 68.0989 70.4846 67.6457C70.5795 67.6288 70.6745 67.6125 70.7697 67.5969C72.9946 67.2315 75.2458 67.2259 77.4413 67.5648C80.0536 67.9681 82.587 68.8592 84.9033 70.2124C84.9843 70.2597 85.0649 70.3075 85.1452 70.3559C85.7843 70.7407 86.4003 71.1575 86.9911 71.604L86.9919 71.6032C88.7645 72.9415 90.3319 74.5597 91.62 76.4103L91.6155 76.4145C92.6476 77.8985 93.4928 79.5185 94.1223 81.2401C94.2357 81.55 94.3415 81.8618 94.4399 82.1754ZM84.9289 82.675L66.9752 99.4847C67.174 99.6158 67.3762 99.7414 67.5816 99.8614C67.6625 99.9087 67.744 99.9551 67.8259 100.001C69.1745 100.75 70.6548 101.262 72.2026 101.501C73.4857 101.699 74.7812 101.704 76.0481 101.525C76.1436 101.511 76.2389 101.497 76.334 101.481C77.9493 101.216 79.5128 100.649 80.9391 99.7973C82.0924 99.1086 83.1242 98.2526 84.0054 97.2648C84.0401 97.2259 84.0746 97.1867 84.1089 97.1474C85.1839 95.913 86.0268 94.4794 86.5823 92.9137C87.1225 91.3912 87.2706 90.1252 87.1352 88.8462C87.0143 87.7047 86.6677 86.5527 86.1725 85.1985C86.059 84.8881 85.9341 84.583 85.7984 84.2837C85.5455 83.726 85.2547 83.1886 84.9289 82.675Z" fill="#E8E8E8"/>
<path fill-rule="evenodd" clip-rule="evenodd" d="M191.286 18.8825C191.988 21.1186 192.31 23.4428 192.252 25.7603C192.196 27.9811 191.791 30.1957 191.038 32.3205C190.266 34.4955 189.151 36.5128 187.749 38.3032L187.751 38.3015C186.41 40.0162 184.803 41.5301 182.974 42.7736L183 42.7496C182.649 42.9886 182.291 43.2176 181.925 43.4362C179.622 44.8116 177.097 45.727 174.489 46.1553C174.393 46.1709 174.298 46.1859 174.203 46.2002C173.569 46.2955 172.93 46.3621 172.288 46.3996C170.804 46.4863 169.305 46.4171 167.817 46.1873C165.26 45.7926 162.817 44.9367 160.599 43.68C160.517 43.6338 160.436 43.587 160.355 43.5398C159.473 43.0244 158.627 42.445 157.826 41.8055L157.826 41.8058C156.09 40.4227 154.565 38.7644 153.325 36.8784L176.876 14.8287C175.607 14.1219 174.28 13.5374 172.911 13.1905C171.649 12.8707 170.351 12.7528 169.032 12.9273C168.937 12.9399 168.841 12.954 168.746 12.9697C167.194 13.2245 165.807 13.6637 164.552 14.3439C163.408 14.9637 162.374 15.7835 161.427 16.8462C161.392 16.8851 161.358 16.9242 161.323 16.9637C160.261 18.1838 159.392 19.4794 158.799 20.8819C158.271 22.1296 157.96 23.462 157.924 24.901L153.091 24.78L149.853 24.6989L149.853 24.6927C149.88 23.6157 149.989 22.5482 150.177 21.4986C150.382 20.3537 150.68 19.23 151.067 18.1387C151.934 15.696 153.247 13.4155 154.959 11.4205C154.993 11.3809 155.027 11.3415 155.061 11.3021C156.05 10.1664 157.151 9.14691 158.341 8.25562C158.933 7.81256 159.546 7.40118 160.18 7.02298C162.367 5.71652 164.788 4.80598 167.331 4.3527C167.426 4.33579 167.521 4.31952 167.616 4.30388C169.841 3.93853 172.092 3.93292 174.287 4.27185C176.9 4.67513 179.433 5.56618 181.75 6.91943C181.83 6.96674 181.911 7.01456 181.991 7.06288C182.63 7.4477 183.246 7.86447 183.837 8.31088L183.837 8.31054C185.61 9.64888 187.178 11.2672 188.466 13.1178L188.462 13.1216C189.494 14.6056 190.339 16.2256 190.969 17.9471C191.082 18.257 191.188 18.5689 191.286 18.8825ZM181.775 19.3821L163.822 36.1918C164.02 36.3229 164.222 36.4485 164.428 36.5685C164.509 36.6158 164.59 36.6622 164.672 36.7077C166.021 37.4574 167.501 37.9691 169.049 38.208C170.332 38.4061 171.627 38.4114 172.894 38.2319C172.99 38.2184 173.085 38.2038 173.18 38.1882C174.795 37.9229 176.359 37.3561 177.785 36.5043C178.939 35.8156 179.97 34.9596 180.852 33.9718C180.886 33.9329 180.921 33.8938 180.955 33.8544C182.03 32.6201 182.873 31.1864 183.428 29.6208C183.969 28.0982 184.117 26.8323 183.981 25.5532C183.86 24.4117 183.514 23.2597 183.019 21.9055C182.905 21.5951 182.78 21.29 182.645 20.9908C182.392 20.4331 182.101 19.8957 181.775 19.3821Z" fill="#E8E8E8"/>
</svg>
