<svg width="31" height="31" viewBox="0 0 31 31" fill="none" xmlns="http://www.w3.org/2000/svg">
<path d="M21.8029 28.2884H2.86994C1.22912 28.2884 0.0605637 26.6899 0.563103 25.1278L2.55509 18.9036C3.19689 16.9056 5.38263 15.8702 7.33224 16.6271C8.62795 17.1296 10.293 17.5232 12.3334 17.5232C13.9621 17.5232 15.3547 17.2689 16.5112 16.9116C16.6201 18.5827 18.0188 19.9148 19.7201 19.9148H20.9129V21.1075C20.9129 22.7847 22.2026 24.1651 23.8434 24.3105L24.1037 25.1278C24.6123 26.6899 23.4498 28.2884 21.8029 28.2884Z" fill="#E40521"/>
<path d="M12.34 15.1977C15.7876 15.1977 18.5824 12.4028 18.5824 8.95527C18.5824 5.5077 15.7876 2.71289 12.34 2.71289C8.89247 2.71289 6.09766 5.5077 6.09766 8.95527C6.09766 12.4028 8.89247 15.1977 12.34 15.1977Z" fill="#E40521"/>
<path d="M28.5482 14.6891H26.1445V12.2854C26.1445 11.1773 25.2484 10.2812 24.1404 10.2812C23.0324 10.2812 22.1363 11.1773 22.1363 12.2854V14.6891H19.7326C18.6246 14.6891 17.7285 15.5852 17.7285 16.6932C17.7285 17.8012 18.6246 18.6973 19.7326 18.6973H22.1363V21.101C22.1363 22.209 23.0324 23.1051 24.1404 23.1051C25.2484 23.1051 26.1445 22.209 26.1445 21.101V18.6973H28.5482C29.6563 18.6973 30.5523 17.8012 30.5523 16.6932C30.5523 15.5912 29.6563 14.6891 28.5482 14.6891Z" fill="#E40521"/>
</svg>
