<svg width="29" height="29" viewBox="0 0 29 29" fill="none" xmlns="http://www.w3.org/2000/svg">
<g clip-path="url(#clip0_279_2041)">
<path d="M6.34385 22.6562C5.57761 22.6573 4.81981 22.4963 4.12012 22.1839C3.42044 21.8716 2.79467 21.4149 2.28385 20.8438C1.38952 21.8385 0.898351 23.1311 0.906346 24.4688V26.2812C0.906346 26.762 1.09731 27.223 1.43722 27.5629C1.77712 27.9028 2.23814 28.0938 2.71885 28.0938H9.96885C10.4496 28.0938 10.9106 27.9028 11.2505 27.5629C11.5904 27.223 11.7813 26.762 11.7813 26.2812V24.4688C11.7833 23.1322 11.2929 21.8417 10.4038 20.8438C9.89302 21.4149 9.26725 21.8716 8.56757 22.1839C7.86789 22.4963 7.11009 22.6573 6.34385 22.6562Z" fill="#E40421"/>
<path d="M6.38086 20.8438C8.38289 20.8438 10.0059 19.2208 10.0059 17.2188C10.0059 15.2167 8.38289 13.5938 6.38086 13.5938C4.37883 13.5938 2.75586 15.2167 2.75586 17.2188C2.75586 19.2208 4.37883 20.8438 6.38086 20.8438Z" fill="#E40421"/>
<path d="M26.7162 20.8438C26.2064 21.4104 25.583 21.8634 24.8867 22.1736C24.1904 22.4837 23.4366 22.644 22.6744 22.644C21.9121 22.644 21.1584 22.4837 20.462 22.1736C19.7657 21.8634 19.1424 21.4104 18.6325 20.8438C17.725 21.8331 17.2207 23.1262 17.2188 24.4688V26.2812C17.2188 26.762 17.4097 27.223 17.7496 27.5629C18.0895 27.9028 18.5505 28.0938 19.0312 28.0938H26.2812C26.762 28.0938 27.223 27.9028 27.5629 27.5629C27.9028 27.223 28.0938 26.762 28.0938 26.2812V24.4688C28.0957 23.1322 27.6053 21.8417 26.7162 20.8438Z" fill="#E40421"/>
<path d="M22.6934 20.8438C24.6954 20.8438 26.3184 19.2208 26.3184 17.2188C26.3184 15.2167 24.6954 13.5938 22.6934 13.5938C20.6913 13.5938 19.0684 15.2167 19.0684 17.2188C19.0684 19.2208 20.6913 20.8438 22.6934 20.8438Z" fill="#E40421"/>
<path d="M20.8438 11.7812C21.3245 11.7812 21.7855 11.5903 22.1254 11.2504C22.4653 10.9105 22.6562 10.4495 22.6562 9.96875V2.71875C22.6562 2.23805 22.4653 1.77703 22.1254 1.43712C21.7855 1.09721 21.3245 0.90625 20.8438 0.90625H8.15625C7.67555 0.90625 7.21453 1.09721 6.87462 1.43712C6.53471 1.77703 6.34375 2.23805 6.34375 2.71875V9.96875C6.34375 10.4495 6.53471 10.9105 6.87462 11.2504C7.21453 11.5903 7.67555 11.7812 8.15625 11.7812H11.2647L13.7206 15.8684C13.8009 16.0037 13.9149 16.1157 14.0516 16.1935C14.1882 16.2713 14.3428 16.3122 14.5 16.3122C14.6572 16.3122 14.8118 16.2713 14.9484 16.1935C15.0851 16.1157 15.1991 16.0037 15.2794 15.8684L17.7353 11.7812H20.8438Z" fill="#E40421"/>
</g>
<defs>
<clipPath id="clip0_279_2041">
<rect width="29" height="29" fill="white"/>
</clipPath>
</defs>
</svg>
