<svg width="34" height="34" viewBox="0 0 34 34" fill="none" xmlns="http://www.w3.org/2000/svg">
<path d="M27.1469 9.48845C27.1469 7.90533 26.3394 6.50282 25.1175 5.68468C24.3844 5.18533 23.5025 4.89844 22.5569 4.89844H21.42V7.69282C21.42 8.27718 20.9525 8.75532 20.3575 8.75532C19.7731 8.75532 19.295 8.27718 19.295 7.69282V4.89844H9.97689V7.69282C9.97689 8.27718 9.49875 8.75532 8.91439 8.75532C8.31939 8.75532 7.85189 8.27718 7.85189 7.69282V4.89844H6.71501C5.45063 4.89844 4.30311 5.40848 3.4744 6.24783C2.63498 7.07655 2.125 8.22407 2.125 9.48845V10.1897H27.1469V9.48845Z" fill="#E40421"/>
<path d="M6.71501 28.1988H16.2669C15.4594 26.8069 14.9919 25.1813 14.9919 23.4494C14.9919 18.2007 19.2525 13.94 24.4906 13.94C25.415 13.94 26.3075 14.0675 27.1469 14.3119V12.3145H2.125V23.6194C2.125 26.1482 4.18625 28.1988 6.71501 28.1988Z" fill="#E40421"/>
<path d="M9.97656 4.24023C9.97656 3.65587 9.49842 3.17773 8.91406 3.17773C8.31907 3.17773 7.85156 3.65587 7.85156 4.24023V4.89898H9.97656V4.24023Z" fill="#E40421"/>
<path d="M21.4199 4.24023C21.4199 3.65587 20.9524 3.17773 20.3574 3.17773C19.7731 3.17773 19.2949 3.65587 19.2949 4.24023V4.89898H21.4199V4.24023Z" fill="#E40421"/>
<path d="M24.4909 16.0664C20.4215 16.0664 17.1172 19.3814 17.1172 23.4508C17.1172 27.5202 20.4215 30.8245 24.4909 30.8245C28.5603 30.8245 31.8753 27.5202 31.8753 23.4508C31.8753 19.3814 28.5603 16.0664 24.4909 16.0664ZM26.5841 24.5133H24.4909C23.9066 24.5133 23.4284 24.0352 23.4284 23.4508V21.262C23.4284 20.6777 23.9066 20.1995 24.4909 20.1995C25.0859 20.1995 25.5534 20.6777 25.5534 21.262V22.3883H26.5841C27.1685 22.3883 27.6466 22.8558 27.6466 23.4508C27.6466 24.0352 27.1685 24.5133 26.5841 24.5133Z" fill="#E40421"/>
</svg>
