<svg width="260" height="260" fill="none" xmlns="http://www.w3.org/2000/svg"><path fill-rule="evenodd" clip-rule="evenodd" d="M200.577 168.67l13.001 7.12 30.364 16.628-.029.053a129.864 129.864 0 01-65.91 58.251 129.856 129.856 0 01-165.022-64.467l-.002.001a129.87 129.87 0 01-11.703-39.151l.034-.009a129.835 129.835 0 01.792-39.282 129.86 129.86 0 0173.748-95.78l-.023.007a129.795 129.795 0 0138.564-10.944l-.215.061a129.857 129.857 0 01134.371 75.778l.003-.001a129.721 129.721 0 0110.667 39.444L69.161 170.313c9.462 14.238 21.365 26.622 37.359 32.361.553.198 1.112.389 1.676.572 17.507 5.67 33.647 5.994 50.716-.562.297-.115.594-.231.892-.349 12.378-4.919 23.228-11.566 31.698-20.905a66.37 66.37 0 009.068-12.746l.007-.014zM55.271 131.783l144.89-41.116a80.42 80.42 0 00-75.127-40.884 80.417 80.417 0 00-50.032 21.632c-13.65 12.815-17.076 24.568-19.418 43.144a80.438 80.438 0 00-.313 17.224z" fill="#F1F1F1"/></svg>