<svg width="410" height="506" fill="none" xmlns="http://www.w3.org/2000/svg"><path fill-rule="evenodd" clip-rule="evenodd" d="M92.651 308.001l.001-.001a38.175 38.175 0 018.108 8.878l-42.434 39.73c2.286 1.274 4.678 2.327 7.144 2.952 2.274.576 4.611.789 6.989.474.171-.022.343-.048.515-.076 2.796-.459 5.296-1.251 7.558-2.476 2.06-1.117 3.923-2.594 5.63-4.509l.187-.211c1.914-2.199 3.48-4.533 4.549-7.061a19.652 19.652 0 001.575-7.233v-.008l3.128.078 5.581.14 5.834.146a38.077 38.077 0 01-.584 5.766 38.197 38.197 0 01-18.023 26.083 38.19 38.19 0 01-13.399 4.899 38.219 38.219 0 01-29.228-7.219 38.216 38.216 0 01-8.339-8.662l.007-.006a38.205 38.205 0 011.28-45.369v.001a38.167 38.167 0 018.61-8.062l-.044.041a38.21 38.21 0 0145.355 1.705zm-43.153 40.404a23.63 23.63 0 01-2.24-4.548c-.893-2.44-1.518-4.516-1.735-6.572-.244-2.305.022-4.586.996-7.329a23.662 23.662 0 0135.329-11.84l-32.35 30.289zm221.774-166.787l.001-.001a38.169 38.169 0 018.108 8.878l-42.434 39.73c2.287 1.274 4.678 2.327 7.145 2.952 2.273.577 4.611.789 6.988.475.172-.023.344-.049.516-.077 2.796-.459 5.296-1.25 7.557-2.476 2.061-1.117 3.924-2.594 5.631-4.509l.186-.211c1.915-2.199 3.48-4.533 4.549-7.06a19.652 19.652 0 001.576-7.234v-.008l3.127.078 5.582.14 5.834.146a38.193 38.193 0 01-2.188 11.821 38.189 38.189 0 01-7.012 12.105l-.184.213a38.19 38.19 0 01-9.223 7.71 38.213 38.213 0 01-25.42 4.957 38.193 38.193 0 01-13.445-4.77 37.998 37.998 0 01-3.762-2.508v.001a38.236 38.236 0 01-8.34-8.662l.008-.006a38.184 38.184 0 01-5.09-10.381 38.214 38.214 0 016.372-34.99l-.003.003a38.164 38.164 0 018.611-8.062l-.047.043a38.204 38.204 0 0145.357 1.703zm-43.152 40.403a23.632 23.632 0 01-2.241-4.547c-.892-2.44-1.517-4.515-1.735-6.572-.244-2.305.023-4.586.996-7.329a23.676 23.676 0 014.457-7.629l.187-.211a23.649 23.649 0 0121.266-7.633 23.684 23.684 0 019.419 3.633l-32.349 30.288zM122.879 430.288l.001-.001a38.169 38.169 0 018.108 8.878l-42.434 39.73c2.286 1.274 4.678 2.327 7.144 2.952 2.274.577 4.611.789 6.989.474.172-.022.343-.048.515-.076 2.796-.459 5.296-1.25 7.558-2.476 2.061-1.117 3.923-2.594 5.63-4.509l.187-.211c1.915-2.199 3.479-4.533 4.549-7.06a19.671 19.671 0 001.575-7.234v-.008l3.128.078 5.581.14 5.834.146a38.064 38.064 0 01-.584 5.766 38.205 38.205 0 01-8.615 18.159l-.185.214a38.19 38.19 0 01-9.223 7.71 38.19 38.19 0 01-13.399 4.899 38.219 38.219 0 01-29.227-7.219 38.214 38.214 0 01-8.34-8.662l.007-.006a38.201 38.201 0 01-6.829-22.773 38.206 38.206 0 018.11-22.597l-.001.002a38.171 38.171 0 018.61-8.062l-.044.042a38.21 38.21 0 0145.356 1.704zm-43.153 40.404a23.63 23.63 0 01-2.24-4.548c-.893-2.44-1.518-4.515-1.735-6.572-.244-2.305.022-4.586.996-7.329a23.66 23.66 0 0135.329-11.84l-32.35 30.289zM301.5 290.139l.001-.001a38.169 38.169 0 018.108 8.878l-42.433 39.73c2.286 1.274 4.677 2.327 7.144 2.952 2.273.576 4.611.788 6.988.474.172-.023.344-.048.516-.076 2.796-.459 5.296-1.251 7.558-2.476 2.06-1.117 3.923-2.594 5.63-4.509l.186-.212c1.915-2.198 3.48-4.533 4.549-7.06a19.651 19.651 0 001.576-7.233v-.008l3.127.078 5.582.14 5.834.146a38.206 38.206 0 01-9.2 23.925l-.184.213a38.147 38.147 0 01-9.223 7.711 38.211 38.211 0 01-12.885 4.811 38.234 38.234 0 01-12.535.146 38.194 38.194 0 01-17.207-7.278 38.231 38.231 0 01-8.34-8.661l.008-.007a38.184 38.184 0 01-5.09-10.38 38.208 38.208 0 016.372-34.991l-.003.003a38.186 38.186 0 018.611-8.062l-.047.044a38.202 38.202 0 0127.355-6.193 38.214 38.214 0 0118.002 7.896zm-43.152 40.403a23.718 23.718 0 01-2.241-4.547c-.892-2.44-1.517-4.516-1.735-6.573-.244-2.304.023-4.585.996-7.329a23.66 23.66 0 0134.236-12.518c.371.216.735.442 1.093.679l-32.349 30.288zM69.29 195.358a38.157 38.157 0 018.109 8.878l-42.434 39.729c2.286 1.274 4.678 2.328 7.145 2.953 2.273.576 4.611.788 6.989.474.171-.023.343-.048.515-.077 2.796-.459 5.296-1.25 7.558-2.476 2.06-1.116 3.923-2.594 5.63-4.508l.186-.212c1.915-2.199 3.48-4.533 4.55-7.06a19.662 19.662 0 001.575-7.234v-.008l3.127.079 5.582.139 5.834.146a38.206 38.206 0 01-44.027 36.806 38.199 38.199 0 01-17.207-7.278v.001a38.211 38.211 0 01-8.34-8.661l.007-.007a38.204 38.204 0 01-4.64-34.593 38.21 38.21 0 015.925-10.78l-.005.005a38.169 38.169 0 018.61-8.062l-.047.045a38.19 38.19 0 0127.356-6.194 38.186 38.186 0 0118.002 7.895zm-43.153 40.403a23.589 23.589 0 01-2.24-4.546c-.892-2.44-1.517-4.516-1.735-6.573-.244-2.305.023-4.586.997-7.329a23.656 23.656 0 0110.168-12.403 23.655 23.655 0 0123.627-.366 24.487 24.487 0 011.533.929l-32.35 30.288zM247.911 68.948h.001a38.165 38.165 0 018.108 8.878l-42.434 39.729c2.287 1.274 4.679 2.327 7.145 2.952 2.274.577 4.612.789 6.989.475.172-.023.344-.049.516-.077 2.795-.459 5.296-1.25 7.557-2.476 2.061-1.117 3.924-2.594 5.631-4.509l.186-.211c1.915-2.199 3.479-4.533 4.549-7.06a19.671 19.671 0 001.575-7.234v-.008l3.128.078 5.581.14 5.835.146a38.225 38.225 0 01-15.294 29.628 38.205 38.205 0 01-45.941-.1l-.001.001a38.21 38.21 0 01-8.339-8.662l.008-.007a38.177 38.177 0 01-5.089-10.38 38.218 38.218 0 01.448-24.213 38.197 38.197 0 015.927-10.78l-.007.006a38.182 38.182 0 018.611-8.062l-.05.046a38.19 38.19 0 0119.302-6.578 38.196 38.196 0 0121.062 4.9 38.13 38.13 0 014.996 3.378zm-43.152 40.403a23.705 23.705 0 01-2.241-4.547c-.892-2.44-1.516-4.515-1.734-6.572-.244-2.305.023-4.586.996-7.33a23.662 23.662 0 014.457-7.627l.186-.212a23.662 23.662 0 0130.685-4l-32.349 30.288zm-71.528 192.687l-.001.001a38.186 38.186 0 01-8.107-8.878l42.434-39.73c-2.287-1.274-4.678-2.327-7.145-2.952-2.274-.576-4.611-.789-6.988-.474-.172.022-.344.048-.516.076-2.796.459-5.296 1.251-7.558 2.476-2.06 1.117-3.923 2.594-5.63 4.509l-.186.212c-1.915 2.198-3.48 4.533-4.549 7.06a19.642 19.642 0 00-1.576 7.233v.008l-3.127-.078-5.582-.14-5.834-.146a38.206 38.206 0 0132.006-36.748 38.194 38.194 0 0129.228 7.22 38.185 38.185 0 018.339 8.661l-.007.006a38.17 38.17 0 015.09 10.381 38.214 38.214 0 01-6.371 34.989l.003-.003a38.19 38.19 0 01-8.614 8.065l.047-.044a38.22 38.22 0 01-27.353 6.192 38.236 38.236 0 01-18.003-7.896zm43.153-40.403a23.644 23.644 0 012.241 4.547c.892 2.44 1.517 4.516 1.735 6.572.244 2.305-.023 4.586-.997 7.329a23.644 23.644 0 01-10.168 12.403 23.636 23.636 0 01-8.812 3.113 23.64 23.64 0 01-16.349-3.676l32.35-30.288zm131.35-81.885l-.001.001a38.169 38.169 0 01-8.108-8.878l42.433-39.73c-2.286-1.274-4.678-2.327-7.144-2.952-2.274-.576-4.612-.789-6.989-.474-.172.022-.344.048-.516.076-2.795.459-5.296 1.251-7.557 2.476-2.061 1.117-3.924 2.594-5.631 4.509l-.186.211c-1.915 2.199-3.479 4.533-4.549 7.06a19.671 19.671 0 00-1.575 7.234v.008l-3.128-.078-5.581-.14-5.835-.146a38.197 38.197 0 012.188-11.82 38.205 38.205 0 0129.818-24.928 38.224 38.224 0 0129.229 7.22v-.001a38.256 38.256 0 018.34 8.662l-.008.007a38.198 38.198 0 014.641 34.593 38.202 38.202 0 01-5.927 10.781l.005-.005a38.175 38.175 0 01-8.607 8.059l.048-.045a38.217 38.217 0 01-27.358 6.195 38.198 38.198 0 01-18.002-7.895zm43.152-40.403a23.718 23.718 0 012.241 4.547c.892 2.44 1.516 4.516 1.734 6.572.244 2.305-.023 4.586-.996 7.329a23.665 23.665 0 01-4.457 7.629c-.061.071-.124.141-.186.211a23.659 23.659 0 01-21.267 7.633 23.64 23.64 0 01-9.418-3.633l32.349-30.288zM163.46 410.557l-.001.001a38.149 38.149 0 01-8.108-8.878l42.434-39.73c-2.286-1.273-4.678-2.327-7.144-2.952-2.274-.576-4.612-.788-6.989-.474a15.29 15.29 0 00-.516.077c-2.795.459-5.296 1.25-7.557 2.476-2.061 1.116-3.924 2.594-5.63 4.509-.063.069-.125.14-.187.211-1.915 2.199-3.479 4.533-4.549 7.06a19.671 19.671 0 00-1.575 7.234v.008l-3.128-.079-5.581-.139-5.834-.146c.048-1.945.245-3.872.584-5.767a38.226 38.226 0 0114.709-23.861 38.213 38.213 0 0128.733-7.178 38.204 38.204 0 0117.207 7.277h.001a38.205 38.205 0 018.339 8.661l-.007.007a38.184 38.184 0 015.089 10.38 38.224 38.224 0 01-.448 24.213 38.21 38.21 0 01-5.922 10.776l.003-.003a38.19 38.19 0 01-8.614 8.065l.046-.043a38.197 38.197 0 01-27.352 6.191 38.178 38.178 0 01-18.003-7.896zm43.153-40.403a23.718 23.718 0 012.241 4.547c.892 2.44 1.516 4.516 1.734 6.573.244 2.305-.023 4.586-.996 7.329a23.66 23.66 0 01-4.457 7.628l-.186.212a23.659 23.659 0 01-29.153 4.929 24.564 24.564 0 01-1.533-.929l32.35-30.289zm134.097-85.978l-.001.001a38.169 38.169 0 01-8.108-8.878l42.434-39.73c-2.286-1.274-4.678-2.327-7.145-2.952-2.274-.577-4.611-.789-6.988-.475-.172.023-.344.049-.516.077-2.796.459-5.296 1.25-7.558 2.476-2.06 1.117-3.923 2.594-5.63 4.509l-.186.211c-1.915 2.199-3.48 4.533-4.549 7.06a19.652 19.652 0 00-1.576 7.234v.008l-3.127-.078-5.582-.14-5.834-.146a38.193 38.193 0 012.188-11.821 38.189 38.189 0 017.012-12.105l.184-.213a38.19 38.19 0 019.223-7.71 38.213 38.213 0 0125.42-4.957 38.193 38.193 0 0117.207 7.278l.001-.001a38.21 38.21 0 018.339 8.662l-.007.007a38.214 38.214 0 01-1.286 45.374l.005-.005a38.181 38.181 0 01-8.608 8.059l.048-.045a38.204 38.204 0 01-45.36-1.7zm43.153-40.403a23.699 23.699 0 012.24 4.547c.892 2.44 1.517 4.515 1.735 6.572.244 2.305-.023 4.586-.997 7.329a23.64 23.64 0 01-4.456 7.628l-.187.212a23.656 23.656 0 01-30.685 4l32.35-30.288zm-273.987-54.405v.001a38.169 38.169 0 01-8.108-8.878l42.433-39.73c-2.286-1.274-4.678-2.327-7.145-2.952-2.274-.576-4.611-.789-6.988-.474-.172.022-.344.048-.516.076-2.796.459-5.296 1.251-7.558 2.476-2.06 1.117-3.923 2.594-5.63 4.509l-.186.212c-1.915 2.198-3.48 4.533-4.549 7.06a19.642 19.642 0 00-1.576 7.233v.008l-3.127-.078-5.582-.14-5.834-.146a38.206 38.206 0 0132.006-36.748 38.204 38.204 0 0129.228 7.22h.001a38.205 38.205 0 018.339 8.661l-.007.007a38.221 38.221 0 014.641 34.593 38.213 38.213 0 01-5.927 10.781l.007-.006a38.209 38.209 0 01-8.611 8.062l.049-.046a38.22 38.22 0 01-27.358 6.195 38.236 38.236 0 01-18.002-7.896zm43.153-40.402a23.625 23.625 0 012.24 4.546c.892 2.44 1.517 4.516 1.735 6.573.244 2.304-.023 4.585-.997 7.329a23.64 23.64 0 01-10.168 12.403 23.675 23.675 0 01-15.741 3.069 23.64 23.64 0 01-9.419-3.632l32.35-30.288zm131.344-73.641l-.001.001a38.19 38.19 0 01-8.109-8.878l42.434-39.73c-2.286-1.274-4.677-2.327-7.144-2.952-2.273-.576-4.611-.789-6.988-.474-.172.022-.344.048-.516.076-2.796.46-5.296 1.25-7.557 2.476-2.061 1.117-3.924 2.594-5.631 4.51l-.186.21c-1.915 2.2-3.48 4.534-4.549 7.06a19.65 19.65 0 00-1.576 7.234v.008l-3.127-.078-5.582-.14-5.834-.146a38.205 38.205 0 019.2-23.925l.184-.214a38.177 38.177 0 019.223-7.71 38.206 38.206 0 0142.627 2.32 38.208 38.208 0 018.339 8.662l-.007.007a38.184 38.184 0 015.09 10.38 38.212 38.212 0 01-6.372 34.99h.001a38.17 38.17 0 01-8.608 8.058l.046-.042a38.2 38.2 0 01-27.355 6.193 38.214 38.214 0 01-18.002-7.896zm43.152-40.403a23.679 23.679 0 012.241 4.547c.892 2.44 1.517 4.516 1.735 6.573.244 2.304-.023 4.585-.996 7.329a23.663 23.663 0 01-35.329 11.84l32.349-30.289z" fill="#fff" fill-opacity=".2"/></svg>