<svg width="1049" height="1047" fill="none" xmlns="http://www.w3.org/2000/svg"><path fill-rule="evenodd" clip-rule="evenodd" d="M664.135 616.843l-281.357-367.13c-108.159 56.721-175.752 175.855-160.824 304.426l.01.081c19.405 166.751 170.296 286.223 337.062 266.86 75.151-8.725 140.704-44.155 188.28-95.711l-.003-.004a304.033 304.033 0 00-2.059-414.79 304.026 304.026 0 00-183.743-93.211l-.046-.006-6.26 50.369-1.756 14.135-6.259 50.369.033.004c43.486 5.413 78.362 27.799 108.415 59.695 30.062 31.905 43.697 67.795 46.508 111.54 2.657 41.364-14.385 79.357-38.001 113.373zm42.878 55.95l-1.761-2.298a254.307 254.307 0 007.362-9.658c14.588-20.121 29.136-43.846 39.572-70.691a239 239 0 01-45.173 82.647z" fill="#F1F1F1"/><circle cx="379.2" cy="470.868" r="73.822" transform="rotate(-84.35 379.2 470.868)" fill="#EBEBEB"/></svg>