<svg width="1339" height="1325" fill="none" xmlns="http://www.w3.org/2000/svg"><path d="M1081.35 518.69L163.54 752.904l22.199 85.596 519.332-132.006c13.161 51.992 28.032 110.22 32.419 127.551 30.491 117.827 144.446 189.685 254.122 160.985 110.688-28.391 175.108-146.424 144.358-263.193-4.12-18.389-54.62-213.147-54.62-213.147zm-25.53 232.765c18.3 70.696-21.01 140.63-86.407 157.978-66.413 17.035-133.967-26.741-152.526-96.379-4.387-17.331-19.259-75.558-32.419-127.551l80.408-20.676 32.42 127.551 80.408-20.677-32.419-127.551 80.405-20.676c11.14 51.364 25.75 110.65 30.13 127.981z" fill="#F5F5F5"/><rect x="36.478" y="274.024" width="944.03" height="436.29" rx="150" transform="rotate(-15 36.478 274.024)" fill="#F5F5F5"/><ellipse cx="290.668" cy="431.76" rx="127.196" ry="135.547" transform="rotate(-15 290.668 431.76)" fill="#fff"/><ellipse cx="808.993" cy="292.874" rx="127.196" ry="135.547" transform="rotate(-15 808.993 292.874)" fill="#fff"/><ellipse cx="354.705" cy="413.5" rx="60.617" ry="64.596" transform="rotate(-15 354.705 413.5)" fill="#F5F5F5"/><ellipse cx="873.027" cy="274.62" rx="60.617" ry="64.596" transform="rotate(-15 873.027 274.62)" fill="#F5F5F5"/></svg>