<svg width="543" height="669" fill="none" xmlns="http://www.w3.org/2000/svg"><path fill-rule="evenodd" clip-rule="evenodd" d="M129.171 480.259a50.548 50.548 0 01-38.291 17.352 50.563 50.563 0 01-30.31-10.221l-.002.001a50.543 50.543 0 01-11.034-11.46l.011-.01a50.53 50.53 0 01-6.732-13.733 50.553 50.553 0 018.435-46.302l-.013.013a50.517 50.517 0 0111.397-10.67l-.07.064a50.554 50.554 0 0160.016 2.248l.002-.001a50.527 50.527 0 0110.727 11.747l-56.142 52.565c3.026 1.685 6.19 3.079 9.454 3.906 3.008.762 6.1 1.043 9.246.627.227-.03.455-.064.683-.101 3.698-.607 7.006-1.655 9.999-3.276 2.726-1.478 5.191-3.432 7.449-5.965l.247-.28c2.533-2.909 4.603-5.998 6.018-9.341a26.007 26.007 0 002.084-9.568l.001-.014 2.618.066 8.904.223 7.719.193a50.557 50.557 0 01-12.416 31.937zm-63.685-19.263l42.8-40.073a31.314 31.314 0 00-21.628-4.863 31.311 31.311 0 00-25.113 20.529c-1.288 3.629-1.641 6.647-1.318 9.697.288 2.721 1.114 5.467 2.295 8.696a31.255 31.255 0 002.964 6.014zm300.013-147.987a50.548 50.548 0 01-38.292 17.352 50.564 50.564 0 01-30.308-10.22h-.001a50.54 50.54 0 01-11.034-11.46l.01-.009a50.507 50.507 0 01-6.733-13.734 50.55 50.55 0 018.43-46.295l-.007.006a50.532 50.532 0 0111.397-10.67l-.063.059a50.554 50.554 0 0160.01 2.253l.002-.001a50.527 50.527 0 0110.727 11.747l-56.143 52.565c3.025 1.685 6.189 3.079 9.453 3.906 3.008.762 6.101 1.043 9.246.627.227-.03.455-.064.682-.101 3.699-.607 7.007-1.655 9.999-3.276 2.727-1.478 5.191-3.432 7.45-5.965l.247-.28c2.533-2.909 4.603-5.998 6.018-9.341a26.007 26.007 0 002.084-9.568l.001-.014 2.618.066 8.904.223 7.719.193a50.557 50.557 0 01-12.416 31.937zm-63.685-19.261l42.801-40.074a31.314 31.314 0 00-21.629-4.864 31.31 31.31 0 00-25.113 20.529c-1.288 3.629-1.641 6.647-1.318 9.697.288 2.721 1.114 5.467 2.295 8.696a31.2 31.2 0 002.964 6.016zM169.165 642.056a50.548 50.548 0 01-29.25 16.567 50.63 50.63 0 01-9.042.785 50.555 50.555 0 01-30.31-10.222l-.001.001a50.546 50.546 0 01-11.034-11.46l.01-.01a50.525 50.525 0 01-6.731-13.732 50.551 50.551 0 018.438-46.305l-.017.015a50.525 50.525 0 0111.397-10.67l-.072.067a50.557 50.557 0 0160.02 2.245l.001-.001a50.527 50.527 0 0110.727 11.747l-56.142 52.565c3.025 1.686 6.19 3.079 9.454 3.907 3.008.762 6.101 1.043 9.246.627.227-.03.455-.064.682-.101 3.699-.608 7.007-1.655 9.999-3.276 2.727-1.478 5.192-3.432 7.45-5.966.082-.092.165-.185.247-.28 2.533-2.908 4.603-5.997 6.018-9.34a26.007 26.007 0 002.084-9.568l.001-.014 2.618.066 8.904.223 7.719.193a50.561 50.561 0 01-12.172 31.655c-.081.094-.162.189-.244.282zm-63.686-19.263l42.8-40.073a31.314 31.314 0 00-21.627-4.863 31.292 31.292 0 00-18.97 10.156 31.286 31.286 0 00-6.143 10.373c-1.288 3.629-1.641 6.647-1.318 9.696.288 2.722 1.114 5.468 2.295 8.696a31.225 31.225 0 002.963 6.015zm300.016-166.166a50.562 50.562 0 01-38.291 17.351 50.565 50.565 0 01-30.31-10.221l-.002.001a50.557 50.557 0 01-11.034-11.459l.011-.011a50.515 50.515 0 01-6.732-13.733 50.55 50.55 0 018.435-46.301l-.013.013a50.494 50.494 0 0111.397-10.671l-.069.064a50.562 50.562 0 0136.199-8.198 50.548 50.548 0 0123.817 10.446h.001a50.502 50.502 0 0110.727 11.746l-56.142 52.565c3.026 1.685 6.19 3.079 9.454 3.906 3.008.762 6.101 1.043 9.246.627.227-.03.455-.063.682-.101 3.699-.607 7.007-1.654 10-3.276 2.726-1.477 5.191-3.432 7.449-5.965l.247-.28c2.533-2.909 4.603-5.998 6.018-9.341a26.003 26.003 0 002.084-9.568l.001-.013 2.618.065 8.904.223 7.719.193a50.553 50.553 0 01-12.416 31.938zm-63.685-19.263l42.8-40.074a31.314 31.314 0 00-21.628-4.863 31.31 31.31 0 00-25.113 20.529c-1.288 3.63-1.641 6.648-1.318 9.697.288 2.721 1.114 5.467 2.295 8.696a31.2 31.2 0 002.964 6.015zM98.267 331.189a50.548 50.548 0 01-38.292 17.352 50.554 50.554 0 01-30.31-10.222l-.001.002a50.564 50.564 0 01-11.034-11.46l.01-.01a50.55 50.55 0 011.704-60.035l-.014.013a50.544 50.544 0 0111.397-10.671l-.069.065a50.554 50.554 0 0160.017 2.247 50.517 50.517 0 0110.728 11.747l-56.142 52.564c3.025 1.686 6.19 3.079 9.453 3.906 3.009.763 6.101 1.044 9.247.628.227-.03.454-.064.682-.101 3.699-.608 7.007-1.655 9.999-3.276 2.727-1.478 5.191-3.432 7.45-5.966l.246-.28c2.534-2.908 4.604-5.997 6.019-9.341a26.006 26.006 0 002.084-9.567v-.014l2.619.066 8.904.223 7.719.193a50.558 50.558 0 01-12.416 31.937zM34.58 311.926l42.8-40.073a31.27 31.27 0 00-12.46-4.806 31.305 31.305 0 00-34.28 20.471c-1.288 3.63-1.641 6.648-1.319 9.697.288 2.722 1.115 5.468 2.295 8.696a31.28 31.28 0 002.964 6.015zm300.017-147.985a50.546 50.546 0 01-38.292 17.351 50.541 50.541 0 01-30.309-10.22v.001a50.561 50.561 0 01-11.034-11.46l.01-.009a50.55 50.55 0 011.697-60.03l-.007.007a50.545 50.545 0 0111.397-10.67l-.063.059a50.553 50.553 0 0160.01 2.253h.001a50.504 50.504 0 0110.728 11.746l-56.143 52.565c3.025 1.685 6.189 3.078 9.452 3.905 3.009.763 6.101 1.044 9.247.628.227-.03.454-.064.682-.101 3.699-.608 7.007-1.655 9.999-3.276 2.727-1.478 5.191-3.432 7.45-5.966l.246-.28c2.534-2.909 4.604-5.997 6.019-9.341a26.018 26.018 0 002.084-9.567v-.014l2.619.066 8.904.223 7.719.193a50.56 50.56 0 01-12.172 31.655l-.244.282zm-63.685-19.262l42.801-40.073a31.295 31.295 0 00-21.63-4.864 31.307 31.307 0 00-25.113 20.528c-1.287 3.63-1.64 6.648-1.318 9.697.288 2.722 1.115 5.468 2.295 8.696a31.172 31.172 0 002.965 6.016zm-101.228 182.22a50.546 50.546 0 0129.251-16.567c.226-.041.453-.079.679-.117a50.552 50.552 0 0138.672 9.554l.001-.002a50.561 50.561 0 0111.034 11.46l-.011.01a50.54 50.54 0 016.733 13.733 50.554 50.554 0 01-8.436 46.302l.014-.013a50.511 50.511 0 01-11.397 10.67l.069-.064a50.54 50.54 0 01-36.199 8.198 50.554 50.554 0 01-23.818-10.445 50.507 50.507 0 01-10.727-11.747l56.141-52.564c-3.025-1.686-6.189-3.079-9.453-3.906-3.008-.763-6.101-1.044-9.247-.628-.227.03-.454.064-.682.101-3.699.608-7.007 1.655-9.999 3.276-2.727 1.478-5.191 3.432-7.449 5.966-.083.092-.165.186-.247.28-2.533 2.908-4.604 5.997-6.018 9.341a25.998 25.998 0 00-2.085 9.567v.014l-2.619-.066-8.904-.223-7.719-.193a50.56 50.56 0 0112.172-31.655l.244-.282zm63.686 19.263l-42.8 40.073a31.309 31.309 0 0033.288.745 31.315 31.315 0 0013.453-16.411c1.288-3.629 1.641-6.647 1.318-9.696-.288-2.722-1.115-5.468-2.295-8.696a31.234 31.234 0 00-2.964-6.015zm167.191-181.058a50.546 50.546 0 0138.292-17.352 50.552 50.552 0 0130.308 10.22l.001-.001a50.561 50.561 0 0111.034 11.46l-.01.009a50.557 50.557 0 01-1.694 60.026l.004-.003a50.538 50.538 0 01-11.397 10.671l.06-.056a50.554 50.554 0 01-60.007-2.257l-.001.001a50.507 50.507 0 01-10.727-11.747l56.141-52.564c-3.024-1.685-6.188-3.078-9.451-3.905-3.008-.763-6.101-1.044-9.247-.628-.227.03-.454.064-.682.101-3.699.608-7.007 1.655-9.999 3.276-2.727 1.478-5.191 3.432-7.449 5.966-.083.092-.165.186-.247.28-2.533 2.908-4.604 5.997-6.018 9.341a25.998 25.998 0 00-2.085 9.567v.014l-2.619-.066-8.904-.223-7.719-.193a50.56 50.56 0 0112.172-31.655l.244-.282zm63.685 19.261l-42.801 40.074a31.264 31.264 0 0012.462 4.807 31.309 31.309 0 0034.281-20.471c1.288-3.63 1.641-6.648 1.318-9.697-.288-2.722-1.115-5.468-2.295-8.696a31.234 31.234 0 00-2.965-6.017zM209.68 470.516a50.552 50.552 0 0168.601-7.131l.001-.001a50.557 50.557 0 0111.033 11.46l-.009.009a50.587 50.587 0 016.733 13.734 50.56 50.56 0 01-8.43 46.295l.006-.006a50.538 50.538 0 01-11.397 10.671l.064-.06a50.541 50.541 0 01-36.192 8.193 50.545 50.545 0 01-23.819-10.446l-.001.001a50.487 50.487 0 01-10.727-11.747l56.142-52.565c-3.025-1.685-6.189-3.078-9.452-3.905-3.008-.763-6.101-1.044-9.246-.628-.228.03-.455.064-.683.101-3.698.608-7.007 1.655-9.999 3.276-2.726 1.478-5.191 3.432-7.449 5.966-.083.092-.165.186-.247.28-2.533 2.909-4.603 5.997-6.018 9.341a26.019 26.019 0 00-2.085 9.567v.014l-2.619-.066-8.904-.223-7.719-.193a50.56 50.56 0 0112.172-31.655l.244-.282zm63.685 19.262l-42.8 40.073a31.292 31.292 0 0021.629 4.864 31.314 31.314 0 0018.97-10.156 31.326 31.326 0 006.143-10.372c1.288-3.63 1.641-6.648 1.318-9.697-.288-2.721-1.115-5.468-2.295-8.696a31.435 31.435 0 00-2.965-6.016zm170.825-186.51a50.546 50.546 0 0138.292-17.351 50.541 50.541 0 0130.31 10.221l.001-.002a50.561 50.561 0 0111.034 11.46l-.011.01a50.54 50.54 0 016.733 13.733 50.554 50.554 0 01-8.436 46.302l.014-.013a50.538 50.538 0 01-11.397 10.671l.069-.065a50.54 50.54 0 01-36.199 8.198 50.55 50.55 0 01-23.818-10.445 50.51 50.51 0 01-10.728-11.747l56.142-52.564c-3.025-1.686-6.19-3.079-9.453-3.906-3.009-.763-6.101-1.044-9.247-.628-.227.03-.454.064-.682.101-3.699.608-7.007 1.655-9.999 3.276-2.727 1.478-5.191 3.432-7.449 5.966-.083.092-.165.186-.247.28-2.533 2.909-4.604 5.997-6.019 9.341a26.018 26.018 0 00-2.084 9.567v.014l-2.619-.066-8.904-.223-7.719-.193a50.56 50.56 0 0112.416-31.937zm63.686 19.263l-42.801 40.073a31.29 31.29 0 0021.629 4.863 31.314 31.314 0 0018.969-10.156 31.311 31.311 0 006.144-10.372c1.288-3.63 1.641-6.648 1.318-9.697-.288-2.722-1.115-5.468-2.295-8.696a31.435 31.435 0 00-2.964-6.015zM138.78 177.83a50.562 50.562 0 0138.292-17.351 50.564 50.564 0 0130.308 10.22h.001a50.557 50.557 0 0111.034 11.459l-.01.01a50.508 50.508 0 016.734 13.734 50.55 50.55 0 01-8.431 46.295l.007-.007a50.536 50.536 0 01-11.397 10.671l.063-.059a50.555 50.555 0 01-60.01-2.254l-.001.001a50.506 50.506 0 01-10.728-11.746l56.143-52.565c-3.025-1.685-6.189-3.079-9.452-3.906-3.009-.762-6.101-1.043-9.247-.627a20.4 20.4 0 00-.682.101c-3.699.607-7.007 1.654-9.999 3.276-2.727 1.477-5.191 3.432-7.45 5.965l-.246.28c-2.534 2.909-4.604 5.998-6.019 9.341a26.003 26.003 0 00-2.084 9.568v.013l-2.619-.065-8.904-.223-7.719-.193a50.552 50.552 0 0112.416-31.938zm63.685 19.262l-42.801 40.074a31.314 31.314 0 0021.63 4.864 31.305 31.305 0 0025.113-20.529c1.287-3.63 1.64-6.648 1.318-9.697-.289-2.721-1.115-5.467-2.295-8.696a31.257 31.257 0 00-2.965-6.016zm167.192-170.15A50.558 50.558 0 01407.949 9.59a50.555 50.555 0 0130.308 10.22h.001a50.556 50.556 0 0111.034 11.459l-.01.01a50.547 50.547 0 016.141 45.77 50.54 50.54 0 01-7.835 14.255l.004-.003a50.533 50.533 0 01-11.397 10.67l.06-.055a50.554 50.554 0 01-60.008-2.257 50.509 50.509 0 01-10.728-11.746l56.142-52.564c-3.025-1.685-6.188-3.079-9.451-3.905-3.009-.763-6.101-1.044-9.247-.628-.227.03-.454.064-.682.101-3.699.608-7.007 1.655-9.999 3.276-2.727 1.478-5.191 3.432-7.45 5.966-.082.092-.164.185-.246.28-2.534 2.908-4.604 5.997-6.019 9.34a26.002 26.002 0 00-2.084 9.568v.014l-2.619-.066-8.904-.223-7.719-.193a50.549 50.549 0 0112.416-31.937zm63.684 19.261L390.54 86.277a31.302 31.302 0 0040.6-5.292 31.29 31.29 0 006.143-10.373c1.288-3.63 1.641-6.647 1.319-9.696-.289-2.722-1.115-5.468-2.295-8.696a31.25 31.25 0 00-2.966-6.017z" fill="#F9F9F9"/></svg>