<svg width="299" height="359" fill="none" xmlns="http://www.w3.org/2000/svg"><path fill-rule="evenodd" clip-rule="evenodd" d="M23.55 254.247a27.805 27.805 0 014.638-25.466l-.004.004a27.8 27.8 0 016.27-5.87l-.036.033a27.806 27.806 0 0133.01 1.239h.002a27.789 27.789 0 015.9 6.461l-30.883 28.915c1.664.927 3.405 1.694 5.2 2.149 1.655.419 3.356.574 5.086.345.125-.017.25-.035.376-.056 2.034-.334 3.854-.91 5.5-1.802 1.5-.813 2.855-1.888 4.098-3.281l.135-.154c1.394-1.6 2.533-3.299 3.311-5.139a14.308 14.308 0 001.147-5.263v-.007l6.338.159 4.246.106a27.817 27.817 0 01-6.695 17.413l-.135.155a27.831 27.831 0 01-6.712 5.611 27.781 27.781 0 01-9.752 3.566 27.792 27.792 0 01-18.85-3.618 27.773 27.773 0 01-2.422-1.637v.001a27.806 27.806 0 01-6.07-6.304l.006-.005a27.794 27.794 0 01-3.704-7.555zm12.473-.655l23.543-22.043a16.86 16.86 0 00-1.115-.677 17.213 17.213 0 00-11.157-1.941 17.221 17.221 0 00-13.44 11.235c-.708 1.996-.902 3.656-.724 5.334.158 1.497.613 3.007 1.262 4.783a17.335 17.335 0 001.63 3.309z" fill="#E40421"/><path fill-rule="evenodd" clip-rule="evenodd" d="M153.55 162.247a27.83 27.83 0 01.326-17.622 27.819 27.819 0 014.317-7.85l-.003.003a27.765 27.765 0 016.256-5.858l-.035.033a27.816 27.816 0 0129.382-1.224l.319.184a27.76 27.76 0 013.316 2.274v-.001a27.772 27.772 0 015.902 6.462l-30.883 28.915c1.664.927 3.405 1.694 5.2 2.149 1.655.419 3.356.574 5.086.345.125-.017.25-.035.376-.056 2.034-.334 3.854-.91 5.5-1.802 1.5-.813 2.855-1.888 4.098-3.281l.135-.154c1.394-1.6 2.533-3.299 3.311-5.139a14.312 14.312 0 001.147-5.263v-.007l6.338.159 4.246.106a27.755 27.755 0 01-1.592 8.603 27.81 27.81 0 01-5.103 8.81l-.135.155a27.813 27.813 0 01-25.212 9.219 27.805 27.805 0 01-9.786-3.472c-.106-.062-.212-.124-.317-.188a27.825 27.825 0 01-2.421-1.637 27.794 27.794 0 01-6.07-6.304l.006-.005a27.766 27.766 0 01-3.704-7.554zm12.472-.656l23.543-22.043a16.65 16.65 0 00-1.114-.676 17.217 17.217 0 00-11.157-1.941 17.213 17.213 0 00-13.439 11.235c-.709 1.996-.903 3.656-.725 5.334.158 1.497.613 3.007 1.262 4.783a17.244 17.244 0 001.63 3.308z" fill="#323232"/><path fill-rule="evenodd" clip-rule="evenodd" d="M45.55 333.247a27.805 27.805 0 014.638-25.466l-.004.004a27.8 27.8 0 016.27-5.87l-.036.033a27.806 27.806 0 0133.01 1.239h.002a27.789 27.789 0 015.9 6.461l-30.883 28.915c1.664.927 3.405 1.694 5.2 2.149 1.655.419 3.356.574 5.086.345.125-.017.25-.035.376-.056 2.034-.334 3.854-.91 5.5-1.802 1.5-.813 2.855-1.888 4.098-3.281l.135-.154c1.394-1.6 2.533-3.299 3.311-5.139a14.308 14.308 0 001.147-5.263v-.007l6.338.159 4.246.106a27.817 27.817 0 01-6.695 17.413l-.135.155a27.831 27.831 0 01-6.712 5.611 27.781 27.781 0 01-9.751 3.566 27.792 27.792 0 01-18.852-3.618 27.773 27.773 0 01-2.42-1.637v.001a27.806 27.806 0 01-6.07-6.304l.005-.005a27.794 27.794 0 01-3.704-7.555zm12.473-.655l23.544-22.043a16.86 16.86 0 00-1.116-.677 17.213 17.213 0 00-11.157-1.941 17.221 17.221 0 00-13.44 11.235c-.708 1.996-.902 3.656-.724 5.334.158 1.497.613 3.007 1.262 4.783a17.335 17.335 0 001.63 3.309zm117.527-91.345a27.83 27.83 0 01.326-17.622 27.821 27.821 0 014.315-7.847l-.004.003a27.777 27.777 0 016.263-5.863l-.035.033a27.816 27.816 0 0129.378-1.222l.319.184a27.76 27.76 0 013.316 2.274h.001a27.763 27.763 0 015.901 6.461l-30.883 28.915c1.664.927 3.405 1.694 5.2 2.149 1.655.419 3.356.574 5.086.345.125-.017.25-.035.376-.056 2.034-.334 3.854-.91 5.5-1.802 1.5-.813 2.855-1.888 4.098-3.281l.135-.154c1.394-1.6 2.533-3.299 3.311-5.139a14.312 14.312 0 001.147-5.263v-.007l6.338.159 4.246.106a27.755 27.755 0 01-1.592 8.603 27.81 27.81 0 01-5.103 8.81l-.135.155a27.813 27.813 0 01-25.212 9.219 27.805 27.805 0 01-12.524-5.297 27.805 27.805 0 01-6.069-6.303l.005-.005a27.813 27.813 0 01-3.704-7.555zm12.472-.655l23.544-22.043a17.218 17.218 0 00-25.711 8.617c-.709 1.996-.903 3.656-.725 5.334.158 1.497.613 3.007 1.262 4.783a17.33 17.33 0 001.63 3.309z" fill="#E40421"/><path fill-rule="evenodd" clip-rule="evenodd" d="M6.55 172.247a27.804 27.804 0 014.638-25.466l-.004.004a27.8 27.8 0 016.27-5.87l-.036.033a27.806 27.806 0 0133.01 1.239h.002a27.789 27.789 0 015.9 6.461l-30.883 28.915c1.664.927 3.405 1.694 5.2 2.149 1.655.419 3.356.574 5.086.345.125-.017.25-.035.376-.056 2.034-.334 3.854-.91 5.5-1.802 1.5-.813 2.855-1.888 4.098-3.281l.135-.154c1.394-1.6 2.533-3.299 3.311-5.139a14.308 14.308 0 001.147-5.263v-.007l6.338.159 4.246.106a27.817 27.817 0 01-6.695 17.413l-.135.155a27.831 27.831 0 01-6.712 5.611 27.781 27.781 0 01-9.752 3.566 27.792 27.792 0 01-18.85-3.618 27.773 27.773 0 01-2.421-1.637v.001a27.806 27.806 0 01-6.07-6.304l.005-.005a27.793 27.793 0 01-3.704-7.555zm12.473-.655l23.543-22.043a16.86 16.86 0 00-1.115-.677 17.213 17.213 0 00-11.157-1.941 17.221 17.221 0 00-13.44 11.235c-.708 1.996-.902 3.656-.724 5.334.158 1.497.613 3.007 1.262 4.783a17.335 17.335 0 001.63 3.309z" fill="#323232"/><path fill-rule="evenodd" clip-rule="evenodd" d="M136.55 80.247a27.833 27.833 0 01.326-17.622 27.806 27.806 0 014.312-7.844l-.004.004a27.81 27.81 0 016.269-5.87l-.035.033a27.815 27.815 0 0129.694-1.035 27.788 27.788 0 013.317 2.274 27.775 27.775 0 015.901 6.461l-30.883 28.915c1.664.927 3.405 1.694 5.2 2.149 1.655.42 3.356.574 5.086.345.125-.017.25-.035.376-.056 2.034-.334 3.854-.91 5.5-1.802 1.5-.813 2.855-1.888 4.098-3.281l.135-.154c1.394-1.6 2.533-3.3 3.311-5.138a14.316 14.316 0 001.147-5.264v-.007l6.338.159 4.246.106a27.749 27.749 0 01-1.592 8.603 27.811 27.811 0 01-21.702 18.142 27.801 27.801 0 01-21.271-5.255h-.001a27.815 27.815 0 01-6.069-6.303l.005-.005a27.803 27.803 0 01-3.704-7.555zm12.473-.655l23.543-22.043a16.603 16.603 0 00-1.115-.677 17.224 17.224 0 00-21.353 3.742 17.206 17.206 0 00-3.243 5.552c-.709 1.996-.903 3.656-.725 5.334.158 1.497.613 3.007 1.262 4.783a17.276 17.276 0 001.631 3.31zm-8.179 110.168a27.812 27.812 0 01-4.64 25.47l.004-.004a27.8 27.8 0 01-6.263 5.864l.035-.033a27.804 27.804 0 01-11.163 4.468l-.375.059a27.776 27.776 0 01-8.374-.017 27.811 27.811 0 01-13.102-5.746 27.77 27.77 0 01-5.901-6.461l30.883-28.915c-1.664-.927-3.405-1.694-5.201-2.149-1.654-.419-3.356-.574-5.086-.345-.125.017-.25.035-.375.056-2.035.334-3.855.91-5.5 1.802-1.5.812-2.856 1.888-4.098 3.281a9.969 9.969 0 00-.136.154c-1.393 1.6-2.532 3.299-3.31 5.138a14.308 14.308 0 00-1.147 5.263v.008l-6.339-.159-4.246-.106a27.817 27.817 0 016.83-17.568 27.822 27.822 0 0116.464-9.177 27.793 27.793 0 0118.851 3.618 27.469 27.469 0 012.422 1.637v-.001a27.81 27.81 0 016.069 6.304l-.005.005a27.832 27.832 0 013.703 7.554zm-12.472.656l-23.543 22.043a16.669 16.669 0 001.115.677 17.204 17.204 0 0011.157 1.941 17.227 17.227 0 0010.06-5.529c.045-.051.091-.102.135-.154a17.213 17.213 0 003.244-5.552c.708-1.997.903-3.657.725-5.334-.158-1.497-.613-3.008-1.262-4.783a17.237 17.237 0 00-1.631-3.309zm139.472-89.656a27.812 27.812 0 01-4.64 25.47l.004-.004a27.8 27.8 0 01-6.263 5.864l.035-.033a27.804 27.804 0 01-11.163 4.468l-.375.059a27.776 27.776 0 01-8.374-.017 27.811 27.811 0 01-13.102-5.746 27.763 27.763 0 01-5.901-6.461l30.883-28.915c-1.664-.927-3.405-1.694-5.201-2.149-1.654-.42-3.356-.574-5.086-.345-.125.017-.25.035-.375.056-2.035.334-3.855.91-5.5 1.802-1.5.812-2.856 1.888-4.098 3.281a11 11 0 00-.136.154c-1.393 1.6-2.532 3.299-3.311 5.138a14.316 14.316 0 00-1.146 5.263v.008l-6.339-.159-4.246-.106c.036-1.415.179-2.818.425-4.197a27.812 27.812 0 0144.142-17.293 27.817 27.817 0 016.069 6.303l-.005.005a27.838 27.838 0 013.703 7.554zm-12.472.656l-23.543 22.043a16.669 16.669 0 001.115.677 17.204 17.204 0 0011.157 1.941 17.227 17.227 0 0010.06-5.529c.045-.051.091-.102.135-.154a17.213 17.213 0 003.244-5.552c.708-1.997.903-3.657.725-5.334-.158-1.497-.613-3.008-1.262-4.783a17.237 17.237 0 00-1.631-3.309z" fill="#E40421"/><path fill-rule="evenodd" clip-rule="evenodd" d="M162.844 268.76a27.812 27.812 0 01-4.64 25.47l.004-.004a27.8 27.8 0 01-6.263 5.864l.035-.033a27.804 27.804 0 01-33.014-1.236 27.763 27.763 0 01-5.901-6.461l30.883-28.915c-1.664-.927-3.405-1.694-5.201-2.149-1.654-.419-3.356-.574-5.086-.345-.125.017-.25.035-.375.056-2.035.334-3.855.91-5.5 1.802-1.5.812-2.856 1.888-4.098 3.281a9.969 9.969 0 00-.136.154c-1.393 1.6-2.532 3.299-3.311 5.138a14.316 14.316 0 00-1.146 5.263v.008l-6.339-.159-4.246-.106c.036-1.415.179-2.818.425-4.197a27.813 27.813 0 0131.618-22.59 27.774 27.774 0 0112.524 5.297v-.001a27.81 27.81 0 016.069 6.304l-.005.005a27.832 27.832 0 013.703 7.554zm-12.472.656l-23.543 22.043a16.669 16.669 0 001.115.677 17.204 17.204 0 0011.157 1.941 17.227 17.227 0 0010.06-5.529c.045-.051.091-.102.135-.154a17.213 17.213 0 003.244-5.552c.708-1.997.903-3.657.725-5.334-.158-1.497-.613-3.008-1.262-4.783a17.237 17.237 0 00-1.631-3.309z" fill="#323232"/><path fill-rule="evenodd" clip-rule="evenodd" d="M291.844 176.76a27.812 27.812 0 01-4.64 25.47l.004-.004a27.8 27.8 0 01-6.263 5.864l.035-.033a27.804 27.804 0 01-11.163 4.468l-.375.059a27.776 27.776 0 01-8.374-.017 27.811 27.811 0 01-13.102-5.746 27.763 27.763 0 01-5.901-6.461l30.883-28.915c-1.664-.927-3.405-1.694-5.201-2.149-1.654-.419-3.356-.574-5.086-.345-.125.017-.25.035-.375.056-2.035.334-3.855.91-5.5 1.802-1.5.812-2.856 1.888-4.098 3.281a9.969 9.969 0 00-.136.154c-1.393 1.6-2.532 3.299-3.311 5.138a14.316 14.316 0 00-1.146 5.263v.008l-6.339-.159-4.246-.106c.036-1.415.179-2.818.425-4.197a27.813 27.813 0 0131.618-22.59 27.774 27.774 0 0112.524 5.297v-.001a27.81 27.81 0 016.069 6.304l-.005.005a27.832 27.832 0 013.703 7.554zm-12.472.656l-23.543 22.043a16.669 16.669 0 001.115.677 17.204 17.204 0 0011.157 1.941 17.227 17.227 0 0010.06-5.529c.045-.051.091-.102.135-.154a17.213 17.213 0 003.244-5.552c.708-1.997.903-3.657.725-5.334-.158-1.497-.613-3.008-1.262-4.783a17.237 17.237 0 00-1.631-3.309zM123.844 107.76a27.812 27.812 0 01-4.637 25.466l.003-.003a27.765 27.765 0 01-6.269 5.869l.035-.032a27.804 27.804 0 01-11.159 4.465l-.375.059a27.802 27.802 0 01-21.476-5.764v.001a27.789 27.789 0 01-5.902-6.461l30.883-28.915c-1.664-.927-3.404-1.694-5.2-2.149-1.654-.42-3.356-.574-5.086-.345-.125.017-.25.035-.375.056-2.035.334-3.855.91-5.5 1.802-1.5.812-2.856 1.888-4.098 3.281l-.136.154c-1.393 1.6-2.532 3.299-3.31 5.138a14.308 14.308 0 00-1.147 5.263v.008l-6.339-.159-4.246-.106a27.817 27.817 0 016.83-17.568 27.798 27.798 0 0116.464-9.177 27.807 27.807 0 0121.272 5.254 27.813 27.813 0 016.07 6.304l-.006.005a27.796 27.796 0 013.704 7.554zm-12.472.655l-23.544 22.044a16.806 16.806 0 001.116.677 17.211 17.211 0 0011.157 1.941 17.227 17.227 0 0010.06-5.529c.045-.051.091-.102.135-.154a17.213 17.213 0 003.244-5.552c.708-1.997.903-3.657.725-5.334-.158-1.497-.613-3.008-1.262-4.783a17.237 17.237 0 00-1.631-3.31zM250.844 24.76a27.805 27.805 0 01-4.64 25.47l.004-.004a27.826 27.826 0 01-6.263 5.864l.035-.033a27.803 27.803 0 01-29.698 1.038 27.877 27.877 0 01-3.316-2.274 27.774 27.774 0 01-5.901-6.46l30.883-28.916c-1.664-.927-3.405-1.694-5.201-2.149-1.654-.42-3.356-.574-5.086-.345-.125.017-.25.035-.375.056-2.035.334-3.855.91-5.5 1.802-1.5.812-2.856 1.888-4.098 3.281a11 11 0 00-.136.154c-1.393 1.6-2.532 3.3-3.311 5.138a14.314 14.314 0 00-1.146 5.263v.008l-6.339-.159-4.246-.106c.036-1.415.179-2.818.425-4.197a27.812 27.812 0 0144.142-17.293 27.817 27.817 0 016.069 6.303l-.005.005a27.838 27.838 0 013.703 7.554zm-12.472.656l-23.543 22.043a17.078 17.078 0 001.115.677 17.21 17.21 0 0011.157 1.941 17.226 17.226 0 0010.06-5.53c.045-.05.091-.101.135-.153a17.208 17.208 0 003.244-5.552c.708-1.997.903-3.657.725-5.334-.158-1.497-.613-3.008-1.262-4.783a17.305 17.305 0 00-1.631-3.31z" fill="#E40421"/></svg>