<svg width="173" height="174" fill="none" xmlns="http://www.w3.org/2000/svg"><path fill-rule="evenodd" clip-rule="evenodd" d="M149.319 88.333l11.194.28-.001.006a73.304 73.304 0 01-29.344 56.843 73.324 73.324 0 01-32.066 13.662 73.31 73.31 0 01-56.08-13.854l-.001.001c-13.501-10.193-23.56-25.082-27.437-42.908-8.605-39.558 16.48-78.601 56.032-87.217l.022-.005.01-.002c19.197-4.174 38.273-.413 53.808 9.086a73.352 73.352 0 0123.051 22.282l-81.418 76.23c8.43 4.696 17.608 7.831 27.117 6.574.33-.044.66-.093.99-.147a57.365 57.365 0 002.952-.563c8.889-1.942 16.155-5.888 22.352-12.839l.357-.406c6.943-7.971 11.487-16.874 11.751-27.44l16.711.417z" fill="#E40421"/><circle cx="95.352" cy="50.895" r="17.801" fill="#000"/></svg>