<svg width="419" height="417" fill="none" xmlns="http://www.w3.org/2000/svg"><path fill-rule="evenodd" clip-rule="evenodd" d="M241.386 127.664l3.875-9.55 15.757-38.837a137.142 137.142 0 0169.2 62.076 137.151 137.151 0 01-47.531 180.979l.001.002c-26.75 16.909-59.451 24.694-93.215 19.722-74.917-11.032-126.712-80.691-115.717-155.605a14.993 14.993 0 01.014-.094c5.356-36.323 24.495-67.209 51.332-88.135a136.891 136.891 0 015.67-4.193c14.517-10.171 31.008-17.556 48.613-21.515l79.733 192.82c13.785-11.66 25.327-25.657 29.399-43.134.141-.606.273-1.215.396-1.829 3.817-19.058 2.19-36.03-6.767-53.138a77.37 77.37 0 00-.475-.894c-7.699-14.301-17.566-26.185-30.998-34.094a70.607 70.607 0 00-9.253-4.567l-.034-.014z" fill="#F1F1F1"/><circle cx="152.005" cy="168.463" r="33.302" transform="rotate(-69.35 152.005 168.463)" fill="#000"/></svg>