<svg width="810" height="767" fill="none" xmlns="http://www.w3.org/2000/svg"><path fill-rule="evenodd" clip-rule="evenodd" d="M456.867 712.147l.004.007c-22.713 18.507-48.385 33.522-76.197 44.226l-218.38-365.716c-25.216 28.608-44.84 61.552-46.802 99.671-2.076 40.316 6.585 74.594 30.696 106.972 24.11 32.378 53.644 56.563 92.863 66.128l-9.857 40.416-5.545 22.733L213.792 767l-.043-.011A279.97 279.97 0 0155.57 662.209a279.986 279.986 0 0142.172-379.65l-.002-.004c22.24-19.113 47.516-34.794 75.006-46.221l.038.064a279.991 279.991 0 01322.875 79.867l-.026-.045c18.372 22.122 33.402 47.119 44.316 74.216l-.248-.416a279.976 279.976 0 011.739 205.524 279.97 279.97 0 01-84.573 116.603zM234.788 340.234a173.361 173.361 0 0136.045-8.961c39.994-5.487 66.382-4.911 100.688 16.366A173.385 173.385 0 01401.27 619.04L234.788 340.234z" fill="#F1F1F1"/><rect x="539.086" y="369.844" width="275.288" height="274.252" rx="137.126" transform="rotate(-117.025 539.086 369.844)" fill="#F1F1F1"/><path d="M744.236 270.479L300.808 444.15l15.289 38.84 250.934-98.024c9.127 23.615 19.414 50.052 22.456 57.924 21.013 53.47 81.117 79.515 134.07 58.423 53.471-21.013 79.515-81.117 58.424-134.07-2.964-8.389-37.745-96.764-37.745-96.764zm-1.018 111.536c12.608 32.082-3.385 67.772-34.95 80.458-32.082 12.608-67.772-3.386-80.458-34.951-3.042-7.871-13.329-34.309-22.455-57.923l38.84-15.29 22.456 57.924 38.84-15.289-22.455-57.924 38.84-15.289c8.092 23.458 18.3 50.412 21.342 58.284z" fill="#E40521"/></svg>