<svg width="21" height="21" fill="none" xmlns="http://www.w3.org/2000/svg"><path d="M8.492 11.585H6.405c-.329 0-.446-.119-.446-.45V8.59c0-.327.124-.451.448-.452h2.085V6.29c0-.835.149-1.634.573-2.365.434-.749 1.066-1.261 1.875-1.558a4.636 4.636 0 011.607-.266l2.066.001c.296 0 .427.131.427.43.002.798.002 1.597 0 2.395 0 .301-.126.422-.428.426-.565.006-1.13.002-1.693.025-.57 0-.869.278-.869.867-.014.623-.006 1.247-.006 1.893h2.431c.344 0 .462.118.462.464l-.001 2.534c0 .34-.11.45-.457.45h-2.441v6.834c0 .364-.115.48-.475.48h-2.63c-.317 0-.441-.123-.441-.44v-6.874z" fill="#3D6AD6"/></svg>