<svg width="18" height="18" fill="none" xmlns="http://www.w3.org/2000/svg"><g clip-path="url(#clip0_279_3679)"><path d="M12.638 0H5.362A5.368 5.368 0 000 5.362v7.276A5.368 5.368 0 005.362 18h7.276A5.368 5.368 0 0018 12.638V5.362A5.368 5.368 0 0012.638 0zm3.551 12.638a3.552 3.552 0 01-3.551 3.551H5.362a3.552 3.552 0 01-3.551-3.551V5.362a3.551 3.551 0 013.551-3.551h7.276a3.552 3.552 0 013.551 3.551v7.276z" fill="url(#paint0_linear_279_3679)"/><path d="M9 4.344a4.66 4.66 0 00-4.655 4.655A4.66 4.66 0 009 13.655a4.66 4.66 0 004.656-4.656A4.66 4.66 0 009 4.344zm0 7.5a2.845 2.845 0 110-5.69 2.845 2.845 0 010 5.69z" fill="url(#paint1_linear_279_3679)"/><path d="M13.664 5.495a1.116 1.116 0 100-2.231 1.116 1.116 0 000 2.23z" fill="url(#paint2_linear_279_3679)"/></g><defs><linearGradient id="paint0_linear_279_3679" x1="9" y1="17.948" x2="9" y2=".14" gradientUnits="userSpaceOnUse"><stop stop-color="#E09B3D"/><stop offset=".3" stop-color="#C74C4D"/><stop offset=".6" stop-color="#C21975"/><stop offset="1" stop-color="#7024C4"/></linearGradient><linearGradient id="paint1_linear_279_3679" x1="9" y1="17.947" x2="9" y2=".139" gradientUnits="userSpaceOnUse"><stop stop-color="#E09B3D"/><stop offset=".3" stop-color="#C74C4D"/><stop offset=".6" stop-color="#C21975"/><stop offset="1" stop-color="#7024C4"/></linearGradient><linearGradient id="paint2_linear_279_3679" x1="13.664" y1="17.947" x2="13.664" y2=".14" gradientUnits="userSpaceOnUse"><stop stop-color="#E09B3D"/><stop offset=".3" stop-color="#C74C4D"/><stop offset=".6" stop-color="#C21975"/><stop offset="1" stop-color="#7024C4"/></linearGradient><clipPath id="clip0_279_3679"><path fill="#fff" d="M0 0h18v18H0z"/></clipPath></defs></svg>